<?xml version="1.0" encoding="UTF-8" standalone="no"?>
<!-- Created with Inkscape (http://www.inkscape.org/) -->

<svg
   xmlns:dc="http://purl.org/dc/elements/1.1/"
   xmlns:cc="http://creativecommons.org/ns#"
   xmlns:rdf="http://www.w3.org/1999/02/22-rdf-syntax-ns#"
   xmlns:svg="http://www.w3.org/2000/svg"
   xmlns="http://www.w3.org/2000/svg"
   xmlns:sodipodi="http://sodipodi.sourceforge.net/DTD/sodipodi-0.dtd"
   xmlns:inkscape="http://www.inkscape.org/namespaces/inkscape"
   id="svg2"
   version="1.1"
   inkscape:version="0.91 r13725"
   xml:space="preserve"
   width="619.9859"
   height="587.00586"
   viewBox="0 0 619.9859 587.00583"
   sodipodi:docname="amr-deaths.svg"><metadata
     id="metadata8"><rdf:RDF><cc:Work
         rdf:about=""><dc:format>image/svg+xml</dc:format><dc:type
           rdf:resource="http://purl.org/dc/dcmitype/StillImage" /><dc:title></dc:title></cc:Work></rdf:RDF></metadata><defs
     id="defs6"><clipPath
       clipPathUnits="userSpaceOnUse"
       id="clipPath22"><path
         d="m 0,841.89 595.276,0 L 595.276,0 0,0 0,841.89 Z"
         id="path24"
         inkscape:connector-curvature="0" /></clipPath><clipPath
       clipPathUnits="userSpaceOnUse"
       id="clipPath34"><path
         d="m 0,0 595.276,0 0,841.89 L 0,841.89 0,0 Z"
         id="path36"
         inkscape:connector-curvature="0" /></clipPath><clipPath
       clipPathUnits="userSpaceOnUse"
       id="clipPath42"><path
         d="m -9,848.323 621.78,0 0,-866.8982 -621.78,0 0,866.8982 z"
         id="path44"
         inkscape:connector-curvature="0" /></clipPath><clipPath
       clipPathUnits="userSpaceOnUse"
       id="clipPath46"><path
         d="m 4.974,11.292 583.375,0 0,825.052 -583.375,0 0,-825.052 z"
         id="path48"
         inkscape:connector-curvature="0" /></clipPath><clipPath
       clipPathUnits="userSpaceOnUse"
       id="clipPath50"><path
         d="m 3.99455,837.325 585.33445,0 0,-827.0125 -585.33445,0 0,827.0125 z"
         id="path52"
         inkscape:connector-curvature="0" /></clipPath><clipPath
       clipPathUnits="userSpaceOnUse"
       id="clipPath54"><path
         d="m 4.974,11.292 583.375,0 0,825.052 -583.375,0 0,-825.052 z"
         id="path56"
         inkscape:connector-curvature="0" /></clipPath><clipPath
       clipPathUnits="userSpaceOnUse"
       id="clipPath58"><path
         d="m 442.453,79.3362 33.896,0 0,-32.3516 -33.896,0 0,32.3516 z"
         id="path60"
         inkscape:connector-curvature="0" /></clipPath><clipPath
       clipPathUnits="userSpaceOnUse"
       id="clipPath62"><path
         d="m 442.453,46.985 33.895,0 0,32.352 -33.895,0 0,-32.352 z"
         id="path64"
         inkscape:connector-curvature="0" /></clipPath><clipPath
       clipPathUnits="userSpaceOnUse"
       id="clipPath66"><path
         d="m 430.289,68.5522 11.218,0 0,-12.3239 -11.218,0 0,12.3239 z"
         id="path68"
         inkscape:connector-curvature="0" /></clipPath><clipPath
       clipPathUnits="userSpaceOnUse"
       id="clipPath70"><path
         d="m 430.289,56.228 11.218,0 0,12.324 -11.218,0 0,-12.324 z"
         id="path72"
         inkscape:connector-curvature="0" /></clipPath><clipPath
       clipPathUnits="userSpaceOnUse"
       id="clipPath74"><path
         d="m 4.974,11.292 583.375,0 0,825.052 -583.375,0 0,-825.052 z"
         id="path76"
         inkscape:connector-curvature="0" /></clipPath><clipPath
       clipPathUnits="userSpaceOnUse"
       id="clipPath78"><path
         d="m 93.5114,611.962 408.9586,0 0,-408.959 -408.9586,0 0,408.959 z"
         id="path80"
         inkscape:connector-curvature="0" /></clipPath><clipPath
       clipPathUnits="userSpaceOnUse"
       id="clipPath82"><path
         d="m 93.511,203.003 408.958,0 0,408.959 -408.958,0 0,-408.959 z"
         id="path84"
         inkscape:connector-curvature="0" /></clipPath><clipPath
       clipPathUnits="userSpaceOnUse"
       id="clipPath86"><path
         d="m 107.631,597.842 380.72,0 0,-380.719 -380.72,0 0,380.719 z"
         id="path88"
         inkscape:connector-curvature="0" /></clipPath><clipPath
       clipPathUnits="userSpaceOnUse"
       id="clipPath90"><path
         d="m 107.631,217.123 380.72,0 0,380.719 -380.72,0 0,-380.719 z"
         id="path92"
         inkscape:connector-curvature="0" /></clipPath><clipPath
       clipPathUnits="userSpaceOnUse"
       id="clipPath94"><path
         d="m 121.75,583.723 352.481,0 0,-352.48 -352.481,0 0,352.48 z"
         id="path96"
         inkscape:connector-curvature="0" /></clipPath><clipPath
       clipPathUnits="userSpaceOnUse"
       id="clipPath98"><path
         d="m 121.75,231.243 352.481,0 0,352.48 -352.481,0 0,-352.48 z"
         id="path100"
         inkscape:connector-curvature="0" /></clipPath><clipPath
       clipPathUnits="userSpaceOnUse"
       id="clipPath102"><path
         d="m 135.87,569.603 324.241,0 0,-324.241 -324.241,0 0,324.241 z"
         id="path104"
         inkscape:connector-curvature="0" /></clipPath><clipPath
       clipPathUnits="userSpaceOnUse"
       id="clipPath106"><path
         d="m 135.87,245.362 324.241,0 0,324.242 -324.241,0 0,-324.242 z"
         id="path108"
         inkscape:connector-curvature="0" /></clipPath><clipPath
       clipPathUnits="userSpaceOnUse"
       id="clipPath110"><path
         d="m 149.989,555.484 296.003,0 0,-296.003 -296.003,0 0,296.003 z"
         id="path112"
         inkscape:connector-curvature="0" /></clipPath><clipPath
       clipPathUnits="userSpaceOnUse"
       id="clipPath114"><path
         d="m 149.989,259.481 296.003,0 0,296.002 -296.003,0 0,-296.002 z"
         id="path116"
         inkscape:connector-curvature="0" /></clipPath><clipPath
       clipPathUnits="userSpaceOnUse"
       id="clipPath118"><path
         d="m 164.109,541.365 267.763,0 0,-267.764 -267.763,0 0,267.764 z"
         id="path120"
         inkscape:connector-curvature="0" /></clipPath><clipPath
       clipPathUnits="userSpaceOnUse"
       id="clipPath122"><path
         d="m 164.109,273.601 267.763,0 0,267.763 -267.763,0 0,-267.763 z"
         id="path124"
         inkscape:connector-curvature="0" /></clipPath><clipPath
       clipPathUnits="userSpaceOnUse"
       id="clipPath126"><path
         d="m 178.229,527.245 239.524,0 0,-239.525 -239.524,0 0,239.525 z"
         id="path128"
         inkscape:connector-curvature="0" /></clipPath><clipPath
       clipPathUnits="userSpaceOnUse"
       id="clipPath130"><path
         d="m 178.229,287.72 239.524,0 0,239.525 -239.524,0 0,-239.525 z"
         id="path132"
         inkscape:connector-curvature="0" /></clipPath><clipPath
       clipPathUnits="userSpaceOnUse"
       id="clipPath134"><path
         d="m 192.348,513.126 211.286,0 0,-211.286 -211.286,0 0,211.286 z"
         id="path136"
         inkscape:connector-curvature="0" /></clipPath><clipPath
       clipPathUnits="userSpaceOnUse"
       id="clipPath138"><path
         d="m 192.348,301.84 211.286,0 0,211.286 -211.286,0 0,-211.286 z"
         id="path140"
         inkscape:connector-curvature="0" /></clipPath><clipPath
       clipPathUnits="userSpaceOnUse"
       id="clipPath142"><path
         d="m 206.467,499.006 183.047,0 0,-183.046 -183.047,0 0,183.046 z"
         id="path144"
         inkscape:connector-curvature="0" /></clipPath><clipPath
       clipPathUnits="userSpaceOnUse"
       id="clipPath146"><path
         d="m 206.467,315.96 183.046,0 0,183.046 -183.046,0 0,-183.046 z"
         id="path148"
         inkscape:connector-curvature="0" /></clipPath><clipPath
       clipPathUnits="userSpaceOnUse"
       id="clipPath150"><path
         d="m 220.586,484.886 154.808,0 0,-154.807 -154.808,0 0,154.807 z"
         id="path152"
         inkscape:connector-curvature="0" /></clipPath><clipPath
       clipPathUnits="userSpaceOnUse"
       id="clipPath154"><path
         d="m 220.586,330.079 154.808,0 0,154.808 -154.808,0 0,-154.808 z"
         id="path156"
         inkscape:connector-curvature="0" /></clipPath><clipPath
       clipPathUnits="userSpaceOnUse"
       id="clipPath158"><path
         d="m 234.706,470.767 126.569,0 0,-126.568 -126.569,0 0,126.568 z"
         id="path160"
         inkscape:connector-curvature="0" /></clipPath><clipPath
       clipPathUnits="userSpaceOnUse"
       id="clipPath162"><path
         d="m 234.706,344.198 126.569,0 0,126.569 -126.569,0 0,-126.569 z"
         id="path164"
         inkscape:connector-curvature="0" /></clipPath><clipPath
       clipPathUnits="userSpaceOnUse"
       id="clipPath166"><path
         d="m 369.781,625.162 170.247,0 0,-41.739 -170.247,0 0,41.739 z"
         id="path168"
         inkscape:connector-curvature="0" /></clipPath><clipPath
       clipPathUnits="userSpaceOnUse"
       id="clipPath170"><path
         d="m 369.781,583.423 170.248,0 0,41.738 -170.248,0 0,-41.738 z"
         id="path172"
         inkscape:connector-curvature="0" /></clipPath><clipPath
       clipPathUnits="userSpaceOnUse"
       id="clipPath174"><path
         d="m 4.974,11.292 583.375,0 0,825.052 -583.375,0 0,-825.052 z"
         id="path176"
         inkscape:connector-curvature="0" /></clipPath></defs><sodipodi:namedview
     pagecolor="#ffffff"
     bordercolor="#666666"
     borderopacity="1"
     objecttolerance="10"
     gridtolerance="10"
     guidetolerance="10"
     inkscape:pageopacity="0"
     inkscape:pageshadow="2"
     inkscape:window-width="1366"
     inkscape:window-height="703"
     id="namedview4"
     showgrid="false"
     fit-margin-top="0"
     fit-margin-left="0"
     fit-margin-right="0"
     fit-margin-bottom="0"
     inkscape:zoom="0.44851463"
     inkscape:cx="-405.80283"
     inkscape:cy="322.15656"
     inkscape:window-x="0"
     inkscape:window-y="0"
     inkscape:window-maximized="1"
     inkscape:current-layer="g10" /><g
     id="g10"
     inkscape:groupmode="layer"
     inkscape:label="AMR-review"
     transform="matrix(1.25,0,0,-1.25,-949.62309,774.37085)"><path
       inkscape:connector-curvature="0"
       id="path380"
       style="fill:#8bd5ee;fill-opacity:1;fill-rule:nonzero;stroke:none"
       d="m 1005.2605,446.86355 0.045,1.543 c -11.698,-1.477 -22.424,-6.06 -31.328,-12.908 l 0.842,-1.179 c 8.651,6.654 19.073,11.107 30.441,12.544" /><path
       inkscape:connector-curvature="0"
       id="path384"
       style="fill:#8bd5ee;fill-opacity:1;fill-rule:nonzero;stroke:none"
       d="m 1075.7803,376.09015 c -1.477,-11.359 -5.968,-21.766 -12.656,-30.395 l 1.369,-1.273 c 6.907,8.913 11.548,19.663 13.073,31.398 l -1.786,0.27 z" /><path
       inkscape:connector-curvature="0"
       id="path388"
       style="fill:#8bd5ee;fill-opacity:1;fill-rule:nonzero;stroke:none"
       d="m 1075.8085,392.27505 114.823,14.644 c -4.069,32.224 -16.721,61.769 -35.583,86.29 l -91.783,-70.493 c 6.654,-8.651 11.107,-19.073 12.543,-30.441" /><path
       inkscape:connector-curvature="0"
       id="path392"
       style="fill:#8bd5ee;fill-opacity:1;fill-rule:nonzero;stroke:none"
       d="m 1051.6617,334.26985 c -8.651,-6.654 -19.073,-11.107 -30.442,-12.543 l 2.715,-21.281 c 15.234,1.924 29.201,7.892 40.794,16.81 l -13.067,17.014 z" /><path
       inkscape:connector-curvature="0"
       id="path396"
       style="fill:#8bd5ee;fill-opacity:1;fill-rule:nonzero;stroke:none"
       d="m 974.6408,334.41055 -11.85,-15.315 c 11.278,-8.74 24.878,-14.611 39.726,-16.541 l 2.519,19.2 c -11.36,1.477 -21.766,5.968 -30.395,12.656" /><path
       inkscape:connector-curvature="0"
       id="path400"
       style="fill:#8bd5ee;fill-opacity:1;fill-rule:nonzero;stroke:none"
       d="m 963.3555,422.89475 -13.485,10.434 c -8.494,-10.961 -14.2,-24.18 -16.077,-38.611 l 16.907,-2.218 c 1.476,11.359 5.968,21.766 12.655,30.395" /><path
       inkscape:connector-curvature="0"
       id="path404"
       style="fill:#8bd5ee;fill-opacity:1;fill-rule:nonzero;stroke:none"
       d="m 950.6719,376.31505 -2.551,-0.325 c 1.496,-11.832 6.13,-22.679 13.056,-31.683 l 2.038,1.567 c -6.654,8.651 -11.107,19.073 -12.543,30.441" /><path
       inkscape:connector-curvature="0"
       id="path408"
       style="fill:#825aa4;fill-opacity:1;fill-rule:nonzero;stroke:none"
       d="m 1138.2534,545.85755 c -27.944,21.654 -61.652,36.222 -98.437,41.001 l -16.985,-129.462 c 13.278,-1.725 25.441,-6.976 35.527,-14.792 l 79.895,103.253 z" /><path
       inkscape:connector-curvature="0"
       id="path412"
       style="fill:#8bd5ee;fill-opacity:1;fill-rule:nonzero;stroke:none"
       d="m 1051.8402,434.18005 6.518,8.424 c -10.086,7.817 -22.249,13.066 -35.527,14.792 l -1.386,-10.561 c 11.359,-1.477 21.765,-5.968 30.395,-12.655" /><path
       d="m 1217.5236,384.29505 c 0,-112.823 -91.46,-204.283 -204.283,-204.283 -112.822,0 -204.283,91.46 -204.283,204.283 0,112.823 91.461,204.283 204.283,204.283 112.823,0 204.283,-91.46 204.283,-204.283 z"
       style="fill:none;stroke:#999999;stroke-width:0.39199999;stroke-linecap:butt;stroke-linejoin:miter;stroke-miterlimit:10;stroke-dasharray:none;stroke-opacity:1"
       id="path428"
       inkscape:connector-curvature="0" /><path
       d="m 1203.404,384.29505 c 0,-105.025 -85.139,-190.164 -190.164,-190.164 -105.024,0 -190.163,85.139 -190.163,190.164 0,105.025 85.139,190.164 190.163,190.164 105.025,0 190.164,-85.139 190.164,-190.164 z"
       style="fill:none;stroke:#9c9c9c;stroke-width:0.39199999;stroke-linecap:butt;stroke-linejoin:miter;stroke-miterlimit:10;stroke-dasharray:none;stroke-opacity:1"
       id="path444"
       inkscape:connector-curvature="0" /><path
       d="m 1189.2846,384.29505 c 0,-97.227 -78.818,-176.044 -176.044,-176.044 -97.227,0 -176.045,78.817 -176.045,176.044 0,97.227 78.818,176.044 176.045,176.044 97.226,0 176.044,-78.817 176.044,-176.044 z"
       style="fill:none;stroke:#9e9e9e;stroke-width:0.39199999;stroke-linecap:butt;stroke-linejoin:miter;stroke-miterlimit:10;stroke-dasharray:none;stroke-opacity:1"
       id="path460"
       inkscape:connector-curvature="0" /><path
       d="m 1175.1652,384.29505 c 0,-89.429 -72.497,-161.924 -161.924,-161.924 -89.429,0 -161.926,72.495 -161.926,161.924 0,89.429 72.497,161.924 161.926,161.924 89.427,0 161.924,-72.495 161.924,-161.924 z"
       style="fill:none;stroke:#a1a1a1;stroke-width:0.39199999;stroke-linecap:butt;stroke-linejoin:miter;stroke-miterlimit:10;stroke-dasharray:none;stroke-opacity:1"
       id="path476"
       inkscape:connector-curvature="0" /><path
       d="m 1161.0456,384.29505 c 0,-81.631 -66.175,-147.806 -147.806,-147.806 -81.63,0 -147.804,66.175 -147.804,147.806 0,81.631 66.174,147.806 147.804,147.806 81.631,0 147.806,-66.175 147.806,-147.806 z"
       style="fill:none;stroke:#a4a4a4;stroke-width:0.39199999;stroke-linecap:butt;stroke-linejoin:miter;stroke-miterlimit:10;stroke-dasharray:none;stroke-opacity:1"
       id="path492"
       inkscape:connector-curvature="0" /><path
       d="m 1146.9262,384.29505 c 0,-73.832 -59.854,-133.686 -133.686,-133.686 -73.832,0 -133.685,59.854 -133.685,133.686 0,73.832 59.853,133.686 133.685,133.686 73.832,0 133.686,-59.854 133.686,-133.686 z"
       style="fill:none;stroke:#a7a7a7;stroke-width:0.39199999;stroke-linecap:butt;stroke-linejoin:miter;stroke-miterlimit:10;stroke-dasharray:none;stroke-opacity:1"
       id="path508"
       inkscape:connector-curvature="0" /><path
       d="m 1132.8066,384.29505 c 0,-66.034 -53.532,-119.566 -119.566,-119.566 -66.035,0 -119.567,53.532 -119.567,119.566 0,66.034 53.532,119.566 119.567,119.566 66.034,0 119.566,-53.532 119.566,-119.566 z"
       style="fill:none;stroke:#a9a9a9;stroke-width:0.39199999;stroke-linecap:butt;stroke-linejoin:miter;stroke-miterlimit:10;stroke-dasharray:none;stroke-opacity:1"
       id="path524"
       inkscape:connector-curvature="0" /><path
       d="m 1118.6871,384.29505 c 0,-58.237 -47.211,-105.447 -105.447,-105.447 -58.237,0 -105.447,47.21 -105.447,105.447 0,58.236 47.21,105.447 105.447,105.447 58.236,0 105.447,-47.211 105.447,-105.447 z"
       style="fill:none;stroke:#acacac;stroke-width:0.39199999;stroke-linecap:butt;stroke-linejoin:miter;stroke-miterlimit:10;stroke-dasharray:none;stroke-opacity:1"
       id="path540"
       inkscape:connector-curvature="0" /><path
       d="m 1104.5677,384.29505 c 0,-50.439 -40.889,-91.327 -91.327,-91.327 -50.439,0 -91.327,40.888 -91.327,91.327 0,50.439 40.888,91.327 91.327,91.327 50.438,0 91.327,-40.888 91.327,-91.327 z"
       style="fill:none;stroke:#afafaf;stroke-width:0.39199999;stroke-linecap:butt;stroke-linejoin:miter;stroke-miterlimit:10;stroke-dasharray:none;stroke-opacity:1"
       id="path556"
       inkscape:connector-curvature="0" /><path
       d="m 1090.4482,384.29505 c 0,-42.641 -34.568,-77.208 -77.208,-77.208 -42.64,0 -77.208,34.567 -77.208,77.208 0,42.641 34.568,77.208 77.208,77.208 42.64,0 77.208,-34.567 77.208,-77.208 z"
       style="fill:none;stroke:#b1b1b1;stroke-width:0.39199999;stroke-linecap:butt;stroke-linejoin:miter;stroke-miterlimit:10;stroke-dasharray:none;stroke-opacity:1"
       id="path572"
       inkscape:connector-curvature="0" /><path
       d="m 1076.3287,384.29505 c 0,-34.843 -28.246,-63.088 -63.089,-63.088 -34.842,0 -63.088,28.245 -63.088,63.088 0,34.843 28.246,63.088 63.088,63.088 34.843,0 63.089,-28.245 63.089,-63.088 z"
       style="fill:none;stroke:#b4b4b4;stroke-width:0.39199999;stroke-linecap:butt;stroke-linejoin:miter;stroke-miterlimit:10;stroke-dasharray:none;stroke-opacity:1"
       id="path588"
       inkscape:connector-curvature="0" /><path
       d="m 1255.2782,601.72915 -135.108,0 c -9.518,0 -18.176,-5.513 -22.201,-14.139 l -12.716,-27.251"
       style="fill:none;stroke:#825aa4;stroke-width:0.49000001;stroke-linecap:butt;stroke-linejoin:miter;stroke-miterlimit:10;stroke-dasharray:none;stroke-opacity:1"
       id="path604"
       inkscape:connector-curvature="0" /><path
       inkscape:connector-curvature="0"
       id="path608"
       style="fill:none;stroke:#999999;stroke-width:0.49000001;stroke-linecap:butt;stroke-linejoin:miter;stroke-miterlimit:10;stroke-dasharray:none;stroke-opacity:1"
       d="m 1255.2782,452.11585 -76.551,0" /><path
       inkscape:connector-curvature="0"
       id="path612"
       style="fill:none;stroke:#999999;stroke-width:0.49000001;stroke-linecap:butt;stroke-linejoin:miter;stroke-miterlimit:10;stroke-dasharray:none;stroke-opacity:1"
       d="m 1255.2782,317.35785 -73.811,0 c -3.241,0 -6.449,0.643 -9.439,1.891 l -98.494,41.008" /><path
       inkscape:connector-curvature="0"
       id="path616"
       style="fill:none;stroke:#999999;stroke-width:0.49000001;stroke-linecap:butt;stroke-linejoin:miter;stroke-miterlimit:10;stroke-dasharray:none;stroke-opacity:1"
       d="m 1203.404,222.37035 -105.099,0 c -9.635,0 -18.376,5.648 -22.336,14.431 l -28.806,70.065" /><path
       inkscape:connector-curvature="0"
       id="path620"
       style="fill:none;stroke:#999999;stroke-width:0.49000001;stroke-linecap:butt;stroke-linejoin:miter;stroke-miterlimit:10;stroke-dasharray:none;stroke-opacity:1"
       d="m 823.0766,222.37035 108.108,0 c 10.192,0 19.319,6.31 22.92,15.845 l 26.563,70.341" /><path
       inkscape:connector-curvature="0"
       id="path624"
       style="fill:none;stroke:#999999;stroke-width:0.49000001;stroke-linecap:butt;stroke-linejoin:miter;stroke-miterlimit:10;stroke-dasharray:none;stroke-opacity:1"
       d="m 768.5449,316.65535 76.809,0 c 3.318,0 6.601,0.673 9.65,1.98 l 97.145,41.621" /><path
       inkscape:connector-curvature="0"
       id="path628"
       style="fill:none;stroke:#999999;stroke-width:0.49000001;stroke-linecap:butt;stroke-linejoin:miter;stroke-miterlimit:10;stroke-dasharray:none;stroke-opacity:1"
       d="m 768.5449,452.11585 77.365,0 c 3.189,0 6.348,-0.622 9.298,-1.834 l 84.307,-34.585" /><path
       inkscape:connector-curvature="0"
       id="path632"
       style="fill:none;stroke:#999999;stroke-width:0.49000001;stroke-linecap:butt;stroke-linejoin:miter;stroke-miterlimit:10;stroke-dasharray:none;stroke-opacity:1"
       d="m 837.1962,546.21985 90.985,0 c 9.66,0 18.418,-5.676 22.364,-14.494 l 38.935,-87.399" /><text
       transform="scale(1,-1)"
       style="font-variant:normal;font-weight:bold;font-stretch:normal;font-size:15.68000031px;font-family:MerriweatherSans;-inkscape-font-specification:MerriweatherSans-Bold;writing-mode:lr-tb;fill:#825aa4;fill-opacity:1;fill-rule:nonzero;stroke:none"
       id="text638"
       x="1152.5144"
       y="-607.58356"><tspan
         x="1152.5144 1163.8433 1178.2844 1189.2761 1194.4036 1199.2831 1209.632 1214.7593 1224.7004 1235.0272 1244.4901"
         y="-607.58356"
         sodipodi:role="line"
         id="tspan640">AMR in 2050</tspan></text>
<text
       transform="scale(1,-1)"
       style="font-variant:normal;font-weight:normal;font-stretch:normal;font-size:23.52000046px;font-family:MerriweatherSans;-inkscape-font-specification:MerriweatherSans-Regular;writing-mode:lr-tb;fill:#825aa4;fill-opacity:1;fill-rule:nonzero;stroke:none"
       id="text642"
       x="1146.1521"
       y="-576.22357"><tspan
         x="1146.1521 1155.5577 1171.4738 1179.0001 1201.1372 1207.4875 1213.8802 1220.3177 1226.9081 1240.5919"
         y="-576.22357"
         sodipodi:role="line"
         id="tspan644">10 million</tspan></text>
<text
       transform="scale(1,-1)"
       style="font-variant:normal;font-weight:bold;font-stretch:normal;font-size:10.77999973px;font-family:MerriweatherSans;-inkscape-font-specification:MerriweatherSans-Bold;writing-mode:lr-tb;fill:#666666;fill-opacity:1;fill-rule:nonzero;stroke:none"
       id="text646"
       x="1218.0538"
       y="-457.05774"><tspan
         x="1218.0538 1224.994 1231.4253 1238.5724 1244.0594 1250.4025"
         y="-457.05774"
         sodipodi:role="line"
         id="tspan648">Cancer</tspan></text>
<text
       transform="scale(1,-1)"
       style="font-variant:normal;font-weight:normal;font-stretch:normal;font-size:11.76000023px;font-family:MerriweatherSans;-inkscape-font-specification:MerriweatherSans-Regular;writing-mode:lr-tb;fill:#666666;fill-opacity:1;fill-rule:nonzero;stroke:none"
       id="text650"
       x="1195.1003"
       y="-437.45773"><tspan
         x="1195.1003 1202.5045 1205.7738 1213.0614 1216.8247 1227.946 1231.1801 1234.4293 1237.6986 1241.0443 1247.9369"
         y="-437.45773"
         sodipodi:role="line"
         id="tspan652">8.2 million</tspan></text>
<text
       transform="scale(1,-1)"
       style="font-variant:normal;font-weight:bold;font-stretch:normal;font-size:10.77999973px;font-family:MerriweatherSans;-inkscape-font-specification:MerriweatherSans-Bold;writing-mode:lr-tb;fill:#666666;fill-opacity:1;fill-rule:nonzero;stroke:none"
       id="text654"
       x="1213.3309"
       y="-322.31836"><tspan
         x="1213.3309 1220.1547 1227.2662 1234.1115 1237.6614 1244.0043 1248.8434"
         y="-322.31836"
         sodipodi:role="line"
         id="tspan656">Cholera</tspan></text>
<text
       transform="scale(1,-1)"
       style="font-variant:normal;font-weight:normal;font-stretch:normal;font-size:11.76000023px;font-family:MerriweatherSans;-inkscape-font-specification:MerriweatherSans-Regular;writing-mode:lr-tb;fill:#666666;fill-opacity:1;fill-rule:nonzero;stroke:none"
       id="text658"
       x="1199.3936"
       y="-302.71835"><tspan
         x="1199.3936 1204.1528 1211.9027 1219.355 1222.4608 1230.2107 1237.9604 1245.5786"
         y="-302.71835"
         sodipodi:role="line"
         id="tspan660">100,000–</tspan><tspan
         x="1209.9894 1214.4735 1221.2778 1228.7312 1231.8359 1239.5798 1247.3297"
         y="-288.99442"
         sodipodi:role="line"
         id="tspan662">120,000</tspan></text>
<text
       transform="scale(1,-1)"
       style="font-variant:normal;font-weight:bold;font-stretch:normal;font-size:10.77999973px;font-family:MerriweatherSans;-inkscape-font-specification:MerriweatherSans-Bold;writing-mode:lr-tb;fill:#666666;fill-opacity:1;fill-rule:nonzero;stroke:none"
       id="text664"
       x="1155.3835"
       y="-227.67274"><tspan
         x="1155.3835 1163.5657 1166.9969 1173.4325 1180.5581 1186.8073 1191.5624 1197.8859"
         y="-227.67274"
         sodipodi:role="line"
         id="tspan666">Diabetes</tspan></text>
<text
       transform="scale(1,-1)"
       style="font-variant:normal;font-weight:normal;font-stretch:normal;font-size:11.76000023px;font-family:MerriweatherSans;-inkscape-font-specification:MerriweatherSans-Regular;writing-mode:lr-tb;fill:#666666;fill-opacity:1;fill-rule:nonzero;stroke:none"
       id="text668"
       x="1146.7742"
       y="-208.07265"><tspan
         x="1146.7742 1151.6393 1154.1406 1161.1873 1164.9504 1176.0719 1179.3059 1182.5564 1185.8257 1189.1702 1196.0638"
         y="-208.07265"
         sodipodi:role="line"
         id="tspan670">1.5 million</tspan></text>
<text
       transform="scale(1,-1)"
       style="font-variant:normal;font-weight:bold;font-stretch:normal;font-size:10.77999973px;font-family:MerriweatherSans;-inkscape-font-specification:MerriweatherSans-Bold;writing-mode:lr-tb;fill:#666666;fill-opacity:1;fill-rule:nonzero;stroke:none"
       id="text672"
       x="823.07648"
       y="-227.67274"><tspan
         x="823.07648 830.08673 833.53094 839.0611 845.32428 851.77716 857.30731"
         y="-227.67274"
         sodipodi:role="line"
         id="tspan674">disease</tspan></text>
<text
       transform="scale(1,-1)"
       style="font-variant:normal;font-weight:normal;font-stretch:normal;font-size:11.76000023px;font-family:MerriweatherSans;-inkscape-font-specification:MerriweatherSans-Regular;writing-mode:lr-tb;fill:#666666;fill-opacity:1;fill-rule:nonzero;stroke:none"
       id="text676"
       x="823.07648"
       y="-208.07265"><tspan
         x="823.07648 827.94159 831.4696 839.15833 842.92151 854.04291 857.27692 860.5274 863.79669 867.1424 874.03607"
         y="-208.07265"
         sodipodi:role="line"
         id="tspan678">1.4 million</tspan></text>
<text
       transform="scale(1,-1)"
       style="font-variant:normal;font-weight:bold;font-stretch:normal;font-size:10.77999973px;font-family:MerriweatherSans;-inkscape-font-specification:MerriweatherSans-Bold;writing-mode:lr-tb;fill:#666666;fill-opacity:1;fill-rule:nonzero;stroke:none"
       id="text680"
       x="768.5448"
       y="-322.31735"><tspan
         x="768.5448 778.59717 784.86139 791.30786 796.83801 800.38458 806.70923"
         y="-322.31735"
         sodipodi:role="line"
         id="tspan682">Measles</tspan></text>
<text
       transform="scale(1,-1)"
       style="font-variant:normal;font-weight:normal;font-stretch:normal;font-size:11.76000023px;font-family:MerriweatherSans;-inkscape-font-specification:MerriweatherSans-Regular;writing-mode:lr-tb;fill:#666666;fill-opacity:1;fill-rule:nonzero;stroke:none"
       id="text684"
       x="768.5448"
       y="-302.71735"><tspan
         x="768.5448 773.15234 779.49927 786.9527 790.05737 797.80719 805.55115"
         y="-302.71735"
         sodipodi:role="line"
         id="tspan686">130,000</tspan></text>
<text
       transform="scale(1,-1)"
       style="font-variant:normal;font-weight:bold;font-stretch:normal;font-size:10.77999973px;font-family:MerriweatherSans;-inkscape-font-specification:MerriweatherSans-Bold;writing-mode:lr-tb;fill:#666666;fill-opacity:1;fill-rule:nonzero;stroke:none"
       id="text688"
       x="837.19562"
       y="-551.65369"><tspan
         x="837.19562 843.00818 849.26056 854.10187 860.5332 867.61566 874.5882"
         y="-551.65369"
         sodipodi:role="line"
         id="tspan690">Tetanus</tspan></text>
<text
       transform="scale(1,-1)"
       style="font-variant:normal;font-weight:normal;font-stretch:normal;font-size:11.76000023px;font-family:MerriweatherSans;-inkscape-font-specification:MerriweatherSans-Regular;writing-mode:lr-tb;fill:#666666;fill-opacity:1;fill-rule:nonzero;stroke:none"
       id="text692"
       x="837.19562"
       y="-532.05365"><tspan
         x="837.19562 844.70319 852.15552 855.26129 863.00525 870.74921"
         y="-532.05365"
         sodipodi:role="line"
         id="tspan694">60,000</tspan></text>
<text
       transform="scale(1,-1)"
       style="font-variant:normal;font-weight:bold;font-stretch:normal;font-size:10.77999973px;font-family:MerriweatherSans;-inkscape-font-specification:MerriweatherSans-Bold;writing-mode:lr-tb;fill:#666666;fill-opacity:1;fill-rule:nonzero;stroke:none"
       id="text696"
       x="768.5448"
       y="-457.05774"><tspan
         x="768.5448 775.03223 780.52136 786.03748 789.48712 796.56311 802.86938 809.88715 814.78992"
         y="-457.05774"
         sodipodi:role="line"
         id="tspan698">accidents</tspan></text>
<text
       transform="scale(1,-1)"
       style="font-variant:normal;font-weight:normal;font-stretch:normal;font-size:11.76000023px;font-family:MerriweatherSans;-inkscape-font-specification:MerriweatherSans-Regular;writing-mode:lr-tb;fill:#666666;fill-opacity:1;fill-rule:nonzero;stroke:none"
       id="text700"
       x="768.5448"
       y="-437.45773"><tspan
         x="768.5448 773.40991 776.68036 783.96686 787.73004 798.85034 802.08429 805.33478 808.60406 811.94977 818.84351"
         y="-437.45773"
         sodipodi:role="line"
         id="tspan702">1.2 million</tspan></text>
<text
       transform="scale(1,-1)"
       style="font-variant:normal;font-weight:bold;font-stretch:normal;font-size:10.77999973px;font-family:MerriweatherSans;-inkscape-font-specification:MerriweatherSans-Bold;writing-mode:lr-tb;fill:#666666;fill-opacity:1;fill-rule:nonzero;stroke:none"
       id="text704"
       x="823.07648"
       y="-242.60144"><tspan
         x="823.07648 831.25854 834.68976 841.15887 845.96997 850.75525 857.87 864.78326 871.04639 877.46588"
         y="-242.60144"
         sodipodi:role="line"
         id="tspan706">Diarrhoeal</tspan><tspan
         x="768.54047 776.02612 782.85522 789.34375 796.39166 799.91675 804.75909 809.59717 815.94012 820.6424 825.30902 828.75861"
         y="-472.8407"
         sodipodi:role="line"
         id="tspan708">Road traffic</tspan><tspan
         x="966.39661 974.24011 984.23212 991.78888 995.31396 1002.4288 1009.2374"
         y="-415.68512"
         sodipodi:role="line"
         id="tspan710">AMR now</tspan></text>
<text
       transform="scale(1,-1)"
       style="font-variant:normal;font-weight:normal;font-stretch:normal;font-size:11.76000023px;font-family:MerriweatherSans;-inkscape-font-specification:MerriweatherSans-Regular;writing-mode:lr-tb;fill:#666666;fill-opacity:1;fill-rule:nonzero;stroke:none"
       id="text712"
       x="966.39771"
       y="-396.09305"><tspan
         x="966.39771 973.01624 980.76605 988.21838 991.323 999.07288 1006.8227"
         y="-396.09305"
         sodipodi:role="line"
         id="tspan714">700,000</tspan><tspan
         x="966.39771 970.52191 973.90527 980.72845 990.09998 993.86316 1000.2347 1005.6914 1010.4189 1013.7188 1024.8907 1031.1624 1035.8558 1041.4512"
         y="-382.36914"
         sodipodi:role="line"
         id="tspan716">(low estimate)</tspan></text>
<path
       inkscape:connector-curvature="0"
       id="path724"
       style="fill:none;stroke:#999999;stroke-width:0.49000001;stroke-linecap:butt;stroke-linejoin:miter;stroke-miterlimit:10;stroke-dasharray:none;stroke-opacity:1"
       d="m 966.3121,409.72085 45.195,0 c 7.925,0 15.071,4.773 18.106,12.094 l 7.754,20.927" /><text
       style="font-variant:normal;font-weight:normal;font-stretch:normal;font-size:11.76000023px;font-family:MerriweatherSans;-inkscape-font-specification:MerriweatherSans-Regular;writing-mode:lr-tb;fill:#666666;fill-opacity:1;fill-rule:nonzero;stroke:none"
       id="text676-3"
       x="758.92328"
       y="-152.33815"
       transform="scale(1,-1)"><tspan
         sodipodi:role="line"
         id="tspan678-6"
         x="758.92328"
         y="-152.33815">Source: Nature Reviews Drug Discovery 15, 375 (2016)</tspan></text>
</g></svg>