<?xml version="1.0" encoding="UTF-8" standalone="no"?>
<!-- Created with Inkscape (http://www.inkscape.org/) -->

<svg
   xmlns:dc="http://purl.org/dc/elements/1.1/"
   xmlns:cc="http://creativecommons.org/ns#"
   xmlns:rdf="http://www.w3.org/1999/02/22-rdf-syntax-ns#"
   xmlns:svg="http://www.w3.org/2000/svg"
   xmlns="http://www.w3.org/2000/svg"
   xmlns:sodipodi="http://sodipodi.sourceforge.net/DTD/sodipodi-0.dtd"
   xmlns:inkscape="http://www.inkscape.org/namespaces/inkscape"
   width="406"
   height="386"
   id="svg2"
   version="1.1"
   inkscape:version="0.48.3.1 r9886"
   sodipodi:docname="New document 1">
  <defs
     id="defs4" />
  <sodipodi:namedview
     id="base"
     pagecolor="#ffffff"
     bordercolor="#666666"
     borderopacity="1.0"
     inkscape:pageopacity="0.0"
     inkscape:pageshadow="2"
     inkscape:zoom="0.49497475"
     inkscape:cx="200.88118"
     inkscape:cy="408.45745"
     inkscape:document-units="px"
     inkscape:current-layer="layer1"
     showgrid="true"
     fit-margin-top="0"
     fit-margin-left="0"
     fit-margin-right="0"
     fit-margin-bottom="0"
     inkscape:window-width="792"
     inkscape:window-height="910"
     inkscape:window-x="595"
     inkscape:window-y="391"
     inkscape:window-maximized="0">
    <inkscape:grid
       type="xygrid"
       id="grid2985"
       empspacing="5"
       visible="true"
       enabled="true"
       snapvisiblegridlinesonly="true"
       originx="-117px"
       originy="-637px" />
  </sodipodi:namedview>
  <metadata
     id="metadata7">
    <rdf:RDF>
      <cc:Work
         rdf:about="">
        <dc:format>image/svg+xml</dc:format>
        <dc:type
           rdf:resource="http://purl.org/dc/dcmitype/StillImage" />
        <dc:title></dc:title>
      </cc:Work>
    </rdf:RDF>
  </metadata>
  <g
     inkscape:label="Layer 1"
     inkscape:groupmode="layer"
     id="layer1"
     transform="translate(-117,-29.362183)">
    <path
       style="fill:none;stroke:#000000;stroke-width:5;stroke-linecap:butt;stroke-linejoin:miter;stroke-miterlimit:4;stroke-opacity:1;stroke-dasharray:none"
       d="m 140,92.362183 280,-40"
       id="path3856"
       inkscape:connector-curvature="0" />
    <path
       style="fill:none;stroke:#000000;stroke-width:5;stroke-linecap:butt;stroke-linejoin:miter;stroke-miterlimit:4;stroke-opacity:1;stroke-dasharray:none"
       d="m 180,192.36218 260,-20"
       id="path3858"
       inkscape:connector-curvature="0" />
    <path
       style="fill:none;stroke:#000000;stroke-width:5;stroke-linecap:butt;stroke-linejoin:miter;stroke-miterlimit:4;stroke-opacity:1;stroke-dasharray:none"
       d="m 140,92.362183 300,79.999997 0,0 0,0 0,0"
       id="path3860"
       inkscape:connector-curvature="0" />
    <path
       style="fill:none;stroke:#000000;stroke-width:5;stroke-linecap:butt;stroke-linejoin:miter;stroke-miterlimit:4;stroke-opacity:1;stroke-dasharray:none"
       d="m 180,192.36218 200,140"
       id="path3862"
       inkscape:connector-curvature="0" />
    <path
       style="fill:none;stroke:#000000;stroke-width:5;stroke-linecap:butt;stroke-linejoin:miter;stroke-miterlimit:4;stroke-opacity:1;stroke-dasharray:none"
       d="m 240,372.36218 220,20"
       id="path3864"
       inkscape:connector-curvature="0" />
    <path
       style="fill:none;stroke:#000000;stroke-width:5;stroke-linecap:butt;stroke-linejoin:miter;stroke-miterlimit:4;stroke-opacity:1;stroke-dasharray:none"
       d="m 140,312.36218 240,20"
       id="path3866"
       inkscape:connector-curvature="0" />
    <path
       style="fill:none;stroke:#000000;stroke-width:5;stroke-linecap:butt;stroke-linejoin:miter;stroke-miterlimit:4;stroke-opacity:1;stroke-dasharray:none"
       d="m 180,192.36218 320,80"
       id="path3868"
       inkscape:connector-curvature="0" />
    <path
       sodipodi:type="arc"
       style="fill:#dd7373;fill-opacity:1;stroke:#000000;stroke-width:6;stroke-linecap:round;stroke-linejoin:round;stroke-miterlimit:4;stroke-opacity:1;stroke-dasharray:none"
       id="path2987"
       sodipodi:cx="140"
       sodipodi:cy="92.362183"
       sodipodi:rx="20"
       sodipodi:ry="20"
       d="m 160,92.362183 c 0,11.045697 -8.95431,19.999997 -20,19.999997 -11.04569,0 -20,-8.9543 -20,-19.999997 0,-11.045695 8.95431,-20 20,-20 11.04569,0 20,8.954305 20,20 z" />
    <path
       transform="translate(40,100)"
       sodipodi:type="arc"
       style="fill:#dd7373;fill-opacity:1;stroke:#000000;stroke-width:6;stroke-linecap:round;stroke-linejoin:round;stroke-miterlimit:4;stroke-opacity:1;stroke-dasharray:none"
       id="path2987-6"
       sodipodi:cx="140"
       sodipodi:cy="92.362183"
       sodipodi:rx="20"
       sodipodi:ry="20"
       d="m 160,92.362183 c 0,11.045697 -8.95431,19.999997 -20,19.999997 -11.04569,0 -20,-8.9543 -20,-19.999997 0,-11.045695 8.95431,-20 20,-20 11.04569,0 20,8.954305 20,20 z" />
    <path
       transform="translate(0,220)"
       sodipodi:type="arc"
       style="fill:#dd7373;fill-opacity:1;stroke:#000000;stroke-width:6;stroke-linecap:round;stroke-linejoin:round;stroke-miterlimit:4;stroke-opacity:1;stroke-dasharray:none"
       id="path2987-2"
       sodipodi:cx="140"
       sodipodi:cy="92.362183"
       sodipodi:rx="20"
       sodipodi:ry="20"
       d="m 160,92.362183 c 0,11.045697 -8.95431,19.999997 -20,19.999997 -11.04569,0 -20,-8.9543 -20,-19.999997 0,-11.045695 8.95431,-20 20,-20 11.04569,0 20,8.954305 20,20 z" />
    <path
       transform="translate(100,280)"
       sodipodi:type="arc"
       style="fill:#dd7373;fill-opacity:1;stroke:#000000;stroke-width:6;stroke-linecap:round;stroke-linejoin:round;stroke-miterlimit:4;stroke-opacity:1;stroke-dasharray:none"
       id="path2987-0"
       sodipodi:cx="140"
       sodipodi:cy="92.362183"
       sodipodi:rx="20"
       sodipodi:ry="20"
       d="m 160,92.362183 c 0,11.045697 -8.95431,19.999997 -20,19.999997 -11.04569,0 -20,-8.9543 -20,-19.999997 0,-11.045695 8.95431,-20 20,-20 11.04569,0 20,8.954305 20,20 z" />
    <path
       transform="translate(280,-40)"
       sodipodi:type="arc"
       style="fill:#7380dd;fill-opacity:1;stroke:#000000;stroke-width:6;stroke-linecap:round;stroke-linejoin:round;stroke-miterlimit:4;stroke-opacity:1;stroke-dasharray:none"
       id="path2987-9"
       sodipodi:cx="140"
       sodipodi:cy="92.362183"
       sodipodi:rx="20"
       sodipodi:ry="20"
       d="m 160,92.362183 c 0,11.045697 -8.95431,19.999997 -20,19.999997 -11.04569,0 -20,-8.9543 -20,-19.999997 0,-11.045695 8.95431,-20 20,-20 11.04569,0 20,8.954305 20,20 z" />
    <path
       transform="translate(300,80)"
       sodipodi:type="arc"
       style="fill:#7380dd;fill-opacity:1;stroke:#000000;stroke-width:6;stroke-linecap:round;stroke-linejoin:round;stroke-miterlimit:4;stroke-opacity:1;stroke-dasharray:none"
       id="path2987-7"
       sodipodi:cx="140"
       sodipodi:cy="92.362183"
       sodipodi:rx="20"
       sodipodi:ry="20"
       d="m 160,92.362183 c 0,11.045697 -8.95431,19.999997 -20,19.999997 -11.04569,0 -20,-8.9543 -20,-19.999997 0,-11.045695 8.95431,-20 20,-20 11.04569,0 20,8.954305 20,20 z" />
    <path
       transform="translate(240,240)"
       sodipodi:type="arc"
       style="fill:#7380dd;fill-opacity:1;stroke:#000000;stroke-width:6;stroke-linecap:round;stroke-linejoin:round;stroke-miterlimit:4;stroke-opacity:1;stroke-dasharray:none"
       id="path2987-60"
       sodipodi:cx="140"
       sodipodi:cy="92.362183"
       sodipodi:rx="20"
       sodipodi:ry="20"
       d="m 160,92.362183 c 0,11.045697 -8.95431,19.999997 -20,19.999997 -11.04569,0 -20,-8.9543 -20,-19.999997 0,-11.045695 8.95431,-20 20,-20 11.04569,0 20,8.954305 20,20 z" />
    <path
       transform="translate(320,300)"
       sodipodi:type="arc"
       style="fill:#7380dd;fill-opacity:1;stroke:#000000;stroke-width:6;stroke-linecap:round;stroke-linejoin:round;stroke-miterlimit:4;stroke-opacity:1;stroke-dasharray:none"
       id="path2987-74"
       sodipodi:cx="140"
       sodipodi:cy="92.362183"
       sodipodi:rx="20"
       sodipodi:ry="20"
       d="m 160,92.362183 c 0,11.045697 -8.95431,19.999997 -20,19.999997 -11.04569,0 -20,-8.9543 -20,-19.999997 0,-11.045695 8.95431,-20 20,-20 11.04569,0 20,8.954305 20,20 z" />
    <path
       transform="translate(360,180)"
       sodipodi:type="arc"
       style="fill:#7380dd;fill-opacity:1;stroke:#000000;stroke-width:6;stroke-linecap:round;stroke-linejoin:round;stroke-miterlimit:4;stroke-opacity:1;stroke-dasharray:none"
       id="path2987-5"
       sodipodi:cx="140"
       sodipodi:cy="92.362183"
       sodipodi:rx="20"
       sodipodi:ry="20"
       d="m 160,92.362183 c 0,11.045697 -8.95431,19.999997 -20,19.999997 -11.04569,0 -20,-8.9543 -20,-19.999997 0,-11.045695 8.95431,-20 20,-20 11.04569,0 20,8.954305 20,20 z" />
  </g>
</svg>
