<?xml version="1.0" encoding="UTF-8" standalone="no"?>
<!-- Created with Inkscape (http://www.inkscape.org/) -->

<svg
   xmlns:dc="http://purl.org/dc/elements/1.1/"
   xmlns:cc="http://creativecommons.org/ns#"
   xmlns:rdf="http://www.w3.org/1999/02/22-rdf-syntax-ns#"
   xmlns:svg="http://www.w3.org/2000/svg"
   xmlns="http://www.w3.org/2000/svg"
   xmlns:sodipodi="http://sodipodi.sourceforge.net/DTD/sodipodi-0.dtd"
   xmlns:inkscape="http://www.inkscape.org/namespaces/inkscape"
   id="svg2"
   version="1.1"
   inkscape:version="0.48.5 r10040"
   width="771.15955"
   height="992.56946"
   xml:space="preserve"
   sodipodi:docname="Brief Bioinform-2016--bib_bbw089.pdf"><metadata
     id="metadata8"><rdf:RDF><cc:Work
         rdf:about=""><dc:format>image/svg+xml</dc:format><dc:type
           rdf:resource="http://purl.org/dc/dcmitype/StillImage" /><dc:title></dc:title></cc:Work></rdf:RDF></metadata><defs
     id="defs6"><clipPath
       clipPathUnits="userSpaceOnUse"
       id="clipPath258"><path
         d="m 63.156,738.255 56.636,0 0,-56.636 -56.636,0 0,56.636 z"
         id="path260"
         inkscape:connector-curvature="0" /></clipPath></defs><sodipodi:namedview
     pagecolor="#ffffff"
     bordercolor="#666666"
     borderopacity="1"
     objecttolerance="10"
     gridtolerance="10"
     guidetolerance="10"
     inkscape:pageopacity="0"
     inkscape:pageshadow="2"
     inkscape:window-width="1104"
     inkscape:window-height="1019"
     id="namedview4"
     showgrid="false"
     fit-margin-top="1"
     fit-margin-left="1"
     fit-margin-right="1"
     fit-margin-bottom="1"
     inkscape:zoom="10.803489"
     inkscape:cx="18.335057"
     inkscape:cy="981.92579"
     inkscape:window-x="757"
     inkscape:window-y="419"
     inkscape:window-maximized="0"
     inkscape:current-layer="g10" /><g
     id="g10"
     inkscape:groupmode="layer"
     inkscape:label="Brief Bioinform-2016--bib_bbw089"
     transform="matrix(1.25,0,0,-1.25,2,990.56947)"><path
       d="m 63.156,488.636 546.009,0 0,3.0047 -546.009,0 0,-3.0047 z"
       style="fill:#a7a5a6;fill-opacity:1;fill-rule:nonzero;stroke:none"
       id="path12"
       inkscape:connector-curvature="0" /><path
       d="m 63.156,270.085 546.009,0 0,3.0048 -546.009,0 0,-3.0048 z"
       style="fill:#a7a5a6;fill-opacity:1;fill-rule:nonzero;stroke:none"
       id="path14"
       inkscape:connector-curvature="0" /><text
       transform="matrix(1,0,0,-1,63.1559,615.6849)"
       id="text16"><tspan
         style="font-size:18px;font-variant:normal;font-weight:normal;writing-mode:lr-tb;fill:#231f20;fill-opacity:1;fill-rule:nonzero;stroke:none;font-family:'AdvOT1ab0d708.B';-inkscape-font-specification:'AdvOT1ab0d708.B'"
         x="0 12.186 22.68 40.68 51.93 63.917999 70.470001 80.963997 87.515999 93.263397 103.7574 115.7454 126.2394 136.40759 147.65759 158.1516 170.1396 177.4476 187.74361 197.6796 209.6676 220.16161 238.2876 243.90359 252.90359 262.08359 271.8504 281.0304 287.5824 298.07639 304.62839 316.61639 325.79639 335.63159 346.88159 354.3696 364.86359 382.86359 388.47961 397.76941 407.70541"
         y="0"
         sodipodi:role="line"
         id="tspan18">Computationalpan-genomics:status,promises</tspan><tspan
         style="font-size:18px;font-variant:normal;font-weight:normal;writing-mode:lr-tb;fill:#231f20;fill-opacity:1;fill-rule:nonzero;stroke:none;font-family:'AdvOT1ab0d708.B';-inkscape-font-specification:'AdvOT1ab0d708.B'"
         x="0 10.494 22.482 38.268002 47.268002 59.256001 69.75 75.365997 80.982002 90.917999 102.906 113.3316 123.2676"
         y="26.9856"
         sodipodi:role="line"
         id="tspan20">andchallenges</tspan></text>
<text
       transform="matrix(1,0,0,-1,63.1559,563.0172)"
       id="text22"><tspan
         style="font-size:13px;font-variant:normal;font-weight:normal;writing-mode:lr-tb;fill:#231f20;fill-opacity:1;fill-rule:nonzero;stroke:none;font-family:AdvOTbf7bbdaa;-inkscape-font-specification:AdvOTbf7bbdaa"
         x="0 8.658 17.316 27.7784 36.579399 44.288399 57.288399 65.413399 73.798401 78.803398 86.239403 91.2444 95.3004 103.0094 111.6674 119.1034 126.5342 133.9702 141.4062 150.06419 155.34219 164.67619 171.8522 180.51019 188.21919 201.21919 205.27521 211.9052 221.7748 230.57581 238.28481 246.94279 253.44279 261.15179 266.55981 271.56479 275.62079 284.0058 297.0058"
         y="0"
         sodipodi:role="line"
         id="tspan24">TheComputationalPan-GenomicsConsortium*</tspan></text>
<text
       transform="matrix(1,0,0,-1,63.1559,545.1022)"
       id="text26"><tspan
         style="font-size:6.50010014px;font-variant:normal;font-weight:normal;writing-mode:lr-tb;fill:#231f20;fill-opacity:1;fill-rule:nonzero;stroke:none;font-family:AdvOTbf7bbdaa;-inkscape-font-specification:AdvOTbf7bbdaa"
         x="0 4.4005675 8.255127 10.959168 13.66321 17.251265 20.501316 24.563877 28.418438 32.747505 36.810066 38.838097 43.167164 48.641548 52.359604 56.55217 59.05471 63.383774 67.238335 69.942375 73.642883 77.971947 81.826508 85.616066 87.644096 91.362152 96.603188 102.55728 106.27534 108.97938 112.22942 115.54448 119.87354 123.5916 125.61963 127.64767 131.35532 135.75589 139.34395 143.673 146.17555 149.76361 154.37218 156.7382 160.59277 165.25725 169.31981 171.34784 175.20239 177.23042 181.55949 183.92554 187.78009 190.48413 196.98424 200.70229 203.20482 205.23286 208.54791 213.72849 217.44655 221.89197 225.68152 229.39958 233.11763 235.82167 237.84972 241.56776 245.89684 251.93867 256.81375 261.14282 263.17084 266.88892 270.47696 273.181 276.43106 278.45908 280.96161 286.57706 290.2951 294.62418 300.63678 306.59088 310.30893 316.05698 319.77502 321.80304 325.52112 329.85019 333.16522 338.9035 341.06805 345.39713 348.64716 351.14969 353.17773 355.68027 359.87283 362.37537 367.92972 370.29575 374.1503 378.81479 380.97931 385.30838 387.67441 391.52896 394.233 400.73312 404.45117 406.9537 408.98175 412.29678 415.54684 419.2363 423.02585 426.74393 430.46198 433.16602 435.19403 438.91211 443.24118 449.22647 451.39099 455.72006 458.08609 461.94714 464.65118 471.15131 474.86935 477.37189 479.39993 482.71497"
         y="0"
         sodipodi:role="line"
         id="tspan28">Correspondingauthor:TobiasMarschall,CenterforBioinformaticsatSaarlandUniversityandMaxPlanckInstituteforInformatics,SaarlandInformatics</tspan><tspan
         style="font-size:6.50010014px;font-variant:normal;font-weight:normal;writing-mode:lr-tb;fill:#231f20;fill-opacity:1;fill-rule:nonzero;stroke:none;font-family:AdvOTbf7bbdaa;-inkscape-font-specification:AdvOTbf7bbdaa"
         x="0 4.4005675 8.1186247 14.618725 18.681288 22.873852 26.123901 29.479904 33.269463 36.987518 40.705578 43.409618 47.199177 49.903217 50.966633 54.084732 57.399784 61.189342 64.777397 69.106461 72.452713 77.119789 80.70784 83.41188 89.91198 93.630043 97.959106 101.67716 105.05071 109.37978 112.96783 114.99587 116.75089 120.13095 123.9855 127.57356 132.77299 136.36105 139.9491 145.13164 148.71968 152.30774 157.49028 161.07832 164.66638 168.25444 171.8425 175.43054 178.8067 182.52477 185.1638 191.66389 195.38196 197.40999 199.43802"
         y="9.4673958"
         sodipodi:role="line"
         id="tspan30">Campus,Saarbru¨cken,Germany.Tel.:+4968130270880;E-mail:</tspan><tspan
         style="font-size:6.50010014px;font-variant:normal;font-weight:normal;writing-mode:lr-tb;fill:#2e3192;fill-opacity:1;fill-rule:nonzero;stroke:none;font-family:AdvOTbf7bbdaa;-inkscape-font-specification:AdvOTbf7bbdaa"
         x="202.78947 205.29201 207.04704 213.54713 217.2652 219.96924 223.21928 226.53433 230.8634 234.58145 236.6095 238.63753 243.7791 250.27921 254.34177 256.36978 259.00882 261.03687 265.36594 267.73196 269.487 275.92209 279.98465 283.57272 285.32773 289.39029"
         y="9.4673958"
         sodipodi:role="line"
         id="tspan32">t.marschall@mpi-inf.mpg.de</tspan><tspan
         style="font-size:6.50010014px;font-variant:normal;font-weight:normal;writing-mode:lr-tb;fill:#231f20;fill-opacity:1;fill-rule:nonzero;stroke:none;font-family:AdvOTbf7bbdaa;-inkscape-font-specification:AdvOTbf7bbdaa"
         x="0 2.2295344 6.5586009 10.887668 16.270401 20.670967 24.525528 31.025627 35.088188 39.280754 41.783295 45.50135 48.003887 50.031921 53.886478 58.215546 61.933601 65.81871 69.536766 73.254829 77.583893 80.222931 84.890007 88.478058 92.807129 96.66169 103.16179 105.18982 108.50487 113.55285 117.95341 121.80798 126.13704 129.38708 133.24165 135.94569 138.44823 140.47626 144.66882 152.95386 155.31989 159.17445 161.87849 168.37859 171.96664 177.84143 181.55949 185.89182 191.50464 197.12073 200.9753 203.67934 207.46889 210.71895 215.048 218.90257 224.78256 229.11162 232.69968 234.72771 240.5999 242.96594 245.66998 249.52454 257.83426 263.27679 265.77933 271.44028 275.02832 280.45462 282.48264 286.6752 291.00427 296.44162 300.02966 303.61771 307.20578 310.79382 314.3559 318.07394 322.4628 324.96536 329.2944 334.70834 338.29642 342.15097 344.85501 348.44305 352.77213 355.27466 360.50336 364.9039 368.49197 372.82104 375.32358 378.91162 383.46365 385.49167 391.68433 395.27237 398.86044 400.88846 404.95102 408.53909 412.86816 416.40225 418.90479 423.23386 428.6478 433.78937 437.37744 439.87997 444.20905 447.79709 450.50113 452.52917 456.24722 460.57629 464.63885 467.88889 471.50687 477.12296 479.15097 481.6535"
         y="18.481733"
         sodipodi:role="line"
         id="tspan34">*TheComputationalPan-GenomicsConsortiumformedataworkshopheldfrom8to12June2015,attheLorentzCenterinLeiden,theNetherlands,with</tspan><tspan
         style="font-size:6.50010014px;font-variant:normal;font-weight:normal;writing-mode:lr-tb;fill:#231f20;fill-opacity:1;fill-rule:nonzero;stroke:none;font-family:AdvOTbf7bbdaa;-inkscape-font-specification:AdvOTbf7bbdaa"
         x="0 2.5025384 6.831605 12.075235 16.137798 20.330362 23.034405 27.096968 30.951527 34.201576 39.401005 43.255566 47.337627 51.400192 54.104233 57.95879 61.676849 63.70488 67.767441 69.795471 74.124542 79.311623 84.697601 88.012657 90.716698 94.571259 97.821304 101.07136 103.7104 107.77296 109.80099 113.05104 116.36609 118.39412 122.45668 124.48472 126.51275 130.84181 134.55988 137.26392 142.63625 146.4908 150.20886 153.79692 156.50096 160.21901 162.24704 165.8351 173.08011 176.93468 180.96019 183.46272 187.79179 193.03542 196.62347 203.12358 206.71162 209.41566 213.00372 215.03175 219.36082 224.6129 228.67546 230.70351 233.95355 237.2686 239.29663 243.35919 245.38722 247.41525 251.74432 256.98404 260.83862 264.86414 269.26468 273.11926 279.61935 283.68192 287.87448 290.37701 294.09506 296.59763 298.62564 302.48019 306.80927 310.52731 314.18625 317.9043 321.62234 325.95142 328.59045 333.25754 336.84558 341.17465 345.02921 351.5293 353.55734 356.87238 360.12244 363.50833 367.8374 372.16647 377.39777 383.01385 386.86841 389.57245 393.362 396.61206 400.94113 404.79568 410.50601 416.1221 419.84015 424.73602 428.59061 431.29465 434.88269 438.60074 442.92981 444.95786 448.40939 451.99747 457.73053 461.52011 466.91452 471.5816 473.60965 476.93118 479.43372 483.2883"
         y="28.00633"
         sodipodi:role="line"
         id="tspan36">thepurposeofprovidingacross-disciplinaryoverviewoftheemergingdisciplineofComputationalPan-Genomics.TheworkshopwasorganizedbyVictor</tspan><tspan
         style="font-size:6.50010014px;font-variant:normal;font-weight:normal;writing-mode:lr-tb;fill:#231f20;fill-opacity:1;fill-rule:nonzero;stroke:none;font-family:AdvOTbf7bbdaa;-inkscape-font-specification:AdvOTbf7bbdaa"
         x="0 4.6670718 8.8596363 11.563678 15.281735 18.869791 22.587847 25.964649 30.293716 34.148273 37.937832 39.965866 43.683922 48.527798 54.481888 58.199944 60.903988 64.154037 67.469086 71.798157 75.516212 77.544243 79.572273 82.93998 87.743553 89.771584 93.359634 97.149193 100.86725 105.19632 109.25888 112.84694 117.12531 120.91486 124.22991 128.55898 129.54309 132.43434 136.7634 141.09247 145.28503 147.78757 153.69356 155.72159 159.03665 163.36571 167.08377 169.1118 171.81584 173.84387 177.22067 180.80873 184.52679 188.31635 190.34438 195.81551 200.48259 204.20064 208.52971 212.59227 214.6203 218.94937 222.34697 226.06503 230.39409 236.06673 240.59731 244.31535 247.97232 252.63939 256.22745 259.59384 263.99442 267.84897 272.17804 275.4281 279.28265 281.98669 284.48923 286.51727 290.70981 298.82455 305.32465 308.91269 315.41281 319.20236 322.79041 325.49445 330.28827 334.00635 336.71039 341.91046 343.93848 345.96652 349.21658 351.71912 355.30716 361.01556 364.73361 368.83908 371.34161 375.67068 380.85776 384.4458 388.77487 394.46378 398.31833 402.28729 404.78983 409.1189 411.14691 416.0636 419.78165 422.48569 424.98825 427.01627 430.33133 432.35934 435.94742"
         y="37.473728"
         sodipodi:role="line"
         id="tspan38">Guryev,TobiasMarschall,AlexanderScho¨nhuth(chair),FabioVandin,andKaiYe.Consortiummembersarelistedattheendofthisarticle.</tspan></text>
<text
       transform="matrix(1,0,0,-1,63.1559,465.7322)"
       id="text40"><tspan
         style="font-size:10.00010014px;font-variant:normal;font-weight:normal;writing-mode:lr-tb;fill:#231f20;fill-opacity:1;fill-rule:nonzero;stroke:none;font-family:'AdvOT3c584a2f.B';-inkscape-font-specification:'AdvOT3c584a2f.B'"
         x="0 7.7000771 13.740137 19.05019 22.690228 26.850269 32.680328 37.680378"
         y="0"
         sodipodi:role="line"
         id="tspan42">Abstract</tspan></text>
<text
       transform="matrix(1,0,0,-1,63.1559,449.9716)"
       id="text44"><tspan
         style="font-size:7.99989986px;font-variant:normal;font-weight:normal;writing-mode:lr-tb;fill:#231f20;fill-opacity:1;fill-rule:nonzero;stroke:none;font-family:AdvOTbf7bbdaa;-inkscape-font-specification:AdvOTbf7bbdaa"
         x="0 7.3279085 11.903852 17.231785 23.697304 28.697241 31.193211 35.193161 39.273109 41.769077 46.769016 49.264984 51.760952 57.088886 61.398434 65.398384 69.505531 72.417496 75.745453 80.489395 90.42527 95.753204 100.91314 108.91304 113.48898 120.6993 125.11523 129.53117 134.85912 139.27505 142.35503 144.85098 148.93094 154.82846 159.4044 164.73235 171.66666 176.4106 181.73853 185.81848 190.56242 193.05838 197.80232 202.11107 208.68779 211.76775 218.43887 223.43881 225.93477 230.51071 235.83865 240.83299 245.49693 248.82489 253.24083 257.65677 262.65671 265.15268 270.48062 274.79178 278.93011 286.93002 289.42599 293.50592 296.83389 301.57782 306.14258 308.63855 313.38248 315.87845 320.62241 325.03833 331.54065 336.11661 341.44452 348.37805 352.95398 355.44995 358.77792 363.52185 366.01782 370.76178 375.1777 379.67285 383.81119 387.89114 392.6351 400.63498 408.63489 413.37885 418.70676 421.20273 427.63464 430.54663 435.12256 439.20251 445.54962 448.62958 453.95752 460.28946 464.36938 469.69733 474.27328 476.76923"
         y="0"
         sodipodi:role="line"
         id="tspan46">Manydisciplines,fromhumangeneticsandoncologytoplantbreeding,microbiologyandvirology,commonlyfacethechal-</tspan><tspan
         style="font-size:7.99989986px;font-variant:normal;font-weight:normal;writing-mode:lr-tb;fill:#231f20;fill-opacity:1;fill-rule:nonzero;stroke:none;font-family:AdvOTbf7bbdaa;-inkscape-font-specification:AdvOTbf7bbdaa"
         x="0 2.4959688 6.9119134 12.239847 16.655792 23.017313 27.761253 32.654793 37.230736 42.558666 47.134609 49.630581 54.206524 58.454468 60.950439 66.278374 72.623093 75.95105 80.526993 85.526932 88.022903 93.022835 95.518806 102.04672 104.54269 109.87063 113.95058 117.27853 121.69448 126.27042 130.16637 132.66234 137.99028 144.39659 149.72453 154.88446 162.88437 167.54831 171.96425 175.29221 181.19054 185.93448 190.82802 195.24396 199.6599 204.98784 209.73178 217.73167 222.14763 226.14757 230.22992 232.89389 240.20819 244.28815 248.86409 252.86404 259.19995 263.94391"
         y="10.998263"
         sodipodi:role="line"
         id="tspan48">lengeofanalyzingrapidlyincreasingnumbersofgenomes.Incaseof</tspan></text>
<text
       transform="matrix(1,0,0,-1,332.04934,438.97334)"
       id="text50"><tspan
         style="font-size:7.99989986px;font-variant:normal;font-weight:normal;writing-mode:lr-tb;fill:#231f20;fill-opacity:1;fill-rule:nonzero;stroke:none;font-family:'AdvOT8163c0db.I';-inkscape-font-specification:'AdvOT8163c0db.I'"
         x="0 5.9119263 9.9118757 16.82379 22.734116 26.398069 30.814014 35.229961 37.389931 41.053886 45.629829"
         y="0"
         sodipodi:role="line"
         id="tspan52">Homosapiens</tspan></text>
<text
       transform="matrix(1,0,0,-1,381.31512,438.97334)"
       id="text54"><tspan
         style="font-size:7.99989986px;font-variant:normal;font-weight:normal;writing-mode:lr-tb;fill:#231f20;fill-opacity:1;fill-rule:nonzero;stroke:none;font-family:AdvOTbf7bbdaa;-inkscape-font-specification:AdvOTbf7bbdaa"
         x="0 4.1383481 7.2183099 12.546243 18.934963 24.262897 29.422832 37.422733 42.086674 46.502617 51.760155 56.504093 61.397633 65.397583 69.81353 74.813461 79.973404 84.389343 89.717278 93.797226 98.077972 105.10748 109.52343 113.93938 119.26731 124.01125 132.01115 136.42709 142.29822 149.21013 151.7061 154.20207"
         y="0"
         sodipodi:role="line"
         id="tspan56">,thenumberofsequencedgenomeswill</tspan><tspan
         style="font-size:7.99989986px;font-variant:normal;font-weight:normal;writing-mode:lr-tb;fill:#231f20;fill-opacity:1;fill-rule:nonzero;stroke:none;font-family:AdvOTbf7bbdaa;-inkscape-font-specification:AdvOTbf7bbdaa"
         x="-318.15921 -313.58328 -308.58334 -303.5834 -300.25543 -295.51151 -290.93558 -286.85562 -279.6077 -274.27979 -269.11984 -263.7919 -258.79196 -255.464 -251.14806 -246.14812 -240.1498 -235.40585 -230.51231 -227.43236 -222.10443 -217.36049 -212.20055 -208.20059 -203.62465 -198.29672 -193.37839 -187.36885 -184.87289 -177.56097 -174.48102 -169.15309 -162.82117 -157.49323 -153.07729 -148.41335 -143.37581 -140.46384 -136.0479 -127.16161 -122.58567 -118.16972 -113.59378 -110.26582 -106.26587 -102.16032 -97.496384 -95.000412 -87.000511 -82.000572 -79.504608 -72.963089 -68.963135 -64.883186 -60.307247 -57.811275 -55.315308 -49.987373 -43.653053 -38.493118 -31.520407 -27.104462 -23.104511 -20.024549 -15.448606 -10.784665 -8.2886963 -5.7927275 -1.7927775 3.5351558 7.9511008 14.854215 19.518156 22.014124 26.758066 29.254034 34.581966 37.493931 42.237873 45.56583 53.462532 58.038475 61.118435 63.614407 67.694351 73.645477 78.645416 81.141388 86.141327 90.557266 93.053238 95.549202 100.87714 105.29308 111.23301 118.14492 120.64089 123.13686 127.61761 132.94554 137.68948 142.69821 147.36215"
         y="10.998263"
         sodipodi:role="line"
         id="tspan58">approachhundredsofthousandsinthenextfewyears.Simplyscalingupestablishedbioinformaticspipelineswillnotbe</tspan><tspan
         style="font-size:7.99989986px;font-variant:normal;font-weight:normal;writing-mode:lr-tb;fill:#231f20;fill-opacity:1;fill-rule:nonzero;stroke:none;font-family:AdvOTbf7bbdaa;-inkscape-font-specification:AdvOTbf7bbdaa"
         x="-318.15921 -314.15927 -308.99933 -306.08737 -301.08743 -297.00748 -294.51151 -290.09558 -284.88043 -279.77811 -276.86615 -272.12219 -266.79507 -264.2991 -259.88315 -255.30721 -250.89127 -247.56331 -242.98737 -238.67542 -236.17944 -230.85152 -224.44519 -221.36523 -216.03729 -209.64857 -206.73662 -201.57668 -199.08072 -194.62477 -189.62483 -184.88089 -181.80093 -177.38498 -172.05705 -168.97708 -166.48112 -161.90518 -157.49083 -152.74689 -147.85335 -143.85341 -138.69347 -134.61351 -127.33041 -124.00245 -121.50648 -117.42653 -110.09542 -105.67948 -101.26353 -95.9356 -91.191658 -83.191757 -80.695793 -74.719063 -69.719131 -65.143188 -62.063225 -55.500107 -51.500156 -47.084213 -44.00425 -40.004299 -35.88435 -33.220387 -27.892452 -23.892502 -20.81254 -16.396595 -11.820652 -6.820715 -2.7759652 2.5519681 7.2959089 11.871852 16.287796 18.783766 22.906115 27.906052 33.065987 37.64193 40.137897 42.633865 45.713829 50.289772 53.369732 55.788101 60.364044 64.779991 67.275963 73.873474 78.873413 81.369385 84.281349 87.193314 91.609253 94.93721 99.353157 104.68109 109.64663 113.72658 118.47052 126.47042 131.47035 136.63029 139.71025 144.28619"
         y="21.996525"
         sodipodi:role="line"
         id="tspan60">suffcientforleveragingthefullpotentialofsuchrichgenomicdatasets.Instead,novel,qualitativelydifferentcomputa-</tspan><tspan
         style="font-size:7.99989986px;font-variant:normal;font-weight:normal;writing-mode:lr-tb;fill:#231f20;fill-opacity:1;fill-rule:nonzero;stroke:none;font-family:AdvOTbf7bbdaa;-inkscape-font-specification:AdvOTbf7bbdaa"
         x="-318.15921 -315.07925 -312.58328 -307.83936 -302.51141 -297.93549 -293.49792 -285.49802 -281.08209 -278.00214 -272.67419 -267.93024 -262.93033 -257.04398 -252.46805 -247.14011 -240.1498 -235.14986 -230.57391 -227.24596 -222.67001 -217.67007 -215.1741 -210.75816 -202.75827 -196.89275 -192.3168 -188.98883 -182.54971 -177.22179 -172.80585 -168.38989 -163.38995 -158.97401 -154.09007 -149.89493 -141.31903 -134.98471 -128.0728 -125.57683 -123.08086 -118.60012 -111.6882 -109.19224 -106.11227 -100.78434 -96.368393 -92.368446 -86.454918 -83.374954 -78.047028 -71.658302 -68.330345 -63.754402 -58.754467 -56.258495 -49.264183 -44.84824 -40.184299 -37.104336 -32.688393 -27.360458 -23.468506 -20.972538 -16.228598 -8.8982887 -4.1543479 0.73919076 4.81914 9.5630808 17.562981 22.562918 27.722853 30.802814 35.26516 38.345119 40.841091 45.58503 50.912964 55.488907 59.98325 64.983185 69.559128 74.887062 78.135025 82.550964 86.855713 92.183647 96.927589 104.92749 107.42345 111.5034 115.50336 119.62411 126.20082 131.52876 135.9447"
         y="32.994789"
         sodipodi:role="line"
         id="tspan62">tionalmethodsandparadigmsareneeded.Wewillwitnesstherapidextensionofcomputationalpan-genomics,anew</tspan><tspan
         style="font-size:7.99989986px;font-variant:normal;font-weight:normal;writing-mode:lr-tb;fill:#231f20;fill-opacity:1;fill-rule:nonzero;stroke:none;font-family:AdvOTbf7bbdaa;-inkscape-font-specification:AdvOTbf7bbdaa"
         x="-318.15921 -314.15927 -308.99933 -304.33539 -301.08743 -296.51151 -293.18353 -288.76758 -282.27246 -277.52853 -272.63498 -269.30704 -264.89108 -260.89114 -256.47519 -251.89925 -248.57129 -244.49135 -237.25864 -234.76266 -227.45076 -223.3708 -218.62686 -210.62697 -205.62703 -200.46709 -197.38713 -192.81119 -189.73123 -187.23526 -182.49132 -177.27779 -172.70184 -168.2067 -163.54276 -161.04678 -156.30284 -153.80688 -149.06294 -144.64699 -140.07104 -135.9487 -133.28473 -125.97043 -122.89046 -117.56253 -115.06656 -109.13303 -104.55709 -101.22913 -98.14917 -95.653206 -91.573257 -89.077286 -84.661339 -80.559792 -73.647881 -67.236763 -62.820816 -58.404869 -53.076935 -48.660992 -45.333035 -40.757092 -38.26112 -35.765152 -31.517206 -25.170885 -20.75494 -16.091 -13.59503 -9.5950804 -6.5151186 -4.0191498 1.1911851 7.5975051 12.597443 17.013388 22.013325 27.341259 29.837227 32.917187 35.413158 40.157097 45.485031 51.420956 55.996899 61.324833 68.258347 73.418282 78.746216 83.746155 88.162102 91.490059 95.490005 98.569969 103.14591 108.47385 115.37056 121.94727 126.94721 131.52316 136.85109"
         y="43.99305"
         sodipodi:role="line"
         id="tspan64">sub-areaofresearchincomputationalbiology.Inthisarticle,wegeneralizeexistingdefnitionsandunderstandapan-</tspan><tspan
         style="font-size:7.99989986px;font-variant:normal;font-weight:normal;writing-mode:lr-tb;fill:#231f20;fill-opacity:1;fill-rule:nonzero;stroke:none;font-family:AdvOTbf7bbdaa;-inkscape-font-specification:AdvOTbf7bbdaa"
         x="-318.15921 -313.74329 -309.32733 -303.99939 -299.25546 -291.25555 -284.93723 -280.3613 -274.39258 -269.81662 -264.48871 -257.95197 -253.87202 -249.12808 -246.63211 -244.13615 -239.7202 -235.64026 -232.56029 -230.06433 -225.32039 -218.04048 -213.29654 -208.403 -203.98705 -199.57111 -194.24318 -189.49924 -181.49933 -179.00336 -173.02664 -169.02669 -164.61075 -159.61081 -154.45087 -150.03493 -144.70699 -140.62704 -136.21109 -130.27997 -127.20001 -120.47209 -115.80815 -109.41703 -104.84109 -99.513153 -94.93721 -92.441246 -87.865303 -83.617355 -79.313408 -72.283897 -69.787926 -65.043983 -62.548019 -57.220085 -54.140121 -51.644154 -45.128235 -40.384296 -35.09396 -32.014 -25.286083 -20.622143 -14.231022 -9.0710869 -5.0711365 -0.65519184 6.2919211 10.867865 16.83659 23.413307 26.741266 31.157211 34.069176 38.485119 41.813076 46.229023 51.556957 55.636906 60.052849 64.119202 72.695091 79.086212 83.502159 88.1661 92.742043 100.74194 103.23791 108.56584 114.91616 119.4921 121.98808 125.31603 129.73198 134.30792 139.30786"
         y="54.991314"
         sodipodi:role="line"
         id="tspan66">genomeasanycollectionofgenomicsequencestobeanalyzedjointlyortobeusedasareference.Weexaminealready</tspan><tspan
         style="font-size:7.99989986px;font-variant:normal;font-weight:normal;writing-mode:lr-tb;fill:#231f20;fill-opacity:1;fill-rule:nonzero;stroke:none;font-family:AdvOTbf7bbdaa;-inkscape-font-specification:AdvOTbf7bbdaa"
         x="-318.15921 -313.58328 -309.00732 -304.4314 -301.93542 -299.43945 -294.86353 -290.19958 -287.70361 -281.3653 -276.78934 -271.7894 -266.78946 -263.46152 -258.71756 -254.14162 -250.06168 -244.73373 -240.433 -234.42348 -231.34351 -224.61559 -220.53564 -215.7917 -210.46378 -206.46382 -203.38385 -200.05589 -194.89597 -190.81601 -185.83768 -181.26173 -175.93381 -168.94348 -163.78355 -159.7836 -153.40929 -148.40935 -143.8334 -138.50546 -135.25751 -130.84157 -126.42562 -121.09769 -116.44575 -108.44585 -104.0299 -100.02995 -95.922798 -90.922867 -88.426895 -84.426941 -80.346992 -75.187057 -71.187111 -65.251984 -62.172024 -56.84409 -50.455368 -45.455433 -40.711491 -37.631531 -33.215584 -27.887651 -24.80769 -22.311722 -17.735779 -13.321433 -8.6574917 -4.2415471 1.0863864 5.5023313 10.502269 13.582231 19.503756 24.247698 29.141235 32.0532 37.213135 40.293095 45.453033 48.780991 55.163311 58.243271 62.659218 66.739166 72.067101 77.395035 82.035774 84.531746 89.275681 93.691628 96.187599 100.60355 106.58347 111.15941 116.48734 123.42086 131.42076 135.8367 138.91666 144.2446 148.98854 153.98848"
         y="65.989578"
         sodipodi:role="line"
         id="tspan68">availableapproachestoconstructandusepan-genomes,discussthepotentialbeneftsoffuturetechnologiesandmethod-</tspan><tspan
         style="font-size:7.99989986px;font-variant:normal;font-weight:normal;writing-mode:lr-tb;fill:#231f20;fill-opacity:1;fill-rule:nonzero;stroke:none;font-family:AdvOTbf7bbdaa;-inkscape-font-specification:AdvOTbf7bbdaa"
         x="-318.15921 -313.41528 -310.91931 -306.17538 -301.75943 -299.26346 -294.8475 -288.90598 -284.33005 -279.00211 -272.0686 -268.74063 -264.32471 -259.74875 -257.25278 -252.83684 -243.94894 -239.20502 -234.20508 -229.78912 -222.51881 -218.43887 -213.11093 -208.53499 -206.03903 -203.54306 -199.21831 -193.89038 -189.47443 -185.05849 -179.09216 -176.18019 -172.85223 -168.10829 -158.11563 -155.03566 -149.70773 -143.37581 -138.79987 -134.22392 -128.896 -125.81602 -121.24008 -116.82414 -110.43702 -105.43708 -100.69314 -98.197174 -92.86924 -87.873299 -83.129364 -78.179024 -75.09906 -69.771126 -63.439205 -58.863266 -54.199322 -49.455383 -44.87944 -40.463493 -37.215534 -29.215635 -24.88769 -19.559755 -16.479794 -13.983825 -9.2398844 -3.9119511 0.50399369 7.4271073 12.091049 14.587018 19.330957 21.826927 26.570868 30.986813 33.48278 37.562729 42.138672 46.601818 51.601753 54.097725 58.097675 62.177624 64.673592 69.673531 72.169495 74.665466 79.8806 84.296547 88.296494 92.466042 98.377968 104.3147 110.89141 115.89135 119.21931 123.96325 131.96315 134.45912 139.78705 144.203 149.44293"
         y="76.987839"
         sodipodi:role="line"
         id="tspan70">ologiesandreviewopenchallengesfromthevantagepointoftheabove-mentionedbiologicaldisciplines.Asaprominent</tspan><tspan
         style="font-size:7.99989986px;font-variant:normal;font-weight:normal;writing-mode:lr-tb;fill:#231f20;fill-opacity:1;fill-rule:nonzero;stroke:none;font-family:AdvOTbf7bbdaa;-inkscape-font-specification:AdvOTbf7bbdaa"
         x="-318.15921 -313.74329 -309.07935 -304.50339 -296.50348 -291.50357 -289.0076 -282.66928 -279.75729 -275.01337 -269.74304 -263.16632 -259.08636 -254.34242 -246.34251 -241.34259 -236.18265 -233.10269 -228.52675 -225.44678 -222.95081 -218.32207 -212.99414 -208.4182 -203.92226 -198.92232 -194.34637 -191.01842 -186.44247 -181.44254 -178.94656 -174.53062 -164.63394 -160.63399 -155.30606 -152.81009 -149.89813 -146.81816 -142.69342 -135.78151 -129.37038 -124.37045 -119.7945 -116.46655 -113.38658 -110.89062 -106.81066 -101.65073 -99.154762 -94.674019 -91.346062 -88.85009 -82.258171 -76.930237 -74.434273 -70.018326 -64.690392 -62.194424 -59.698452 -55.385708 -50.057774 -44.954639 -41.874676 -36.546741 -30.214823 -27.134861 -23.806902 -19.230959 -13.903027 -9.9030762 -7.4071074 -4.3271461 -1.8311771 2.9127636 10.207072 13.119036 16.446995 21.190935 31.12681 34.206772 39.534706 45.923428 49.251385 53.667328 58.667267 61.995224 66.411171 70.411118 74.723068 80.051003 83.130959 87.706902 90.786865 93.282837 98.026772 105.33708 110.08102 114.97456 118.30252 122.71847 125.63043 130.04637 133.37433 137.79028 143.11821 147.19817"
         y="87.986099"
         sodipodi:role="line"
         id="tspan72">exampleforacomputationalparadigmshift,weparticularlyhighlightthetransitionfromtherepresentationofreference</tspan><tspan
         style="font-size:7.99989986px;font-variant:normal;font-weight:normal;writing-mode:lr-tb;fill:#231f20;fill-opacity:1;fill-rule:nonzero;stroke:none;font-family:AdvOTbf7bbdaa;-inkscape-font-specification:AdvOTbf7bbdaa"
         x="-318.15921 -313.74329 -309.32733 -303.99939 -299.25546 -291.25555 -286.8396 -280.96848 -276.39255 -270.36703 -266.36707 -263.28711 -259.95914 -257.4632 -252.13525 -247.7193 -241.79378 -238.71382 -231.9859 -228.65794 -224.242 -219.24207 -215.91411 -211.49815 -207.6078 -203.19186 -197.86392 -194.78397 -190.20802 -187.12807 -184.6321 -179.88815 -174.56021 -168.60269 -164.02675 -158.05803 -153.64207 -150.31412 -145.73817 -140.73824 -135.41031 -131.41035 -127.33041 -118.75452 -112.3634 -107.61945 -102.45952 -99.379555 -96.883591 -94.387619 -89.059685 -82.713364 -77.385429 -72.641495 -63.777603 -60.697639 -55.369709 -52.873737 -46.883415 -42.307472 -36.979538 -29.989225 -25.245285 -22.165323 -16.837389 -12.421445 -7.1423106 -3.0623617 2.2655716 6.8415146 9.3374834 11.833452 16.158197 21.486132 25.902077 30.318022 36.284348 39.196308 42.524269 47.268208 57.204086 62.204021 64.699989 67.611954 70.523918 74.939865 78.267822 82.683769 88.011703 93.034035 97.609978 102.60992 107.60986 110.10583 112.60179 116.68174 121.25768 124.33765 126.83362 131.57756 138.84227 143.84221 148.58614"
         y="98.98436"
         sodipodi:role="line"
         id="tspan74">genomesasstringstorepresentationsasgraphs.Weoutlinehowthisandotherchallengesfromdifferentapplicationdo-</tspan><tspan
         style="font-size:7.99989986px;font-variant:normal;font-weight:normal;writing-mode:lr-tb;fill:#231f20;fill-opacity:1;fill-rule:nonzero;stroke:none;font-family:AdvOTbf7bbdaa;-inkscape-font-specification:AdvOTbf7bbdaa"
         x="-318.15921 -310.15933 -305.58337 -303.0874 -297.75949 -291.85394 -288.77399 -285.44604 -280.87009 -275.54214 -271.54221 -269.04623 -264.47031 -261.39032 -255.00322 -252.50725 -247.17931 -244.09935 -237.42824 -233.34828 -228.60434 -220.60445 -212.60454 -207.8606 -200.5775 -196.49754 -191.7536 -183.75371 -178.86417 -173.70422 -170.62427 -166.04832 -162.96837 -160.4724 -155.72845 -150.40051 -145.82457 -141.39023 -136.39029 -133.06233 -128.31839 -123.65446 -121.15849 -116.74254 -108.74264 -104.74269 -100.68434 -95.684402 -90.94046 -88.444496 -83.116562 -78.063828 -73.319885 -68.15995 -63.096809 -59.768852 -55.352909 -52.856937 -48.440994 -43.865051 -39.289108 -33.961174 -28.967638 -24.303696 -21.807728 -17.063787 -14.567818 -9.2398844 -6.3279209 -1.5839802 1.7439781 9.7438784 14.232622 17.312584 19.808552 23.888502 29.879627 32.959587 37.375534 41.455482 46.783417 52.111347 54.607319 59.607254 64.767189 69.054337 75.063858 79.639801 84.967735 91.958054 94.454018 99.453957 103.8699 109.19784 112.27779 114.77377 117.58333 124.16005 128.90399 133.90393 138.31987"
         y="109.98263"
         sodipodi:role="line"
         id="tspan76">mainstranslateintocommoncomputationalproblems,pointoutrelevantbioinformaticstechniquesandidentifyopen</tspan><tspan
         style="font-size:7.99989986px;font-variant:normal;font-weight:normal;writing-mode:lr-tb;fill:#231f20;fill-opacity:1;fill-rule:nonzero;stroke:none;font-family:AdvOTbf7bbdaa;-inkscape-font-specification:AdvOTbf7bbdaa"
         x="-318.15921 -313.15927 -309.83133 -305.08737 -300.42343 -297.92749 -293.61154 -285.61163 -279.60849 -277.11255 -269.80063 -265.72067 -260.97675 -252.97684 -247.9769 -242.81697 -239.737 -235.44505 -230.11632 -226.11638 -222.03642 -219.54045 -215.12451 -209.79659 -205.71663 -201.30069 -197.17754 -188.60164 -186.10567 -183.02571 -175.74741 -172.66743 -167.33951 -164.84354 -158.90921 -155.58125 -151.16531 -146.58937 -144.0934 -139.67746 -132.76553 -128.63519 -121.72328 -115.36896 -110.79301 -108.29704 -98.304375 -95.224411 -88.49649 -86.000526 -80.672592 -76.592644 -73.264687 -68.84874 -64.272797 -60.272846 -53.970524 -49.394581 -42.48267 -37.906727 -34.578766 -30.162823 -24.83489 -20.418945 -16.418995 -10.487069 -7.4071074 -2.079174 2.4967687 7.5415058 14.118223 16.614193 21.358133 23.854101 29.182035 34.244373 38.820316 43.820251 48.82019 52.148148 56.89209 61.468033 65.547981 72.795891 75.875854 82.603767 86.683716 91.427658 99.427559 104.31709 109.47703 112.55699 117.13293 120.2129 122.70887 127.4528 132.78075 137.35669 141.79103 146.79097 151.36691 156.69484"
         y="120.98089"
         sodipodi:role="line"
         id="tspan78">problemsincomputerscience.Withthisreview,weaimtoincreaseawarenessthatajointapproachtocomputationalpan-</tspan><tspan
         style="font-size:7.99989986px;font-variant:normal;font-weight:normal;writing-mode:lr-tb;fill:#231f20;fill-opacity:1;fill-rule:nonzero;stroke:none;font-family:AdvOTbf7bbdaa;-inkscape-font-specification:AdvOTbf7bbdaa"
         x="-318.15921 -313.74329 -309.32733 -303.99939 -299.25546 -291.25555 -288.75958 -284.67963 -278.81412 -274.73416 -270.15823 -262.82632 -257.49838 -253.08244 -250.58647 -243.66415 -239.08821 -234.08827 -229.08833 -225.76038 -221.34444 -217.34448 -211.40616 -203.40625 -198.83031 -193.50238 -186.97127 -182.22733 -177.33379 -174.25381 -168.92589 -162.53717 -157.53723 -154.20927 -149.46533 -144.80139 -142.30542 -137.88948 -129.99518 -123.98565 -119.9057 -114.74577 -111.41781 -108.08985 -103.6739 -98.34597 -95.355606 -92.859642 -86.284523 -83.372559 -78.796616 -74.716667 -70.30072 -63.324009 -60.828041 -53.516132 -48.940189 -44.364246 -41.036285 -38.540318 -33.796379 -28.636442 -22.674917 -17.674978 -12.931038 -4.9311385 -0.35519555 2.0431745 7.3711081 11.371058"
         y="131.97916"
         sodipodi:role="line"
         id="tspan80">genomicscanhelpaddressmanyoftheproblemscurrentlyfacedinvariousdomains.</tspan></text>
<text
       transform="matrix(1,0,0,-1,63.1559,288.28562)"
       id="text82"><tspan
         style="font-size:7.99989986px;font-variant:normal;font-weight:normal;writing-mode:lr-tb;fill:#231f20;fill-opacity:1;fill-rule:nonzero;stroke:none;font-family:'AdvOT1ab0d708.B';-inkscape-font-specification:'AdvOT1ab0d708.B'"
         x="0 5.5759301 9.9918747 16.610992 23.690905 28.354845 31.682804 36.682743 40.762691"
         y="0"
         sodipodi:role="line"
         id="tspan84">Keywords:</tspan></text>
<text
       transform="matrix(1,0,0,-1,110.15371,288.28562)"
       id="text86"><tspan
         style="font-size:7.99989986px;font-variant:normal;font-weight:normal;writing-mode:lr-tb;fill:#231f20;fill-opacity:1;fill-rule:nonzero;stroke:none;font-family:AdvOTbf7bbdaa;-inkscape-font-specification:AdvOTbf7bbdaa"
         x="0 4.9999375 9.5758801 14.903813 18.151773 22.567719 26.983664 32.311596 36.963539 44.963436 49.379383 53.517731 57.517681 61.933624 66.933563 72.093498 76.509445 81.837379 85.917328 92.238846 96.654793 99.98275 104.55869 109.55863 114.88657 118.99771 122.32567 126.74162 131.31757 138.27347 146.27338 150.84932 155.84926 160.84918 163.34515 168.6731 173.08904 177.16498 182.49292 187.06886 192.0688 194.56477 199.30872 202.38867 206.87181 211.87175 216.28769 220.28764 224.44679 229.44673 234.02267 237.10263 243.60895 247.6089 250.68887 254.01683 259.17676 263.25671 266.33667 271.49661 274.82455 279.1557"
         y="0"
         sodipodi:role="line"
         id="tspan88">pan-genome;sequencegraph;readmapping;haplotypes;datastructures</tspan></text>
<text
       transform="matrix(1,0,0,-1,63.1559,247.8046)"
       id="text90"><tspan
         style="font-size:10.00010014px;font-variant:normal;font-weight:normal;writing-mode:lr-tb;fill:#231f20;fill-opacity:1;fill-rule:nonzero;stroke:none;font-family:'AdvOT3c584a2f.B';-inkscape-font-specification:'AdvOT3c584a2f.B'"
         x="0 3.4300344 10.200102 13.840138 18.000179 24.040241 30.490305 37.150372 42.150421 45.790459 49.01049 55.16555"
         y="0"
         sodipodi:role="line"
         id="tspan92">Introduction</tspan></text>
<text
       transform="matrix(1,0,0,-1,63.1559,232.3275)"
       id="text94"><tspan
         style="font-size:7.49989986px;font-variant:normal;font-weight:normal;writing-mode:lr-tb;fill:#231f20;fill-opacity:1;fill-rule:nonzero;stroke:none;font-family:AdvOTbf7bbdaa;-inkscape-font-specification:AdvOTbf7bbdaa"
         x="0 2.4974668 12.245836 16.385782 20.525726 24.66567 28.805616 35.659775 38.547237 43.542168 52.4408 56.265751 60.713192 68.213089 72.900528 75.240494 79.38044 82.267906 91.218285 95.358231 99.498177 104.4931 108.94054 116.44044 125.40358 129.15353 133.29347 137.98091 142.81834 146.9583 151.95322 155.77817 164.69106 167.42102 171.86845 179.7711 182.65857 187.6535 196.60913 200.98157 205.27151 209.09647 211.98392 216.12387 219.24382 221.5838 226.42123"
         y="0"
         sodipodi:role="line"
         id="tspan96">In1995,thecompletegenomesequenceforthebacterium</tspan></text>
<text
       transform="matrix(1,0,0,-1,63.1559,221.78264)"
       id="text98"><tspan
         style="font-size:7.49989986px;font-variant:normal;font-weight:normal;writing-mode:lr-tb;fill:#231f20;fill-opacity:1;fill-rule:nonzero;stroke:none;font-family:'AdvOT8163c0db.I';-inkscape-font-specification:'AdvOT8163c0db.I'"
         x="0 5.5424261 9.6823711 13.117325 19.597239 23.347189 27.487133 31.777077 33.802048 35.827023 40.199463 47.565117 49.590088 53.880032 56.294998 58.319973 62.692413 66.216614 70.506561 74.256508 78.396454"
         y="0"
         sodipodi:role="line"
         id="tspan100">Haemophilusinfluenzae</tspan></text>
<text
       transform="matrix(1,0,0,-1,148.87526,221.78264)"
       id="text102"><tspan
         style="font-size:7.49989986px;font-variant:normal;font-weight:normal;writing-mode:lr-tb;fill:#231f20;fill-opacity:1;fill-rule:nonzero;stroke:none;font-family:AdvOTbf7bbdaa;-inkscape-font-specification:AdvOTbf7bbdaa"
         x="0 6.4799137 10.769856 18.425005 23.112442 27.949877 32.322319 34.662289 37.002258 40.752205 45.747139 49.887085 58.506721"
         y="0"
         sodipodi:role="line"
         id="tspan104">waspublished[</tspan><tspan
         style="font-size:7.49989986px;font-variant:normal;font-weight:normal;writing-mode:lr-tb;fill:#2e3192;fill-opacity:1;fill-rule:nonzero;stroke:none;font-family:AdvOTbf7bbdaa;-inkscape-font-specification:AdvOTbf7bbdaa"
         x="60.887939"
         y="0"
         id="tspan106">1</tspan><tspan
         style="font-size:7.49989986px;font-variant:normal;font-weight:normal;writing-mode:lr-tb;fill:#231f20;fill-opacity:1;fill-rule:nonzero;stroke:none;font-family:AdvOTbf7bbdaa;-inkscape-font-specification:AdvOTbf7bbdaa"
         x="65.026382 67.366348 73.247025 75.97699 80.424431 82.764397 85.104362 89.551804 96.031723 100.17166 108.8498 113.22224 121.37914 124.26659 129.26152 137.30966 141.05962 145.19957"
         y="0"
         sodipodi:role="line"
         id="tspan108">],followedbythese-</tspan><tspan
         style="font-size:7.49989986px;font-variant:normal;font-weight:normal;writing-mode:lr-tb;fill:#231f20;fill-opacity:1;fill-rule:nonzero;stroke:none;font-family:AdvOTbf7bbdaa;-inkscape-font-specification:AdvOTbf7bbdaa"
         x="-85.720108 -81.032669 -76.195236 -72.05529 -67.060356 -63.235405 -56.976742 -54.246777 -49.799335 -44.504406 -41.616943 -36.622013 -30.388094 -26.24815 -21.410715 -17.038273 -12.74833 -9.6283712 -5.338429 -0.79498941 2.0924721"
         y="10.48786"
         sodipodi:role="line"
         id="tspan110">quencefortheeukaryote</tspan></text>
<text
       transform="matrix(1,0,0,-1,157.2084,211.29478)"
       id="text112"><tspan
         style="font-size:7.49989986px;font-variant:normal;font-weight:normal;writing-mode:lr-tb;fill:#231f20;fill-opacity:1;fill-rule:nonzero;stroke:none;font-family:'AdvOT8163c0db.I';-inkscape-font-specification:'AdvOT8163c0db.I'"
         x="0 4.139945 8.2798901 11.399848 14.519807 18.80975 22.949694 26.078651 29.828602 36.308517 40.290962 43.410923 46.845875 52.4408 55.56076 58.995712 62.040672 65.475624 69.61557 71.640541 75.0755 77.100471 81.240417"
         y="0"
         sodipodi:role="line"
         id="tspan114">Saccharomycescerevisiae</tspan></text>
<text
       transform="matrix(1,0,0,-1,244.06174,211.29478)"
       id="text116"><tspan
         style="font-size:7.49989986px;font-variant:normal;font-weight:normal;writing-mode:lr-tb;fill:#231f20;fill-opacity:1;fill-rule:nonzero;stroke:none;font-family:AdvOTbf7bbdaa;-inkscape-font-specification:AdvOTbf7bbdaa"
         x="0 2.3399687 9.4108744 13.550819 17.690763 21.830709 28.119375"
         y="0"
         sodipodi:role="line"
         id="tspan118">in1996[</tspan><tspan
         style="font-size:7.49989986px;font-variant:normal;font-weight:normal;writing-mode:lr-tb;fill:#2e3192;fill-opacity:1;fill-rule:nonzero;stroke:none;font-family:AdvOTbf7bbdaa;-inkscape-font-specification:AdvOTbf7bbdaa"
         x="30.500593"
         y="0"
         id="tspan120">2</tspan><tspan
         style="font-size:7.49989986px;font-variant:normal;font-weight:normal;writing-mode:lr-tb;fill:#231f20;fill-opacity:1;fill-rule:nonzero;stroke:none;font-family:AdvOTbf7bbdaa;-inkscape-font-specification:AdvOTbf7bbdaa"
         x="34.639038 39.060978 43.350922 48.345856"
         y="0"
         sodipodi:role="line"
         id="tspan122">]and</tspan><tspan
         style="font-size:7.49989986px;font-variant:normal;font-weight:normal;writing-mode:lr-tb;fill:#231f20;fill-opacity:1;fill-rule:nonzero;stroke:none;font-family:AdvOTbf7bbdaa;-inkscape-font-specification:AdvOTbf7bbdaa"
         x="-180.90733 -178.01988 -173.02495 -165.99754 -163.65756 -159.36763 -154.3727 -149.68526 -142.18535 -137.89542 -134.77545 -127.50355 -122.81611 -117.97868 -113.60623 -111.26627 -108.9263 -105.10135 -100.81141 -97.923943 -95.583977 -91.136536 -83.227142 -78.779701 -73.136024 -70.248566 -65.253632 -58.282475 -53.28754 -48.450104 -40.878204 -36.588261 -28.746367 -24.606422 -20.466476 -15.471543 -11.024103 -3.5242031 3.5114532 5.8514218 13.715817 17.855762 21.995707 26.135651 33.161556"
         y="10.48786"
         sodipodi:role="line"
         id="tspan124">thelandmarkpublicationofthehumangenomein2001[</tspan><tspan
         style="font-size:7.49989986px;font-variant:normal;font-weight:normal;writing-mode:lr-tb;fill:#2e3192;fill-opacity:1;fill-rule:nonzero;stroke:none;font-family:AdvOTbf7bbdaa;-inkscape-font-specification:AdvOTbf7bbdaa"
         x="35.489529"
         y="10.48786"
         id="tspan126">3</tspan><tspan
         style="font-size:7.49989986px;font-variant:normal;font-weight:normal;writing-mode:lr-tb;fill:#231f20;fill-opacity:1;fill-rule:nonzero;stroke:none;font-family:AdvOTbf7bbdaa;-inkscape-font-specification:AdvOTbf7bbdaa"
         x="39.627972"
         y="10.48786"
         id="tspan128">,</tspan><tspan
         style="font-size:7.49989986px;font-variant:normal;font-weight:normal;writing-mode:lr-tb;fill:#2e3192;fill-opacity:1;fill-rule:nonzero;stroke:none;font-family:AdvOTbf7bbdaa;-inkscape-font-specification:AdvOTbf7bbdaa"
         x="44.559906"
         y="10.48786"
         id="tspan130">4</tspan><tspan
         style="font-size:7.49989986px;font-variant:normal;font-weight:normal;writing-mode:lr-tb;fill:#231f20;fill-opacity:1;fill-rule:nonzero;stroke:none;font-family:AdvOTbf7bbdaa;-inkscape-font-specification:AdvOTbf7bbdaa"
         x="48.698349 51.038319"
         y="10.48786"
         sodipodi:role="line"
         id="tspan132">].</tspan><tspan
         style="font-size:7.49989986px;font-variant:normal;font-weight:normal;writing-mode:lr-tb;fill:#231f20;fill-opacity:1;fill-rule:nonzero;stroke:none;font-family:AdvOTbf7bbdaa;-inkscape-font-specification:AdvOTbf7bbdaa"
         x="-180.90808 -175.91315 -170.91823 -166.77827 -163.02832 -156.8139 -153.06396 -148.92401 -144.23657 -139.39914 -135.2592 -130.26427 -126.43932 -122.29937 -118.54942 -114.40797 -110.11803 -105.1231 -98.364189 -90.864288 -86.574348 -81.579414 -75.17675 -67.676849 -63.229408 -60.109447 -53.916782 -51.02932 -46.034386 -41.744442 -36.73901 -34.009045 -29.561605 -27.221638 -24.881668 -20.434227 -13.954314 -9.8143692 -5.1269317 -1.0229864 3.971947 8.2618895 12.551832 18.8195 22.569448 26.709394 29.829351 34.119293 38.259239 45.011398 49.301342"
         y="20.975719"
         sodipodi:role="line"
         id="tspan134">Thesesequences,andmanymorethatfollowed,haveservedas</tspan><tspan
         style="font-size:7.49989986px;font-variant:normal;font-weight:normal;writing-mode:lr-tb;fill:#231f20;fill-opacity:1;fill-rule:nonzero;stroke:none;font-family:AdvOTbf7bbdaa;-inkscape-font-specification:AdvOTbf7bbdaa"
         x="-180.90808 -178.88312 -175.76315 -171.62321 -168.89325 -164.7533 -161.63335 -157.49339 -152.49847 -148.67352 -142.3166 -138.17665 -134.03671 -129.04178 -124.59434 -117.09444 -112.95449 -109.20454 -107.17957 -102.91588 -96.435966 -91.441032 -89.101059 -85.276115 -78.084457 -75.354492 -70.907051 -67.787094 -60.287197 -56.147251 -49.227844 -46.340382 -41.345448 -34.998283 -30.625841 -26.335899 -22.585949 -20.245979 -14.305309 -11.575346 -7.1279049 -1.8329755 2.5394661 6.986907 9.8743687 17.102022 24.601921 28.891865 31.231834 35.679276 41.025951 45.315895 50.003334"
         y="31.463579"
         sodipodi:role="line"
         id="tspan136">‘referencegenomes’,whichformedthebasisforbothmajorad-</tspan><tspan
         style="font-size:7.49989986px;font-variant:normal;font-weight:normal;writing-mode:lr-tb;fill:#231f20;fill-opacity:1;fill-rule:nonzero;stroke:none;font-family:AdvOTbf7bbdaa;-inkscape-font-specification:AdvOTbf7bbdaa"
         x="-180.90808 -176.61815 -172.3282 -167.33327 -163.50832 -159.36838 -152.05147 -149.7115 -141.10986 -138.3799 -133.54247 -128.54753 -124.72259 -121.83513 -119.49516 -115.04771 -110.05278 -105.76284 -99.837921 -95.697975 -91.558029 -86.563095 -82.036903 -74.537003 -72.197037 -68.372086 -61.060436 -56.770493 -51.775558 -43.542168 -40.812206 -36.364765 -29.652355 -25.902405 -23.014944 -18.177507 -13.49007 -9.2001276 -6.8601584 -1.8652251 5.8934216 10.033366 14.173311 19.168245 23.308189 26.19565 28.53562 35.940269 40.230213 44.520157 47.640114 49.980083"
         y="42.008438"
         sodipodi:role="line"
         id="tspan138">vancesinfunctionalgenomicsandforstudyinggeneticvari-</tspan><tspan
         style="font-size:7.49989986px;font-variant:normal;font-weight:normal;writing-mode:lr-tb;fill:#231f20;fill-opacity:1;fill-rule:nonzero;stroke:none;font-family:AdvOTbf7bbdaa;-inkscape-font-specification:AdvOTbf7bbdaa"
         x="-180.90808 -176.61815 -173.73068 -171.39072 -166.94327 -159.76212 -155.38968 -148.93376 -145.81381 -141.67386 -138.62891 -134.87895 -130.73901 -126.05157 -121.21413 -117.07419 -112.07925 -108.17181 -105.83184 -100.83691 -94.565491 -90.11805 -87.230583 -82.235657 -78.095711 -72.739281 -70.399315 -65.404381 -60.716942 -58.376972 -54.087029 -51.747059 -47.059624 -42.222187 -37.932243 -35.592274 -29.653105 -26.923141 -23.803183 -19.355742 -9.6403713 -6.7529101 -1.7579765 4.5329394 8.2828894 12.572832 20.072733 26.416147 30.166098 34.853535 38.993481 42.818428 45.158398 49.298344"
         y="52.4963"
         sodipodi:role="line"
         id="tspan140">ationbyre-sequencingotherindividualsfromthesamespecies</tspan><tspan
         style="font-size:7.49989986px;font-variant:normal;font-weight:normal;writing-mode:lr-tb;fill:#231f20;fill-opacity:1;fill-rule:nonzero;stroke:none;font-family:AdvOTbf7bbdaa;-inkscape-font-specification:AdvOTbf7bbdaa"
         x="-180.90808"
         y="62.984161"
         id="tspan142">[</tspan><tspan
         style="font-size:7.49989986px;font-variant:normal;font-weight:normal;writing-mode:lr-tb;fill:#2e3192;fill-opacity:1;fill-rule:nonzero;stroke:none;font-family:AdvOTbf7bbdaa;-inkscape-font-specification:AdvOTbf7bbdaa"
         x="-178.58386"
         y="62.984161"
         id="tspan144">5</tspan><tspan
         style="font-size:7.49989986px;font-variant:normal;font-weight:normal;writing-mode:lr-tb;fill:#231f20;fill-opacity:1;fill-rule:nonzero;stroke:none;font-family:AdvOTbf7bbdaa;-inkscape-font-specification:AdvOTbf7bbdaa"
         x="-174.44542"
         y="62.984161"
         id="tspan146">–</tspan><tspan
         style="font-size:7.49989986px;font-variant:normal;font-weight:normal;writing-mode:lr-tb;fill:#2e3192;fill-opacity:1;fill-rule:nonzero;stroke:none;font-family:AdvOTbf7bbdaa;-inkscape-font-specification:AdvOTbf7bbdaa"
         x="-170.70372"
         y="62.984161"
         id="tspan148">8</tspan><tspan
         style="font-size:7.49989986px;font-variant:normal;font-weight:normal;writing-mode:lr-tb;fill:#231f20;fill-opacity:1;fill-rule:nonzero;stroke:none;font-family:AdvOTbf7bbdaa;-inkscape-font-specification:AdvOTbf7bbdaa"
         x="-166.50829 -164.1683 -160.04561 -155.05069 -150.05576 -143.77458 -139.48463 -134.7972 -130.50726 -126.36732 -121.37238 -116.33545 -111.88801 -107.03783 -103.91786 -99.627922 -94.940483 -92.600517 -85.777855 -81.487915 -76.492981 -69.677071 -65.852119 -60.857189 -56.717243 -52.427299 -45.582893 -43.598419 -38.603485 -34.463539 -30.091099 -27.203638 -24.158678 -20.018734 -15.878788 -10.883855 -6.6351614 -3.5152032 0.77473968 3.6622012 6.0021701 10.449611 15.444544 19.613739 23.363689 27.503633 32.191071 37.028507 41.168449 46.163383 49.988335"
         y="62.984161"
         sodipodi:role="line"
         id="tspan150">].Theadventofrapidandcheap‘next-generation’sequenc-</tspan><tspan
         style="font-size:7.49989986px;font-variant:normal;font-weight:normal;writing-mode:lr-tb;fill:#231f20;fill-opacity:1;fill-rule:nonzero;stroke:none;font-family:AdvOTbf7bbdaa;-inkscape-font-specification:AdvOTbf7bbdaa"
         x="-180.90808 -178.56812 -173.57318 -166.67853 -163.79106 -159.65112 -155.82617 -150.83124 -145.8363 -141.38887 -139.04889 -134.60146 -130.46152 -128.12154 -123.9816 -117.41319 -113.66323 -111.32327 -106.32833 -102.50338 -95.586975 -91.447029 -87.307083 -83.167145 -76.255234 -71.2603 -66.97036 -60.437943 -57.550484 -52.713047 -49.59309 -44.598156 -40.45821 -32.99881 -29.878851 -25.738907 -22.693947 -18.943998 -14.804052 -10.116615 -5.2791796 -1.1392348 3.8556986 7.7631464 10.103115 15.098049 21.992706 24.332676 29.327608 32.215069 39.453976 43.901413 48.896347"
         y="73.472023"
         sodipodi:role="line"
         id="tspan152">ingtechnologiessince2006hasturnedre-sequencingintoone</tspan><tspan
         style="font-size:7.49989986px;font-variant:normal;font-weight:normal;writing-mode:lr-tb;fill:#231f20;fill-opacity:1;fill-rule:nonzero;stroke:none;font-family:AdvOTbf7bbdaa;-inkscape-font-specification:AdvOTbf7bbdaa"
         x="71.091553 75.538994 80.785919 83.673386 88.66832 95.298981 102.79888 107.24632 110.99627 116.38869 121.07613 125.52357 130.27852 135.11595 137.45592 141.74586 147.39929 154.89919 159.34662 164.03406 168.17401 171.29396 178.80661 182.94656 187.0865 192.08144 196.52888 204.02878 210.72469 215.01463 220.00957 224.29951 226.63948 230.92943 234.67937 237.01933 243.323 249.80292 254.25037 257.37033 261.74277 264.47272 266.81268 271.26013 277.74005 281.48999 286.0687 291.61111 297.86078 302.30823"
         y="-38.949982"
         sodipodi:role="line"
         id="tspan154">ofthemostpopularmoderngenomeanalysisworkflows.Asof</tspan><tspan
         style="font-size:7.49989986px;font-variant:normal;font-weight:normal;writing-mode:lr-tb;fill:#231f20;fill-opacity:1;fill-rule:nonzero;stroke:none;font-family:AdvOTbf7bbdaa;-inkscape-font-specification:AdvOTbf7bbdaa"
         x="71.091553 73.979012 78.426453 83.113892 87.403831 91.693779 95.809723 100.09966 107.14807 109.48804 114.48297 118.30792 121.42788 125.56783 130.25526 132.59523 136.96767 139.30765 145.52881 152.00873 156.14867 160.43861 162.77858 165.66605 172.74144 177.18889 181.98207 186.12202 190.26196 195.2569 199.70433 207.20424 209.5442 215.43088 219.72083 224.01076 227.13072 229.47069 233.76064 236.6481 238.98807 243.4355 250.57991 257.05981 259.39978 262.28726 267.2822 269.62216 276.65857 281.34601 285.79343 290.48087 295.3183 297.65829 301.94821"
         y="-28.46212"
         sodipodi:role="line"
         id="tspan156">today,anincrediblewealthofgenomicvariationwithinpopula-</tspan><tspan
         style="font-size:7.49989986px;font-variant:normal;font-weight:normal;writing-mode:lr-tb;fill:#231f20;fill-opacity:1;fill-rule:nonzero;stroke:none;font-family:AdvOTbf7bbdaa;-inkscape-font-specification:AdvOTbf7bbdaa"
         x="71.091553 73.979012 76.318985 80.766426 85.76136 92.124275 97.119202 101.40915 107.82832 112.11826 114.45822 117.57819 121.71812 126.00807 130.69551 137.64867 142.0211 146.16106 150.30099 157.88789 162.57533 166.71527 169.60274 173.74268 177.56763 180.45509 184.59503 189.35222 194.00066 198.6881 202.82805 205.948 213.44791 215.78787 218.67534 221.56279 223.90277 228.89771 235.66936 238.39932 243.23676 248.23169 252.05664 254.94411 257.28406 261.73151 266.72644 271.01639 276.03458 280.32452 285.31946 290.31439 294.76181 297.64929 301.93921"
         y="-17.97426"
         sodipodi:role="line"
         id="tspan158">tionshasalreadybeendetected,permittingfunctionalannota-</tspan><tspan
         style="font-size:7.49989986px;font-variant:normal;font-weight:normal;writing-mode:lr-tb;fill:#231f20;fill-opacity:1;fill-rule:nonzero;stroke:none;font-family:AdvOTbf7bbdaa;-inkscape-font-specification:AdvOTbf7bbdaa"
         x="71.091553 73.979012 76.318985 80.766426 88.495819 92.94326 98.360435 105.86034 110.15028 115.14522 122.17112 125.92107 130.7585 134.58345 142.2971 146.58705 150.87698 153.99695 156.33691 160.62686 165.6218 168.50925 172.2592 177.04939 181.33932 186.33426 193.77342 196.11339 201.71056 204.05052 210.4982 213.61815 217.7581 222.04803 225.79799 230.24544 235.24036 239.5303 243.90274 246.24272 253.13063 256.0181 263.1655 267.30545 271.67789 276.4313 280.57126 284.39621 289.98062 292.8681 297.86304 302.15298"
         y="-7.4864001"
         sodipodi:role="line"
         id="tspan160">tionofmanysuchvariants,anditisreasonabletoexpectthat</tspan><tspan
         style="font-size:7.49989986px;font-variant:normal;font-weight:normal;writing-mode:lr-tb;fill:#231f20;fill-opacity:1;fill-rule:nonzero;stroke:none;font-family:AdvOTbf7bbdaa;-inkscape-font-specification:AdvOTbf7bbdaa"
         x="71.091553 73.979012 78.973946 81.313919 86.965088 89.305061 94.902237 99.349678 104.34461 106.68458 112.9305 115.81796 120.81289 126.82031 131.19275 135.3327 139.47264 141.81261 146.80754 151.80247 154.14244 159.13737 163.27733"
         y="3.0584593"
         sodipodi:role="line"
         id="tspan162">thisisonlythebeginning.</tspan><tspan
         style="font-size:7.49989986px;font-variant:normal;font-weight:normal;writing-mode:lr-tb;fill:#231f20;fill-opacity:1;fill-rule:nonzero;stroke:none;font-family:AdvOTbf7bbdaa;-inkscape-font-specification:AdvOTbf7bbdaa"
         x="83.053894 91.093788 93.433754 96.321213 103.40637 106.29383 111.28876 117.46643 122.46136 127.29881 134.79871 139.17114 143.3111 148.53403 152.98146 157.7184 161.46835 165.60829 170.29573 175.13316 179.27312 184.26804 188.09299 192.23294 199.04735 203.18729 207.32724 212.32217 216.76961 224.26952 228.40945 234.19638 237.94633 240.83379 244.97374 249.33342 254.02086 256.36084 258.70081 265.03748 267.37744 272.37238 276.19733 279.31726 283.45721 287.74716 291.4971 293.8371 298.832 302.97195"
         y="13.546319"
         sodipodi:role="line"
         id="tspan164">Withthenumberofsequencedgenomessteadilyincreasing,</tspan><tspan
         style="font-size:7.49989986px;font-variant:normal;font-weight:normal;writing-mode:lr-tb;fill:#231f20;fill-opacity:1;fill-rule:nonzero;stroke:none;font-family:AdvOTbf7bbdaa;-inkscape-font-specification:AdvOTbf7bbdaa"
         x="71.091553 73.431519 80.275932 87.775833 92.065773 96.438217 100.57816 108.3383 112.08826 116.2282 121.22314 124.97308 133.11273 136.00018 144.45108 147.57103 151.71098 154.75594 157.6434 162.63834 164.9783 169.97324 178.35287 181.24033 186.23526 194.34041 196.68037 201.36781 205.50777 213.78615 218.2336 224.95425 233.23114 235.25612 238.37607 242.51602 245.24599 249.38593 252.50589 256.64581 261.64075 265.4657 269.60565 275.69333 279.83328 283.97321 288.96814 293.41559 300.9155"
         y="24.03418"
         sodipodi:role="line"
         id="tspan166">itmakessensetore-thinktheideaofa‘reference’genome</tspan><tspan
         style="font-size:7.49989986px;font-variant:normal;font-weight:normal;writing-mode:lr-tb;fill:#231f20;fill-opacity:1;fill-rule:nonzero;stroke:none;font-family:AdvOTbf7bbdaa;-inkscape-font-specification:AdvOTbf7bbdaa"
         x="71.091553"
         y="34.522041"
         id="tspan168">[</tspan><tspan
         style="font-size:7.49989986px;font-variant:normal;font-weight:normal;writing-mode:lr-tb;fill:#2e3192;fill-opacity:1;fill-rule:nonzero;stroke:none;font-family:AdvOTbf7bbdaa;-inkscape-font-specification:AdvOTbf7bbdaa"
         x="73.415771"
         y="34.522041"
         id="tspan170">9</tspan><tspan
         style="font-size:7.49989986px;font-variant:normal;font-weight:normal;writing-mode:lr-tb;fill:#231f20;fill-opacity:1;fill-rule:nonzero;stroke:none;font-family:AdvOTbf7bbdaa;-inkscape-font-specification:AdvOTbf7bbdaa"
         x="77.554214"
         y="34.522041"
         id="tspan172">,</tspan><tspan
         style="font-size:7.49989986px;font-variant:normal;font-weight:normal;writing-mode:lr-tb;fill:#2e3192;fill-opacity:1;fill-rule:nonzero;stroke:none;font-family:AdvOTbf7bbdaa;-inkscape-font-specification:AdvOTbf7bbdaa"
         x="82.203407 86.343346"
         y="34.522041"
         sodipodi:role="line"
         id="tspan174">10</tspan><tspan
         style="font-size:7.49989986px;font-variant:normal;font-weight:normal;writing-mode:lr-tb;fill:#231f20;fill-opacity:1;fill-rule:nonzero;stroke:none;font-family:AdvOTbf7bbdaa;-inkscape-font-specification:AdvOTbf7bbdaa"
         x="90.480293 92.820259 97.453697 101.82614 106.66357 110.48853 118.08968 125.00608 128.12604 132.26599 134.99596 139.13589 142.25586 146.3958 151.39073 155.21568 161.96935 165.71928 169.85924 174.54668 179.38411 183.52405 188.51898 192.34393 199.15985 202.98479 207.27473 214.86389 217.75134 222.04129 226.41373 233.17564 240.09206 245.08698 249.92442 257.42432 261.79675 265.93671 271.66962 276.11707 281.47723 284.20721 288.65466 291.7746 299.27451 303.02444"
         y="34.522041"
         sodipodi:role="line"
         id="tspan176">].Suchareferencesequencecantakeanumberofforms,</tspan><tspan
         style="font-size:7.49989986px;font-variant:normal;font-weight:normal;writing-mode:lr-tb;fill:#231f20;fill-opacity:1;fill-rule:nonzero;stroke:none;font-family:AdvOTbf7bbdaa;-inkscape-font-specification:AdvOTbf7bbdaa"
         x="71.091553 73.431519 78.426453 82.251404 84.59137 89.42881 94.116241 96.456215 101.45115 105.59109"
         y="45.009899"
         sodipodi:role="line"
         id="tspan178">including:</tspan></text>
<text
       transform="matrix(1,0,0,-1,320.1448,151.7669)"
       id="text180"><tspan
         style="font-size:6.99989986px;font-variant:normal;font-weight:normal;writing-mode:lr-tb;fill:#231f20;fill-opacity:1;fill-rule:nonzero;stroke:none;font-family:AdvPSSymbol;-inkscape-font-specification:AdvPSSymbol"
         x="0"
         y="0"
         id="tspan182">•</tspan></text>
<text
       transform="matrix(1,0,0,-1,327.3449,150.46282)"
       id="text184"><tspan
         style="font-size:6.99989986px;font-variant:normal;font-weight:normal;writing-mode:lr-tb;fill:#231f20;fill-opacity:1;fill-rule:nonzero;stroke:none;font-family:AdvOTbf7bbdaa;-inkscape-font-specification:AdvOTbf7bbdaa"
         x="0 2.6949615 7.356895 12.982715 16.846659 20.710604 25.372538 29.593477 36.593376 42.235996 46.386936 50.683475 56.466095 59.966042 62.150013 66.811943 70.675888 72.859856 78.519279 82.019226 85.883171 88.067139 91.931084 95.501038 98.195999 102.05994 108.22546 110.40942 115.07136 119.4463 121.63026 125.63421 127.89727 132.27222 136.78714 140.79109 142.97505"
         y="0"
         sodipodi:role="line"
         id="tspan186">thegenomeofasingleselectedindividual,</tspan></text>
<text
       transform="matrix(1,0,0,-1,320.1448,141.27825)"
       id="text188"><tspan
         style="font-size:6.99989986px;font-variant:normal;font-weight:normal;writing-mode:lr-tb;fill:#231f20;fill-opacity:1;fill-rule:nonzero;stroke:none;font-family:AdvPSSymbol;-inkscape-font-specification:AdvPSSymbol"
         x="0"
         y="0"
         id="tspan190">•</tspan></text>
<text
       transform="matrix(1,0,0,-1,327.3449,139.97417)"
       id="text192"><tspan
         style="font-size:6.99989986px;font-variant:normal;font-weight:normal;writing-mode:lr-tb;fill:#231f20;fill-opacity:1;fill-rule:nonzero;stroke:none;font-family:AdvOTbf7bbdaa;-inkscape-font-specification:AdvOTbf7bbdaa"
         x="0 5.7826176 9.3525667 13.503507 18.16544 21.66539 25.529335 30.273167 33.773117 38.288052 43.539379 47.914314 50.826275 54.830215 60.878132 67.349541 69.897499 72.809464 76.960403 85.774673 89.778618 96.205925 100.06987 104.7318 107.42677 109.61073 112.52269 118.14571 122.52065 126.67159 131.12843 135.64336 137.82733 141.83127 144.52623 146.71021 150.86115 155.52307"
         y="0"
         sodipodi:role="line"
         id="tspan194">aconsensusdrawnfromanentirepopulation,</tspan></text>
<path
       d="m 63.156,103.351 485.972,0 0,0.22678 -485.972,0 0,-0.22678 z"
       style="fill:#231f20;fill-opacity:1;fill-rule:nonzero;stroke:none"
       id="path196"
       inkscape:connector-curvature="0" /><text
       transform="matrix(1,0,0,-1,63.1559,89.5748)"
       id="text198"><tspan
         style="font-size:6.50010014px;font-variant:normal;font-weight:normal;writing-mode:lr-tb;fill:#231f20;fill-opacity:1;fill-rule:nonzero;stroke:none;font-family:'AdvOT1ab0d708.B';-inkscape-font-specification:'AdvOT1ab0d708.B'"
         x="0 3.9260604 8.255127 12.181188 18.681288 20.709318 23.075356 25.441391 29.029446 33.09201"
         y="0"
         sodipodi:role="line"
         id="tspan200">Submitted:</tspan></text>
<text
       transform="matrix(1,0,0,-1,99.722863,89.5748)"
       id="text202"><tspan
         style="font-size:6.50010014px;font-variant:normal;font-weight:normal;writing-mode:lr-tb;fill:#231f20;fill-opacity:1;fill-rule:nonzero;stroke:none;font-family:AdvOTbf7bbdaa;-inkscape-font-specification:AdvOTbf7bbdaa"
         x="0 3.5880551 8.7874851 14.741577 18.459635 23.811167 27.399221 30.987276 34.575333 38.163387"
         y="0"
         sodipodi:role="line"
         id="tspan204">14May2016;</tspan></text>
<text
       transform="matrix(1,0,0,-1,141.2221,89.5748)"
       id="text206"><tspan
         style="font-size:6.50010014px;font-variant:normal;font-weight:normal;writing-mode:lr-tb;fill:#231f20;fill-opacity:1;fill-rule:nonzero;stroke:none;font-family:'AdvOT1ab0d708.B';-inkscape-font-specification:'AdvOT1ab0d708.B'"
         x="0 4.1925645 7.7806196 11.03067 14.618725 16.646755 20.364813 23.952869 29.593006 31.484535 33.512566 39.514107 42.218151 45.806206 49.524261 51.552292 54.867344 58.455399 64.118286 66.347824 70.137383 72.841423 79.341522 81.233047"
         y="0"
         sodipodi:role="line"
         id="tspan208">Received(inrevisedform):</tspan></text>
<text
       transform="matrix(1,0,0,-1,225.921,89.5748)"
       id="text210"><tspan
         style="font-size:6.50010014px;font-variant:normal;font-weight:normal;writing-mode:lr-tb;fill:#231f20;fill-opacity:1;fill-rule:nonzero;stroke:none;font-family:AdvOTbf7bbdaa;-inkscape-font-specification:AdvOTbf7bbdaa"
         x="0 3.5880551 8.7874851 13.591059 17.783623 21.371679 25.564243 28.814293 32.937958 36.526012 40.114067 43.702122"
         y="0"
         sodipodi:role="line"
         id="tspan212">17August2016</tspan></text>
<text
       transform="matrix(1,0,0,-1,62.8157,77.9527)"
       id="text214"><tspan
         style="font-size:5.66489983px;font-variant:normal;font-weight:normal;writing-mode:lr-tb;fill:#231f20;fill-opacity:1;fill-rule:nonzero;stroke:none;font-family:AdvP80516;-inkscape-font-specification:AdvP80516"
         x="0"
         y="0"
         id="tspan216">V</tspan></text>
<text
       transform="matrix(1,0,0,-1,63.8362,78.463)"
       id="text218"><tspan
         style="font-size:3.72259998px;font-variant:normal;font-weight:normal;writing-mode:lr-tb;fill:#231f20;fill-opacity:1;fill-rule:nonzero;stroke:none;font-family:AdvOTbf7bbdaa;-inkscape-font-specification:AdvOTbf7bbdaa"
         x="0"
         y="0"
         id="tspan220">C</tspan></text>
<text
       transform="matrix(1,0,0,-1,69.052,77.5559)"
       id="text222"><tspan
         style="font-size:6.50010014px;font-variant:normal;font-weight:normal;writing-mode:lr-tb;fill:#231f20;fill-opacity:1;fill-rule:nonzero;stroke:none;font-family:AdvOTbf7bbdaa;-inkscape-font-specification:AdvOTbf7bbdaa"
         x="0 4.3290668 8.6581335 13.889414 18.692987 22.885551 25.38809 29.717157 33.571716 37.870232 41.458286 45.046345 48.634399 52.222454 55.614857 59.332912 63.525478 67.315033 69.343063 71.371101 74.621147 78.950218 82.538269 88.155655 91.945213 97.283096 102.15817 105.94773 108.31377 112.16833 114.87237 120.58336 125.45843 129.78749 131.81552 135.53358 139.12164 141.82568 145.07573 147.10376 149.60631 154.88179 158.59984 161.30388 164.89194 168.14198 171.39204"
         y="0"
         sodipodi:role="line"
         id="tspan224">TheAuthor2016.PublishedbyOxfordUniversityPress.</tspan><tspan
         style="font-size:6.50010014px;font-variant:normal;font-weight:normal;writing-mode:lr-tb;fill:#231f20;fill-opacity:1;fill-rule:nonzero;stroke:none;font-family:AdvOTbf7bbdaa;-inkscape-font-specification:AdvOTbf7bbdaa"
         x="-5.8962407 -1.5671741 2.7618926 4.7899237 10.37416 12.402191 18.027378 21.745434 28.458738 33.333813 37.396374 40.984432 47.677582 52.481159 55.796207 59.111259 62.699314 65.949364 71.601852 75.319908 78.023949 80.526489 82.55452 85.869568 87.897606 93.825043 97.887604 99.915634 103.16569 105.66823 108.37227 110.4003 114.18986 118.38242 120.88496 124.47301 130.90161 135.09418 139.42325 143.48581 147.07387 152.16084 154.66338 158.99245 164.91664 167.41917 171.00723 173.71127 180.21138 185.83591 189.69048 194.45309 196.95563 201.2847 207.20889 211.60945 214.31349 217.90155 221.61961 224.12215 226.15018 229.86824 235.83792 240.23849 244.09305 250.59315 257.09326 260.94781 265.27689 270.87347 275.67703 278.17957 280.68213 283.38617 285.41418 289.20374 293.3963 295.89886 297.92688 301.78143 308.4603 312.04834 314.07639 317.39142 320.97949 325.30856 328.55859 334.5387 336.56674 340.89578 343.39835 345.90088 349.96344 351.71848 354.0845 356.45053 359.76559 362.46964 366.05768 369.77573 372.27829 374.3063 378.02435 381.53638 384.85141 388.70599 395.20609 401.70618 405.56073 409.8898 413.13986 414.8949 418.74945 421.45349 425.04153 427.40756 429.43561 431.46362 434.77869 438.36673 442.6958 445.94586 449.53391 452.78397 455.14999 458.93958 462.65762 465.03015 468.56491 470.31995 473.90799 476.27402 478.30206"
         y="9.4673958"
         sodipodi:role="line"
         id="tspan226">ThisisanOpenAccessarticledistributedunderthetermsoftheCreativeCommonsAttributionLicense(http://creativecommons.org/licenses/by/4.0/),</tspan><tspan
         style="font-size:6.50010014px;font-variant:normal;font-weight:normal;writing-mode:lr-tb;fill:#231f20;fill-opacity:1;fill-rule:nonzero;stroke:none;font-family:AdvOTbf7bbdaa;-inkscape-font-specification:AdvOTbf7bbdaa"
         x="-5.8962407 -0.28015432 4.0489125 6.0769434 9.3919945 15.306436 19.368998 22.957052 25.661095 32.161194 34.189224 36.691765 41.554489 45.747055 50.076122 52.780163 56.368217 59.618267 62.120804 64.824844 66.852875 70.167931 72.670471 76.258522 81.918808 84.622849 88.210907 92.403473 95.653519 99.241577 102.61123 106.67379 108.70182 111.95187 114.45441 117.15845 119.18649 122.97604 127.16861 129.67114 131.69917 135.55374 139.8828 143.20241 146.92046 151.24953 156.92216 159.62621 163.21426 167.27682 169.98087 173.83542 177.89798 182.09055 185.40561 187.90814 189.93617 193.79073 199.72467 201.7527 207.71849 211.43655 215.76562 221.09766 227.59775 231.18581 235.24837 237.2764 241.46896 247.96907 251.31401 255.37657 258.08063 261.93518 265.65323 267.68127 271.74384 275.33188 281.02078 283.52332 287.85239 293.03946 296.89401 299.59805 301.6261 305.21414 307.24219 311.57126 315.28931 318.94757 324.56363 328.41821 331.12225 336.52188 338.5499 343.38144 347.444 350.14804 354.00259 358.06516 361.65323 364.35727 366.38528 371.72708 375.04211 377.07016 379.57269 383.16074 387.2233"
         y="18.991993"
         sodipodi:role="line"
         id="tspan228">whichpermitsunrestrictedreuse,distribution,andreproductioninanymedium,providedtheoriginalworkisproperlycited.</tspan></text>
<text
       transform="matrix(1,0,0,-1,532.5731,38.211)"
       id="text230"><tspan
         style="font-size:7.80009985px;font-variant:normal;font-weight:normal;writing-mode:lr-tb;fill:#231f20;fill-opacity:1;fill-rule:nonzero;stroke:none;font-family:'AdvOT3c584a2f.B';-inkscape-font-specification:'AdvOT3c584a2f.B'"
         x="0"
         y="0"
         id="tspan232">1</tspan></text>
<path
       d="m 315.156,722.664 294.009,0 0,1.9843 -294.009,0 0,-1.9843 z"
       style="fill:#deddde;fill-opacity:1;fill-rule:nonzero;stroke:none"
       id="path234"
       inkscape:connector-curvature="0" /><path
       d="m 315.156,690.973 294.009,0 0,1.9842 -294.009,0 0,-1.9842 z"
       style="fill:#deddde;fill-opacity:1;fill-rule:nonzero;stroke:none"
       id="path236"
       inkscape:connector-curvature="0" /><text
       transform="matrix(1,0,0,-1,315.1558,732.6423)"
       id="text238"><tspan
         style="font-size:7.99989986px;font-variant:normal;font-weight:normal;writing-mode:lr-tb;fill:#231f20;fill-opacity:1;fill-rule:nonzero;stroke:none;font-family:'AdvOT8163c0db.I';-inkscape-font-specification:'AdvOT8163c0db.I'"
         x="0 4.6639419 7.911901 10.071874 13.735828 16.311796 18.471769 23.047712 27.21246 32.881989 35.041962 41.613079 46.277023 48.436993 52.436943 54.596916 59.172859 61.748829 65.748779 68.996735 75.908653 80.220596 82.964561 85.124535 88.452492"
         y="0"
         sodipodi:role="line"
         id="tspan240">BriefingsinBioinformatics</tspan></text>
<text
       transform="matrix(1,0,0,-1,407.28105,732.6423)"
       id="text242"><tspan
         style="font-size:7.99989986px;font-variant:normal;font-weight:normal;writing-mode:lr-tb;fill:#231f20;fill-opacity:1;fill-rule:nonzero;stroke:none;font-family:AdvOTbf7bbdaa;-inkscape-font-specification:AdvOTbf7bbdaa"
         x="0 4.1383481 8.5542927 12.970238 17.386183 21.802128 25.908476 30.324421 34.324371 38.740314"
         y="0"
         sodipodi:role="line"
         id="tspan244">,2016,1–18</tspan></text>
<text
       transform="matrix(1,0,0,-1,315.1558,710.4754)"
       id="text246"><tspan
         style="font-size:6.50010014px;font-variant:normal;font-weight:normal;writing-mode:lr-tb;fill:#231f20;fill-opacity:1;fill-rule:nonzero;stroke:none;font-family:'AdvOT1ab0d708.B';-inkscape-font-specification:'AdvOT1ab0d708.B'"
         x="0 4.0625625 7.8521209 9.8801517 13.379156 17.168715 20.958273 22.849802 26.63936 30.428919 34.218475 38.008034 40.374073 44.300133 46.328163 50.254223 52.620258 56.546318 60.472382 66.224968 70.014526 73.804085"
         y="0"
         sodipodi:role="line"
         id="tspan248">doi:10.1093/bib/bbw089</tspan></text>
<text
       transform="matrix(1,0,0,-1,315.1558,700.9508)"
       id="text250"><tspan
         style="font-size:6.50010014px;font-variant:normal;font-weight:normal;writing-mode:lr-tb;fill:#231f20;fill-opacity:1;fill-rule:nonzero;stroke:none;font-family:AdvOTbf7bbdaa;-inkscape-font-specification:AdvOTbf7bbdaa"
         x="0 3.7180572 7.4361143 11.498677 15.086732"
         y="0"
         sodipodi:role="line"
         id="tspan252">Paper</tspan></text>
<g
       id="g254"><g
         id="g256"
         clip-path="url(#clipPath258)"><path
           d="m 63.156,681.619 56.636,0 0,56.636 -56.636,0 0,-56.636 z"
           style="fill:#706d6e;fill-opacity:1;fill-rule:nonzero;stroke:none"
           id="path262"
           inkscape:connector-curvature="0" /></g></g><g
       id="g264"
       transform="translate(108.196,694.536)"><path
         d="m 0,0 c -0.134,0 -0.297,-0.015 -0.447,-0.059 l 0,-4.605 c 0,-0.789 0.313,-0.983 1.103,-0.983 1.609,0 2.472,1.207 2.472,2.727 C 3.128,-1.043 1.788,0 0,0 z M 3.486,-4.857 C 2.816,-5.542 1.832,-5.945 0.864,-5.945 L -2.503,-5.96 c -0.015,0 -0.03,0 -0.045,0 l -0.03,0 c -0.074,-0.015 -0.194,0 -0.267,0 -0.805,0.015 -1.118,0.06 -1.818,0.492 -1.192,0.745 -1.729,1.58 -2.578,2.696 0.686,0 1.669,0.641 1.669,1.386 0,1.014 -1.013,1.386 -1.863,1.386 l -0.014,0 c -0.016,-1.549 -0.046,-3.084 -0.046,-4.634 0,-0.953 0.313,-0.924 1.223,-1.043 l 0,-0.283 -2.325,0 c 0.016,1.624 0.06,3.233 0.06,4.842 0,0.239 0,0.85 -0.209,1.028 -0.134,0.12 -0.432,0.105 -0.611,0.105 l 0,0.268 c 0.805,0.015 1.595,0.045 2.384,0.045 0.998,0 2.593,-0.179 2.593,-1.505 0,-0.879 -0.745,-1.46 -1.535,-1.684 0.567,-0.67 2.354,-2.816 3.307,-2.816 0.909,0 1.163,0.388 1.163,1.267 l 0,3.158 c 0,0.954 -0.164,1.162 -1.133,1.311 l 0,0.239 c 0.865,0.015 1.729,0.03 2.593,0.03 2.16,0 4.365,-0.581 4.365,-3.144 0,-0.775 -0.342,-1.49 -0.894,-2.041 z m -15.211,3.963 c -0.433,0.67 -1.059,1.118 -1.878,1.118 -1.669,0 -2.205,-1.521 -2.205,-2.936 0,-0.685 0.12,-1.46 0.492,-2.041 0.431,-0.656 1.088,-1.102 1.892,-1.102 1.713,0 2.175,1.519 2.175,2.964 0,0.671 -0.119,1.431 -0.476,1.997 z m -1.818,-5.289 c -2.011,0 -3.516,1.326 -3.516,3.382 0,2.056 1.534,3.352 3.531,3.352 2.056,0 3.53,-1.311 3.53,-3.412 0,-2.026 -1.579,-3.322 -3.545,-3.322 z m -4.321,5.11 c -0.135,1.088 -1.132,1.043 -1.981,1.043 l -0.567,0 0,-2.414 0.656,0 c 0.387,0 0.774,0 1.147,0.06 l 0,-1.549 -0.223,0 c -0.06,1.177 -0.582,0.983 -1.58,0.983 l 0,-1.535 c 0,-1.102 0.134,-1.043 1.192,-1.237 l 0,-0.238 -6.198,0 -1.684,2.638 c -0.268,-0.328 -1.147,-1.52 -1.147,-1.893 0,-0.327 0.462,-0.432 0.7,-0.521 l -0.014,-0.224 -2.772,0 0,0.283 c 1.132,0.06 1.461,0.507 2.056,1.386 l 0.924,1.311 -0.998,1.654 c -0.447,0.73 -1.013,1.356 -1.922,1.371 l 0,0.283 2.1,0 1.55,-2.399 c 0.224,0.343 0.939,1.371 0.939,1.743 0,0.328 -0.432,0.343 -0.671,0.387 l 0,0.269 2.667,0 0,-0.269 c -1.073,-0.074 -1.475,-0.536 -2.041,-1.385 -0.224,-0.358 -0.447,-0.7 -0.685,-1.058 l 1.311,-2.042 c 0.402,-0.625 0.894,-1.251 1.713,-1.251 0.939,0 1.922,0.06 1.922,1.222 l 0,3.397 c 0,0.909 -0.193,1.028 -1.102,1.162 l 0,0.238 4.872,0 0.104,-1.415 -0.268,0 z m -14.512,0.179 c -0.432,0.67 -1.058,1.118 -1.862,1.118 -1.684,0 -2.221,-1.505 -2.221,-2.936 0,-0.685 0.12,-1.46 0.507,-2.041 0.432,-0.641 1.088,-1.088 1.877,-1.088 1.729,0 2.176,1.52 2.176,2.95 0,0.671 -0.119,1.431 -0.477,1.997 z m -1.803,-5.289 c -2.026,0 -3.531,1.326 -3.531,3.397 0,2.056 1.535,3.337 3.531,3.337 2.056,0 3.531,-1.296 3.531,-3.397 0,-2.041 -1.564,-3.337 -3.531,-3.337"
         style="fill:#ffffff;fill-opacity:1;fill-rule:nonzero;stroke:none"
         id="path266"
         inkscape:connector-curvature="0" /><g
         id="g268"
         transform="translate(-108.196,-694.536)"><text
           transform="matrix(1,0,0,-1,117.41124,767)"
           id="text270"><tspan
             style="font-size:11px;font-variant:normal;font-weight:bold;writing-mode:lr-tb;fill:#000000;fill-opacity:1;fill-rule:nonzero;stroke:none;font-family:Helvetica;-inkscape-font-specification:Helvetica-Bold"
             x="0 7.9419999 12.221 15.279 21.395 25.058001 28.115999 34.837002 41.557999 47.674 50.731998 53.790001 60.511002 63.569 71.511002 74.569 81.290001 84.348 91.069 94.732002 101.453 105.732 115.511 121.627 125.29 128.34801 134.464 140.58 143.638 151.58 158.30099 164.41701 170.533 177.254 183.37 189.48599 192.54401 200.48599 206.60201 212.718 218.834 224.95 231.06599 234.12399 240.845 247.56599 254.287 257.345 260.40302 266.51901 273.23999 279.35599 286.077 289.13501 297.69299 303.80899 307.47198 314.19299 320.914 327.03 331.30899 334.367 340.483 346.599 349.65701 352.715 358.83099 364.94699 371.06299"
             y="0"
             sodipodi:role="line"
             id="tspan272">Briefings in Bioinformatics Advance Access published October 21, 2016</tspan></text>
<text
           transform="matrix(0,-1,-1,0,596,396.44012)"
           id="text274"><tspan
             style="font-size:8px;font-variant:normal;font-weight:normal;writing-mode:lr-tb;fill:#000000;fill-opacity:1;fill-rule:nonzero;stroke:none;font-family:Times New Roman;-inkscape-font-specification:Times-Roman"
             x="0 3.552 5.776 7.776 14.888 19.336 22 24 29.336 33.335999 39.560001 43.560001 47.560001 49.784 53.335999 56 58 62.448002 66 68.223999 71.776001 75.776001 79.328003 82.879997 84.879997 88.879997 92.879997 94.879997 100.656 104.656 108.656 112.208 118.432 122.432 125.984 128.64799 130.64799 134.64799 138.64799 140.64799 142.64799 146.64799 150.64799 154.64799"
             y="0"
             sodipodi:role="line"
             id="tspan276">at MPI Computer Science on November 15, 2016</tspan><tspan
             style="font-size:8px;font-variant:normal;font-weight:normal;writing-mode:lr-tb;fill:#0000ff;fill-opacity:1;fill-rule:nonzero;stroke:none;font-family:Times New Roman;-inkscape-font-specification:Times-Roman"
             x="-95.335838 -91.335838 -89.111839 -86.88784 -82.88784 -80.663841 -78.439842 -76.215843 -72.215843 -69.991837 -65.991837 -63.99184 -59.99184 -55.99184 -53.327839 -49.327839 -46.663841 -42.663841 -40.439838 -36.439838 -32.439838 -29.775841 -25.775841 -22.223841 -19.99984 -16.88784 -14.88784 -10.88784 -8.2238398 -4.2238402"
             y="0"
             sodipodi:role="line"
             id="tspan278">http://bib.oxfordjournals.org/</tspan><tspan
             style="font-size:8px;font-variant:normal;font-weight:normal;writing-mode:lr-tb;fill:#000000;fill-opacity:1;fill-rule:nonzero;stroke:none;font-family:Times New Roman;-inkscape-font-specification:Times-Roman"
             x="-155.76768 -149.99168 -145.99168 -140.21568 -136.21568 -133.99168 -129.99168 -126.43968 -122.43968 -118.88768 -114.88768 -112.88768 -110.22368 -107.55968 -103.55968 -97.335678"
             y="0"
             sodipodi:role="line"
             id="tspan280">Downloaded from </tspan></text>
</g></g><rect
       style="fill:none;stroke:#000000;stroke-width:2;stroke-linecap:round;stroke-linejoin:round;stroke-miterlimit:4;stroke-opacity:1;stroke-dasharray:none;stroke-dashoffset:0"
       id="rect3257"
       width="767.15955"
       height="988.56946"
       x="0"
       y="0.013033133"
       transform="matrix(0.8,0,0,-0.8,0,790.866)"
       ry="7.978703" /></g></svg>