<?xml version="1.0" encoding="UTF-8" standalone="no"?>
<!-- Created with Inkscape (http://www.inkscape.org/) -->

<svg
   xmlns:dc="http://purl.org/dc/elements/1.1/"
   xmlns:cc="http://creativecommons.org/ns#"
   xmlns:rdf="http://www.w3.org/1999/02/22-rdf-syntax-ns#"
   xmlns:svg="http://www.w3.org/2000/svg"
   xmlns="http://www.w3.org/2000/svg"
   xmlns:xlink="http://www.w3.org/1999/xlink"
   xmlns:sodipodi="http://sodipodi.sourceforge.net/DTD/sodipodi-0.dtd"
   xmlns:inkscape="http://www.inkscape.org/namespaces/inkscape"
   version="1.0"
   width="502.31918"
   height="180.61208"
   viewBox="0 0 5.5813243 2.0068008"
   id="svg3069"
   xml:space="preserve"
   inkscape:version="0.48.3.1 r9886"
   sodipodi:docname="chromosome-set.svg"><metadata
   id="metadata891"><rdf:RDF><cc:Work
       rdf:about=""><dc:format>image/svg+xml</dc:format><dc:type
         rdf:resource="http://purl.org/dc/dcmitype/StillImage" /><dc:title></dc:title></cc:Work></rdf:RDF></metadata><sodipodi:namedview
   pagecolor="#ffffff"
   bordercolor="#666666"
   borderopacity="1"
   objecttolerance="10"
   gridtolerance="10"
   guidetolerance="10"
   inkscape:pageopacity="0"
   inkscape:pageshadow="2"
   inkscape:window-width="1636"
   inkscape:window-height="1292"
   id="namedview889"
   showgrid="true"
   inkscape:zoom="0.6395664"
   inkscape:cx="431.05698"
   inkscape:cy="-218.17702"
   inkscape:window-x="594"
   inkscape:window-y="171"
   inkscape:window-maximized="0"
   inkscape:current-layer="svg3069"
   fit-margin-top="0"
   fit-margin-left="0"
   fit-margin-right="0"
   fit-margin-bottom="0"><inkscape:grid
     type="xygrid"
     id="grid5741"
     empspacing="5"
     visible="true"
     enabled="true"
     snapvisiblegridlinesonly="true"
     originx="-14.090715px"
     originy="-546.83594px" /></sodipodi:namedview>
 <defs
   id="defs3071">
  <style
   type="text/css"
   id="style3073" />
  <radialGradient
   cx="3.2439799"
   cy="1.64415"
   r="0.56517702"
   fx="3.2439799"
   fy="1.64415"
   id="id0"
   gradientUnits="userSpaceOnUse">
   <stop
   style="stop-color:#ffffff;stop-opacity:1"
   offset="0"
   id="stop3076" />
   <stop
   style="stop-color:#8d5739;stop-opacity:1"
   offset="1"
   id="stop3078" />
  </radialGradient>
  <radialGradient
   cx="3.12991"
   cy="1.9420201"
   r="1.07412"
   fx="3.12991"
   fy="1.9420201"
   id="id1"
   gradientUnits="userSpaceOnUse">
   <stop
   style="stop-color:#ffffff;stop-opacity:1"
   offset="0"
   id="stop3081" />
   <stop
   style="stop-color:#e5dcc6;stop-opacity:1"
   offset="1"
   id="stop3083" />
  </radialGradient>
 
  
  
  
  
  
  
  
  
  
  
  
  
  
  
  
  
  
  
  
  
  
  
  
  
  
  
  
  
  
  
  
  
  
  
  
  
  
  
  
  
  
  
  
  
  
  
  
  
  
  
  
  
  
  
  
  
  
  
  
  
  
  
  
  
  
  
  
  
  
  
  
  
  
  
  
  
  
  
  
  
  
  
  
  
  
  
  
  
  
  
  
  
  
  
  
  
  
  
  
  
  
  
  
  
  
  
  
  
  
  
  
  
  
  
  
  
  
  
  
  
  
  
  
  
  
  
  
  
  
  
  
  
  
  
  
  
  
  
  
  
  
  
  
  
  
  
  
  
  
  
  
  
  
  
  
  
  
  
  
  
  
  
  
  
  
  
  
  
  
  
  
  
  
  
  
  
  
  
  
  
  
  
  
  
  
  
  
  
  
  
  
  
  
  
  
  
  
  
  
  
  
  
  
  
  
  
  
  
  
  
  
  
  
  
  
  
  
  
  
  
  
  
  
  
  
  
  
  
  
  
  
  
  
  
  
  
  
  
  
  
  
  
  
  
  
  
  
  
  
  
  
  
  
  
  
  
  
  
  
  
  
  
  
  
  
  
  
  
  
  
  
  
  
  
  
  
  
  
  
  
  
  
  
  
  
  
  
  
  
  
  
  
  
  
  
  
  
  
  
  
  
  
  
  
  
  
  
  
  
  
  
  
  
  
  
  
  
  
  
  
  
  
  
  
  
  
  
  
  
  
  
  
  
  
  
  
  
  
  
  
  
  
  
  
  
  
  
  
  
  
  
  
  
  
  
  
  
  
  
  
  
  
  
  
  
  
  
  
  
  
  
  
  
  
  
  
  
  
  
  
  
  
  
  
  
  
  
  
  
  
  
  
  
  
  
  
  
  
  
  
  
  
  
  
  
  
  
  
  
  
  
  
  
  
  
  
  
  
  
  
  
  
  
  
  
  
  
  
  
  
  
  
  
  
  
  
  
  
  
  
  
  
  
  
  
  
  
  
  
  
  
  
  
  
  
  
  
  
  
  
  
  
  
  
  
  
  
  
  
  
  
  
  
  
  
  
  
  
  
  
  
  
  
  
  
  
  
  
  
  
  
  
  
  
  
  
  
  
  
  
  
  
  
  
  
  
  
  
  
  
  
  
  
  
  
  
  
  
  
  
  
  
  
  
  
  
  
  
  
  
  
  
  
  
  
  
  
  
  
  
  
  
  
  
  
  
  
  
  
  
  
  
  
  
  
  
  
  
  
  
  
  
  
  
  
  
  
  
  
  
  
  
  
  
  
  
  
  
  
  
  
  
  
  
  
  
  
  
  
  
  
  
  
  
  
  
  
  
  
  
  
  
  
  
  
  
  
  
  
  
  
  
  
  
  
  
  
  
  
  
  
  
  
  
  
  
  
  
  
  
  
  
  
  
  
  
  
  
  
  
  
  
  
  
  
  
  
  
  
  
  
  
  
  
  
  
  
  
  
  
  
  
  
  
  
  
  
  
  
  
  
  
  
  
  
  
  
  
  
  
  
  
  
  
  
  
  
  
  
  
  
  
  
  
  
  
  
  
  
  
  
  
  
  
  
  
  
  
  
  
  
  
  
  
  
  
  
  
  
  
  
  
  
  
  
  
  
  
  
  
  
  
  
  
  
  
  
  
  
  
  
  
  
  
  
  
  
  
  
  
  
  
  
  
  
  
  
  
  
  
  
  
  
  
  
  
  
  
  
  
  
  
  
  
  
  
  
  
  
  
  
  
  
  
  
  
  
  
  
  
  
  
  
  
  
  
  
  
  
  
  
  
  
  
  
  
  
  
  
  
  
  
  
  
  
  
  
  
  
  
  
  
  
  
  
  
  
  
  
  
  
  
  
  
  
  
  
  
  
  
  
  
 <radialGradient
   inkscape:collect="always"
   xlink:href="#id0"
   id="radialGradient4744"
   gradientUnits="userSpaceOnUse"
   cx="3.2439799"
   cy="1.64415"
   fx="3.2439799"
   fy="1.64415"
   r="0.56517702"
   gradientTransform="translate(-2.0675805,-0.93376976)" /><radialGradient
   inkscape:collect="always"
   xlink:href="#id1"
   id="radialGradient4747"
   gradientUnits="userSpaceOnUse"
   cx="3.12991"
   cy="1.9420201"
   fx="3.12991"
   fy="1.9420201"
   r="1.07412"
   gradientTransform="translate(-2.0675805,-0.93376976)" />
   
   
  
   
   
  
   
   
  
   
   
  
   
   
  
   
   
  
   
   
  
   
   
  
   
   
  
   
   
  
   
   
  
   
   
  
   
   
   
  
   
   
   
  
   
   
   
  
   
   
   
  </defs>
 <path
   inkscape:connector-curvature="0"
   id="path3087"
   style="fill:url(#radialGradient4747);fill-rule:nonzero;stroke:#000000;stroke-width:0.0555551"
   d="m 0.81042955,0.06387624 c -0.237803,0.0992598 -0.508531,0.179335 -0.590004,0.417 -0.0814882,0.237657 -0.0564528,0.48291702 -0.14076,0.63677206 -0.0842992,0.153858 -0.0914606,0.439358 0.176012,0.575768 0.26748,0.136413 0.90093295,0.344386 1.09508995,0.130898 0.194161,-0.213492 0.339547,-0.380594 0.562587,-0.567091 0.223039,-0.186504 0.223091,-0.51650006 0.17722,-0.71630706 -0.045898,-0.199811 -0.28022,-0.348524 -0.511724,-0.413441 -0.231516,-0.0649055 -0.564343,-0.148783 -0.76842095,-0.0635984 l 0,-6e-7 z" /><path
   inkscape:connector-curvature="0"
   id="path3089"
   style="fill:url(#radialGradient4744);fill-rule:nonzero;stroke:#000000;stroke-width:0.0277795"
   d="m 0.9766395,0.31093024 c -0.25181895,0.0279331 -0.27301995,0.101346 -0.31921695,0.325587 -0.0461969,0.224244 0.0213622,0.40626006 0.23000795,0.44530306 0.208646,0.039039 0.614902,0.017669 0.734524,-0.078508 0.119626,-0.0961772 0.11515,-0.45692106 -0.010937,-0.55250406 -0.126079,-0.0955669 -0.534921,-0.150906 -0.634378,-0.139878 l 0,-1e-7 z" /><path
   inkscape:connector-curvature="0"
   id="path3409"
   style="fill:#000000;fill-rule:nonzero"
   d="m 0.9308695,0.66690024 c -0.0043,-0.013425 0.00311,-0.051598 4.213e-4,-0.067535 -0.00259,-0.015402 -0.00745,-0.019594 -0.019559,-0.033366 0.00567,-0.00459 0.011327,-0.010161 0.013547,-0.016394 0.00406,-0.011405 0.013472,-0.039705 0.011598,-0.052508 -0.00187,-0.012807 0.00302,-0.026055 -0.010961,-0.026031 -0.00861,7.9e-6 -0.015311,0.020965 -0.015933,0.030736 -6.26e-4,0.00977 -2.048e-4,0.043721 -0.00265,0.051413 -8.032e-4,0.0025 -0.0018,0.00475 -0.00283,0.00615 -0.0012,-7.205e-4 -0.00255,-0.00112 -0.00395,-0.00123 -2.75e-5,-7.87e-5 -5.12e-5,-1.378e-4 -6.69e-5,-2.126e-4 -0.00157,-0.00627 -0.0037,-0.032736 -0.00262,-0.055669 3.386e-4,-0.00741 -0.00174,-0.024409 -0.0062,-0.027902 -0.00448,-0.00349 -0.016713,-0.00118 -0.019831,0.012933 -0.00214,0.00969 -0.00118,0.041937 0.00667,0.059965 0.00248,0.00566 0.010362,0.010449 0.013807,0.014772 -0.00156,0.00225 -0.00206,0.00514 -0.00122,0.00787 -0.013347,0.011669 -0.018516,0.015008 -0.022937,0.029366 -0.00454,0.014795 -0.00232,0.052 -0.0081,0.064221 -0.00578,0.012224 -0.00636,0.041287 0.00166,0.044854 0.008,0.00356 0.017197,-0.00221 0.022854,-0.00805 0.00564,-0.00585 0.00262,-0.031433 0.00541,-0.043287 0.00278,-0.011862 -0.00298,-0.028429 -0.00145,-0.040736 0.00144,-0.011598 0.00458,-0.033346 0.010008,-0.039992 0.00171,2.441e-4 0.00352,1.57e-5 0.00518,-7.874e-4 3.11e-4,-1.417e-4 5.984e-4,-3.11e-4 8.7e-4,-4.882e-4 0.0032,0.00967 0.00339,0.028524 0.00331,0.039177 -1.103e-4,0.012941 -0.00836,0.029284 -0.00709,0.041933 0.00126,0.012646 -0.00539,0.038697 -3.425e-4,0.04552 0.00505,0.00682 0.013756,0.014043 0.022531,0.011461 0.00879,-0.00259 0.012165,-0.032728 0.00787,-0.046173 l 1e-7,-2e-7 z" /><path
   inkscape:connector-curvature="0"
   id="path3411"
   style="fill:#000000;fill-rule:nonzero"
   d="m 1.0302095,0.58758024 c -0.002,-0.010866 0.00611,-0.04322 0.00545,-0.056287 -6.378e-4,-0.01263 -0.00373,-0.015748 -0.011177,-0.026303 0.00433,-0.00424 0.00872,-0.00931 0.010756,-0.014681 0.00372,-0.00981 0.01248,-0.034098 0.012138,-0.044618 -3.229e-4,-0.010516 0.00411,-0.021929 -0.0057,-0.020846 -0.00605,6.654e-4 -0.012342,0.01863 -0.01352,0.026823 -0.00118,0.00818 -0.00349,0.036425 -0.00578,0.043016 -7.481e-4,0.00214 -0.00163,0.00409 -0.00246,0.00534 -7.874e-4,-5.079e-4 -0.00171,-7.362e-4 -0.00269,-7.283e-4 -1.19e-5,-6.3e-5 -2.76e-5,-1.103e-4 -2.76e-5,-1.693e-4 -6.221e-4,-0.00511 -9.45e-5,-0.02698 0.00242,-0.046165 7.992e-4,-0.0062 6.496e-4,-0.020205 -0.00223,-0.022772 -0.00286,-0.00256 -0.011622,2.913e-4 -0.01489,0.012287 -0.00224,0.00824 -0.00403,0.03502 1.102e-4,0.049433 0.0013,0.00453 0.00647,0.00791 0.00856,0.011248 -0.00128,0.002 -0.00184,0.00444 -0.00146,0.00665 -0.010252,0.010744 -0.01413,0.013917 -0.018323,0.026205 -0.00433,0.012681 -0.0056,0.0435 -0.010579,0.054118 -0.00499,0.010622 -0.00763,0.034866 -0.00227,0.037224 0.00535,0.00236 0.012236,-0.00315 0.016642,-0.00844 0.00441,-0.0053 0.00423,-0.026382 0.00709,-0.036472 0.00286,-0.010091 8.27e-5,-0.023453 0.0021,-0.033815 0.00189,-0.00977 0.00577,-0.028122 0.010067,-0.034079 0.00119,7.48e-5 0.00247,-2.559e-4 0.0037,-0.00105 2.322e-4,-1.417e-4 4.33e-4,-2.952e-4 6.378e-4,-4.685e-4 0.00151,0.00781 2.047e-4,0.023492 -6.654e-4,0.032378 -0.00107,0.010784 -0.00809,0.025024 -0.00818,0.035461 -8.26e-5,0.010437 -0.00673,0.032642 -0.0037,0.037937 0.00301,0.0053 0.00857,0.01065 0.014921,0.00783 0.00636,-0.00283 0.011028,-0.028185 0.00905,-0.039047 l 0,1e-7 z" /><path
   inkscape:connector-curvature="0"
   id="path3413"
   style="fill:#000000;fill-rule:nonzero"
   d="m 1.2496495,0.81535024 c -0.00388,-0.00676 -0.00261,-0.024209 -0.00568,-0.032004 -0.00298,-0.00754 -0.00639,-0.00995 -0.015181,-0.017547 0.00314,-0.00168 0.0062,-0.00382 0.00703,-0.00658 0.00154,-0.00505 0.00494,-0.01765 0.00265,-0.023882 -0.00231,-0.00624 -4.055e-4,-0.012095 -0.00916,-0.013319 -0.00539,-7.559e-4 -0.00774,0.0086 -0.00727,0.013181 4.763e-4,0.00458 0.00372,0.02072 0.00287,0.02415 -2.756e-4,0.00111 -7.126e-4,0.0021 -0.00122,0.00267 -8.229e-4,-4.489e-4 -0.0017,-7.599e-4 -0.00259,-9.371e-4 -1.57e-5,-3.93e-5 -3.54e-5,-6.69e-5 -5.51e-5,-1.063e-4 -0.00155,-0.00311 -0.00521,-0.01585 -0.00655,-0.026634 -4.37e-4,-0.00348 -0.00323,-0.011732 -0.00633,-0.013787 -0.00311,-0.00205 -0.010567,-0.00204 -0.011272,0.00439 -4.882e-4,0.0044 0.00296,0.019791 0.00947,0.029028 0.00203,0.00291 0.00739,0.00587 0.00994,0.00823 -7.874e-4,9.291e-4 -8.425e-4,0.00225 -8.27e-5,0.00362 -0.00732,0.00436 -0.010264,0.00549 -0.01176,0.011909 -0.00154,0.00662 0.00312,0.024461 5.866e-4,0.029752 -0.00254,0.00529 -3.543e-4,0.01902 0.00498,0.021417 0.00533,0.0024 0.010579,4.724e-4 0.013602,-0.00181 0.00303,-0.00227 -0.00113,-0.014673 -4.252e-4,-0.020051 7.048e-4,-0.00538 -0.00437,-0.013748 -0.0045,-0.019449 -1.221e-4,-0.00538 -7.09e-5,-0.015417 0.00275,-0.018091 0.00109,2.677e-4 0.0022,3.15e-4 0.00318,8.27e-5 1.771e-4,-3.94e-5 3.386e-4,-9.45e-5 4.96e-4,-1.457e-4 0.00285,0.00486 0.00464,0.013819 0.00552,0.018866 0.00107,0.00613 -0.00265,0.013154 -7.441e-4,0.019264 0.00191,0.00611 3.94e-5,0.017886 0.0038,0.021559 0.00376,0.00368 0.00985,0.00788 0.015118,0.00742 0.00527,-4.567e-4 0.00472,-0.014453 8.543e-4,-0.021201 l 0,0 z" /><path
   inkscape:connector-curvature="0"
   id="path3415"
   style="fill:#000000;fill-rule:nonzero"
   d="m 1.5000495,0.55545024 c -0.00387,-0.00675 -0.00261,-0.024201 -0.00568,-0.031996 -0.00298,-0.00754 -0.00639,-0.00996 -0.015193,-0.017551 0.00315,-0.00168 0.0062,-0.00382 0.00704,-0.00658 0.00154,-0.00506 0.00494,-0.01765 0.00265,-0.023886 -0.0023,-0.00623 -4.094e-4,-0.012091 -0.00916,-0.013315 -0.0054,-7.519e-4 -0.00774,0.0086 -0.00727,0.013177 4.685e-4,0.00459 0.00372,0.020721 0.00287,0.024158 -2.756e-4,0.00111 -7.126e-4,0.00209 -0.00123,0.00267 -8.189e-4,-4.488e-4 -0.0017,-7.52e-4 -0.00259,-9.37e-4 -1.57e-5,-3.15e-5 -3.54e-5,-6.7e-5 -5.51e-5,-1.063e-4 -0.00154,-0.00311 -0.0052,-0.01585 -0.00655,-0.026634 -4.331e-4,-0.00348 -0.00322,-0.011732 -0.00633,-0.01378 -0.00311,-0.00206 -0.010567,-0.00204 -0.011279,0.00439 -4.882e-4,0.00441 0.00296,0.019791 0.00947,0.029035 0.00205,0.0029 0.0074,0.00587 0.00994,0.00822 -7.795e-4,9.33e-4 -8.386e-4,0.00226 -7.48e-5,0.00363 -0.00733,0.00435 -0.010268,0.00548 -0.011764,0.011909 -0.00156,0.00662 0.00313,0.024461 5.827e-4,0.029752 -0.00254,0.00529 -3.465e-4,0.01902 0.00498,0.021413 0.00533,0.0024 0.010583,4.685e-4 0.013598,-0.0018 0.00303,-0.00227 -0.00113,-0.014681 -4.252e-4,-0.020059 7.047e-4,-0.00538 -0.00437,-0.01374 -0.0045,-0.019449 -1.22e-4,-0.00537 -6.3e-5,-0.015417 0.00274,-0.018087 0.00109,2.638e-4 0.0022,3.11e-4 0.00318,7.87e-5 1.772e-4,-3.93e-5 3.386e-4,-9.45e-5 4.961e-4,-1.456e-4 0.00285,0.00487 0.00464,0.013827 0.00552,0.018866 0.00107,0.00613 -0.00265,0.013154 -7.402e-4,0.019264 0.0019,0.00611 3.54e-5,0.017886 0.00379,0.021559 0.00376,0.00368 0.00985,0.00788 0.015118,0.00743 0.00527,-4.567e-4 0.00473,-0.014453 8.544e-4,-0.021209 l 0,10e-8 z" /><path
   inkscape:connector-curvature="0"
   id="path3417"
   style="fill:#000000;fill-rule:nonzero"
   d="m 1.0299795,0.71776024 c 0.012697,-0.00616 0.051528,-0.00422 0.066921,-0.00914 0.014882,-0.00474 0.018339,-0.01015 0.03026,-0.024087 0.00535,0.00496 0.011665,0.00978 0.01815,0.011095 0.011866,0.0024 0.041221,0.00772 0.053614,0.00406 0.012409,-0.00367 0.026228,-6.968e-4 0.024224,-0.014539 -0.00123,-0.00853 -0.022921,-0.012193 -0.032685,-0.011425 -0.00975,7.717e-4 -0.043311,0.00598 -0.051272,0.00466 -0.00257,-4.331e-4 -0.00495,-0.00111 -0.00648,-0.00193 5.433e-4,-0.00129 7.48e-4,-0.00269 6.653e-4,-0.00409 6.69e-5,-3.15e-5 1.221e-4,-5.91e-5 2.047e-4,-9.45e-5 0.00598,-0.00245 0.031874,-0.0083 0.054728,-0.010468 0.00739,-7.087e-4 0.023925,-0.00516 0.026748,-0.010087 0.00283,-0.00491 -0.0012,-0.016709 -0.015614,-0.017795 -0.0099,-7.52e-4 -0.041681,0.00476 -0.058417,0.015098 -0.00525,0.00325 -0.00887,0.011728 -0.012654,0.01576 -0.00246,-0.00124 -0.00539,-0.00132 -0.00798,-1.024e-4 -0.013425,-0.011563 -0.017469,-0.016201 -0.032307,-0.018547 -0.015299,-0.00241 -0.051811,0.00506 -0.064724,0.00108 -0.012913,-0.004 -0.04176,-4.567e-4 -0.044161,0.00797 -0.0024,0.00844 0.00461,0.016717 0.011201,0.021492 0.00658,0.00476 0.03148,-0.00186 0.043622,-7.716e-4 0.012126,0.00108 0.027709,-0.00697 0.040118,-0.0072 0.011681,-2.244e-4 0.033654,-1.732e-4 0.041004,0.00426 0,0.00172 4.882e-4,0.00346 0.00151,0.00502 1.89e-4,2.756e-4 3.898e-4,5.354e-4 6.063e-4,7.874e-4 -0.00911,0.00453 -0.027748,0.0074 -0.038315,0.00881 -0.012815,0.00172 -0.030165,-0.00411 -0.042508,-0.00108 -0.012343,0.00304 -0.039075,1.496e-4 -0.04511,0.00611 -0.00604,0.00595 -0.011949,0.01561 -0.00815,0.023929 0.00381,0.00832 0.034126,0.00741 0.046807,0.00124 l 1e-7,1e-7 z" /><path
   inkscape:connector-curvature="0"
   id="path3419"
   style="fill:#000000;fill-rule:nonzero"
   d="m 1.5977995,0.85582024 c -0.0043,-0.013433 0.00311,-0.051606 4.252e-4,-0.067539 -0.00259,-0.015405 -0.00746,-0.019591 -0.019563,-0.03337 0.00567,-0.00459 0.011323,-0.010153 0.013543,-0.016394 0.00406,-0.011405 0.013472,-0.039705 0.011602,-0.052508 -0.00187,-0.012799 0.00302,-0.026051 -0.010961,-0.026031 -0.00862,1.57e-5 -0.015311,0.020965 -0.015937,0.030744 -6.22e-4,0.00977 -2.008e-4,0.043713 -0.00265,0.051409 -7.874e-4,0.00249 -0.0018,0.00474 -0.00282,0.00615 -0.0012,-7.166e-4 -0.00256,-0.00112 -0.00396,-0.00123 -1.97e-5,-7.48e-5 -4.72e-5,-1.299e-4 -6.69e-5,-2.126e-4 -0.00157,-0.00627 -0.0037,-0.032736 -0.00262,-0.055665 3.543e-4,-0.00742 -0.00172,-0.024413 -0.00619,-0.027905 -0.00447,-0.00349 -0.016713,-0.00118 -0.019839,0.012933 -0.00215,0.00969 -0.00118,0.041937 0.00669,0.059972 0.00248,0.00565 0.01035,0.010441 0.013803,0.01476 -0.00157,0.00226 -0.00207,0.00514 -0.00123,0.00787 -0.013339,0.011665 -0.018508,0.015004 -0.022921,0.029358 -0.00456,0.014807 -0.00233,0.052004 -0.00811,0.064232 -0.00578,0.01222 -0.00636,0.041287 0.00166,0.044847 0.00801,0.00356 0.017205,-0.0022 0.022846,-0.00805 0.00566,-0.00585 0.00262,-0.031433 0.00541,-0.043287 0.00279,-0.011862 -0.00297,-0.028429 -0.00145,-0.040736 0.00143,-0.011598 0.00459,-0.033339 0.010016,-0.039984 0.00171,2.363e-4 0.00351,4e-6 0.00518,-7.952e-4 3.071e-4,-1.418e-4 5.906e-4,-3.111e-4 8.661e-4,-4.804e-4 0.0032,0.00967 0.0034,0.028516 0.0033,0.039169 -1.063e-4,0.012941 -0.00835,0.029283 -0.00708,0.041933 0.00126,0.012646 -0.00538,0.038697 -3.465e-4,0.045516 0.00504,0.00682 0.013756,0.014047 0.022535,0.011457 0.00878,-0.00258 0.012161,-0.03272 0.00786,-0.046158 l 1e-7,2e-7 z" /><path
   inkscape:connector-curvature="0"
   id="path3421"
   style="fill:#000000;fill-rule:nonzero"
   d="m 1.0067995,0.99821026 c 0.010441,-0.00948 0.048244,-0.018563 0.061642,-0.027602 0.012941,-0.00875 0.014732,-0.014913 0.02226,-0.031642 0.00652,0.00326 0.013945,0.0061 0.020535,0.00553 0.012059,-0.00103 0.04172,-0.00419 0.052583,-0.011197 0.010878,-0.007 0.024972,-0.00804 0.019153,-0.020764 -0.00358,-0.00783 -0.025433,-0.00525 -0.034575,-0.00176 -0.00915,0.00348 -0.039874,0.017929 -0.04789,0.018902 -0.00259,3.11e-4 -0.00506,3.229e-4 -0.00677,-2.75e-5 1.654e-4,-0.00139 -3.93e-5,-0.0028 -5.118e-4,-0.00412 5.12e-5,-4.73e-5 1.063e-4,-8.67e-5 1.615e-4,-1.418e-4 0.00506,-0.00404 0.028252,-0.016941 0.049575,-0.025457 0.00689,-0.00276 0.021512,-0.011685 0.022827,-0.017205 0.00133,-0.00552 -0.00585,-0.015701 -0.01998,-0.012689 -0.00971,0.00207 -0.038654,0.016307 -0.051811,0.030937 -0.00414,0.0046 -0.00522,0.013752 -0.00772,0.018685 -0.0027,-4.921e-4 -0.00554,2.48e-4 -0.00768,0.00215 -0.016142,-0.00731 -0.021323,-0.010634 -0.036213,-0.0087 -0.015354,0.00198 -0.048303,0.019433 -0.061811,0.019244 -0.013524,-1.968e-4 -0.040213,0.011319 -0.040134,0.020087 8.27e-5,0.00878 0.00914,0.014752 0.016791,0.017465 0.00767,0.00272 0.029689,-0.010642 0.041642,-0.01302 0.011949,-0.00237 0.024642,-0.014488 0.036469,-0.018197 0.01115,-0.0035 0.032256,-0.00964 0.040543,-0.00746 5e-4,0.00165 0.00145,0.0032 0.00287,0.00439 2.598e-4,2.165e-4 5.315e-4,4.055e-4 7.992e-4,5.945e-4 -0.00747,0.00691 -0.024547,0.014902 -0.034287,0.019232 -0.011811,0.00526 -0.03011,0.00455 -0.041094,0.010933 -0.010988,0.00639 -0.037449,0.011138 -0.041559,0.018547 -0.00413,0.00742 -0.00709,0.018347 -0.0011,0.025264 0.00599,0.00691 0.034831,-0.0025 0.045276,-0.011976 l 3e-7,1e-7 z" /><path
   inkscape:connector-curvature="0"
   id="path3423"
   style="fill:#000000;fill-rule:nonzero"
   d="m 0.9795695,0.77652024 c 7.874e-4,0.00674 0.014024,0.024622 0.016315,0.032461 0.00221,0.00758 4.882e-4,0.00992 -0.00301,0.017339 0.00426,0.00183 0.00876,0.00414 0.011476,0.007 0.00499,0.00522 0.016996,0.01822 0.019004,0.0245 0.00199,0.00628 0.00789,0.012339 5.12e-5,0.01324 -0.00481,5.552e-4 -0.013563,-0.00909 -0.016236,-0.013748 -0.00267,-0.00467 -0.010524,-0.021024 -0.013713,-0.024563 -0.00104,-0.00115 -0.00214,-0.00216 -0.00305,-0.00278 -5e-4,4.213e-4 -0.00117,7.087e-4 -0.00193,8.504e-4 1.57e-5,3.94e-5 1.57e-5,6.7e-5 1.57e-5,1.103e-4 6.221e-4,0.00313 0.00572,0.015988 0.011783,0.026949 0.00197,0.00355 0.00484,0.011862 0.00318,0.013835 -0.00167,0.00196 -0.00907,0.00166 -0.014173,-0.00493 -0.00352,-0.00452 -0.01065,-0.020098 -0.010539,-0.029287 3.94e-5,-0.00288 0.00331,-0.0057 0.00422,-0.008 -0.00141,-9.803e-4 -0.00239,-0.00233 -0.00256,-0.00371 -0.01024,-0.00474 -0.013929,-0.00601 -0.019831,-0.012626 -0.00606,-0.00682 -0.013669,-0.02487 -0.019815,-0.03037 -0.00615,-0.00551 -0.01339,-0.019449 -0.00975,-0.021685 0.00363,-0.00224 0.010158,-6.3e-5 0.014717,0.00238 0.00454,0.00244 0.00894,0.014953 0.013319,0.020476 0.00439,0.00552 0.00511,0.013874 0.00889,0.019693 0.00357,0.00548 0.010508,0.01574 0.015134,0.018579 8.977e-4,-2.205e-4 0.00195,-2.284e-4 0.00308,4.72e-5 2.165e-4,5.12e-5 4.094e-4,1.102e-4 6.102e-4,1.772e-4 -5.158e-4,-0.00486 -0.00489,-0.013941 -0.00747,-0.019063 -0.00315,-0.00622 -0.01165,-0.013547 -0.013957,-0.019713 -0.0023,-0.00617 -0.01222,-0.018272 -0.011028,-0.021874 0.00119,-0.00361 0.00437,-0.00765 0.00989,-0.00698 0.00554,6.732e-4 0.014595,0.014957 0.015398,0.021697 l 0,0 z" /><path
   inkscape:connector-curvature="0"
   id="path3425"
   style="fill:#000000;fill-rule:nonzero"
   d="m 1.2195695,0.96287026 c -0.010095,-0.00986 -0.021433,-0.047059 -0.031252,-0.059878 -0.00951,-0.012402 -0.015772,-0.013819 -0.032917,-0.020323 0.00286,-0.00671 0.00525,-0.014276 0.00429,-0.020827 -0.00175,-0.011976 -0.00669,-0.041398 -0.014339,-0.051827 -0.00765,-0.010437 -0.00954,-0.024441 -0.021878,-0.01787 -0.00761,0.00405 -0.00372,0.025697 3.11e-4,0.03463 0.00403,0.00893 0.020307,0.03872 0.021744,0.046661 4.725e-4,0.00257 6.378e-4,0.00503 3.78e-4,0.00676 -0.00139,-7.48e-5 -0.00278,2.087e-4 -0.00407,7.599e-4 -5.51e-5,-5.52e-5 -1.102e-4,-9.45e-5 -1.496e-4,-1.575e-4 -0.00434,-0.0048 -0.01861,-0.027181 -0.028402,-0.047953 -0.00316,-0.00671 -0.012953,-0.020756 -0.018539,-0.021756 -0.00558,-9.882e-4 -0.015315,0.00678 -0.011465,0.020713 0.00265,0.00957 0.018598,0.03761 0.033992,0.049858 0.00484,0.00385 0.014035,0.00438 0.01911,0.00659 -3.267e-4,0.00272 5.827e-4,0.0055 0.0026,0.00753 -0.00632,0.016551 -0.00933,0.021925 -0.00651,0.036681 0.00292,0.015205 0.022311,0.047032 0.022937,0.060535 6.063e-4,0.013508 0.013713,0.039461 0.022461,0.038858 0.00875,-6.023e-4 0.014158,-0.010012 0.016425,-0.017815 0.00225,-0.00781 -0.012413,-0.029008 -0.015504,-0.040787 -0.00309,-0.01178 -0.015937,-0.023713 -0.020358,-0.035311 -0.00417,-0.010917 -0.011559,-0.03161 -0.00987,-0.04002 0.00161,-5.905e-4 0.00309,-0.00163 0.0042,-0.00313 2.008e-4,-2.717e-4 3.78e-4,-5.512e-4 5.394e-4,-8.347e-4 0.00734,0.00705 0.016358,0.023606 0.021268,0.033063 0.00596,0.011484 0.00633,0.029783 0.013374,0.04037 0.00704,0.010579 0.013374,0.036709 0.021012,0.04037 0.00765,0.00366 0.018744,0.00598 0.025279,-4.252e-4 0.00654,-0.0064 -0.00458,-0.034606 -0.014673,-0.044461 l 3e-7,10e-8 z" /><path
   inkscape:connector-curvature="0"
   id="path3427"
   style="fill:#000000;fill-rule:nonzero"
   d="m 1.3090895,0.94777026 c 0.00655,-0.012492 0.038953,-0.033996 0.048429,-0.047079 0.00916,-0.012654 0.00873,-0.019063 0.010055,-0.03735 0.00724,8.189e-4 0.015185,9.488e-4 0.021181,-0.00185 0.01098,-0.00511 0.037752,-0.018256 0.045567,-0.028563 0.00781,-0.010315 0.020685,-0.016122 0.010854,-0.026079 -0.00605,-0.00613 -0.025681,0.00379 -0.033079,0.010209 -0.00741,0.00641 -0.031303,0.030524 -0.0385,0.034181 -0.00233,0.00119 -0.00465,0.00204 -0.00637,0.0023 -3.228e-4,-0.00135 -9.96e-4,-0.00261 -0.00189,-0.00369 3.93e-5,-6.69e-5 5.9e-5,-1.22e-4 1.063e-4,-1.889e-4 0.00337,-0.00553 0.020728,-0.025598 0.037831,-0.040921 0.00553,-0.00495 0.016189,-0.018354 0.015543,-0.023992 -6.457e-4,-0.00563 -0.010878,-0.012736 -0.023134,-0.00506 -0.00841,0.00528 -0.030713,0.028583 -0.038043,0.046835 -0.00231,0.00573 -1.851e-4,0.014709 -8.426e-4,0.020197 -0.0027,4.646e-4 -0.00511,0.00213 -0.00647,0.00465 -0.017673,-0.00132 -0.023673,-0.00267 -0.037016,0.00426 -0.01374,0.00713 -0.038681,0.034823 -0.051445,0.039287 -0.012764,0.00446 -0.033886,0.024429 -0.030811,0.032634 0.00309,0.00821 0.013653,0.010713 0.021779,0.010646 0.00812,-7.48e-5 0.024228,-0.020189 0.034642,-0.026516 0.010409,-0.00633 0.018165,-0.022059 0.028012,-0.02961 0.00927,-0.00711 0.026976,-0.020118 0.035524,-0.020913 0.00103,0.00139 0.00245,0.0025 0.0042,0.00314 3.189e-4,1.142e-4 6.378e-4,1.969e-4 9.567e-4,2.756e-4 -0.00465,0.00906 -0.017945,0.022421 -0.025602,0.029835 -0.0093,0.009 -0.026724,0.014595 -0.034858,0.024366 -0.00812,0.00976 -0.03135,0.023307 -0.032673,0.031685 -0.00132,0.00837 -3.583e-4,0.019665 0.00765,0.024102 0.008,0.00443 0.03185,-0.014299 0.038409,-0.026783 l 2e-7,-1e-7 z" /><path
   inkscape:connector-curvature="0"
   id="path3429"
   style="fill:#000000;fill-rule:nonzero"
   d="m 1.2684195,0.60913024 c -0.0091,-7.874e-4 -0.025811,-0.020331 -0.035468,-0.023405 -0.00935,-0.00296 -0.013835,-9.84e-5 -0.026748,0.00588 2.165e-4,-0.00656 -7.87e-5,-0.013449 -0.00235,-0.017532 -0.00412,-0.00747 -0.014689,-0.025417 -0.022311,-0.028138 -0.00763,-0.00271 -0.012354,-0.011543 -0.018866,7.992e-4 -0.004,0.0076 0.00393,0.020653 0.0088,0.024539 0.00488,0.00388 0.023004,0.015075 0.025917,0.019854 9.527e-4,0.00155 0.00167,0.0032 0.00194,0.00458 -9.488e-4,8.228e-4 -0.00179,0.00188 -0.0025,0.00307 -5.12e-5,-7.9e-6 -9.45e-5,-7.9e-6 -1.496e-4,-1.18e-5 -0.00404,-7.559e-4 -0.019,-0.0079 -0.030626,-0.016665 -0.00374,-0.00283 -0.013685,-0.0068 -0.017618,-0.00405 -0.00393,0.00274 -0.00841,0.014331 -0.00241,0.021898 0.00412,0.00519 0.021606,0.015335 0.034787,0.014547 0.00414,-2.519e-4 0.010339,-0.00557 0.014232,-0.00714 4.606e-4,0.00215 0.00175,0.00357 0.00358,0.00376 -5.51e-5,0.015748 -7.047e-4,0.021445 0.00483,0.030232 0.0057,0.00906 0.026382,0.019776 0.030138,0.029031 0.00376,0.00926 0.018843,0.019689 0.024465,0.013835 0.00561,-0.00584 0.00685,-0.015921 0.00639,-0.022894 -4.488e-4,-0.00698 -0.015374,-0.013028 -0.020339,-0.019532 -0.00496,-0.0065 -0.016398,-0.00707 -0.022181,-0.012606 -0.00547,-0.00522 -0.015476,-0.015417 -0.016453,-0.022461 9.212e-4,-0.00143 0.00164,-0.00309 0.00199,-0.00484 7.09e-5,-3.189e-4 1.102e-4,-6.26e-4 1.496e-4,-9.292e-4 0.00659,4.803e-4 0.016642,0.00673 0.022224,0.010437 0.00679,0.00451 0.011583,0.017347 0.018846,0.020547 0.00727,0.00319 0.017929,0.017937 0.023878,0.015815 0.00595,-0.00212 0.013835,-0.00734 0.016555,-0.015969 0.00272,-0.00862 -0.011618,-0.021878 -0.020713,-0.022665 l -1e-7,2e-7 z" /><path
   inkscape:connector-curvature="0"
   id="path3431"
   style="fill:#000000;fill-rule:nonzero"
   d="m 1.4103095,0.69443024 c -0.00627,-0.012083 -0.00304,-0.043992 -0.00789,-0.058032 -0.00468,-0.013563 -0.010425,-0.017768 -0.025114,-0.031114 0.00552,-0.00325 0.010898,-0.00734 0.012508,-0.012421 0.00294,-0.00931 0.00955,-0.032488 0.00596,-0.043724 -0.00359,-0.011244 2.76e-5,-0.022031 -0.014976,-0.02374 -0.00924,-0.00106 -0.013839,0.016134 -0.013295,0.024469 5.315e-4,0.00832 0.00518,0.037571 0.00351,0.043882 -5.433e-4,0.00205 -0.00135,0.00386 -0.00227,0.00494 -0.00138,-7.756e-4 -0.00288,-0.00128 -0.0044,-0.00156 -3.54e-5,-6.7e-5 -6.3e-5,-1.221e-4 -9.45e-5,-1.969e-4 -0.00246,-0.00559 -0.00802,-0.028598 -0.00969,-0.048189 -5.433e-4,-0.00633 -0.00487,-0.021213 -0.010091,-0.024768 -0.00523,-0.00356 -0.018075,-0.00309 -0.019681,0.00867 -0.0011,0.00807 0.00392,0.035925 0.014583,0.052398 0.00335,0.00517 0.012394,0.010268 0.016634,0.014406 -0.0014,0.00175 -0.00159,0.00416 -3.465e-4,0.00662 -0.012878,0.00839 -0.018004,0.010618 -0.020968,0.022417 -0.00305,0.012169 0.00393,0.044441 -7.519e-4,0.054236 -0.00469,0.0098 -0.00172,0.03472 0.00731,0.038776 0.00904,0.00406 0.018185,2.244e-4 0.02352,-0.0041 0.00534,-0.00433 -0.00108,-0.026705 4.567e-4,-0.036559 0.00153,-0.00985 -0.0067,-0.024815 -0.00659,-0.035213 1.103e-4,-0.0098 8.071e-4,-0.02811 0.00581,-0.033154 0.00186,4.213e-4 0.00376,4.409e-4 0.00546,-3.54e-5 3.071e-4,-8.67e-5 5.905e-4,-1.969e-4 8.701e-4,-3.111e-4 0.00462,0.00871 0.00716,0.024945 0.00838,0.034098 0.00148,0.011114 -0.00534,0.02415 -0.00242,0.035185 0.00291,0.011032 -9.96e-4,0.032618 0.00526,0.039102 0.00626,0.00649 0.016496,0.01378 0.025591,0.012638 0.0091,-0.00114 0.009,-0.026642 0.00272,-0.038728 l -1e-7,2e-7 z" />
<g
   id="g5770"
   transform="matrix(1.3003972,0,0,1.3003972,-1.7652007,-0.19458074)"><path
     d="m 3.5293934,0.45328116 c -0.0043,-0.013425 0.00311,-0.051598 4.213e-4,-0.067535 -0.00259,-0.015402 -0.00745,-0.019594 -0.019559,-0.033366 0.00567,-0.00459 0.011327,-0.010161 0.013547,-0.016394 0.00406,-0.011405 0.013472,-0.039705 0.011598,-0.052508 -0.00187,-0.012807 0.00302,-0.026055 -0.010961,-0.026031 -0.00861,7.9e-6 -0.015311,0.020965 -0.015933,0.030736 -6.26e-4,0.00977 -2.048e-4,0.043721 -0.00265,0.051413 -8.032e-4,0.0025 -0.0018,0.00475 -0.00283,0.00615 -0.0012,-7.205e-4 -0.00255,-0.00112 -0.00395,-0.00123 -2.75e-5,-7.866e-5 -5.13e-5,-1.378e-4 -6.69e-5,-2.126e-4 -0.00157,-0.00627 -0.0037,-0.032736 -0.00262,-0.055669 3.386e-4,-0.00741 -0.00174,-0.024409 -0.0062,-0.027902 -0.00448,-0.00349 -0.016713,-0.00118 -0.019831,0.012933 -0.00214,0.00969 -0.00118,0.041937 0.00667,0.059965 0.00248,0.00566 0.010362,0.010449 0.013807,0.014772 -0.00156,0.00225 -0.00206,0.00514 -0.00122,0.00787 -0.013347,0.011669 -0.018516,0.015008 -0.022937,0.029366 -0.00454,0.014795 -0.00232,0.052 -0.0081,0.064221 -0.00578,0.012224 -0.00636,0.041287 0.00166,0.044854 0.008,0.00356 0.017197,-0.00221 0.022854,-0.00805 0.00564,-0.00585 0.00262,-0.031433 0.00541,-0.043287 0.00278,-0.011862 -0.00298,-0.028429 -0.00145,-0.040736 0.00144,-0.011598 0.00458,-0.033346 0.010008,-0.039992 0.00171,2.441e-4 0.00352,1.567e-5 0.00518,-7.874e-4 3.11e-4,-1.417e-4 5.984e-4,-3.11e-4 8.7e-4,-4.882e-4 0.0032,0.00967 0.00339,0.028524 0.00331,0.039177 -1.104e-4,0.012941 -0.00836,0.029284 -0.00709,0.041933 0.00126,0.012646 -0.00539,0.038697 -3.425e-4,0.04552 0.00505,0.00682 0.013756,0.014043 0.022531,0.011461 0.00879,-0.00259 0.012165,-0.032728 0.00787,-0.046173 l 10e-8,-2e-7 z"
     style="fill:#000000;fill-rule:nonzero"
     id="path3409-9"
     inkscape:connector-curvature="0" /><path
     d="m 3.6607272,0.45328116 c -0.0043,-0.013425 0.00311,-0.051598 4.213e-4,-0.067535 -0.00259,-0.015402 -0.00745,-0.019594 -0.019559,-0.033366 0.00567,-0.00459 0.011327,-0.010161 0.013547,-0.016394 0.00406,-0.011405 0.013472,-0.039705 0.011598,-0.052508 -0.00187,-0.012807 0.00302,-0.026055 -0.010961,-0.026031 -0.00861,7.9e-6 -0.015311,0.020965 -0.015933,0.030736 -6.26e-4,0.00977 -2.048e-4,0.043721 -0.00265,0.051413 -8.032e-4,0.0025 -0.0018,0.00475 -0.00283,0.00615 -0.0012,-7.205e-4 -0.00255,-0.00112 -0.00395,-0.00123 -2.75e-5,-7.866e-5 -5.13e-5,-1.378e-4 -6.69e-5,-2.126e-4 -0.00157,-0.00627 -0.0037,-0.032736 -0.00262,-0.055669 3.386e-4,-0.00741 -0.00174,-0.024409 -0.0062,-0.027902 -0.00448,-0.00349 -0.016713,-0.00118 -0.019831,0.012933 -0.00214,0.00969 -0.00118,0.041937 0.00667,0.059965 0.00248,0.00566 0.010362,0.010449 0.013807,0.014772 -0.00156,0.00225 -0.00206,0.00514 -0.00122,0.00787 -0.013347,0.011669 -0.018516,0.015008 -0.022937,0.029366 -0.00454,0.014795 -0.00232,0.052 -0.0081,0.064221 -0.00578,0.012224 -0.00636,0.041287 0.00166,0.044854 0.008,0.00356 0.017197,-0.00221 0.022854,-0.00805 0.00564,-0.00585 0.00262,-0.031433 0.00541,-0.043287 0.00278,-0.011862 -0.00298,-0.028429 -0.00145,-0.040736 0.00144,-0.011598 0.00458,-0.033346 0.010008,-0.039992 0.00171,2.441e-4 0.00352,1.567e-5 0.00518,-7.874e-4 3.11e-4,-1.417e-4 5.984e-4,-3.11e-4 8.7e-4,-4.882e-4 0.0032,0.00967 0.00339,0.028524 0.00331,0.039177 -1.104e-4,0.012941 -0.00836,0.029284 -0.00709,0.041933 0.00126,0.012646 -0.00539,0.038697 -3.425e-4,0.04552 0.00505,0.00682 0.013756,0.014043 0.022531,0.011461 0.00879,-0.00259 0.012165,-0.032728 0.00787,-0.046173 l 1e-7,-2e-7 z"
     style="fill:#000000;fill-rule:nonzero"
     id="path3409-1"
     inkscape:connector-curvature="0" /></g><g
   id="g5774"
   transform="matrix(1.3003972,0,0,1.3003972,-1.7476511,-0.19458074)"><path
     d="m 3.8960672,0.45561795 c -0.00408,-0.0127538 0.00295,-0.0490181 4.003e-4,-0.0641582 -0.00246,-0.0146319 -0.00708,-0.0186143 -0.018581,-0.0316977 0.00539,-0.004361 0.010761,-0.009653 0.01287,-0.0155743 0.00386,-0.0108348 0.012798,-0.0377197 0.011018,-0.0498826 -0.00178,-0.0121667 0.00287,-0.0247522 -0.010413,-0.0247294 -0.00818,7.51e-6 -0.014545,0.0199167 -0.015136,0.0291992 -5.947e-4,0.009282 -1.946e-4,0.041535 -0.00252,0.0488424 -7.631e-4,0.002375 -0.00171,0.004512 -0.00269,0.005842 -0.00114,-6.8447e-4 -0.00242,-0.001064 -0.00375,-0.001168 -2.62e-5,-7.473e-5 -4.89e-5,-1.3091e-4 -6.36e-5,-2.0197e-4 -0.00149,-0.005956 -0.00351,-0.0310992 -0.00249,-0.0528855 3.217e-4,-0.00704 -0.00165,-0.0231886 -0.00589,-0.0265069 -0.00426,-0.003316 -0.015877,-0.001121 -0.018839,0.0122864 -0.00203,0.009205 -0.00112,0.0398401 0.00634,0.0569667 0.00236,0.005377 0.00984,0.009927 0.013117,0.0140334 -0.00148,0.002138 -0.00196,0.004883 -0.00116,0.007476 -0.01268,0.0110855 -0.01759,0.0142576 -0.02179,0.0278977 -0.00431,0.0140553 -0.0022,0.0494 -0.0077,0.0610099 -0.00549,0.0116128 -0.00604,0.0392227 0.00158,0.0426113 0.0076,0.003382 0.016337,-0.002099 0.021711,-0.007648 0.00536,-0.005557 0.00249,-0.0298613 0.00514,-0.0411226 0.00264,-0.0112689 -0.00283,-0.0270075 -0.00138,-0.0386992 0.00137,-0.0110181 0.00435,-0.0316787 0.00951,-0.0379924 0.00162,2.319e-4 0.00334,1.489e-5 0.00492,-7.4803e-4 2.954e-4,-1.3461e-4 5.684e-4,-2.9545e-4 8.265e-4,-4.6379e-4 0.00304,0.009186 0.00322,0.0270978 0.00314,0.0372182 -1.05e-4,0.0122939 -0.00794,0.0278198 -0.00674,0.0398363 0.0012,0.0120137 -0.00512,0.0367622 -3.254e-4,0.043244 0.0048,0.006479 0.013068,0.0133408 0.021404,0.0108879 0.00835,-0.00246 0.011557,-0.0310916 0.00748,-0.0438643 l 10e-8,-1.9e-7 z"
     style="fill:#000000;fill-rule:nonzero"
     id="path3409-9-2"
     inkscape:connector-curvature="0" /><path
     d="m 4.0208343,0.45561795 c -0.00408,-0.0127538 0.00295,-0.0490181 4.003e-4,-0.0641582 -0.00246,-0.0146319 -0.00708,-0.0186143 -0.018581,-0.0316977 0.00539,-0.004361 0.010761,-0.009653 0.01287,-0.0155743 0.00386,-0.0108348 0.012798,-0.0377197 0.011018,-0.0498826 -0.00178,-0.0121667 0.00287,-0.0247522 -0.010413,-0.0247294 -0.00818,7.51e-6 -0.014545,0.0199167 -0.015136,0.0291992 -5.947e-4,0.009282 -1.946e-4,0.041535 -0.00252,0.0488424 -7.632e-4,0.002375 -0.00171,0.004512 -0.00269,0.005842 -0.00114,-6.8447e-4 -0.00242,-0.001064 -0.00375,-0.001168 -2.64e-5,-7.473e-5 -4.86e-5,-1.3091e-4 -6.34e-5,-2.0197e-4 -0.00149,-0.005956 -0.00352,-0.0310992 -0.00249,-0.0528855 3.217e-4,-0.00704 -0.00165,-0.0231886 -0.00589,-0.0265069 -0.00426,-0.003316 -0.015877,-0.001121 -0.018839,0.0122864 -0.00203,0.009205 -0.00112,0.0398401 0.00634,0.0569667 0.00236,0.005377 0.00984,0.009927 0.013117,0.0140334 -0.00148,0.002138 -0.00196,0.004883 -0.00116,0.007476 -0.01268,0.0110855 -0.01759,0.0142576 -0.02179,0.0278977 -0.00431,0.0140553 -0.0022,0.0494 -0.0077,0.0610099 -0.00549,0.0116128 -0.00604,0.0392227 0.00158,0.0426113 0.0076,0.003382 0.016337,-0.002099 0.021711,-0.007648 0.00536,-0.005557 0.00249,-0.0298613 0.00514,-0.0411226 0.00264,-0.0112689 -0.00283,-0.0270075 -0.00138,-0.0386992 0.00137,-0.0110181 0.00435,-0.0316787 0.00951,-0.0379924 0.00162,2.319e-4 0.00334,1.489e-5 0.00492,-7.4803e-4 2.954e-4,-1.3461e-4 5.684e-4,-2.9545e-4 8.265e-4,-4.6379e-4 0.00304,0.009186 0.00322,0.0270978 0.00314,0.0372182 -1.045e-4,0.0122939 -0.00794,0.0278198 -0.00674,0.0398363 0.0012,0.0120137 -0.00512,0.0367622 -3.255e-4,0.043244 0.0048,0.006479 0.013068,0.0133408 0.021404,0.0108879 0.00835,-0.00246 0.011557,-0.0310916 0.00748,-0.0438643 l 1e-7,-1.9e-7 z"
     style="fill:#000000;fill-rule:nonzero"
     id="path3409-1-4"
     inkscape:connector-curvature="0" /></g><g
   id="g5778"
   transform="matrix(1.3003972,0,0,1.3003972,-1.8492801,-0.19458074)"><path
     d="m 4.3437635,0.45795304 c -0.00387,-0.0120825 0.0028,-0.0464382 3.792e-4,-0.0607815 -0.00233,-0.0138618 -0.00671,-0.0176346 -0.017603,-0.0300294 0.0051,-0.004131 0.010194,-0.009145 0.012192,-0.0147546 0.00365,-0.0102645 0.012125,-0.0357345 0.010438,-0.0472572 -0.00168,-0.0115263 0.00272,-0.0234495 -0.00986,-0.0234279 -0.00775,7.11e-6 -0.01378,0.0188685 -0.01434,0.0276624 -5.634e-4,0.008793 -1.843e-4,0.0393489 -0.00239,0.0462717 -7.229e-4,0.00225 -0.00162,0.004275 -0.00255,0.005535 -0.00108,-6.4845e-4 -0.0023,-0.001008 -0.00356,-0.001107 -2.46e-5,-7.079e-5 -4.62e-5,-1.2402e-4 -6.02e-5,-1.9134e-4 -0.00141,-0.005643 -0.00333,-0.0294624 -0.00236,-0.0501021 3.047e-4,-0.006669 -0.00157,-0.0219681 -0.00558,-0.0251118 -0.00403,-0.003141 -0.015042,-0.001062 -0.017848,0.0116397 -0.00193,0.008721 -0.00106,0.0377433 0.006,0.0539685 0.00223,0.005094 0.00933,0.009404 0.012426,0.0132948 -0.0014,0.002025 -0.00185,0.004626 -0.0011,0.007083 -0.012012,0.0105021 -0.016664,0.0135072 -0.020643,0.0264294 -0.00409,0.0133155 -0.00209,0.0468 -0.00729,0.0577989 -0.0052,0.0110016 -0.00572,0.0371583 0.00149,0.0403686 0.0072,0.003204 0.015477,-0.001989 0.020569,-0.007245 0.00508,-0.005265 0.00236,-0.0282897 0.00487,-0.0389583 0.0025,-0.0106758 -0.00268,-0.0255861 -0.00131,-0.0366624 0.0013,-0.0104382 0.00412,-0.0300114 0.00901,-0.0359928 0.00154,2.1969e-4 0.00317,1.411e-5 0.00466,-7.0866e-4 2.799e-4,-1.2753e-4 5.386e-4,-2.799e-4 7.83e-4,-4.3938e-4 0.00288,0.008703 0.00305,0.0256716 0.00298,0.0352593 -9.94e-5,0.0116469 -0.00752,0.0263556 -0.00638,0.0377397 0.00113,0.0113814 -0.00485,0.0348273 -3.082e-4,0.040968 0.00455,0.006138 0.01238,0.0126387 0.020278,0.0103149 0.00791,-0.002331 0.010949,-0.0294552 0.00708,-0.0415557 l 0,-1.8e-7 z"
     style="fill:#000000;fill-rule:nonzero"
     id="path3409-9-3"
     inkscape:connector-curvature="0" /><path
     d="m 4.461964,0.45795304 c -0.00387,-0.0120825 0.0028,-0.0464382 3.791e-4,-0.0607815 -0.00233,-0.0138618 -0.00671,-0.0176346 -0.017603,-0.0300294 0.0051,-0.004131 0.010194,-0.009145 0.012192,-0.0147546 0.00365,-0.0102645 0.012125,-0.0357345 0.010438,-0.0472572 -0.00168,-0.0115263 0.00272,-0.0234495 -0.00986,-0.0234279 -0.00775,7.11e-6 -0.01378,0.0188685 -0.01434,0.0276624 -5.634e-4,0.008793 -1.843e-4,0.0393489 -0.00239,0.0462717 -7.228e-4,0.00225 -0.00162,0.004275 -0.00255,0.005535 -0.00108,-6.4845e-4 -0.0023,-0.001008 -0.00356,-0.001107 -2.5e-5,-7.079e-5 -4.6e-5,-1.2402e-4 -6e-5,-1.9134e-4 -0.00141,-0.005643 -0.00333,-0.0294624 -0.00236,-0.0501021 3.047e-4,-0.006669 -0.00157,-0.0219681 -0.00558,-0.0251118 -0.00403,-0.003141 -0.015042,-0.001062 -0.017848,0.0116397 -0.00193,0.008721 -0.00106,0.0377433 0.006,0.0539685 0.00223,0.005094 0.00933,0.009404 0.012426,0.0132948 -0.0014,0.002025 -0.00185,0.004626 -0.0011,0.007083 -0.012012,0.0105021 -0.016664,0.0135072 -0.020643,0.0264294 -0.00409,0.0133155 -0.00209,0.0468 -0.00729,0.0577989 -0.0052,0.0110016 -0.00572,0.0371583 0.00149,0.0403686 0.0072,0.003204 0.015477,-0.001989 0.020569,-0.007245 0.00508,-0.005265 0.00236,-0.0282897 0.00487,-0.0389583 0.0025,-0.0106758 -0.00268,-0.0255861 -0.00131,-0.0366624 0.0013,-0.0104382 0.00412,-0.0300114 0.00901,-0.0359928 0.00154,2.1969e-4 0.00317,1.411e-5 0.00466,-7.0866e-4 2.799e-4,-1.2753e-4 5.387e-4,-2.799e-4 7.83e-4,-4.3938e-4 0.00288,0.008703 0.00305,0.0256716 0.00298,0.0352593 -9.9e-5,0.0116469 -0.00752,0.0263556 -0.00638,0.0377397 0.00113,0.0113814 -0.00485,0.0348273 -3.082e-4,0.040968 0.00454,0.006138 0.01238,0.0126387 0.020278,0.0103149 0.00791,-0.002331 0.010948,-0.0294552 0.00708,-0.0415557 l 0,-1.8e-7 z"
     style="fill:#000000;fill-rule:nonzero"
     id="path3409-1-3"
     inkscape:connector-curvature="0" /></g><g
   id="g5782"
   transform="matrix(1.3003972,0,0,1.3003972,-1.7770382,-0.19458074)"><path
     d="m 4.6471172,0.46029029 c -0.00366,-0.011411 0.00264,-0.043858 3.581e-4,-0.057405 -0.0022,-0.013092 -0.00633,-0.016655 -0.016625,-0.028361 0.00482,-0.0039 0.00963,-0.00864 0.011515,-0.013935 0.00345,-0.00969 0.011451,-0.033749 0.00986,-0.044632 -0.00159,-0.010886 0.00257,-0.022147 -0.00932,-0.022126 -0.00732,6.7e-6 -0.013014,0.01782 -0.013543,0.026126 -5.321e-4,0.0083 -1.741e-4,0.037163 -0.00225,0.043701 -6.827e-4,0.00212 -0.00153,0.00404 -0.00241,0.00523 -0.00102,-6.124e-4 -0.00217,-9.52e-4 -0.00336,-0.00105 -2.33e-5,-6.68e-5 -4.36e-5,-1.172e-4 -5.69e-5,-1.807e-4 -0.00133,-0.00533 -0.00314,-0.027826 -0.00223,-0.047319 2.878e-4,-0.0063 -0.00148,-0.020748 -0.00527,-0.023717 -0.00381,-0.00297 -0.014206,-0.001 -0.016856,0.010993 -0.00182,0.00824 -10e-4,0.035646 0.00567,0.05097 0.00211,0.00481 0.00881,0.00888 0.011736,0.012556 -0.00133,0.00191 -0.00175,0.00437 -0.00104,0.00669 -0.011345,0.00992 -0.015739,0.012757 -0.019496,0.024961 -0.00386,0.012576 -0.00197,0.0442 -0.00689,0.054588 -0.00491,0.01039 -0.00541,0.035094 0.00141,0.038126 0.0068,0.00303 0.014617,-0.00188 0.019426,-0.00684 0.00479,-0.00497 0.00223,-0.026718 0.0046,-0.036794 0.00236,-0.010083 -0.00253,-0.024165 -0.00123,-0.034626 0.00122,-0.00986 0.00389,-0.028344 0.00851,-0.033993 0.00145,2.075e-4 0.00299,1.34e-5 0.0044,-6.693e-4 2.643e-4,-1.204e-4 5.086e-4,-2.643e-4 7.395e-4,-4.149e-4 0.00272,0.00822 0.00288,0.024245 0.00281,0.0333 -9.39e-5,0.011 -0.00711,0.024891 -0.00603,0.035643 0.00107,0.010749 -0.00458,0.032892 -2.912e-4,0.038692 0.00429,0.0058 0.011693,0.011937 0.019151,0.00974 0.00747,-0.0022 0.01034,-0.027819 0.00669,-0.039247 l 10e-8,-2e-7 z"
     style="fill:#000000;fill-rule:nonzero"
     id="path3409-9-1"
     inkscape:connector-curvature="0" /><path
     d="m 4.7587509,0.46029029 c -0.00366,-0.011411 0.00264,-0.043858 3.581e-4,-0.057405 -0.0022,-0.013092 -0.00633,-0.016655 -0.016625,-0.028361 0.00482,-0.0039 0.00963,-0.00864 0.011515,-0.013935 0.00345,-0.00969 0.011451,-0.033749 0.00986,-0.044632 -0.00159,-0.010886 0.00257,-0.022147 -0.00932,-0.022126 -0.00732,6.7e-6 -0.013014,0.01782 -0.013543,0.026126 -5.321e-4,0.0083 -1.741e-4,0.037163 -0.00225,0.043701 -6.827e-4,0.00212 -0.00153,0.00404 -0.00241,0.00523 -0.00102,-6.124e-4 -0.00217,-9.52e-4 -0.00336,-0.00105 -2.36e-5,-6.68e-5 -4.34e-5,-1.172e-4 -5.67e-5,-1.807e-4 -0.00133,-0.00533 -0.00314,-0.027826 -0.00223,-0.047319 2.878e-4,-0.0063 -0.00148,-0.020748 -0.00527,-0.023717 -0.00381,-0.00297 -0.014206,-0.001 -0.016856,0.010993 -0.00182,0.00824 -10e-4,0.035646 0.00567,0.05097 0.00211,0.00481 0.00881,0.00888 0.011736,0.012556 -0.00133,0.00191 -0.00175,0.00437 -0.00104,0.00669 -0.011345,0.00992 -0.015739,0.012757 -0.019496,0.024961 -0.00386,0.012576 -0.00197,0.0442 -0.00688,0.054588 -0.00491,0.01039 -0.00541,0.035094 0.00141,0.038126 0.0068,0.00303 0.014617,-0.00188 0.019426,-0.00684 0.00479,-0.00497 0.00223,-0.026718 0.0046,-0.036794 0.00236,-0.010083 -0.00253,-0.024165 -0.00123,-0.034626 0.00122,-0.00986 0.00389,-0.028344 0.00851,-0.033993 0.00145,2.075e-4 0.00299,1.34e-5 0.0044,-6.693e-4 2.643e-4,-1.204e-4 5.087e-4,-2.643e-4 7.395e-4,-4.149e-4 0.00272,0.00822 0.00288,0.024245 0.00281,0.0333 -9.35e-5,0.011 -0.00711,0.024891 -0.00603,0.035643 0.00107,0.010749 -0.00458,0.032892 -2.912e-4,0.038692 0.00429,0.0058 0.011693,0.011937 0.019151,0.00974 0.00747,-0.0022 0.01034,-0.027819 0.00669,-0.039247 l 1e-7,-2e-7 z"
     style="fill:#000000;fill-rule:nonzero"
     id="path3409-1-2"
     inkscape:connector-curvature="0" /></g><g
   id="g5791"
   transform="matrix(1.3003972,0,0,1.3003972,-1.7652006,-0.19458074)"><path
     d="m 5.2674702,0.47021754 c -0.00274,-0.008558 0.00198,-0.0328935 2.685e-4,-0.0430538 -0.00165,-0.009819 -0.00475,-0.0124912 -0.012469,-0.0212708 0.00362,-0.002925 0.00722,-0.00648 0.00864,-0.0104512 0.00259,-0.007268 0.00859,-0.0253118 0.00739,-0.033474 -0.00119,-0.008165 0.00193,-0.0166102 -0.00699,-0.0165945 -0.00549,5.02e-6 -0.00976,0.013365 -0.010157,0.0195945 -3.991e-4,0.006225 -1.306e-4,0.0278722 -0.00169,0.0327757 -5.12e-4,0.00159 -0.00115,0.00303 -0.00181,0.003922 -7.65e-4,-4.593e-4 -0.00163,-7.14e-4 -0.00252,-7.875e-4 -1.75e-5,-5.009e-5 -3.27e-5,-8.79e-5 -4.27e-5,-1.3553e-4 -9.975e-4,-0.003997 -0.00236,-0.0208695 -0.00167,-0.0354893 2.159e-4,-0.004725 -0.00111,-0.015561 -0.00395,-0.0177877 -0.00286,-0.002227 -0.010655,-7.5e-4 -0.012642,0.008245 -0.00136,0.00618 -7.5e-4,0.0267345 0.00425,0.0382275 0.00158,0.003608 0.00661,0.00666 0.0088,0.009417 -9.975e-4,0.001432 -0.00131,0.003277 -7.8e-4,0.005018 -0.00851,0.00744 -0.011804,0.009568 -0.014622,0.0187207 -0.00289,0.009432 -0.00148,0.03315 -0.00517,0.040941 -0.00368,0.007792 -0.00406,0.0263205 0.00106,0.0285945 0.0051,0.002273 0.010963,-0.00141 0.01457,-0.00513 0.00359,-0.003727 0.00167,-0.0200385 0.00345,-0.0275955 0.00177,-0.007562 -0.0019,-0.0181237 -9.225e-4,-0.0259695 9.15e-4,-0.007395 0.00292,-0.021258 0.00638,-0.0254948 0.00109,1.5563e-4 0.00224,1.008e-5 0.0033,-5.0197e-4 1.982e-4,-9.03e-5 3.815e-4,-1.9823e-4 5.546e-4,-3.1118e-4 0.00204,0.006165 0.00216,0.0181838 0.00211,0.024975 -7.04e-5,0.00825 -0.00533,0.0186683 -0.00452,0.0267323 8.025e-4,0.008062 -0.00343,0.024669 -2.184e-4,0.029019 0.00322,0.00435 0.00877,0.008953 0.014363,0.007305 0.0056,-0.00165 0.00776,-0.0208643 0.00502,-0.0294353 l 1e-7,-1.5e-7 z"
     style="fill:#000000;fill-rule:nonzero"
     id="path3409-9-1-5"
     inkscape:connector-curvature="0" /><path
     d="m 5.3511954,0.47021754 c -0.00274,-0.008558 0.00198,-0.0328935 2.686e-4,-0.0430538 -0.00165,-0.009819 -0.00475,-0.0124912 -0.012469,-0.0212708 0.00361,-0.002925 0.00722,-0.00648 0.00864,-0.0104512 0.00259,-0.007268 0.00859,-0.0253118 0.0074,-0.033474 -0.00119,-0.008165 0.00193,-0.0166102 -0.00699,-0.0165945 -0.00549,5.02e-6 -0.00976,0.013365 -0.010157,0.0195945 -3.991e-4,0.006225 -1.306e-4,0.0278722 -0.00169,0.0327757 -5.121e-4,0.00159 -0.00115,0.00303 -0.00181,0.003922 -7.65e-4,-4.593e-4 -0.00163,-7.14e-4 -0.00252,-7.875e-4 -1.75e-5,-5.009e-5 -3.25e-5,-8.79e-5 -4.26e-5,-1.3553e-4 -9.975e-4,-0.003997 -0.00235,-0.0208695 -0.00167,-0.0354893 2.159e-4,-0.004725 -0.00111,-0.015561 -0.00395,-0.0177877 -0.00286,-0.002227 -0.010655,-7.5e-4 -0.012642,0.008245 -0.00136,0.00618 -7.5e-4,0.0267345 0.00425,0.0382275 0.00158,0.003608 0.00661,0.00666 0.0088,0.009417 -9.975e-4,0.001432 -0.00131,0.003277 -7.8e-4,0.005018 -0.00851,0.00744 -0.011804,0.009568 -0.014622,0.0187207 -0.0029,0.009432 -0.00148,0.03315 -0.00516,0.040941 -0.00368,0.007792 -0.00406,0.0263205 0.00106,0.0285945 0.0051,0.002273 0.010963,-0.00141 0.014569,-0.00513 0.00359,-0.003727 0.00167,-0.0200385 0.00345,-0.0275955 0.00177,-0.007562 -0.0019,-0.0181237 -9.225e-4,-0.0259695 9.15e-4,-0.007395 0.00292,-0.021258 0.00638,-0.0254948 0.00109,1.5563e-4 0.00224,1.008e-5 0.0033,-5.0197e-4 1.983e-4,-9.03e-5 3.816e-4,-1.9823e-4 5.547e-4,-3.1118e-4 0.00204,0.006165 0.00216,0.0181838 0.00211,0.024975 -7e-5,0.00825 -0.00533,0.0186683 -0.00452,0.0267323 8.025e-4,0.008062 -0.00344,0.024669 -2.184e-4,0.029019 0.00322,0.00435 0.00877,0.008953 0.014363,0.007305 0.0056,-0.00165 0.00775,-0.0208643 0.00502,-0.0294353 l 1e-7,-1.5e-7 z"
     style="fill:#000000;fill-rule:nonzero"
     id="path3409-1-2-3"
     inkscape:connector-curvature="0" /></g><g
   id="g5786"
   transform="matrix(1.3003972,0,0,1.3003972,-1.7890086,-0.19458074)"><path
     transform="matrix(0.01111111,0,0,0.01111111,0,-0.06975099)"
     d="m 447,44 c 0,0.552285 -0.44772,1 -1,1 -0.55228,0 -1,-0.447715 -1,-1 0,-0.552285 0.44772,-1 1,-1 0.55228,0 1,0.447715 1,1 z"
     sodipodi:ry="1"
     sodipodi:rx="1"
     sodipodi:cy="44"
     sodipodi:cx="446"
     id="path5743"
     style="fill:#000000;fill-opacity:1;stroke-width:2;stroke-linecap:round;stroke-miterlimit:4;stroke-dasharray:none"
     sodipodi:type="arc" /><path
     d="m 447,44 c 0,0.552285 -0.44772,1 -1,1 -0.55228,0 -1,-0.447715 -1,-1 0,-0.552285 0.44772,-1 1,-1 0.55228,0 1,0.447715 1,1 z"
     sodipodi:ry="1"
     sodipodi:rx="1"
     sodipodi:cy="44"
     sodipodi:cx="446"
     id="path5743-6"
     style="fill:#000000;fill-opacity:1;stroke-width:2;stroke-linecap:round;stroke-miterlimit:4;stroke-dasharray:none"
     sodipodi:type="arc"
     transform="matrix(0.01111111,0,0,0.01111111,0.05000005,-0.06975099)" /><path
     d="m 447,44 c 0,0.552285 -0.44772,1 -1,1 -0.55228,0 -1,-0.447715 -1,-1 0,-0.552285 0.44772,-1 1,-1 0.55228,0 1,0.447715 1,1 z"
     sodipodi:ry="1"
     sodipodi:rx="1"
     sodipodi:cy="44"
     sodipodi:cx="446"
     id="path5743-9"
     style="fill:#000000;fill-opacity:1;stroke-width:2;stroke-linecap:round;stroke-miterlimit:4;stroke-dasharray:none"
     sodipodi:type="arc"
     transform="matrix(0.01111111,0,0,0.01111111,0.10000005,-0.06975099)" /></g><text
   xml:space="preserve"
   style="font-size:0.44444439px;font-style:normal;font-weight:normal;line-height:125%;letter-spacing:0px;word-spacing:0px;fill:#000000;fill-opacity:1;stroke:none;font-family:Sans"
   x="2.7778218"
   y="0.74942231"
   id="text5795"
   sodipodi:linespacing="125%"><tspan
     sodipodi:role="line"
     id="tspan5797"
     x="2.7778218"
     y="0.74942231"
     style="font-size:0.26666665px">1</tspan></text>
<text
   xml:space="preserve"
   style="font-size:0.44444439px;font-style:normal;font-weight:normal;line-height:125%;letter-spacing:0px;word-spacing:0px;fill:#000000;fill-opacity:1;stroke:none;font-family:Sans"
   x="3.2760873"
   y="0.74942231"
   id="text5795-1"
   sodipodi:linespacing="125%"><tspan
     sodipodi:role="line"
     id="tspan5797-0"
     x="3.2760873"
     y="0.74942231"
     style="font-size:0.26666665px">2</tspan></text>
<text
   xml:space="preserve"
   style="font-size:0.44444439px;font-style:normal;font-weight:normal;line-height:125%;letter-spacing:0px;word-spacing:0px;fill:#000000;fill-opacity:1;stroke:none;font-family:Sans"
   x="3.7515438"
   y="0.7456463"
   id="text5795-8"
   sodipodi:linespacing="125%"><tspan
     sodipodi:role="line"
     id="tspan5797-1"
     x="3.7515438"
     y="0.7456463"
     style="font-size:0.26666665px">3</tspan></text>
<text
   xml:space="preserve"
   style="font-size:0.44444439px;font-style:normal;font-weight:normal;line-height:125%;letter-spacing:0px;word-spacing:0px;fill:#000000;fill-opacity:1;stroke:none;font-family:Sans"
   x="4.2166929"
   y="0.74942231"
   id="text5795-6"
   sodipodi:linespacing="125%"><tspan
     sodipodi:role="line"
     id="tspan5797-8"
     x="4.2166929"
     y="0.74942231"
     style="font-size:0.26666665px">4</tspan></text>
<text
   xml:space="preserve"
   style="font-size:0.44444439px;font-style:normal;font-weight:normal;line-height:125%;letter-spacing:0px;word-spacing:0px;fill:#000000;fill-opacity:1;stroke:none;font-family:Sans"
   x="4.9443221"
   y="0.74942231"
   id="text5795-9"
   sodipodi:linespacing="125%"><tspan
     sodipodi:role="line"
     id="tspan5797-84"
     x="4.9443221"
     y="0.74942231"
     style="font-size:0.26666665px">22</tspan></text>
<path
   inkscape:connector-curvature="0"
   id="path3409-9-1-1-4"
   style="fill:#000000;fill-rule:nonzero"
   d="m 3.2443972,1.3682431 c -0.00476,-0.014839 0.00343,-0.057033 4.657e-4,-0.074649 -0.00286,-0.017025 -0.00823,-0.021658 -0.021619,-0.036881 0.00627,-0.00507 0.012523,-0.011235 0.014974,-0.018121 0.00449,-0.012601 0.014891,-0.043887 0.012822,-0.058039 -0.00207,-0.014156 0.00334,-0.0288 -0.01212,-0.028773 -0.00952,8.7e-6 -0.016923,0.023173 -0.017611,0.033974 -6.919e-4,0.010793 -2.264e-4,0.048327 -0.00293,0.056829 -8.878e-4,0.00276 -0.00199,0.00525 -0.00313,0.0068 -0.00133,-7.963e-4 -0.00282,-0.00124 -0.00437,-0.00137 -3.03e-5,-8.69e-5 -5.67e-5,-1.524e-4 -7.4e-5,-2.35e-4 -0.00173,-0.00693 -0.00408,-0.036185 -0.0029,-0.061534 3.743e-4,-0.00819 -0.00192,-0.026981 -0.00685,-0.030841 -0.00495,-0.00386 -0.018473,-0.0013 -0.02192,0.014295 -0.00237,0.010715 -0.0013,0.046354 0.00737,0.066281 0.00274,0.00625 0.011457,0.011548 0.015262,0.016328 -0.00173,0.00248 -0.00228,0.00568 -0.00135,0.0087 -0.014753,0.0129 -0.020467,0.016589 -0.025353,0.032459 -0.00502,0.016354 -0.00256,0.057478 -0.00896,0.070986 -0.00638,0.013511 -0.00704,0.045636 0.00183,0.049579 0.00884,0.00394 0.019008,-0.00245 0.025262,-0.00889 0.00623,-0.00646 0.0029,-0.034744 0.00598,-0.047847 0.00307,-0.013112 -0.00329,-0.031424 -0.0016,-0.045028 0.00159,-0.012822 0.00506,-0.036858 0.011066,-0.044204 0.00189,2.698e-4 0.00389,1.78e-5 0.00572,-8.703e-4 3.437e-4,-1.565e-4 6.614e-4,-3.437e-4 9.617e-4,-5.395e-4 0.00354,0.010689 0.00375,0.031528 0.00365,0.043303 -1.221e-4,0.014304 -0.00925,0.032368 -0.00784,0.04635 0.00139,0.013978 -0.00596,0.042773 -3.787e-4,0.050315 0.00558,0.00754 0.015206,0.015523 0.024904,0.012666 0.00971,-0.00286 0.013446,-0.036176 0.0087,-0.051037 l 1e-7,-3e-7 z" /><path
   inkscape:connector-curvature="0"
   id="path3409-1-2-38-4"
   style="fill:#000000;fill-rule:nonzero"
   d="m 3.5680246,1.3609639 c -0.00476,-0.014839 0.00343,-0.057033 4.657e-4,-0.074649 -0.00286,-0.017025 -0.00823,-0.021658 -0.021619,-0.036881 0.00627,-0.00507 0.012523,-0.011235 0.014974,-0.018121 0.00449,-0.012601 0.014891,-0.043887 0.012822,-0.058039 -0.00207,-0.014156 0.00334,-0.0288 -0.01212,-0.028773 -0.00952,8.8e-6 -0.016923,0.023173 -0.017611,0.033974 -6.92e-4,0.010793 -2.264e-4,0.048327 -0.00293,0.056829 -8.877e-4,0.00276 -0.00199,0.00525 -0.00313,0.0068 -0.00133,-7.964e-4 -0.00282,-0.00124 -0.00437,-0.00137 -3.11e-5,-8.69e-5 -5.66e-5,-1.524e-4 -7.33e-5,-2.35e-4 -0.00173,-0.00693 -0.00408,-0.036185 -0.0029,-0.061533 3.742e-4,-0.00819 -0.00192,-0.026981 -0.00685,-0.030841 -0.00495,-0.00386 -0.018473,-0.0013 -0.02192,0.014295 -0.00237,0.010715 -0.0013,0.046354 0.00737,0.066281 0.00274,0.00626 0.011456,0.011548 0.015262,0.016328 -0.00173,0.00248 -0.00228,0.00568 -0.00135,0.0087 -0.014753,0.0129 -0.020467,0.016589 -0.025353,0.032459 -0.00502,0.016354 -0.00256,0.057478 -0.00895,0.070986 -0.00638,0.013511 -0.00704,0.045636 0.00183,0.049579 0.00884,0.00394 0.019008,-0.00245 0.025262,-0.0089 0.00623,-0.00646 0.0029,-0.034744 0.00598,-0.047847 0.00307,-0.013112 -0.00329,-0.031424 -0.0016,-0.045028 0.00159,-0.012822 0.00506,-0.036858 0.011066,-0.044204 0.00189,2.699e-4 0.00389,1.78e-5 0.00572,-8.704e-4 3.437e-4,-1.565e-4 6.616e-4,-3.436e-4 9.617e-4,-5.395e-4 0.00354,0.010689 0.00375,0.031528 0.00365,0.043303 -1.216e-4,0.014304 -0.00925,0.032368 -0.00784,0.04635 0.00139,0.013978 -0.00596,0.042773 -3.787e-4,0.050315 0.00558,0.00754 0.015206,0.015523 0.024904,0.012666 0.00971,-0.00286 0.013446,-0.036176 0.0087,-0.051037 l 10e-8,-3e-7 z" /><text
   xml:space="preserve"
   style="font-size:0.44444439px;font-style:normal;font-weight:normal;line-height:125%;letter-spacing:0px;word-spacing:0px;fill:#000000;fill-opacity:1;stroke:none;font-family:Sans"
   x="3.1151557"
   y="1.6823617"
   id="text5795-9-7-4"
   sodipodi:linespacing="125%"><tspan
     sodipodi:role="line"
     id="tspan5797-84-5-8"
     x="3.1151557"
     y="1.6823617"
     style="font-size:0.26666665px">X</tspan></text>
<text
   xml:space="preserve"
   style="font-size:0.44444439px;font-style:normal;font-weight:normal;line-height:125%;letter-spacing:0px;word-spacing:0px;fill:#000000;fill-opacity:1;stroke:none;font-family:Sans"
   x="3.4484887"
   y="1.6823617"
   id="text5795-9-7-6-9"
   sodipodi:linespacing="125%"><tspan
     sodipodi:role="line"
     id="tspan5797-84-5-1-9"
     x="3.4484887"
     y="1.6823617"
     style="font-size:0.26666665px">Y</tspan></text>
<path
   inkscape:connector-curvature="0"
   id="path3409-9-1-1-1"
   style="fill:#000000;fill-rule:nonzero"
   d="m 4.8563327,1.370545 c -0.00476,-0.014839 0.00343,-0.057033 4.656e-4,-0.074649 -0.00286,-0.017025 -0.00823,-0.021658 -0.021619,-0.036881 0.00627,-0.00507 0.012523,-0.011235 0.014974,-0.018121 0.00449,-0.012601 0.014891,-0.043887 0.012822,-0.058039 -0.00207,-0.014156 0.00334,-0.0288 -0.01212,-0.028773 -0.00952,8.7e-6 -0.016923,0.023173 -0.017611,0.033974 -6.919e-4,0.010793 -2.264e-4,0.048327 -0.00293,0.056829 -8.878e-4,0.00276 -0.00199,0.00525 -0.00313,0.0068 -0.00133,-7.964e-4 -0.00282,-0.00124 -0.00437,-0.00137 -3.03e-5,-8.69e-5 -5.66e-5,-1.524e-4 -7.4e-5,-2.35e-4 -0.00173,-0.00693 -0.00408,-0.036185 -0.0029,-0.061533 3.743e-4,-0.00819 -0.00192,-0.026981 -0.00685,-0.030841 -0.00495,-0.00386 -0.018473,-0.0013 -0.02192,0.014295 -0.00237,0.010715 -0.0013,0.046354 0.00737,0.066281 0.00274,0.00626 0.011457,0.011548 0.015262,0.016328 -0.00173,0.00248 -0.00228,0.00568 -0.00135,0.0087 -0.014753,0.0129 -0.020467,0.016589 -0.025353,0.032459 -0.00502,0.016354 -0.00256,0.057478 -0.00896,0.070986 -0.00638,0.013511 -0.00704,0.045636 0.00183,0.049579 0.00884,0.00394 0.019008,-0.00245 0.025262,-0.0089 0.00623,-0.00646 0.0029,-0.034744 0.00598,-0.047847 0.00307,-0.013112 -0.00329,-0.031424 -0.0016,-0.045028 0.00159,-0.012822 0.00506,-0.036858 0.011066,-0.044204 0.00189,2.698e-4 0.00389,1.78e-5 0.00572,-8.704e-4 3.437e-4,-1.565e-4 6.614e-4,-3.436e-4 9.617e-4,-5.395e-4 0.00354,0.010689 0.00375,0.031528 0.00365,0.043303 -1.221e-4,0.014304 -0.00925,0.032368 -0.00784,0.04635 0.00139,0.013978 -0.00596,0.042773 -3.787e-4,0.050315 0.00558,0.00754 0.015206,0.015523 0.024904,0.012666 0.00971,-0.00286 0.013446,-0.036176 0.0087,-0.051037 l 1e-7,-3e-7 z" /><path
   inkscape:connector-curvature="0"
   id="path3409-1-2-38-3"
   style="fill:#000000;fill-rule:nonzero"
   d="m 5.1799601,1.3632658 c -0.00476,-0.014839 0.00343,-0.057033 4.656e-4,-0.074649 -0.00286,-0.017025 -0.00823,-0.021658 -0.021619,-0.036881 0.00627,-0.00507 0.012523,-0.011235 0.014974,-0.018121 0.00449,-0.012601 0.014891,-0.043887 0.012822,-0.058039 -0.00207,-0.014156 0.00334,-0.0288 -0.01212,-0.028773 -0.00952,8.7e-6 -0.016923,0.023173 -0.017611,0.033974 -6.92e-4,0.010793 -2.265e-4,0.048327 -0.00293,0.056829 -8.878e-4,0.00276 -0.00199,0.00525 -0.00313,0.0068 -0.00133,-7.964e-4 -0.00282,-0.00124 -0.00437,-0.00137 -3.12e-5,-8.69e-5 -5.67e-5,-1.524e-4 -7.34e-5,-2.35e-4 -0.00173,-0.00693 -0.00408,-0.036185 -0.0029,-0.061534 3.742e-4,-0.00819 -0.00192,-0.026981 -0.00685,-0.030841 -0.00495,-0.00386 -0.018473,-0.0013 -0.02192,0.014295 -0.00237,0.010715 -0.0013,0.046354 0.00737,0.066281 0.00274,0.00625 0.011456,0.011548 0.015262,0.016328 -0.00173,0.00248 -0.00228,0.00568 -0.00135,0.0087 -0.014753,0.0129 -0.020467,0.016589 -0.025353,0.032459 -0.00502,0.016354 -0.00256,0.057477 -0.00895,0.070986 -0.00638,0.013511 -0.00704,0.045636 0.00183,0.049579 0.00884,0.00394 0.019008,-0.00244 0.025262,-0.00889 0.00623,-0.00646 0.0029,-0.034744 0.00598,-0.047847 0.00307,-0.013112 -0.00329,-0.031424 -0.0016,-0.045028 0.00159,-0.012822 0.00506,-0.036858 0.011066,-0.044204 0.00189,2.699e-4 0.00389,1.78e-5 0.00572,-8.703e-4 3.437e-4,-1.566e-4 6.616e-4,-3.437e-4 9.617e-4,-5.396e-4 0.00354,0.010689 0.00375,0.031528 0.00365,0.043303 -1.216e-4,0.014304 -0.00925,0.032368 -0.00784,0.04635 0.00139,0.013978 -0.00596,0.042773 -3.787e-4,0.050315 0.00558,0.00754 0.015206,0.015523 0.024904,0.012666 0.00971,-0.00286 0.013446,-0.036176 0.0087,-0.051037 l 1e-7,-2e-7 z" /><text
   xml:space="preserve"
   style="font-size:0.44444439px;font-style:normal;font-weight:normal;line-height:125%;letter-spacing:0px;word-spacing:0px;fill:#000000;fill-opacity:1;stroke:none;font-family:Sans"
   x="4.7270851"
   y="1.6846635"
   id="text5795-9-7-67"
   sodipodi:linespacing="125%"><tspan
     sodipodi:role="line"
     id="tspan5797-84-5-0"
     x="4.7270851"
     y="1.6846635"
     style="font-size:0.26666665px">X</tspan></text>
<text
   xml:space="preserve"
   style="font-size:0.44444439px;font-style:normal;font-weight:normal;line-height:125%;letter-spacing:0px;word-spacing:0px;fill:#000000;fill-opacity:1;stroke:none;font-family:Sans"
   x="5.0604181"
   y="1.6846635"
   id="text5795-9-7-6-8"
   sodipodi:linespacing="125%"><tspan
     sodipodi:role="line"
     id="tspan5797-84-5-1-91"
     x="5.0604181"
     y="1.6846635"
     style="font-size:0.26666665px">X</tspan></text>
<text
   xml:space="preserve"
   style="font-size:0.44444439px;font-style:normal;font-weight:normal;line-height:125%;letter-spacing:0px;word-spacing:0px;fill:#000000;fill-opacity:1;stroke:none;font-family:Sans"
   x="4.0545464"
   y="1.3605334"
   id="text5795-9-7-67-1"
   sodipodi:linespacing="125%"><tspan
     sodipodi:role="line"
     id="tspan5797-84-5-0-1"
     x="4.0545464"
     y="1.3605334"
     style="font-size:0.26666665px">or</tspan></text>
<text
   xml:space="preserve"
   style="font-size:0.44444439px;font-style:normal;font-weight:normal;line-height:125%;letter-spacing:0px;word-spacing:0px;fill:#000000;fill-opacity:1;stroke:none;font-family:Sans"
   x="2.6878817"
   y="1.3605334"
   id="text5795-9-7-67-2"
   sodipodi:linespacing="125%"><tspan
     sodipodi:role="line"
     id="tspan5797-84-5-0-2"
     x="2.6878817"
     y="1.3605334"
     style="font-size:0.26666665px">+</tspan></text>
<text
   xml:space="preserve"
   style="font-size:0.44444439px;font-style:normal;font-weight:normal;line-height:125%;letter-spacing:0px;word-spacing:0px;fill:#000000;fill-opacity:1;stroke:none;font-family:Sans"
   x="4.4767671"
   y="1.9716445"
   id="text5795-9-7-4-7"
   sodipodi:linespacing="125%"><tspan
     sodipodi:role="line"
     id="tspan5797-84-5-8-0"
     x="4.4767671"
     y="1.9716445"
     style="font-size:0.26666665px">(female)</tspan></text>
<text
   xml:space="preserve"
   style="font-size:0.44444439px;font-style:normal;font-weight:normal;line-height:125%;letter-spacing:0px;word-spacing:0px;fill:#000000;fill-opacity:1;stroke:none;font-family:Sans"
   x="2.8989923"
   y="1.9716445"
   id="text5795-9-7-4-7-1"
   sodipodi:linespacing="125%"><tspan
     sodipodi:role="line"
     id="tspan5797-84-5-8-0-7"
     x="2.8989923"
     y="1.9716445"
     style="font-size:0.26666665px">(male)</tspan></text>
<path
   style="fill:none;stroke:#000000;stroke-width:0.02222222;stroke-linecap:round;stroke-linejoin:miter;stroke-miterlimit:4;stroke-opacity:1;stroke-dasharray:none"
   d="M 1.6212141,0.52720004 2.5101029,0.08275564"
   id="path6058"
   inkscape:connector-curvature="0" /><path
   style="fill:none;stroke:#000000;stroke-width:0.02222222;stroke-linecap:round;stroke-linejoin:miter;stroke-miterlimit:4;stroke-opacity:1;stroke-dasharray:none"
   d="M 1.6212141,0.97164444 2.621214,1.8605332"
   id="path6060"
   inkscape:connector-curvature="0" /></svg>