<?xml version="1.0" encoding="UTF-8" standalone="no"?>
<!-- Created with Inkscape (http://www.inkscape.org/) -->

<svg
   xmlns:dc="http://purl.org/dc/elements/1.1/"
   xmlns:cc="http://creativecommons.org/ns#"
   xmlns:rdf="http://www.w3.org/1999/02/22-rdf-syntax-ns#"
   xmlns:svg="http://www.w3.org/2000/svg"
   xmlns="http://www.w3.org/2000/svg"
   xmlns:sodipodi="http://sodipodi.sourceforge.net/DTD/sodipodi-0.dtd"
   xmlns:inkscape="http://www.inkscape.org/namespaces/inkscape"
   width="282.25415"
   height="201.15944"
   id="svg11551"
   version="1.1"
   inkscape:version="0.48.3.1 r9886"
   sodipodi:docname="New document 3">
  <defs
     id="defs11553" />
  <sodipodi:namedview
     id="base"
     pagecolor="#ffffff"
     bordercolor="#666666"
     borderopacity="1.0"
     inkscape:pageopacity="0.0"
     inkscape:pageshadow="2"
     inkscape:zoom="1.979899"
     inkscape:cx="225.39415"
     inkscape:cy="74.657918"
     inkscape:document-units="px"
     inkscape:current-layer="layer1"
     showgrid="true"
     fit-margin-top="0"
     fit-margin-left="0"
     fit-margin-right="0"
     fit-margin-bottom="0"
     inkscape:window-width="1366"
     inkscape:window-height="713"
     inkscape:window-x="-2"
     inkscape:window-y="-3"
     inkscape:window-maximized="1">
    <inkscape:grid
       type="xygrid"
       id="grid11848"
       empspacing="5"
       visible="true"
       enabled="true"
       snapvisiblegridlinesonly="true"
       originx="-31.905334px"
       originy="-579.41174px" />
  </sodipodi:namedview>
  <metadata
     id="metadata11556">
    <rdf:RDF>
      <cc:Work
         rdf:about="">
        <dc:format>image/svg+xml</dc:format>
        <dc:type
           rdf:resource="http://purl.org/dc/dcmitype/StillImage" />
        <dc:title></dc:title>
      </cc:Work>
    </rdf:RDF>
  </metadata>
  <g
     inkscape:label="Layer 1"
     inkscape:groupmode="layer"
     id="layer1"
     transform="translate(-31.905334,-271.791)">
    <path
       inkscape:connector-curvature="0"
       id="path326"
       style="fill:none;stroke:#231f20;stroke-width:0.9375;stroke-linecap:round;stroke-linejoin:round;stroke-miterlimit:10;stroke-opacity:1;stroke-dasharray:none"
       d="m 51.452857,435.6835 0,-128.7825" />
    <path
       inkscape:connector-curvature="0"
       id="path328"
       style="fill:none;stroke:#231f20;stroke-width:0.9375;stroke-linecap:round;stroke-linejoin:round;stroke-miterlimit:10;stroke-opacity:1;stroke-dasharray:none"
       d="m 51.452857,435.6835 -2.42625,0" />
    <path
       d="m 51.452857,408.29975 -2.42625,0"
       style="fill:none;stroke:#231f20;stroke-width:0.9375;stroke-linecap:round;stroke-linejoin:round;stroke-miterlimit:10;stroke-opacity:1;stroke-dasharray:none"
       id="path332"
       inkscape:connector-curvature="0" />
    <path
       inkscape:connector-curvature="0"
       id="path336"
       style="fill:none;stroke:#231f20;stroke-width:0.9375;stroke-linecap:round;stroke-linejoin:round;stroke-miterlimit:10;stroke-opacity:1;stroke-dasharray:none"
       d="m 51.452857,380.9135 -2.42625,0" />
    <path
       d="m 51.452857,353.52975 -2.42625,0"
       style="fill:none;stroke:#231f20;stroke-width:0.9375;stroke-linecap:round;stroke-linejoin:round;stroke-miterlimit:10;stroke-opacity:1;stroke-dasharray:none"
       id="path340"
       inkscape:connector-curvature="0" />
    <path
       inkscape:connector-curvature="0"
       id="path344"
       style="fill:none;stroke:#231f20;stroke-width:0.9375;stroke-linecap:round;stroke-linejoin:round;stroke-miterlimit:10;stroke-opacity:1;stroke-dasharray:none"
       d="m 51.452857,326.1485 -2.42625,0" />
    <text
       style="font-size:15px"
       transform="matrix(0,-1,1,0,0,0)"
       id="text348"
       x="-438.32687"
       y="47.53923">
      <tspan
         style="font-size:8.39762497px;font-variant:normal;font-weight:normal;writing-mode:lr-tb;fill:#231f20;fill-opacity:1;fill-rule:nonzero;stroke:none;font-family:Helvetica;-inkscape-font-specification:Helvetica"
         x="-438.32687 -413.08951 -408.41873 -406.08505"
         y="47.53923"
         sodipodi:role="line"
         id="tspan350">00.2</tspan>
      <tspan
         style="font-size:8.39762497px;font-variant:normal;font-weight:normal;writing-mode:lr-tb;fill:#231f20;fill-opacity:1;fill-rule:nonzero;stroke:none;font-family:Helvetica;-inkscape-font-specification:Helvetica"
         x="-385.62424 -380.95422 -378.61877"
         y="47.538391"
         sodipodi:role="line"
         id="tspan352">0.4</tspan>
      <tspan
         style="font-size:8.39762497px;font-variant:normal;font-weight:normal;writing-mode:lr-tb;fill:#231f20;fill-opacity:1;fill-rule:nonzero;stroke:none;font-family:Helvetica;-inkscape-font-specification:Helvetica"
         x="-358.15475 -353.48566 -351.15112 -330.68948 -326.01871 -323.68417"
         y="47.53923"
         sodipodi:role="line"
         id="tspan354">0.60.8</tspan>
    </text>
    <text
       style="font-size:15px"
       transform="matrix(0,-1,1,0,0,0)"
       id="text356"
       x="-422.47437"
       y="37.350109">
      <tspan
         style="font-size:7.34787512px;font-variant:normal;font-weight:normal;writing-mode:lr-tb;fill:#231f20;fill-opacity:1;fill-rule:nonzero;stroke:none;font-family:Helvetica;-inkscape-font-specification:Helvetica"
         x="-422.47437 -416.75772 -412.67233 -408.99838 -404.91296 -402.46613 -398.79218 -394.70676 -392.66406 -391.03281 -386.94742 -382.862 -379.18805 -377.14682 -373.0614 -368.97598 -366.52911 -364.48788 -360.40247 -356.31705 -352.23163 -348.14621 -345.69937 -341.61395 -339.57123 -337.94 -333.85458"
         y="37.350109"
         sodipodi:role="line"
         id="tspan358">Observations per generation</tspan>
    </text>
    <path
       d="m 269.9341,435.046 8.9325,0 0,-0.54001 -8.9325,0 0,0.54001 z"
       style="fill:#2aaae1;fill-opacity:1;fill-rule:nonzero;stroke:none"
       id="path360"
       inkscape:connector-curvature="0" />
    <path
       d="m 269.9341,435.046 8.9325,0 0,-0.54001 -8.9325,0 0,0.54001 z"
       style="fill:#2aaae1;fill-opacity:1;fill-rule:nonzero;stroke:none"
       id="path362"
       inkscape:connector-curvature="0" />
    <text
       style="font-size:15px"
       transform="matrix(0,-1,1,0,0,0)"
       id="text364"
       x="-459.578"
       y="61.761482">
      <tspan
         style="font-size:6.2982502px;font-variant:normal;font-weight:normal;writing-mode:lr-tb;fill:#231f20;fill-opacity:1;fill-rule:nonzero;stroke:none;font-family:Helvetica;-inkscape-font-specification:Helvetica"
         x="-459.578 -455.89856 -452.39548 -448.8924 -445.38931 -441.88623"
         y="61.761482"
         sodipodi:role="line"
         id="tspan366">&gt;10000</tspan>
      <tspan
         style="font-size:6.2982502px;font-variant:normal;font-weight:normal;writing-mode:lr-tb;fill:#231f20;fill-opacity:1;fill-rule:nonzero;stroke:none;font-family:Helvetica;-inkscape-font-specification:Helvetica"
         x="-459.57925 -456.07617 -452.57309 -449.07001 -445.56693 -442.06384"
         y="94.016083"
         sodipodi:role="line"
         id="tspan368">21–100</tspan>
      <tspan
         style="font-size:6.2982502px;font-variant:normal;font-weight:normal;writing-mode:lr-tb;fill:#231f20;fill-opacity:1;fill-rule:nonzero;stroke:none;font-family:Helvetica;-inkscape-font-specification:Helvetica"
         x="-441.89441"
         y="126.26817"
         id="tspan370">5</tspan>
      <tspan
         style="font-size:6.2982502px;font-variant:normal;font-weight:normal;writing-mode:lr-tb;fill:#231f20;fill-opacity:1;fill-rule:nonzero;stroke:none;font-family:Helvetica;-inkscape-font-specification:Helvetica"
         x="-441.89316"
         y="137.01865"
         id="tspan372">4</tspan>
      <tspan
         style="font-size:6.2982502px;font-variant:normal;font-weight:normal;writing-mode:lr-tb;fill:#231f20;fill-opacity:1;fill-rule:nonzero;stroke:none;font-family:Helvetica;-inkscape-font-specification:Helvetica"
         x="-441.89316"
         y="147.77039"
         id="tspan374">3</tspan>
      <tspan
         style="font-size:6.2982502px;font-variant:normal;font-weight:normal;writing-mode:lr-tb;fill:#231f20;fill-opacity:1;fill-rule:nonzero;stroke:none;font-family:Helvetica;-inkscape-font-specification:Helvetica"
         x="-441.89316"
         y="158.5215"
         id="tspan376">2</tspan>
      <tspan
         style="font-size:6.2982502px;font-variant:normal;font-weight:normal;writing-mode:lr-tb;fill:#231f20;fill-opacity:1;fill-rule:nonzero;stroke:none;font-family:Helvetica;-inkscape-font-specification:Helvetica"
         x="-441.89441"
         y="169.27263"
         id="tspan378">1</tspan>
      <tspan
         style="font-size:6.2982502px;font-variant:normal;font-weight:normal;writing-mode:lr-tb;fill:#231f20;fill-opacity:1;fill-rule:nonzero;stroke:none;font-family:Helvetica;-inkscape-font-specification:Helvetica"
         x="-441.89316"
         y="190.51976"
         id="tspan380">1</tspan>
      <tspan
         style="font-size:6.2982502px;font-variant:normal;font-weight:normal;writing-mode:lr-tb;fill:#231f20;fill-opacity:1;fill-rule:nonzero;stroke:none;font-family:Helvetica;-inkscape-font-specification:Helvetica"
         x="-441.89316"
         y="201.27214"
         id="tspan382">2</tspan>
      <tspan
         style="font-size:6.2982502px;font-variant:normal;font-weight:normal;writing-mode:lr-tb;fill:#231f20;fill-opacity:1;fill-rule:nonzero;stroke:none;font-family:Helvetica;-inkscape-font-specification:Helvetica"
         x="-441.89188"
         y="212.02325"
         id="tspan384">3</tspan>
      <tspan
         style="font-size:6.2982502px;font-variant:normal;font-weight:normal;writing-mode:lr-tb;fill:#231f20;fill-opacity:1;fill-rule:nonzero;stroke:none;font-family:Helvetica;-inkscape-font-specification:Helvetica"
         x="-441.89316"
         y="222.7731"
         id="tspan386">4</tspan>
      <tspan
         style="font-size:6.2982502px;font-variant:normal;font-weight:normal;writing-mode:lr-tb;fill:#231f20;fill-opacity:1;fill-rule:nonzero;stroke:none;font-family:Helvetica;-inkscape-font-specification:Helvetica"
         x="-441.89316"
         y="233.52422"
         id="tspan388">5</tspan>
      <tspan
         style="font-size:6.2982502px;font-variant:normal;font-weight:normal;writing-mode:lr-tb;fill:#231f20;fill-opacity:1;fill-rule:nonzero;stroke:none;font-family:Helvetica;-inkscape-font-specification:Helvetica"
         x="-456.07553 -452.57248 -449.06937 -445.56628 -442.0632"
         y="255.02643"
         sodipodi:role="line"
         id="tspan390">11–20</tspan>
      <tspan
         style="font-size:6.2982502px;font-variant:normal;font-weight:normal;writing-mode:lr-tb;fill:#231f20;fill-opacity:1;fill-rule:nonzero;stroke:none;font-family:Helvetica;-inkscape-font-specification:Helvetica"
         x="-473.59286 -470.08981 -466.5867 -463.08362 -459.58054 -456.07742 -452.57437 -449.07126 -445.56818 -442.06509"
         y="287.28168"
         sodipodi:role="line"
         id="tspan392">1001–10000</tspan>
      <tspan
         style="font-size:6.2982502px;font-variant:normal;font-weight:normal;writing-mode:lr-tb;fill:#231f20;fill-opacity:1;fill-rule:nonzero;stroke:none;font-family:Helvetica;-inkscape-font-specification:Helvetica"
         x="-466.58923 -463.08615 -459.58304 -456.07996 -452.57687 -449.07379 -445.57071 -442.06763"
         y="83.243561"
         sodipodi:role="line"
         id="tspan394">101–1000</tspan>
      <tspan
         style="font-size:6.2982502px;font-variant:normal;font-weight:normal;writing-mode:lr-tb;fill:#231f20;fill-opacity:1;fill-rule:nonzero;stroke:none;font-family:Helvetica;-inkscape-font-specification:Helvetica"
         x="-473.59286 -470.08981 -466.5867 -463.08362 -459.58054 -456.07742 -452.57437 -449.07126 -445.56818 -442.06509"
         y="72.493073"
         sodipodi:role="line"
         id="tspan396">1001–10000</tspan>
      <tspan
         style="font-size:6.2982502px;font-variant:normal;font-weight:normal;writing-mode:lr-tb;fill:#231f20;fill-opacity:1;fill-rule:nonzero;stroke:none;font-family:Helvetica;-inkscape-font-specification:Helvetica"
         x="-452.57437 -449.07126 -445.56818 -442.06509"
         y="115.49815"
         sodipodi:role="line"
         id="tspan398">6–10</tspan>
      <tspan
         style="font-size:6.2982502px;font-variant:normal;font-weight:normal;writing-mode:lr-tb;fill:#231f20;fill-opacity:1;fill-rule:nonzero;stroke:none;font-family:Helvetica;-inkscape-font-specification:Helvetica"
         x="-456.07681 -452.57373 -449.07065 -445.56754 -442.06445"
         y="104.74641"
         sodipodi:role="line"
         id="tspan400">11–20</tspan>
      <tspan
         style="font-size:6.2982502px;font-variant:normal;font-weight:normal;writing-mode:lr-tb;fill:#231f20;fill-opacity:1;fill-rule:nonzero;stroke:none;font-family:Helvetica;-inkscape-font-specification:Helvetica"
         x="-452.57562 -449.07251 -445.56946 -442.06635"
         y="244.26967"
         sodipodi:role="line"
         id="tspan402">6–10</tspan>
      <tspan
         style="font-size:6.2982502px;font-variant:normal;font-weight:normal;writing-mode:lr-tb;fill:#231f20;fill-opacity:1;fill-rule:nonzero;stroke:none;font-family:Helvetica;-inkscape-font-specification:Helvetica"
         x="-459.578 -456.07492 -452.57184 -449.06876 -445.56564 -442.06259"
         y="265.77817"
         sodipodi:role="line"
         id="tspan404">21–100</tspan>
      <tspan
         style="font-size:6.2982502px;font-variant:normal;font-weight:normal;writing-mode:lr-tb;fill:#231f20;fill-opacity:1;fill-rule:nonzero;stroke:none;font-family:Helvetica;-inkscape-font-specification:Helvetica"
         x="-466.58167 -463.07855 -459.5755 -456.07239 -452.56934 -449.06622 -445.56314 -442.06006"
         y="276.5293"
         sodipodi:role="line"
         id="tspan406">101–1000</tspan>
      <tspan
         style="font-size:6.2982502px;font-variant:normal;font-weight:normal;writing-mode:lr-tb;fill:#231f20;fill-opacity:1;fill-rule:nonzero;stroke:none;font-family:Helvetica;-inkscape-font-specification:Helvetica"
         x="-459.578 -455.89856 -452.39548 -448.8924 -445.38931 -441.88623"
         y="298.03152"
         sodipodi:role="line"
         id="tspan408">&gt;10000</tspan>
    </text>
    <text
       style="font-size:15px"
       id="text410"
       x="101.04236"
       y="281.80911">
      <tspan
         style="font-size:7.34787512px;font-variant:normal;font-weight:normal;writing-mode:lr-tb;fill:#bd2433;fill-opacity:1;fill-rule:nonzero;stroke:none;font-family:Helvetica;-inkscape-font-specification:Helvetica"
         x="101.04236 106.34834 110.43456 112.0666 116.15283 118.19634 119.82838 123.91461 128.00084"
         y="281.80911"
         sodipodi:role="line"
         id="tspan412">Deletions</tspan>
      <tspan
         style="font-size:7.34787512px;font-variant:normal;font-weight:normal;writing-mode:lr-tb;fill:#00a451;fill-opacity:1;fill-rule:nonzero;stroke:none;font-family:Helvetica;-inkscape-font-specification:Helvetica"
         x="218.03448 220.07719 224.16263 227.83656 231.92197 234.3688 236.41153 238.04277 242.12817 246.21359"
         y="281.80911"
         sodipodi:role="line"
         id="tspan414">Insertions</tspan>
      <tspan
         style="font-size:7.34787512px;font-variant:normal;font-weight:normal;writing-mode:lr-tb;fill:#2aaae1;fill-opacity:1;fill-rule:nonzero;stroke:none;font-family:Helvetica;-inkscape-font-specification:Helvetica"
         x="279.91754 284.4079 288.49414 292.58035 296.6666 300.75281"
         y="281.80911"
         sodipodi:role="line"
         id="tspan416">Tandem</tspan>
      <tspan
         style="font-size:7.34787512px;font-variant:normal;font-weight:normal;writing-mode:lr-tb;fill:#2aaae1;fill-opacity:1;fill-rule:nonzero;stroke:none;font-family:Helvetica;-inkscape-font-specification:Helvetica"
         x="274.4353 279.74127 283.82748 287.91373 289.54578 291.17783 294.85254 298.93878 300.9823 302.61435 306.70059 310.7868"
         y="290.62585"
         sodipodi:role="line"
         id="tspan418">Duplications</tspan>
      <tspan
         style="font-size:7.34787512px;font-variant:normal;font-weight:normal;writing-mode:lr-tb;fill:#231f20;fill-opacity:1;fill-rule:nonzero;stroke:none;font-family:Helvetica;-inkscape-font-specification:Helvetica"
         x="162.7645 167.66635 169.29839 172.97313 177.05936 179.10139 181.54906 185.63528 189.72151"
         y="456.07501"
         sodipodi:role="line"
         id="tspan420">Size (bp)</tspan>
    </text>
    <text
       style="font-size:15px"
       id="text422"
       x="271.74734"
       y="432.95312">
      <tspan
         style="font-size:12.59637451px;font-variant:normal;font-weight:normal;writing-mode:lr-tb;fill:#231f20;fill-opacity:1;fill-rule:nonzero;stroke:none;font-family:MyriadPro;-inkscape-font-specification:MyriadPro-Regular"
         x="271.74734"
         y="432.95312"
         id="tspan424">*</tspan>
    </text>
    <path
       d="m 269.9341,433.9985 8.9325,0 0,-3.25375 -8.9325,0 0,3.25375 z"
       style="fill:#00a451;fill-opacity:1;fill-rule:nonzero;stroke:none"
       id="path426"
       inkscape:connector-curvature="0" />
    <path
       d="m 269.9341,433.9985 8.9325,0 0,-3.25375 -8.9325,0 0,3.25375 z"
       style="fill:#00a451;fill-opacity:1;fill-rule:nonzero;stroke:none"
       id="path428"
       inkscape:connector-curvature="0" />
    <path
       inkscape:connector-curvature="0"
       id="path432"
       style="fill:none;stroke:#231f20;stroke-width:0.9375;stroke-linecap:round;stroke-linejoin:round;stroke-miterlimit:10;stroke-opacity:1;stroke-dasharray:none"
       d="m 51.452857,299.9035 0,-12.94625" />
    <path
       d="m 55.792857,302.771 -4.34,-2.8675"
       style="fill:none;stroke:#231f20;stroke-width:0.9375;stroke-linecap:round;stroke-linejoin:round;stroke-miterlimit:10;stroke-opacity:1;stroke-dasharray:none"
       id="path436"
       inkscape:connector-curvature="0" />
    <path
       inkscape:connector-curvature="0"
       id="path440"
       style="fill:none;stroke:#231f20;stroke-width:0.9375;stroke-linecap:round;stroke-linejoin:round;stroke-miterlimit:10;stroke-opacity:1;stroke-dasharray:none"
       d="m 45.972857,304.27725 9.82,-1.50625" />
    <path
       d="m 51.454107,306.901 -5.48125,-2.62375"
       style="fill:none;stroke:#231f20;stroke-width:0.9375;stroke-linecap:round;stroke-linejoin:round;stroke-miterlimit:10;stroke-opacity:1;stroke-dasharray:none"
       id="path444"
       inkscape:connector-curvature="0" />
    <text
       style="font-size:15px"
       id="text448"
       transform="matrix(0,-1,1,0,0,0)"
       x="-290.62677"
       y="47.53923">
      <tspan
         id="tspan450"
         sodipodi:role="line"
         y="47.53923"
         x="-290.62677 -285.95673"
         style="font-size:8.39762497px;font-variant:normal;font-weight:normal;writing-mode:lr-tb;fill:#231f20;fill-opacity:1;fill-rule:nonzero;stroke:none;font-family:Helvetica;-inkscape-font-specification:Helvetica">45</tspan>
    </text>
    <path
       d="m 51.452857,286.956 -2.42625,0"
       style="fill:none;stroke:#231f20;stroke-width:0.9375;stroke-linecap:round;stroke-linejoin:round;stroke-miterlimit:10;stroke-opacity:1;stroke-dasharray:none"
       id="path454"
       inkscape:connector-curvature="0" />
    <path
       inkscape:connector-curvature="0"
       id="path458"
       style="fill:#315fac;fill-opacity:1;fill-rule:nonzero;stroke:none"
       d="m 173.4841,295.70475 8.93375,0 0,-8.74825 -8.93375,0 0,8.74825 z" />
    <path
       inkscape:connector-curvature="0"
       id="path460"
       style="fill:#315fac;fill-opacity:1;fill-rule:nonzero;stroke:none"
       d="m 173.4841,295.70475 8.93375,0 0,-8.74825 -8.93375,0 0,8.74825 z" />
    <path
       inkscape:connector-curvature="0"
       id="path462"
       style="fill:#315fac;fill-opacity:1;fill-rule:nonzero;stroke:none"
       d="m 173.4841,435.04725 8.93375,0 0,-132.27625 -8.93375,0 0,132.27625 z" />
    <path
       inkscape:connector-curvature="0"
       id="path464"
       style="fill:#315fac;fill-opacity:1;fill-rule:nonzero;stroke:none"
       d="m 173.4841,435.04725 8.93375,0 0,-132.27625 -8.93375,0 0,132.27625 z" />
    <path
       inkscape:connector-curvature="0"
       id="path466"
       style="fill:#315fac;fill-opacity:1;fill-rule:nonzero;stroke:none"
       d="m 173.4516,273.82475 8.93375,0 0,-2.03375 -8.93375,0 0,2.03375 z" />
    <path
       inkscape:connector-curvature="0"
       id="path468"
       style="fill:#315fac;fill-opacity:1;fill-rule:nonzero;stroke:none"
       d="m 173.4841,299.53475 8.93375,0 0,-0.84037 -8.93375,0 0,0.84037 z" />
    <path
       inkscape:connector-curvature="0"
       id="path470"
       style="fill:#315fac;fill-opacity:1;fill-rule:nonzero;stroke:none"
       d="m 173.4841,301.686 8.93375,0 0,-0.84052 -8.93375,0 0,0.84052 z" />
    <text
       style="font-size:15px"
       id="text472"
       transform="matrix(0,-1,1,0,0,0)"
       x="-441.89301"
       y="180.02412">
      <tspan
         id="tspan474"
         y="180.02412"
         x="-441.89301"
         style="font-size:6.2982502px;font-variant:normal;font-weight:normal;writing-mode:lr-tb;fill:#231f20;fill-opacity:1;fill-rule:nonzero;stroke:none;font-family:Helvetica;-inkscape-font-specification:Helvetica">0</tspan>
    </text>
    <path
       inkscape:connector-curvature="0"
       id="path476"
       style="fill:#00a451;fill-opacity:1;fill-rule:nonzero;stroke:none"
       d="m 184.1916,273.82475 94.675,0 0,-2.03375 -94.675,0 0,2.03375 z" />
    <path
       inkscape:connector-curvature="0"
       id="path478"
       style="fill:#2aaae1;fill-opacity:1;fill-rule:nonzero;stroke:none"
       d="m 280.6691,273.82475 19.65,0 0,-2.03375 -19.65,0 0,2.03375 z" />
    <path
       inkscape:connector-curvature="0"
       id="path480"
       style="fill:#bd2433;fill-opacity:1;fill-rule:nonzero;stroke:none"
       d="m 55.792857,273.82475 116.127493,0 0,-2.03375 -116.127493,0 0,2.03375 z" />
    <text
       style="font-size:15px"
       id="text482"
       x="169.74786"
       y="281.80911">
      <tspan
         id="tspan484"
         sodipodi:role="line"
         y="281.80911"
         x="169.74786 174.64809 179.95244 184.85266"
         style="font-size:7.34787512px;font-variant:normal;font-weight:normal;writing-mode:lr-tb;fill:#315fac;fill-opacity:1;fill-rule:nonzero;stroke:none;font-family:Helvetica;-inkscape-font-specification:Helvetica">SNVs</tspan>
    </text>
    <path
       inkscape:connector-curvature="0"
       id="path486"
       style="fill:#315fac;fill-opacity:1;fill-rule:nonzero;stroke:none"
       d="m 173.4841,297.66225 8.93375,0 0,-0.84049 -8.93375,0 0,0.84049 z" />
    <path
       inkscape:connector-curvature="0"
       id="path582"
       style="fill:#bd2433;fill-opacity:1;fill-rule:nonzero;stroke:none"
       d="m 55.790357,435.04725 8.922125,0 0,-3.05125 -8.922125,0 0,3.05125 z" />
    <path
       inkscape:connector-curvature="0"
       id="path584"
       style="fill:#bd2433;fill-opacity:1;fill-rule:nonzero;stroke:none"
       d="m 55.790357,435.04725 8.922125,0 0,-3.05125 -8.922125,0 0,3.05125 z" />
    <path
       inkscape:connector-curvature="0"
       id="path586"
       style="fill:#bd2433;fill-opacity:1;fill-rule:nonzero;stroke:none"
       d="m 66.496607,435.04725 8.923375,0 0,-3.55875 -8.923375,0 0,3.55875 z" />
    <path
       inkscape:connector-curvature="0"
       id="path588"
       style="fill:#bd2433;fill-opacity:1;fill-rule:nonzero;stroke:none"
       d="m 66.496607,435.04725 8.923375,0 0,-3.55875 -8.923375,0 0,3.55875 z" />
    <path
       inkscape:connector-curvature="0"
       id="path590"
       style="fill:#bd2433;fill-opacity:1;fill-rule:nonzero;stroke:none"
       d="m 77.204107,435.04725 8.924,0 0,-2.03375 -8.924,0 0,2.03375 z" />
    <path
       inkscape:connector-curvature="0"
       id="path592"
       style="fill:#bd2433;fill-opacity:1;fill-rule:nonzero;stroke:none"
       d="m 77.204107,435.04725 8.924,0 0,-2.03375 -8.924,0 0,2.03375 z" />
    <path
       inkscape:connector-curvature="0"
       id="path594"
       style="fill:#bd2433;fill-opacity:1;fill-rule:nonzero;stroke:none"
       d="m 87.910357,435.04725 8.923375,0 0,-5.085 -8.923375,0 0,5.085 z" />
    <path
       inkscape:connector-curvature="0"
       id="path596"
       style="fill:#bd2433;fill-opacity:1;fill-rule:nonzero;stroke:none"
       d="m 87.910357,435.04725 8.923375,0 0,-5.085 -8.923375,0 0,5.085 z" />
    <path
       inkscape:connector-curvature="0"
       id="path598"
       style="fill:#bd2433;fill-opacity:1;fill-rule:nonzero;stroke:none"
       d="m 98.617857,435.04725 8.925123,0 0,-6.625 -8.925123,0 0,6.625 z" />
    <path
       inkscape:connector-curvature="0"
       id="path600"
       style="fill:#bd2433;fill-opacity:1;fill-rule:nonzero;stroke:none"
       d="m 98.617857,435.04725 8.925123,0 0,-6.625 -8.925123,0 0,6.625 z" />
    <path
       inkscape:connector-curvature="0"
       id="path602"
       style="fill:#bd2433;fill-opacity:1;fill-rule:nonzero;stroke:none"
       d="m 109.32661,435.04725 8.924,0 0,-13.25 -8.924,0 0,13.25 z" />
    <path
       inkscape:connector-curvature="0"
       id="path604"
       style="fill:#bd2433;fill-opacity:1;fill-rule:nonzero;stroke:none"
       d="m 109.32661,435.04725 8.924,0 0,-13.25 -8.924,0 0,13.25 z" />
    <path
       inkscape:connector-curvature="0"
       id="path606"
       style="fill:#bd2433;fill-opacity:1;fill-rule:nonzero;stroke:none"
       d="m 120.03286,435.04725 8.92275,0 0,-11.92613 -8.92275,0 0,11.92613 z" />
    <path
       inkscape:connector-curvature="0"
       id="path608"
       style="fill:#bd2433;fill-opacity:1;fill-rule:nonzero;stroke:none"
       d="m 120.03286,435.04725 8.92275,0 0,-11.92613 -8.92275,0 0,11.92613 z" />
    <path
       inkscape:connector-curvature="0"
       id="path610"
       style="fill:#bd2433;fill-opacity:1;fill-rule:nonzero;stroke:none"
       d="m 130.74036,435.04725 8.92524,0 0,-42.945 -8.92524,0 0,42.945 z" />
    <path
       inkscape:connector-curvature="0"
       id="path612"
       style="fill:#bd2433;fill-opacity:1;fill-rule:nonzero;stroke:none"
       d="m 141.4466,435.04725 8.92388,0 0,-38.43 -8.92388,0 0,38.43 z" />
    <path
       inkscape:connector-curvature="0"
       id="path614"
       style="fill:#bd2433;fill-opacity:1;fill-rule:nonzero;stroke:none"
       d="m 141.4466,435.04725 8.92388,0 0,-38.43 -8.92388,0 0,38.43 z" />
    <path
       inkscape:connector-curvature="0"
       id="path616"
       style="fill:#bd2433;fill-opacity:1;fill-rule:nonzero;stroke:none"
       d="m 152.1541,435.04725 8.92375,0 0,-56.9825 -8.92375,0 0,56.9825 z" />
    <path
       inkscape:connector-curvature="0"
       id="path618"
       style="fill:#bd2433;fill-opacity:1;fill-rule:nonzero;stroke:none"
       d="m 152.1541,435.04725 8.92375,0 0,-56.9825 -8.92375,0 0,56.9825 z" />
    <path
       inkscape:connector-curvature="0"
       id="path620"
       style="fill:#bd2433;fill-opacity:1;fill-rule:nonzero;stroke:none"
       d="m 162.86035,435.04725 8.92625,0 0,-116.07375 -8.92625,0 0,116.07375 z" />
    <path
       inkscape:connector-curvature="0"
       id="path622"
       style="fill:#00a451;fill-opacity:1;fill-rule:nonzero;stroke:none"
       d="m 184.06535,435.04725 8.92363,0 0,-72.88375 -8.92363,0 0,72.88375 z" />
    <path
       inkscape:connector-curvature="0"
       id="path624"
       style="fill:#00a451;fill-opacity:1;fill-rule:nonzero;stroke:none"
       d="m 184.06535,435.04725 8.92363,0 0,-72.88375 -8.92363,0 0,72.88375 z" />
    <path
       inkscape:connector-curvature="0"
       id="path626"
       style="fill:#00a451;fill-opacity:1;fill-rule:nonzero;stroke:none"
       d="m 194.7741,435.04725 8.92363,0 0,-9.27375 -8.92363,0 0,9.27375 z" />
    <path
       inkscape:connector-curvature="0"
       id="path628"
       style="fill:#00a451;fill-opacity:1;fill-rule:nonzero;stroke:none"
       d="m 194.7741,435.04725 8.92363,0 0,-9.27375 -8.92363,0 0,9.27375 z" />
    <path
       inkscape:connector-curvature="0"
       id="path630"
       style="fill:#00a451;fill-opacity:1;fill-rule:nonzero;stroke:none"
       d="m 205.47285,435.04725 8.92375,0 0,-3.975 -8.92375,0 0,3.975 z" />
    <path
       inkscape:connector-curvature="0"
       id="path632"
       style="fill:#00a451;fill-opacity:1;fill-rule:nonzero;stroke:none"
       d="m 205.47285,435.04725 8.92375,0 0,-3.975 -8.92375,0 0,3.975 z" />
    <path
       inkscape:connector-curvature="0"
       id="path634"
       style="fill:#00a451;fill-opacity:1;fill-rule:nonzero;stroke:none"
       d="m 216.1791,435.04725 8.92375,0 0,-6.625 -8.92375,0 0,6.625 z" />
    <path
       inkscape:connector-curvature="0"
       id="path636"
       style="fill:#00a451;fill-opacity:1;fill-rule:nonzero;stroke:none"
       d="m 216.1791,435.04725 8.92375,0 0,-6.625 -8.92375,0 0,6.625 z" />
    <path
       inkscape:connector-curvature="0"
       id="path638"
       style="fill:#00a451;fill-opacity:1;fill-rule:nonzero;stroke:none"
       d="m 226.8866,435.04725 8.92363,0 0,-3.975 -8.92363,0 0,3.975 z" />
    <path
       inkscape:connector-curvature="0"
       id="path640"
       style="fill:#00a451;fill-opacity:1;fill-rule:nonzero;stroke:none"
       d="m 226.8866,435.04725 8.92363,0 0,-3.975 -8.92363,0 0,3.975 z" />
    <path
       inkscape:connector-curvature="0"
       id="path642"
       style="fill:#00a451;fill-opacity:1;fill-rule:nonzero;stroke:none"
       d="m 237.5941,435.04725 8.92375,0 0,-3.975 -8.92375,0 0,3.975 z" />
    <path
       inkscape:connector-curvature="0"
       id="path644"
       style="fill:#00a451;fill-opacity:1;fill-rule:nonzero;stroke:none"
       d="m 237.5941,435.04725 8.92375,0 0,-3.975 -8.92375,0 0,3.975 z" />
    <path
       inkscape:connector-curvature="0"
       id="path646"
       style="fill:#00a451;fill-opacity:1;fill-rule:nonzero;stroke:none"
       d="m 248.30035,435.04725 8.925,0 0,-1.42625 -8.925,0 0,1.42625 z" />
    <path
       inkscape:connector-curvature="0"
       id="path648"
       style="fill:#00a451;fill-opacity:1;fill-rule:nonzero;stroke:none"
       d="m 248.30035,435.04725 8.925,0 0,-1.42625 -8.925,0 0,1.42625 z" />
    <path
       d="m 259.0091,435.04725 8.92375,0 -8.92375,0"
       style="fill:#00a451;fill-opacity:1;fill-rule:nonzero;stroke:none"
       id="path652"
       inkscape:connector-curvature="0" />
    <path
       d="m 259.0091,435.04725 8.92375,0 -8.92375,0"
       style="fill:#00a451;fill-opacity:1;fill-rule:nonzero;stroke:none"
       id="path654"
       inkscape:connector-curvature="0" />
    <path
       inkscape:connector-curvature="0"
       id="path658"
       style="fill:#2aaae1;fill-opacity:1;fill-rule:nonzero;stroke:none"
       d="m 280.42285,435.04725 8.92363,0 0,-1.01624 -8.92363,0 0,1.01624 z" />
    <path
       inkscape:connector-curvature="0"
       id="path660"
       style="fill:#2aaae1;fill-opacity:1;fill-rule:nonzero;stroke:none"
       d="m 280.42285,435.04725 8.92363,0 0,-1.01624 -8.92363,0 0,1.01624 z" />
    <path
       inkscape:connector-curvature="0"
       id="path662"
       style="fill:#2aaae1;fill-opacity:1;fill-rule:nonzero;stroke:none"
       d="m 291.1291,435.04725 8.92363,0 0,-2.54125 -8.92363,0 0,2.54125 z" />
    <path
       inkscape:connector-curvature="0"
       id="path664"
       style="fill:#2aaae1;fill-opacity:1;fill-rule:nonzero;stroke:none"
       d="m 291.1291,435.04725 8.92363,0 0,-2.54125 -8.92363,0 0,2.54125 z" />
  </g>
</svg>
