<?xml version="1.0" encoding="UTF-8" standalone="no"?>
<!-- Created with Inkscape (http://www.inkscape.org/) -->

<svg
   xmlns:dc="http://purl.org/dc/elements/1.1/"
   xmlns:cc="http://creativecommons.org/ns#"
   xmlns:rdf="http://www.w3.org/1999/02/22-rdf-syntax-ns#"
   xmlns:svg="http://www.w3.org/2000/svg"
   xmlns="http://www.w3.org/2000/svg"
   xmlns:xlink="http://www.w3.org/1999/xlink"
   xmlns:sodipodi="http://sodipodi.sourceforge.net/DTD/sodipodi-0.dtd"
   xmlns:inkscape="http://www.inkscape.org/namespaces/inkscape"
   version="1.0"
   width="589.58551"
   height="217.20761"
   viewBox="0 0 6.5509501 2.4134179"
   id="svg3069"
   xml:space="preserve"
   inkscape:version="0.48.3.1 r9886"
   sodipodi:docname="dna.svg"><metadata
   id="metadata891"><rdf:RDF><cc:Work
       rdf:about=""><dc:format>image/svg+xml</dc:format><dc:type
         rdf:resource="http://purl.org/dc/dcmitype/StillImage" /><dc:title></dc:title></cc:Work></rdf:RDF></metadata><sodipodi:namedview
   pagecolor="#ffffff"
   bordercolor="#666666"
   borderopacity="1"
   objecttolerance="10"
   gridtolerance="10"
   guidetolerance="10"
   inkscape:pageopacity="0"
   inkscape:pageshadow="2"
   inkscape:window-width="1636"
   inkscape:window-height="1292"
   id="namedview889"
   showgrid="false"
   inkscape:zoom="0.90448347"
   inkscape:cx="353.93475"
   inkscape:cy="325.42444"
   inkscape:window-x="594"
   inkscape:window-y="171"
   inkscape:window-maximized="0"
   inkscape:current-layer="svg3069"
   fit-margin-top="0"
   fit-margin-left="0"
   fit-margin-right="0"
   fit-margin-bottom="0" />
 <defs
   id="defs3071">
  <style
   type="text/css"
   id="style3073" />
  <radialGradient
   cx="3.2439799"
   cy="1.64415"
   r="0.56517702"
   fx="3.2439799"
   fy="1.64415"
   id="id0"
   gradientUnits="userSpaceOnUse">
   <stop
   style="stop-color:#ffffff;stop-opacity:1"
   offset="0"
   id="stop3076" />
   <stop
   style="stop-color:#8d5739;stop-opacity:1"
   offset="1"
   id="stop3078" />
  </radialGradient>
  <radialGradient
   cx="3.12991"
   cy="1.9420201"
   r="1.07412"
   fx="3.12991"
   fy="1.9420201"
   id="id1"
   gradientUnits="userSpaceOnUse">
   <stop
   style="stop-color:#ffffff;stop-opacity:1"
   offset="0"
   id="stop3081" />
   <stop
   style="stop-color:#e5dcc6;stop-opacity:1"
   offset="1"
   id="stop3083" />
  </radialGradient>
 
  
  
  
  
  
  
  
  
  
  
  
  
  
  
  
  
  
  
  
  
  
  
  
  
  
  
  
  
  
  
  
  
  
  
  
  
  
  
  
  
  
  
  
  
  
  
  
  
  
  
  
  
  
  
  
  
  
  
  
  
  
  
  
  
  
  
  
  
  
  
  
  
  
  
  
  
  
  
  
  
  
  
  
  
  
  
  
  
  
  
  
  
  
  
  
  
  
  
  
  
  
  
  
  
  
  
  
  
  
  
  
  
  
  
  
  
  
  
  
  
  
  
  
  
  
  
  
  
  
  
  
  
  
  
  
  
  
  
  
  
  
  
  
  
  
  
  
  
  
  
  
  
  
  
  
  
  
  
  
  
  
  
  
  
  
  
  
  
  
  
  
  
  
  
  
  
  
  
  
  
  
  
  
  
  
  
  
  
  
  
  
  
  
  
  
  
  
  
  
  
  
  
  
  
  
  
  
  
  
  
  
  
  
  
  
  
  
  
  
  
  
  
  
  
  
  
  
  
  
  
  
  
  
  
  
  
  
  
  
  
  
  
  
  
  
  
  
  
  
  
  
  
  
  
  
  
  
  
  
  
  
  
  
  
  
  
  
  
  
  
  
  
  
  
  
  
  
  
  
  
  
  
  
  
  
  
  
  
  
  
  
  
  
  
  
  
  
  
  
  
  
  
  
  
  
  
  
  
  
  
  
  
  
  
  
  
  
  
  
  
  
  
  
  
  
  
  
  
  
  
  
  
  
  
  
  
  
  
  
  
  
  
  
  
  
  
  
  
  
  
  
  
  
  
  
  
  
  
  
  
  
  
  
  
  
  
  
  
  
  
  
  
  
  
  
  
  
  
  
  
  
  
  
  
  
  
  
  
  
  
  
  
  
  
  
  
  
  
  
  
  
  
  
  
  
  
  
  
  
  
  
  
  
  
  
  
  
  
  
  
  
  
  
  
  
  
  
  
  
  
  
  
  
  
  
  
  
  
  
  
  
  
  
  
  
  
  
  
  
  
  
  
  
  
  
  
  
  
  
  
  
  
  
  
  
  
  
  
  
  
  
  
  
  
  
  
  
  
  
  
  
  
  
  
  
  
  
  
  
  
  
  
  
  
  
  
  
  
  
  
  
  
  
  
  
  
  
  
  
  
  
  
  
  
  
  
  
  
  
  
  
  
  
  
  
  
  
  
  
  
  
  
  
  
  
  
  
  
  
  
  
  
  
  
  
  
  
  
  
  
  
  
  
  
  
  
  
  
  
  
  
  
  
  
  
  
  
  
  
  
  
  
  
  
  
  
  
  
  
  
  
  
  
  
  
  
  
  
  
  
  
  
  
  
  
  
  
  
  
  
  
  
  
  
  
  
  
  
  
  
  
  
  
  
  
  
  
  
  
  
  
  
  
  
  
  
  
  
  
  
  
  
  
  
  
  
  
  
  
  
  
  
  
  
  
  
  
  
  
  
  
  
  
  
  
  
  
  
  
  
  
  
  
  
  
  
  
  
  
  
  
  
  
  
  
  
  
  
  
  
  
  
  
  
  
  
  
  
  
  
  
  
  
  
  
  
  
  
  
  
  
  
  
  
  
  
  
  
  
  
  
  
  
  
  
  
  
  
  
  
  
  
  
  
  
  
  
  
  
  
  
  
  
  
  
  
  
  
  
  
  
  
  
  
  
  
  
  
  
  
  
  
  
  
  
  
  
  
  
  
  
  
  
  
  
  
  
  
  
  
  
  
  
  
  
  
  
  
  
  
  
  
  
  
  
  
  
  
  
  
  
  
  
  
  
  
  
  
  
  
  
  
  
  
  
  
  
  
  
  
  
  
  
  
  
  
  
  
  
  
  
  
  
  
  
  
  
  
  
  
  
  
  
  
  
  
  
  
  
  
  
  
 <radialGradient
   inkscape:collect="always"
   xlink:href="#id0"
   id="radialGradient4744"
   gradientUnits="userSpaceOnUse"
   cx="3.2439799"
   cy="1.64415"
   fx="3.2439799"
   fy="1.64415"
   r="0.56517702" /><radialGradient
   inkscape:collect="always"
   xlink:href="#id1"
   id="radialGradient4747"
   gradientUnits="userSpaceOnUse"
   cx="3.12991"
   cy="1.9420201"
   fx="3.12991"
   fy="1.9420201"
   r="1.07412" />
   
   
  
   
   
  
   
   
  
   
   
  
   
   
  
   
   
  
   
   
  
   
   
  
   
   
  
   
   
  
   
   
  
   
   
  
   
   
   
  
   
   
   
  
   
   
   
  
   
   
   
  </defs>
 <path
   inkscape:connector-curvature="0"
   id="path4129"
   style="fill:#6b6b6b;fill-rule:nonzero;stroke:#000000;stroke-width:0.01019104"
   d="m 2.0356367,1.4576157 c 0.3998439,0.2074138 1.2830129,0.2829838 1.2830129,0.2829838 0.00274,0.00117 0.042574,0.00716 0.042574,0.00716 0.061656,0.00491 0.1642464,0.00129 0.1886627,-0.012621 C 3.6735809,1.6645965 3.7783665,1.3124566 3.894137,1.1377151 3.941377,1.0675911 4.0379322,1.0139666 4.1170601,1.0498611 l -0.047516,0.016034 c -0.083617,0.014448 -0.27289,0.4873816 -0.3483759,0.5874646 -0.05736,0.077351 -0.1482481,0.1377738 -0.2553293,0.1530932 L 3.3512291,1.8036647 C 2.9624259,1.780508 2.4424522,1.7131039 2.0504945,1.5097557 l -0.014859,-0.052139 10e-7,-3e-7 z" /><path
   d="m 3.5168815,1.7811873 c -0.040754,7.121e-4 -0.048786,-0.020158 -0.04881,-0.020204 l -4.972e-4,-0.00292 4.492e-4,-0.7494232 1.6e-6,-0.00532 0.00478,-0.00217 c 5.87e-5,-2.6e-5 0.023296,-0.01047 0.044293,-0.00816 l 2.05e-5,-2.12e-5 c 0.019941,0.00221 0.038096,0.01007 0.038142,0.010085 l 0.00514,0.00202 -7e-7,0.00565 -4.638e-4,0.7494118 -5.597e-4,0.00295 c -1.58e-5,3.89e-5 -0.0061,0.017479 -0.042498,0.018096 l 3e-7,10e-8 z m -0.033232,-0.025211 c 0.00171,0.00243 0.0087,0.0092 0.03292,0.00878 0.01996,-3.348e-4 0.025721,-0.00483 0.027286,-0.00675 l 2.347e-4,-0.3875167 -0.026512,0.03168 -0.00661,0.0079 -0.00598,-0.00836 -0.02111,-0.02955 -2.252e-4,0.3838193 -3e-7,6e-7 z m 4.471e-4,-0.7417451 -2.064e-4,0.3301148 0.028072,0.039291 0.031182,-0.037272 9.645e-4,8.295e-4 2.013e-4,-0.3308576 c -0.00619,-0.00224 -0.017223,-0.0057 -0.02896,-0.00701 l 1.4e-6,-2.93e-5 c -0.011645,-0.00127 -0.024491,0.00249 -0.031253,0.00492 l 0,1.1e-6 z"
   style="fill:#000000;fill-rule:nonzero"
   id="_34196024"
   inkscape:connector-curvature="0" /><path
   d="m 3.484104,1.0141333 -2.032e-4,0.3301197 0.028072,0.039291 0.031182,-0.037272 9.678e-4,8.345e-4 2.013e-4,-0.3308576 c -0.00619,-0.00224 -0.017223,-0.0057 -0.02896,-0.00701 l 1.4e-6,-2.92e-5 c -0.011645,-0.00128 -0.024491,0.00249 -0.031253,0.00492 l -2e-7,9e-7 z"
   style="fill:#a22a3e"
   id="_34195360"
   inkscape:connector-curvature="0" /><path
   d="m 3.483663,1.7558902 c 0.00788,0.011123 0.051336,0.012918 0.060201,0.00203 l 2.395e-4,-0.3875201 -0.03313,0.039589 -0.027087,-0.037927 -2.268e-4,0.3838276 -3e-7,3e-7 z"
   style="fill:#eca02d"
   id="_34194760"
   inkscape:connector-curvature="0" /><path
   inkscape:connector-curvature="0"
   id="path4183"
   style="fill:#6b6b6b;fill-rule:nonzero;stroke:#000000;stroke-width:0.01222463"
   d="M 6.2474645,1.1353462 C 6.1535168,1.1625011 5.9780497,1.5408024 5.9007681,1.6313582 5.8222029,1.72517 5.7541693,1.7538771 5.5979446,1.7300638 l -0.00359,0.00246 c 0.036799,0.00282 0.074548,-3.252e-4 0.1129097,-0.010233 0.1599341,-0.041819 0.2284449,-0.3571142 0.3446619,-0.511281 0.047439,-0.061759 0.1019156,-0.093871 0.1947501,-0.081785 l 7.978e-4,0.00611 -10e-8,4e-7 z" /><path
   inkscape:connector-curvature="0"
   id="path4185"
   style="fill:#6b6b6b;fill-rule:nonzero;stroke:#000000;stroke-width:0.01019104"
   d="M 5.4659592,1.1390424 C 5.3772442,1.1609174 5.1933433,1.5823706 5.1168152,1.678928 5.0389772,1.7789 4.974533,1.804038 4.8314524,1.756878 l -0.00347,0.0024 c 0.033876,0.00789 0.068941,0.00896 0.1049211,0.00219 0.1501388,-0.029295 0.2310297,-0.388462 0.3473691,-0.5549378 0.047485,-0.066782 0.099847,-0.098415 0.1853243,-0.074695 l 3.658e-4,0.00721 -4e-7,-3e-7 z" /><path
   inkscape:connector-curvature="0"
   id="path4187"
   style="fill:#6b6b6b;fill-rule:nonzero;stroke:#000000;stroke-width:0.01222463"
   d="M 4.2360926,1.811113 C 4.3535481,1.7819491 4.4368904,1.659375 4.4681973,1.6175239 4.543304,1.5171455 4.7329563,1.0445017 4.816573,1.0300623 L 4.864089,1.0140293 C 4.784961,0.97813234 4.688421,1.0317503 4.6411659,1.1018823 4.5611609,1.222644 4.4985904,1.4533123 4.411995,1.5829273 4.362844,1.6564623 4.267015,1.8076852 4.1638406,1.8210814 l 0.07225,-0.00997 1.3e-6,-1.5e-6 z" /><path
   inkscape:connector-curvature="0"
   id="path4189"
   style="fill:#c7c7c7;fill-rule:nonzero;stroke:#000000;stroke-width:0.01425822"
   d="m 5.0629565,1.196426 0.077941,0.3954423 c 0,0 0.00793,0.023655 -0.010875,0.04087 -0.018806,0.017294 -0.029402,0.00481 -0.035753,-0.00271 -0.00633,-0.00754 -0.070006,-0.4580393 -0.070006,-0.4580393 l 0.038688,0.024432 3e-7,1e-7 z" /><path
   inkscape:connector-curvature="0"
   id="path4191"
   style="fill:#c7c7c7;fill-rule:nonzero;stroke:#000000;stroke-width:0.01425822"
   d="M 5.833006,1.6510827 5.7229134,1.3123807 c 0,0 -0.010599,-0.019603 0.00691,-0.034865 0.017461,-0.015158 0.029821,-0.0054 0.037245,4.209e-4 0.00745,0.00583 0.1075622,0.3715378 0.1075622,0.3715378 l -0.041624,0.00162 3e-7,3e-7 z" /><polygon
   id="polygon4193"
   style="fill:#ffffff;fill-rule:nonzero;stroke:#000000;stroke-width:0.00971654"
   points="2.40839,6.75541 2.36335,6.74981 2.58435,6.28781 2.60777,6.32524 2.60777,6.32524 "
   transform="matrix(1.2058422,-0.82607858,0.80873773,1.2316977,-3.3462064,-4.5903037)" /><polygon
   id="polygon4195"
   style="fill:#c7c7c7;fill-rule:nonzero;stroke:#000000;stroke-width:0.00971654"
   points="2.70071,6.94638 2.6791,6.90972 2.88243,6.56723 2.91892,6.58993 2.91892,6.58993 "
   transform="matrix(1.2058422,-0.82607858,0.80873773,1.2316977,-3.3462064,-4.5903037)" /><polygon
   id="polygon4197"
   style="fill:#ffffff;fill-rule:nonzero;stroke:#000000;stroke-width:0.00833071"
   points="3.13997,7.19975 3.11221,7.16612 3.27664,6.85247 3.31133,6.87793 3.31133,6.87793 "
   transform="matrix(1.2058422,-0.82607858,0.80873773,1.2316977,-3.3462064,-4.5903037)" /><polygon
   id="polygon4199"
   style="fill:#c7c7c7;fill-rule:nonzero;stroke:#000000;stroke-width:0.00971654"
   points="2.2746,6.65193 2.29652,6.69481 2.55536,6.26427 2.53228,6.24624 2.53228,6.24624 "
   transform="matrix(1.2058422,-0.82607858,0.80873773,1.2316977,-3.3462064,-4.5903037)" /><polygon
   id="polygon4201"
   style="fill:#ffffff;fill-rule:nonzero;stroke:#000000;stroke-width:0.00971654"
   points="2.78878,6.99786 2.82746,7.02404 2.96569,6.64694 2.94222,6.61875 2.94222,6.61875 "
   transform="matrix(1.2058422,-0.82607858,0.80873773,1.2316977,-3.3462064,-4.5903037)" /><path
   inkscape:connector-curvature="0"
   id="path4209"
   style="fill:#ffffff;fill-rule:nonzero;stroke:#000000;stroke-width:0.01425822"
   d="m 4.5732696,1.5517143 0.059839,-0.3457362 c 0,0 0.022004,-0.028199 0.034237,-0.020186 0.012254,0.00793 0.013692,0.02515 0.013126,0.039488 -5.892e-4,0.014386 -0.056117,0.3936922 -0.056117,0.3936922 l -0.051091,-0.067266 5e-7,4e-7 z" /><path
   inkscape:connector-curvature="0"
   id="path4211"
   style="fill:#ffffff;fill-rule:nonzero;stroke:#000000;stroke-width:0.01425822"
   d="m 5.2510245,1.5110211 0.041638,-0.2621814 c 0,0 0.02208,-0.02668 0.035465,-0.020957 0.01343,0.00568 0.015788,0.020477 0.015861,0.032969 4.19e-5,0.012532 -0.040085,0.2979858 -0.040085,0.2979858 l -0.052881,-0.047823 -4e-7,-3e-7 z" /><path
   inkscape:connector-curvature="0"
   id="path4213"
   style="fill:#ffffff;fill-rule:nonzero;stroke:#000000;stroke-width:0.01222463"
   d="m 5.9949158,1.548075 0.034244,-0.2335701 c 0,0 0.022653,-0.025733 0.037276,-0.022215 0.014656,0.0035 0.017754,0.016177 0.018335,0.027063 5.773e-4,0.010945 -0.031028,0.264432 -0.031028,0.264432 l -0.058824,-0.035708 -3e-7,-3e-7 z" /><path
   inkscape:connector-curvature="0"
   id="path4215"
   style="fill:#cccccc;fill-rule:nonzero;stroke:#000000;stroke-width:0.01222463"
   d="m 4.7474797,1.0167217 c 0,0 -0.027825,-0.018572 0.1105778,-0.012947 0.1985667,0.00808 0.393867,0.5747998 0.7361113,0.7001108 0.087951,0.026363 0.1650743,0.01754 0.2355259,-0.00246 C 5.6494854,1.7891044 5.5262125,1.7713155 5.3855075,1.6733373 5.2301686,1.554675 4.9904788,1.1266103 4.9150619,1.0749497 4.8399802,1.0207592 4.7749603,1.014296 4.747479,1.0167205 l 3e-7,-3e-7 z" /><path
   inkscape:connector-curvature="0"
   id="path4217"
   style="fill:#ffffff;fill-rule:nonzero;stroke:#000000;stroke-width:0.01425822"
   d="m 4.3159288,1.2322892 0.077941,0.3954091 c 0,0 0.00791,0.023695 -0.010846,0.040885 -0.018824,0.017307 -0.029422,0.00482 -0.035757,-0.0027 -0.00634,-0.00753 -0.074438,-0.4505168 -0.074438,-0.4505168 l 0.043106,0.016928 0,6e-7 z" /><path
   inkscape:connector-curvature="0"
   id="path4219"
   style="fill:#c7c7c7;fill-rule:nonzero;stroke:#000000;stroke-width:0.01425822"
   d="M 4.1667931,1.0820788 4.2742609,1.77666 c 0,0 -0.011049,0.011568 -0.023344,0.01901 -0.012283,0.00747 -0.035848,-0.0023 -0.035848,-0.0023 L 4.108269,1.0553607 l 0.05852,0.026713 0,3e-7 z" /><polygon
   id="polygon4221"
   style="fill:#c7c7c7;fill-rule:nonzero;stroke:#000000;stroke-width:0.00971654"
   points="1.82332,6.39087 1.85575,6.4283 2.11459,5.99775 2.081,5.98517 2.081,5.98517 "
   transform="matrix(1.2058422,-0.82607858,0.80873773,1.2316977,-3.3462064,-4.5903037)" /><path
   inkscape:connector-curvature="0"
   id="path4223"
   style="fill:#ffffff;fill-rule:nonzero;stroke:#000000;stroke-width:0.01425822"
   d="M 3.8337703,1.5379375 3.8860773,1.241801 c 0,0 0.022017,-0.02819 0.034241,-0.020189 0.012269,0.00796 0.013721,0.025174 0.013126,0.039527 -5.848e-4,0.014345 -0.052736,0.3376191 -0.052736,0.3376191 l -0.046932,-0.060827 2e-7,-3e-7 z" /><path
   inkscape:connector-curvature="0"
   id="path4225"
   style="fill:#cccccc;fill-rule:nonzero;stroke:#000000;stroke-width:0.01222463"
   d="m 4.0124338,1.047216 c 0.018971,-0.00368 0.050328,-0.00684 0.098604,-0.00761 0.1986804,-0.00311 0.3938759,0.5747867 0.7361082,0.7001061 0.087949,0.026365 0.1467623,0.024896 0.2340092,-0.019731 C 4.9153985,1.849805 4.7791679,1.8071431 4.6384752,1.7091569 4.4831493,1.590511 4.2434416,1.1624587 4.1680245,1.110798 4.092938,1.0566108 4.0346766,1.0434588 4.0124338,1.047216 l 3e-7,-3e-7 z" /><path
   inkscape:connector-curvature="0"
   id="path4227"
   style="fill:#cccccc;fill-rule:nonzero;stroke:#000000;stroke-width:0.01019104"
   d="m 5.3731054,1.1270809 c -0.038544,0.0092 0.067344,-0.023005 0.1064471,-0.028131 0.2105725,-0.029239 0.4425482,0.467426 0.8123825,0.5454965 0.094832,0.01525 0.1796736,0.00749 0.2539196,-0.016033 -0.243428,0.090807 -0.3234351,0.081049 -0.4774974,0.00835 C 5.8979391,1.5474951 5.6253233,1.1942036 5.5430069,1.1560838 5.4609719,1.1157909 5.3966305,1.1214826 5.3731054,1.1270809 l 1e-6,2e-7 z" /><path
   inkscape:connector-curvature="0"
   id="path4463"
   style="fill:#6b6b6b;fill-rule:nonzero;stroke:#000000;stroke-width:0.01019104"
   d="M 3.4985973,1.0083294 C 3.1406149,1.0011424 2.7464462,0.98745194 2.3060616,0.77607514 l -0.014845,-0.052149 c 0.4224127,0.1879383 0.9121699,0.2168473 1.093423,0.220484 l 0.1139579,0.063919 1e-7,-6e-7 z" /><path
   d="M 3.3311927,0.99790384 3.2769987,1.3669225 c 8.973e-4,-3.81e-5 0.047625,0.077484 0.067749,-0.012888 l 0.04582,-0.3454398 c -0.00645,-0.011657 -0.048647,-0.021309 -0.059375,-0.010693 l -8e-7,7e-7 z"
   style="fill:#4ab07d"
   id="_34008728"
   inkscape:connector-curvature="0" /><path
   d="m 3.2930814,1.7433954 0.045871,-0.3457909 c -0.020912,0.017273 -0.046562,0.00627 -0.058703,-0.015734 l -0.046594,0.3512432 c 0.019378,0.010203 0.037726,0.014918 0.059425,0.010278 l 3e-7,-9e-7 z"
   style="fill:#3662f1;fill-opacity:1"
   id="_34007872"
   inkscape:connector-curvature="0" /><path
   d="m 3.3604869,1.3573931 -0.052241,0.3937659 -7.023e-4,0.00532 -0.00501,0.00147 c -6.17e-5,2.13e-5 -0.024424,0.00721 -0.044952,0.00202 C 3.2379966,1.755029 3.2209256,1.744698 3.2208926,1.74467 l -0.00459,-0.00274 7.102e-4,-0.00541 0.039008,-0.2940417 0.059506,-0.44859496 6.461e-4,-0.00231 c 2.83e-5,-4.07e-5 0.00833,-0.017032 0.044788,-0.012665 0.040223,0.00483 0.045523,0.026069 0.045541,0.02612 l 2.593e-4,0.00353 -0.046148,0.3478858 7.13e-5,1.44e-5 -1.986e-4,9.658e-4 0,0 z m -0.067405,0.3860068 0.045871,-0.3457908 c -0.00183,0.00151 -0.00373,0.00282 -0.00568,0.00393 -0.00675,0.00387 -0.013997,0.00532 -0.021098,0.00448 -0.00697,-8.358e-4 -0.013764,-0.00386 -0.019758,-0.00894 -0.00459,-0.00386 -0.00871,-0.00894 -0.012167,-0.015179 l -0.00833,0.06278 -0.038264,0.2884631 c 0.00575,0.00303 0.016264,0.00799 0.027793,0.010901 0.011369,0.00288 0.024599,8.803e-4 0.031632,-6.216e-4 l 0,2e-7 z m 0.038099,-0.74549076 -0.045655,0.34417246 8.972e-4,-3.83e-5 c 7.565e-4,0.020483 0.00745,0.034911 0.016253,0.042353 0.00359,0.00303 0.00749,0.00481 0.011398,0.00528 0.00378,4.5e-4 0.00765,-3.301e-4 0.011325,-0.00243 0.00812,-0.00466 0.015379,-0.015428 0.019338,-0.0332 l 0.045812,-0.3454376 c -0.00167,-0.00301 -0.0081,-0.010604 -0.031481,-0.013422 -0.020619,-0.00248 -0.026466,0.00131 -0.027895,0.00271 l 0,4e-7 z"
   style="fill:#000000;fill-rule:nonzero"
   id="_34006712"
   inkscape:connector-curvature="0" /><path
   d="m 3.1636786,0.95762404 c 0.040152,0.00715 0.044191,0.029188 0.044198,0.029242 l -4.02e-5,0.00298 -0.1387497,0.73589846 -9.804e-4,0.00525 -0.00508,0.0012 c -6.5e-5,1.63e-5 -0.024811,0.0058 -0.045003,-5.187e-4 l -2.84e-5,1.95e-5 c -0.019172,-0.00604 -0.03555,-0.01724 -0.035598,-0.017272 l -0.00468,-0.00297 0.00105,-0.00555 0.1387628,-0.73588696 0.00108,-0.0028 c 2.23e-5,-2.91e-5 0.00921,-0.015988 0.045075,-0.0096 l -1e-7,-3e-7 z m 0.027976,0.031158 c -0.00124,-0.00271 -0.00685,-0.010722 -0.030714,-0.014961 -0.019665,-0.00351 -0.026146,-2.063e-4 -0.02803,0.00138 l -0.071753,0.38052866 0.03188,-0.026019 0.00796,-0.00648 0.00433,0.00937 0.015273,0.033084 0.07106,-0.37689716 -1e-7,-5e-7 z M 3.054324,1.7171435 3.115454,1.3929856 3.095136,1.3489946 l -0.037502,0.030602 -7.907e-4,-10e-4 -0.061259,0.3248929 c 0.00565,0.0034 0.01587,0.00891 0.027147,0.012458 l -6.2e-6,3.24e-5 c 0.011194,0.0035 0.024511,0.00227 0.031598,0.00117 l -3e-7,6e-7 z"
   style="fill:#000000;fill-rule:nonzero"
   id="_34005384"
   inkscape:connector-curvature="0" /><path
   d="m 3.0543045,1.7172206 0.061122,-0.3241594 -0.020305,-0.043998 -0.037502,0.030602 -7.907e-4,-0.00101 -0.061263,0.3248879 c 0.00565,0.0034 0.01587,0.00891 0.027151,0.012458 l -9.4e-6,2.74e-5 c 0.011194,0.0035 0.024512,0.00227 0.031603,0.00118 l -3e-7,7e-7 z"
   style="fill:#a22a3e"
   id="_34004720"
   inkscape:connector-curvature="0" /><path
   d="M 3.19163,0.98885124 C 3.18595,0.97642324 3.143599,0.96627724 3.132879,0.97526624 L 3.06113,1.3557916 l 0.039838,-0.032506 0.019597,0.042466 0.071058,-0.37690206 -2e-7,-1e-7 z"
   style="fill:#eca02d"
   id="_34004104"
   inkscape:connector-curvature="0" /><path
   d="m 2.5299473,1.6774878 c -0.039238,-0.011271 -0.041068,-0.033614 -0.041074,-0.033666 l 3.419e-4,-0.00295 0.2110389,-0.71775286 0.00151,-0.0051 0.00517,-6.687e-4 c 6.34e-5,-8.2e-6 0.025261,-0.0032 0.044718,0.00518 l 2.86e-5,-1.96e-5 c 0.018473,0.00798 0.033657,0.020819 0.033701,0.020852 l 0.00436,0.00343 -0.00158,0.00541 -0.211048,0.71773956 -0.00136,0.00267 c -2.69e-5,3.25e-5 -0.010744,0.014952 -0.045796,0.00488 l -7e-7,-1e-6 z m -0.024751,-0.033888 c 9.68e-4,0.00283 0.00575,0.011375 0.029066,0.018067 0.019208,0.00553 0.025995,0.00291 0.028028,0.00153 l 0.1091288,-0.3711425 -0.034296,0.022581 -0.00855,0.00564 -0.00338,-0.00977 -0.01192,-0.034498 -0.1080842,0.3675954 -4e-7,-9e-7 z m 0.208874,-0.71040026 -0.092966,0.31616506 0.015838,0.045873 0.040346,-0.026565 6.894e-4,0.00108 0.093174,-0.31687666 c -0.0053,-0.00396 -0.014894,-0.010515 -0.025772,-0.015206 l 9.4e-6,-2.76e-5 c -0.010788,-0.00464 -0.024162,-0.00479 -0.031323,-0.00445 l -1e-7,1e-7 z"
   style="fill:#000000;fill-rule:nonzero"
   id="_34003360"
   inkscape:connector-curvature="0" /><path
   d="m 2.7141151,0.93309994 -0.092966,0.31616496 0.015838,0.045873 0.040346,-0.026565 6.893e-4,0.00108 0.093173,-0.31687686 c -0.0053,-0.00396 -0.014894,-0.010515 -0.025772,-0.015206 l 9.5e-6,-2.76e-5 c -0.010788,-0.00464 -0.024162,-0.00479 -0.031323,-0.00445 l -2e-7,3e-7 z"
   style="fill:#a22a3e"
   id="_34002976"
   inkscape:connector-curvature="0" /><path
   d="m 2.5052383,1.6435038 c 0.00441,0.012962 0.045541,0.027429 0.057096,0.019597 l 0.1091288,-0.3711424 -0.042857,0.028214 -0.015292,-0.044271 -0.1080791,0.3676052 -6e-7,-1e-6 z"
   style="fill:#eca02d"
   id="_34002592"
   inkscape:connector-curvature="0" /><path
   inkscape:connector-curvature="0"
   id="path4477"
   style="fill:#4ab07d"
   d="m 2.8316908,1.6877588 0.093255,-0.3607812 c -9.022e-4,-6.39e-5 -0.039076,-0.082329 -0.06872,0.00526 l -0.08241,0.3382791 c 0.00517,0.012295 0.046084,0.0266 0.057875,0.017241 l -4e-7,3e-7 z" /><path
   inkscape:connector-curvature="0"
   id="path4479"
   style="fill:#3662f1;fill-opacity:1"
   d="M 2.9491203,0.95094754 2.8666213,1.2895745 c 0.022627,-0.01484 0.046955,-0.00106 0.056678,0.022175 l 0.0838,-0.34396256 c -0.018178,-0.012309 -0.035911,-0.019029 -0.057979,-0.01684 l 6e-7,9e-7 z" /><path
   inkscape:connector-curvature="0"
   id="path4481"
   style="fill:#000000;fill-rule:nonzero"
   d="m 2.8409195,1.3271648 0.093946,-0.38560856 0.00127,-0.00521 0.00514,-8.989e-4 c 6.81e-5,-1.15e-5 0.025043,-0.00446 0.044903,0.00301 0.018932,0.00707 0.034807,0.019259 0.034842,0.01929 l 0.00425,0.00325 -0.00129,0.00531 -0.07015,0.28794446 -0.1070234,0.4392883 -8.923e-4,0.00224 c -2.84e-5,4.06e-5 -0.010091,0.016007 -0.045867,0.00761 -0.039466,-0.00928 -0.042469,-0.030981 -0.042485,-0.031033 l 1.313e-4,-0.00356 0.083,-0.3406723 -7.31e-5,-2.73e-5 3.036e-4,-9.321e-4 10e-7,-7e-7 z M 2.9491103,0.95095634 2.8666114,1.2895831 c 0.00199,-0.00131 0.00401,-0.00239 0.00605,-0.00326 0.00713,-0.0031 0.014476,-0.00372 0.021452,-0.00209 0.00684,0.0016 0.013256,0.00538 0.018685,0.011093 0.00414,0.00435 0.00772,0.00985 0.010483,0.016443 l 0.014985,-0.061485 0.068822,-0.28248386 c -0.0054,-0.00365 -0.015312,-0.00977 -0.026469,-0.013926 -0.010991,-0.00412 -0.024366,-0.00362 -0.031516,-0.00291 l -5e-7,5e-7 z m -0.117428,0.73680826 0.082113,-0.3370339 -9.022e-4,-6.39e-5 c 0.00144,-0.02044 -0.00367,-0.035536 -0.011645,-0.043903 -0.00324,-0.00341 -0.00693,-0.00562 -0.010759,-0.00653 -0.0037,-8.738e-4 -0.00765,-5.13e-4 -0.011514,0.00116 -0.00857,0.00372 -0.016941,0.013629 -0.022769,0.030848 l -0.08241,0.338279 c 0.00134,0.00319 0.00693,0.011449 0.029865,0.016845 0.020221,0.00476 0.026441,0.00165 0.028012,3.973e-4 l 0,-5e-7 z" /><path
   inkscape:connector-curvature="0"
   id="path4483"
   style="fill:#4ab07d"
   d="m 2.3221773,1.5738563 0.134934,-0.3467574 c -8.851e-4,-1.74e-4 -0.029127,-0.086522 -0.068839,-0.00319 L 2.266741,1.5496534 c 0.00369,0.012843 0.04263,0.032052 0.055436,0.024207 l 1e-7,0 z" /><path
   inkscape:connector-curvature="0"
   id="path4485"
   style="fill:#3662f1;fill-opacity:1"
   d="M 2.525265,0.85675764 2.4036074,1.1828335 c 0.024208,-0.011954 0.046741,0.0047 0.053662,0.028958 L 2.580845,0.88057624 c -0.0166,-0.014445 -0.033415,-0.023292 -0.05558,-0.02382 l -2e-7,6e-7 z" /><path
   inkscape:connector-curvature="0"
   id="path4487"
   style="fill:#000000;fill-rule:nonzero"
   d="m 2.3736865,1.2169942 0.1385363,-0.37131496 0.00187,-0.00501 0.00521,-2.658e-4 c 6.66e-5,-3.3e-6 0.025389,-0.00136 0.044224,0.00848 0.017962,0.00936 0.032294,0.023384 0.03232,0.023424 l 0.00385,0.00374 -0.0019,0.00512 -0.1034474,0.27727586 -0.1578235,0.4230139 -0.00115,0.00211 c -3.17e-5,3.57e-5 -0.011906,0.014653 -0.046431,0.00193 -0.03809,-0.01406 -0.038526,-0.03596 -0.038534,-0.036012 l 5.421e-4,-0.00351 0.1223922,-0.3280496 -6.8e-5,-3.06e-5 4.111e-4,-8.934e-4 -1e-6,-1.2e-6 z M 2.5252625,0.85675394 2.4036054,1.1828298 c 0.00212,-0.00105 0.00425,-0.00187 0.0064,-0.00251 0.00745,-0.00221 0.014823,-0.00193 0.021538,5.486e-4 0.00659,0.00243 0.012545,0.00696 0.017249,0.013303 0.0036,0.00482 0.00652,0.010737 0.00846,0.01761 l 0.022091,-0.0592 0.1014859,-0.27201566 c -0.00492,-0.00429 -0.014055,-0.011568 -0.024636,-0.017073 -0.010425,-0.00544 -0.023762,-0.00657 -0.030944,-0.00675 l -10e-8,1.1e-6 z M 2.3221834,1.5738629 2.4432703,1.2493171 2.4423852,1.249143 c 0.00382,-0.020116 5.267e-4,-0.035732 -0.0064,-0.045018 -0.0028,-0.00377 -0.00623,-0.00642 -0.00992,-0.00779 -0.00357,-0.00132 -0.00752,-0.00145 -0.011572,-2.551e-4 -0.00894,0.00264 -0.018413,0.011449 -0.026225,0.02784 l -0.121531,0.3257469 c 9.538e-4,0.00332 0.00553,0.012206 0.02767,0.02038 0.019524,0.00719 0.026061,0.00486 0.027767,0.00383 l -9e-7,6e-7 z" /><path
   inkscape:connector-curvature="0"
   id="path4489"
   style="fill:none;stroke:#000000;stroke-width:0.01019104"
   d="M 3.909281,1.4169035 C 3.914271,1.3858255 3.863414,1.3751105 3.85833,1.4061515" /><path
   inkscape:connector-curvature="0"
   id="path4491"
   style="fill:none;stroke:#000000;stroke-width:0.01019104"
   d="m 4.2200428,1.4352646 c -0.010251,-0.045851 -0.063865,-0.031362 -0.057379,0.00123" /><path
   inkscape:connector-curvature="0"
   id="path4493"
   style="fill:#c7c7c7;fill-rule:nonzero;stroke:#000000;stroke-width:0.0163033"
   d="m 3.6679115,1.1924132 0.050597,0.4048892 c 0,0 9.285e-4,0.015685 -0.018611,0.031963 -0.019629,0.016376 -0.029625,0.00338 -0.03561,-0.00443 -0.00597,-0.00782 -0.053282,-0.4536548 -0.053282,-0.4536548 l 0.056904,0.021233 -1e-6,-3e-7 z" /><path
   inkscape:connector-curvature="0"
   id="path4495"
   style="fill:none;stroke:#000000;stroke-width:0.0163033"
   d="m 3.6965477,1.431245 c 0.00656,0.033895 -0.05062,0.03666 -0.057177,0.00276" /><path
   inkscape:connector-curvature="0"
   id="path4497"
   style="fill:none;stroke:#000000;stroke-width:0.01019104"
   d="m 4.6592963,1.3809043 c 0.00311,-0.022022 -0.049782,-0.041298 -0.056294,-0.00483" /><path
   inkscape:connector-curvature="0"
   id="path4499"
   style="fill:none;stroke:#000000;stroke-width:0.01019104"
   d="m 4.9697455,1.4146581 c 0.0038,0.019966 -0.049902,0.045526 -0.056213,0.00857" /><path
   inkscape:connector-curvature="0"
   id="path4501"
   style="fill:none;stroke:#000000;stroke-width:0.01019104"
   d="M 5.3319974,1.368352 C 5.3328732,1.345058 5.2835624,1.321851 5.2753064,1.358812" /><path
   inkscape:connector-curvature="0"
   id="path4503"
   style="fill:none;stroke:#000000;stroke-width:0.01019104"
   d="m 5.8229277,1.4721456 c 0.00706,0.024741 -0.030716,0.035488 -0.043247,0.0047" /><path
   inkscape:connector-curvature="0"
   id="path4505"
   style="fill:none;stroke:#000000;stroke-width:0.01019104"
   d="m 6.2318602,1.3903781 c -0.00438,-0.035141 -0.059931,-0.029156 -0.058787,0.00118" /><path
   inkscape:connector-curvature="0"
   id="path4509"
   style="fill:#cccccc;fill-rule:nonzero;stroke:#000000;stroke-width:0.01019104"
   d="m 3.3846381,0.94441514 c -0.034296,-0.00135 0.099243,-0.00371 0.1301252,0.00992 0.2666389,0.11757746 0.2296625,0.61889146 0.5381738,0.81073906 0.079541,0.042269 0.1530568,0.051243 0.2191884,0.036506 C 4.053941,1.8668602 3.9865361,1.8349502 3.8623516,1.7017222 3.7256668,1.5424551 3.5960797,1.0715653 3.5270513,1.0223816 3.5276374,1.0228027 3.4666742,0.94762814 3.3846392,0.94441424 l 6e-7,-6e-7 z" /><polyline
   style="fill:none;stroke:#000000;stroke-width:0.00694488"
   id="polyline4549"
   points="1.94352,6.19979 1.97689,6.18453 1.98051,6.21796 "
   class="fil4 str9"
   transform="matrix(1.2058422,-0.82607858,0.80873773,1.2316977,-3.3462064,-4.5903037)" /><polyline
   style="fill:none;stroke:#000000;stroke-width:0.00694488"
   id="polyline4551"
   points="2.10408,6.33286 2.10914,6.35809 2.13341,6.34649 "
   class="fil4 str9"
   transform="matrix(1.2058422,-0.82607858,0.80873773,1.2316977,-3.3462064,-4.5903037)" /><polyline
   style="fill:none;stroke:#000000;stroke-width:0.00694488"
   id="polyline4553"
   points="2.40023,6.45284 2.42635,6.44264 2.43039,6.46768 "
   class="fil4 str9"
   transform="matrix(1.2058422,-0.82607858,0.80873773,1.2316977,-3.3462064,-4.5903037)" /><polyline
   style="fill:none;stroke:#000000;stroke-width:0.00694488"
   id="polyline4555"
   points="2.5417,6.61004 2.54732,6.63219 2.57056,6.62041 "
   class="fil4 str9"
   transform="matrix(1.2058422,-0.82607858,0.80873773,1.2316977,-3.3462064,-4.5903037)" /><polyline
   style="fill:none;stroke:#000000;stroke-width:0.00694488"
   id="polyline4557"
   points="2.78875,6.72663 2.78965,6.75747 2.82126,6.74613 "
   class="fil4 str9"
   transform="matrix(1.2058422,-0.82607858,0.80873773,1.2316977,-3.3462064,-4.5903037)" /><polyline
   style="fill:none;stroke:#000000;stroke-width:0.00694488"
   id="polyline4559"
   points="2.85783,6.82663 2.88493,6.80497 2.89488,6.83846 "
   class="fil4 str9"
   transform="matrix(1.2058422,-0.82607858,0.80873773,1.2316977,-3.3462064,-4.5903037)" /><polyline
   style="fill:none;stroke:#000000;stroke-width:0.00694488"
   id="polyline4561"
   points="3.10601,6.94872 3.10902,6.97358 3.13696,6.97111 "
   class="fil4 str9"
   transform="matrix(1.2058422,-0.82607858,0.80873773,1.2316977,-3.3462064,-4.5903037)" />





<g
   id="g8531"
   transform="matrix(0.00188578,0.04569669,-0.04569669,0.00188578,9.0508666,-18.643514)"><path
     inkscape:connector-curvature="0"
     id="path50770-0-4-3-3-0"
     d="m 420.39414,188.16156 -0.17037,14.60033 -1.9144,-0.34511 -0.30625,-14.1381 1.06098,1.42818 z"
     style="fill:#eca02d;fill-opacity:1;stroke:none" /><path
     sodipodi:nodetypes="cccccc"
     transform="translate(16.544564,83.362159)"
     inkscape:connector-curvature="0"
     id="path8523"
     d="M 402.51953,106.33984 404,104.85938 403.64062,119.40625 402,119 401.4375,105 z"
     style="fill:none;stroke:#000000;stroke-width:0.40000001;stroke-linecap:round;stroke-linejoin:round;stroke-miterlimit:4;stroke-opacity:1;stroke-dasharray:none" /></g><g
   id="g8535"
   transform="matrix(0.00188578,0.04569669,-0.04569669,0.00188578,8.9973646,-19.450178)"><path
     sodipodi:nodetypes="ccccc"
     inkscape:connector-curvature="0"
     id="path50774-8-7-7-0"
     d="m 422.4597,201.6365 2.08486,-1.27434 0.25875,-13.25433 c -0.67967,1.10479 -1.47028,1.21286 -2.23933,0.32243 z"
     style="fill:#3662f1;fill-opacity:1;stroke:none" /><path
     sodipodi:nodetypes="ccccc"
     transform="translate(16.544564,83.362159)"
     inkscape:connector-curvature="0"
     id="path8525"
     d="M 405.96875,118.25 408,117 l 0,-13 c -0.51098,0.46705 -1.00292,0.99124 -2,0 z"
     style="fill:none;stroke:#000000;stroke-width:0.40000001;stroke-linecap:butt;stroke-linejoin:round;stroke-miterlimit:4;stroke-opacity:1;stroke-dasharray:none" /></g><g
   id="g8539"
   transform="matrix(0.00188578,0.04569669,-0.04569669,0.00188578,8.9417085,-17.859641)"><path
     sodipodi:nodetypes="ccccc"
     inkscape:connector-curvature="0"
     id="path50776-0-38-4-2-8"
     d="m 427.42844,186.43678 c 0.62643,-1.28717 1.19109,-1.339 2.31679,0.40527 l -0.20067,13.52011 c -0.90866,1.15869 -1.59206,0.97336 -2.19455,0.30515 z"
     style="fill:#4ab07d;fill-opacity:1;stroke:none" /><path
     sodipodi:nodetypes="ccccc"
     transform="translate(16.544564,83.362159)"
     inkscape:connector-curvature="0"
     id="path8527"
     d="m 410.84375,117.375 c 0.30341,0.62273 0.71862,0.94665 2.15625,-0.375 l 0,-14 c -0.82999,-1.20252 -1.72198,-0.86253 -2,0 z"
     style="fill:none;stroke:#000000;stroke-width:0.40000001;stroke-linecap:butt;stroke-linejoin:miter;stroke-miterlimit:4;stroke-opacity:1;stroke-dasharray:none" /></g><g
   id="g8543"
   transform="matrix(0.00188578,0.04569669,-0.04569669,0.00188578,8.9965306,-18.80884)"><path
     inkscape:connector-curvature="0"
     id="path50768-6-4-0-1-6"
     d="m 437.29687,201.7003 -2.63907,0.8488 0.0221,-13.71008 1.14757,-1.46001 1.08568,1.2798 z"
     style="fill:#a22a3e;fill-opacity:1;stroke:none" /><path
     sodipodi:nodetypes="cccccc"
     transform="translate(16.544564,83.362159)"
     inkscape:connector-curvature="0"
     id="path8529"
     d="m 418.12153,119.17678 -0.008,-13.67678 1.13281,-1.5625 1.15235,1.375 0.34744,13.06315 z"
     style="fill:none;stroke:#000000;stroke-width:0.40000001;stroke-linecap:round;stroke-linejoin:round;stroke-miterlimit:4;stroke-opacity:1;stroke-dasharray:none" /></g><text
   xml:space="preserve"
   style="font-size:0.44444439px;font-style:normal;font-weight:normal;line-height:125%;letter-spacing:0px;word-spacing:0px;fill:#000000;fill-opacity:1;stroke:none;font-family:Sans"
   x="0.0013020834"
   y="0.43198818"
   id="text28419"
   sodipodi:linespacing="125%"><tspan
     sodipodi:role="line"
     id="tspan28421"
     x="0.0013020834"
     y="0.43198818">A</tspan></text>
<text
   xml:space="preserve"
   style="font-size:0.44444445px;font-style:normal;font-weight:normal;line-height:125%;letter-spacing:0px;word-spacing:0px;fill:#000000;fill-opacity:1;stroke:none;font-family:Sans"
   x="0.0013020834"
   y="1.0377965"
   id="text28419-4"
   sodipodi:linespacing="125%"><tspan
     sodipodi:role="line"
     id="tspan28421-1"
     x="0.0013020834"
     y="1.0377965">C</tspan></text>
<text
   xml:space="preserve"
   style="font-size:0.44444445px;font-style:normal;font-weight:normal;line-height:125%;letter-spacing:0px;word-spacing:0px;fill:#000000;fill-opacity:1;stroke:none;font-family:Sans"
   x="0.0013020834"
   y="1.6438227"
   id="text28419-1"
   sodipodi:linespacing="125%"><tspan
     sodipodi:role="line"
     id="tspan28421-7"
     x="0.0013020834"
     y="1.6438227">G</tspan></text>
<text
   xml:space="preserve"
   style="font-size:0.44444445px;font-style:normal;font-weight:normal;line-height:125%;letter-spacing:0px;word-spacing:0px;fill:#000000;fill-opacity:1;stroke:none;font-family:Sans"
   x="0.0013020834"
   y="2.2500658"
   id="text28419-18"
   sodipodi:linespacing="125%"><tspan
     sodipodi:role="line"
     id="tspan28421-5"
     x="0.0013020834"
     y="2.2500658">T</tspan></text>
<path
   style="fill:none;stroke:#000000;stroke-width:0.03333333;stroke-linecap:round;stroke-linejoin:miter;stroke-miterlimit:4;stroke-opacity:1;stroke-dasharray:none"
   d="m 2.2338675,0.62471749 c -0.034746,0 -1.1031778,-0.60805082 -1.1031778,-0.60805082"
   id="path28462"
   inkscape:connector-curvature="0" /><path
   style="fill:none;stroke:#000000;stroke-width:0.03333333;stroke-linecap:round;stroke-linejoin:miter;stroke-miterlimit:4;stroke-opacity:1;stroke-dasharray:none"
   d="M 2.1904354,1.7278953 1.1046304,2.3967512"
   id="path28464"
   inkscape:connector-curvature="0" /></svg>