<?xml version="1.0" encoding="UTF-8" standalone="no"?>
<!-- Created with Inkscape (http://www.inkscape.org/) -->

<svg
   xmlns:dc="http://purl.org/dc/elements/1.1/"
   xmlns:cc="http://creativecommons.org/ns#"
   xmlns:rdf="http://www.w3.org/1999/02/22-rdf-syntax-ns#"
   xmlns:svg="http://www.w3.org/2000/svg"
   xmlns="http://www.w3.org/2000/svg"
   xmlns:sodipodi="http://sodipodi.sourceforge.net/DTD/sodipodi-0.dtd"
   xmlns:inkscape="http://www.inkscape.org/namespaces/inkscape"
   id="svg2"
   version="1.1"
   inkscape:version="0.48.3.1 r9886"
   width="1182.0238"
   height="484.42255"
   xml:space="preserve"
   sodipodi:docname="insertSize-1816.pdf"><metadata
     id="metadata8"><rdf:RDF><cc:Work
         rdf:about=""><dc:format>image/svg+xml</dc:format><dc:type
           rdf:resource="http://purl.org/dc/dcmitype/StillImage" /><dc:title></dc:title></cc:Work></rdf:RDF></metadata><defs
     id="defs6"><clipPath
       clipPathUnits="userSpaceOnUse"
       id="clipPath68"><path
         d="m 0,414.667 934.854,0 L 934.854,0 0,0 0,414.667 z"
         id="path70"
         inkscape:connector-curvature="0" /></clipPath><clipPath
       clipPathUnits="userSpaceOnUse"
       id="clipPath102"><path
         d="m 0,414.667 934.854,0 L 934.854,0 0,0 0,414.667 z"
         id="path104"
         inkscape:connector-curvature="0" /></clipPath><clipPath
       clipPathUnits="userSpaceOnUse"
       id="clipPath116"><path
         d="m 555.521,210 195.333,0 0,134 -195.333,0 0,-134 z"
         id="path118"
         inkscape:connector-curvature="0" /></clipPath></defs><sodipodi:namedview
     pagecolor="#ffffff"
     bordercolor="#666666"
     borderopacity="1"
     objecttolerance="10"
     gridtolerance="10"
     guidetolerance="10"
     inkscape:pageopacity="0"
     inkscape:pageshadow="2"
     inkscape:window-width="2560"
     inkscape:window-height="1385"
     id="namedview4"
     showgrid="false"
     fit-margin-top="0"
     fit-margin-left="0"
     fit-margin-right="0"
     fit-margin-bottom="0"
     inkscape:zoom="1.1775101"
     inkscape:cx="463.9183"
     inkscape:cy="206.00179"
     inkscape:window-x="1364"
     inkscape:window-y="-3"
     inkscape:window-maximized="1"
     inkscape:current-layer="g10" /><g
     id="g10"
     inkscape:groupmode="layer"
     inkscape:label="insertSize-1816"
     transform="matrix(1.25,0,0,-1.25,13.4563,475.42258)"><g
       id="g12"
       transform="translate(77.1563,61.1074)"><path
         d="M 0,0 853.947,0"
         style="fill:none;stroke:#000000;stroke-width:1.5;stroke-linecap:butt;stroke-linejoin:bevel;stroke-miterlimit:10;stroke-opacity:1;stroke-dasharray:none"
         id="path14"
         inkscape:connector-curvature="0" /></g><g
       id="g16"
       transform="translate(77.8535,61.1074)"><path
         d="M 0,0 0,-7.2"
         style="fill:none;stroke:#000000;stroke-width:1.5;stroke-linecap:butt;stroke-linejoin:round;stroke-miterlimit:10;stroke-opacity:1;stroke-dasharray:none"
         id="path18"
         inkscape:connector-curvature="0" /></g><g
       id="g20"
       transform="translate(330.0537,61.1074)"><path
         d="M 0,0 0,-7.2"
         style="fill:none;stroke:#000000;stroke-width:1.5;stroke-linecap:butt;stroke-linejoin:bevel;stroke-miterlimit:10;stroke-opacity:1;stroke-dasharray:none"
         id="path22"
         inkscape:connector-curvature="0" /></g><g
       id="g24"
       transform="translate(530.1636,61.1074)"><path
         d="M 0,0 0,-7.2"
         style="fill:none;stroke:#000000;stroke-width:1.5;stroke-linecap:butt;stroke-linejoin:bevel;stroke-miterlimit:10;stroke-opacity:1;stroke-dasharray:none"
         id="path26"
         inkscape:connector-curvature="0" /></g><g
       id="g28"
       transform="translate(730.2637,61.1074)"><path
         d="M 0,0 0,-7.2"
         style="fill:none;stroke:#000000;stroke-width:1.5;stroke-linecap:butt;stroke-linejoin:bevel;stroke-miterlimit:10;stroke-opacity:1;stroke-dasharray:none"
         id="path30"
         inkscape:connector-curvature="0" /></g><g
       id="g32"
       transform="translate(930.373,61.1074)"><path
         d="M 0,0 0,-7.2"
         style="fill:none;stroke:#000000;stroke-width:1.5;stroke-linecap:butt;stroke-linejoin:bevel;stroke-miterlimit:10;stroke-opacity:1;stroke-dasharray:none"
         id="path34"
         inkscape:connector-curvature="0" /></g><text
       transform="matrix(1,0,0,-1,57.4336,35.1865)"
       id="text36"><tspan
         style="font-size:16px;font-variant:normal;font-weight:normal;font-stretch:normal;writing-mode:lr-tb;fill:#000000;fill-opacity:1;fill-rule:nonzero;stroke:none;font-family:Arial;-inkscape-font-specification:ArialMT"
         x="0 9.3439999 18.24 27.136 269.28 462.72 471.616 480.51199 662.83197 671.72803 680.62402 846.92798 855.82397 864.71997"
         y="0"
         sodipodi:role="line"
         id="tspan38">−2500200400600</tspan></text>
<g
       id="g40"
       transform="translate(69.8936,69.5371)"><path
         d="M 0,0 0,164.26"
         style="fill:none;stroke:#000000;stroke-width:1.5;stroke-linecap:round;stroke-linejoin:bevel;stroke-miterlimit:10;stroke-opacity:1;stroke-dasharray:none"
         id="path42"
         inkscape:connector-curvature="0" /></g><g
       id="g44"
       transform="translate(69.8936,69.5371)"><path
         d="M 0,0 -7.2,0"
         style="fill:none;stroke:#000000;stroke-width:1.5;stroke-linecap:round;stroke-linejoin:bevel;stroke-miterlimit:10;stroke-opacity:1;stroke-dasharray:none"
         id="path46"
         inkscape:connector-curvature="0" /></g><g
       id="g48"
       transform="translate(69.8936,151.667)"><path
         d="M 0,0 -7.2,0"
         style="fill:none;stroke:#000000;stroke-width:1.5;stroke-linecap:round;stroke-linejoin:bevel;stroke-miterlimit:10;stroke-opacity:1;stroke-dasharray:none"
         id="path50"
         inkscape:connector-curvature="0" /></g><g
       id="g52"
       transform="translate(69.8936,233.7969)"><path
         d="M 0,0 -7.2,0"
         style="fill:none;stroke:#000000;stroke-width:1.5;stroke-linecap:round;stroke-linejoin:bevel;stroke-miterlimit:10;stroke-opacity:1;stroke-dasharray:none"
         id="path54"
         inkscape:connector-curvature="0" /></g><text
       transform="matrix(1,0,0,-1,24.4531,69.3896)"
       id="text56"><tspan
         style="font-size:14px;font-variant:normal;font-weight:normal;font-stretch:normal;writing-mode:lr-tb;fill:#000000;fill-opacity:1;fill-rule:nonzero;stroke:none;font-family:Helvetica;-inkscape-font-specification:Helvetica"
         x="0 7.7839999 11.676 19.459999 27.243999"
         y="0"
         sodipodi:role="line"
         id="tspan58">0.000</tspan><tspan
         style="font-size:14px;font-variant:normal;font-weight:normal;font-stretch:normal;writing-mode:lr-tb;fill:#000000;fill-opacity:1;fill-rule:nonzero;stroke:none;font-family:Helvetica;-inkscape-font-specification:Helvetica"
         x="0 7.7839999 11.676 19.459999 27.243999"
         y="-78.134003"
         sodipodi:role="line"
         id="tspan60">0.002</tspan><tspan
         style="font-size:14px;font-variant:normal;font-weight:normal;font-stretch:normal;writing-mode:lr-tb;fill:#000000;fill-opacity:1;fill-rule:nonzero;stroke:none;font-family:Helvetica;-inkscape-font-specification:Helvetica"
         x="0 7.7839999 11.676 19.459999 27.243999"
         y="-160.258"
         sodipodi:role="line"
         id="tspan62">0.004</tspan></text>
<g
       id="g80"
       transform="translate(77.9233,70.3672)"><path
         d="m 0,0 1,23.52 1,-6.871 1,10.621 1,2.5 1,-5.831 1,8.321 1,-0.41 1,-2.92 1,1.04 1,1.04 1,5 1,-2.91 1,5.62 1,-12.491 1,11.241 1,-7.5 1,2.09 1.01,2.08 1,5.83 1,-5 1,-2.29 1,3.75 1,-4.58 1,2.5 1,-3.75 1,4.79 1,-2.71 1,1.67 1,0.41 1,1.46 1,1.46 1,2.29 1,-11.25 1,8.12 1,-4.37 1,1.67 1.01,7.91 1,-12.49 1,-2.081 1,9.781 1,-4.16 1,8.53 1,-6.24 1,6.24 1,-3.75 1,-0.41 1,3.95 1,-3.95 1,6.45 1,-10.82 1,3.12 1,6.24 1,-6.45 1,2.29 1,-0.62 1.01,-5.42 1,6.25 1,-3.54 1,3.12 1,-1.66 1,2.7 1,4.79 1,2.29 1,-12.91 1,5.62 1,-1.24 1,-1.05 1,3.96 1,3.12 1,-6.24 1,9.16 1,-7.08 1,2.7 1.01,-1.04 1,-0.62 1,-2.29 1,2.5 1,-2.5 1,-0.21 1,7.7 1,0.42 1,-3.75 1,1.88 1,-10.83 1,11.66 1,-11.66 1,11.03 1,2.92 1,-10.41 1,5.62 1,6.66 1,-3.95 1.01,0.62 1,0.63 1,1.66 1,-9.57 1,6.03 1,2.71 1,2.08 1,-7.29 1,12.7 1,0 1,-1.45 1,8.319 1,-7.279 1,-7.29 1,6.25 1,-12.08 1,15.41 1,-4.79 1,-1.25 1.01,-7.49 1,12.07 1,-7.29 1,6.04 1,-9.37 1,5 1,-0.63 1,3.54 1,5.409 1,-7.489 1,7.08 1,-5.83 1,3.54 1,-3.75 1,10.83 1,-11.24 1,14.149 1,-8.329 1,-4.58 1.01,10.409 1,-4.579 1,-6.45 1,2.5 1,16.44 1,-8.53 1,-10.41 1,10.41 1,-8.95 1,14.359 1,-2.08 1,-5.829 1,-2.08 1,1.659 1,-3.739 1,18.94 1,73.06 1,-83.471 1.01,65.781 1,-57.04 1,18.74 1,-25.81 1,2.49 1,0.839 1,-10.409 1,14.989 1,62.651 1,-54.12 1,-2.29 1,-18.73 1,10.199 1,-7.909 1,2.489 1,47.051 1,-41.631 1,-2.08 1,3.531 1.01,-5.621 1,4.791 1,2.29 1,-7.491 1,11.451 1,-9.161 1,-2.5 1,8.741 1,-12.491 1,-1.25 1,12.08 1,-12.279 1,9.779 1,-17.689 1,19.149 1,-5.619 1,12.07 1,9.78 1,-17.691 1.01,3.54 1,3.541 1,-14.57 1,16.44 1,-6.25 1,-8.951 1,17.491 1,-12.281 1,8.121 1,3.12 1,-2.71 1,5.62 1,-4.79 1,-0.41 1,-5.21 1,-2.08 1,23.52 1,-17.48 1,18.53 1.01,-26.021 1,10.401 1,4.79 1,-2.5 1,-11.651 1,-0.42 1,12.491 1,-7.29 1,-1.04 1,14.16 1,-12.49 1,2.7 1,3.75 1,-6.87 1,16.03 1,-18.731 1,38.301 1,-34.761 1.01,2.701 1,11.66 1,-22.691 1,23.941 1,-11.87 1,46.21 1,-45.58 1,-0.84 1,-2.08 1,6.25 1,-20.19 1,18.11 1,-4.58 1,16.44 1,-2.91 1,-12.7 1,-11.241 1,9.991 1,-0.21 1.01,2.71 1,25.18 1,-27.68 1,2.29 1,13.95 1,-8.75 1,12.7 1,-20.19 1,12.07 1,1.25 1,-12.9 1,25.6 1,-15.4 1,-13.12 1,2.08 1,7.71 1,14.77 1,-18.52 1,11.45 1.01,-5.83 1,-0.21 1,12.28 1,-11.03 1,-7.49 1,9.15 1,0.63 1,9.16 1,-15.2 1,0 1,3.75 1,-6.25 1,32.889 1,-33.719 1,11.45 1,-6.04 1,8.12 1,-8.53 1,1.66 1.01,-2.91 1,18.11 1,-14.16 1,21.03 1,-9.99 1,-7.08 1,17.9 1,-18.32 1,40.18 1,-44.76 1,46.42 1,-35.18 1,0.42 1,9.37 1,-13.33 1,2.5 1,14.779 1,-18.519 1.01,8.53 1,-15.82 1,-12.071 1,29.561 1,-10 1,4.38 1,8.53 1,-28.31 1,21.44 1,-5 1,10.41 1,-27.89 1,11.66 1,-9.16 1,14.98 1,-12.9 1,2.29 1,-5.83 1,-3.951 1.01,16.231 1,-2.08 1,2.29 1,-10.41 1,-2.29 1,11.24 1,-9.36 1,1.45 1,-3.12 1,-4.161 1,10.821 1,2.5 1,3.12 1,-12.9 1,18.31 1,-9.78 1,9.99 1,0 1,-15.19 1.01,7.28 1,-3.33 1,6.04 1,-5.41 1,-14.37 1,14.99 1,-10.41 1,5.83 1,17.9 1,-22.06 1,23.94 1,-8.75 1,-9.57 1,-1.46 1,1.87 1,18.74 1,-20.19 1,6.87 1,5.62 1.01,2.29 1,-9.58 1,14.16 1,-14.58 1,-12.691 1,1.451 1,13.33 1,-4.58 1,-4.37 1,7.7 1,-8.33 1,-6.241 1,12.281 1,-5.83 1,9.99 1,-11.24 1,-0.62 1,-6.041 1.01,6.871 1,-13.741 1,10.201 1,-1.25 1,3.54 1,-3.33 1,-0.42 1,-11.241 1,0.841 1,2.489 1,15.821 1,0.21 1,0.63 1,2.7 1,-21.02 1,18.73 1,-5.83 1,0 1,0.21 1.01,8.33 1,-7.08 1,-2.5 1,-4.79 1,-6.031 1,8.531 1,10.2 1,-4.58 1,-9.16 1,7.5 1,-5.831 1,-3.75 1,22.281 1,-29.56 1,12.07 1,1.25 1,-7.49 1,13.11 1,-7.701 1.01,-2.71 1,-0.209 1,-2.701 1,8.12 1,-2.089 1,1.04 1,-6.661 1,-2.489 1,3.119 1,-4.369 1,4.369 1,-2.29 1,-3.119 1,-0.841 1,-2.699 1,1.87 1,11.659 1,-3.33 1,3.951 1.01,-7.491 1,-5.619 1,9.159 1,-8.329 1,4.789 1,-9.989 1,12.489 1,-4.789 1,-3.12 1,6.87 1,2.909 1,-8.739 1,0.619 1,-2.909 1,6.239 1,-7.279 1,8.949 1,-1.67 1.01,-1.659 1,-8.95 1,0.83 1,-6.45 1,8.74 1,0.409 1,-3.119 1,5 1,20.61 1,-24.36 1,16.029 1,-13.949 1,-10.4 1,4.16 1,1.66 1,-2.29 1,10.409 1,-5.619 1,-5.41 1.01,10.41 1,-10.83 1,-2.49 1,1.66 1,0.62 1,1.25 1,2.29 1,-3.74 1,2.49 1,-4.78 1,6.45 1,0.42 1,-4.17 1,2.71 1,-7.29 1,12.7 1,-2.29 1,-2.29 1,-1.87 1.01,1.04 1,-4.37 1,0 1,-3.54 1,5.41 1,0.63 1,6.66 1,-8.33 1,13.109 1,-3.739 1,-11.45 1,4.99 1,-1.45 1,9.359 1,-4.989 1,1.46 1,2.91 1,-17.49 1,6.25 1.01,-4.58 1,11.03 1,1.25 1,-13.53 1,5 1,-4.58 1,4.58 1,3.33 1,-2.92 1,-1.04 1,-5.83 1,0.84 1,3.33 1,0.21 1,1.04 1,-6.25 1,-1.04 1,2.5 1.01,0.41 1,-7.49 1,0.21 1,3.75 1,-2.09 1,3.96 1,0 1,-5.62 1,9.16 1,-5.62 1,7.91 1,-9.99 1,0 1,-7.71 1,12.91 1,-10.82 1,10.4 1,-4.37 1,-4.58 1.01,3.75 1,-3.12 1,-6.87 1,10.41 1,-2.92 1,6.46 1,-1.25 1,-1.67 1,4.79 1,-12.7 1,2.5 1,5.83 1,-4.17 1,4.79 1,-9.37 1,2.09 1,3.33 1,-3.96 1,0.83 1.01,4.38 1,-5.62 1,-0.84 1,2.08 1,-1.66 1,0.42 1,2.29 1,2.49 1,-7.7 1,4.16 1,-5.41 1,6.46 1,-6.25 1,7.7 1,-5.83 1,-2.08 1,12.49 1,1.88 1,-5.21 1.01,-8.531 1,6.031 1,0.63 1,-1.04 1,-7.08 1,1.25 1,1.87 1,-0.411 1,-3.54 1,5.831 1,-5 1,1.669 1,-5 1,3.75 1,-2.919 1,3.75 1,-0.831 1,0.621 1.01,5 1,-6.04 1,-2.911 1,3.951 1,-5.411 1,5.411 1,-2.081 1,-2.709 1,-0.831 1,1.25 1,-1.87 1,2.701 1,-1.46 1,3.96 1,0.62 1,-5.821 1,1.451 1,2.5 1,-0.42 1.011,-4.781 1,2.491 1,-2.081 1,3.13 1,-3.54 1,-2.079 1,1.869 1,1.46 1,-0.84 1,-0.199 1,3.74 1,-3.331 1,-3.54 1,1.881 1,7.49 1,-11.03 1,7.909 1,-2.92 1,-0.62 1.009,1.25 1,0 1,2.08 1,1.661 1,-3.33 1,2.5 1,-1.25 1,0.209 1,-3.12 1,0.421 1,-1.051 1,1.051 1,-3.131 1,-1.869 1,6.039 1,1.451 1,-1.25 1,-2.701 1,0 1.01,-3.119 1,3.529 1,3.331 1,-3.121 1,-0.62 1,-1.88 1,2.5 1,5.621 1,-10.201 1,-0.21 1,4.17 1,-5.829 1,4.79 1,2.5 1,-4.171 1,-2.079 1,0.829 1,4.171 1.01,-4.381 1,0.841 1,1.659 1,-2.08 1,3.75 1,-2.5 1,-0.21 1,-2.699 1,1.239 1,-0.619 1,-0.62 1,0 1,1.239 1,3.131 1,-5 1,-0.62 1,17.069 1,-15.199 1,0.619 1.011,-1.869 1,2.079 1,1.671 1,-1.671 1,3.75 1,-4.79 1,-1.039 1,-0.211 1,-0.619 1,2.29 1,0.829 1,-3.329 1,3.329 1,-2.909 1,2.29 1,-0.631 1,-1.869 1,1.46 1,0.83 1.009,-0.83 1,1.87 1,0.42 1,-2.29 1,-0.21 1,1.449 1,-2.08 1,-2.289 1,8.75 1,-4.58 1,-1.04 1,-2.091 1,-0.829 1,1.04 1,-0.211 1,1.461 1,-1.25 1,-2.5 1,4.17 1.01,-1.67 1,-1.66 1,0.21 1,-0.84 1,6.04 1,-4.58 1,0.21 1,-2.71 1,1.46 1,0.42 1,-0.63 1,-1.46 1,-0.2 1,0.83 1,2.08 1,-2.29 1,2.08 1,-2.91 1.01,-1.46 1,2.08 1,2.08 1,-2.7 1,1.04 1,-0.42 1,1.04 1,-0.21 1,0.21 1,-1.04 1,-0.41 1,0 1,3.529 1,-5.619 1,2.92 1,-1.46 1,2.08 1,-2.29 1,0.84 1.011,1.24 1,-1.87 1,1.04 1,3.119 1,-4.779 1,1.25 1,-0.84 1,1.25 1,2.5 1,2.909 1,-6.659 1,7.29 1,-6.45 1,1.04 1,-1.25 1,1.04 1,-0.63 1,-1.45 1,2.08 1.009,3.949 1,-3.329 1,-1.87 1,-0.21 1,-2.08 1,3.33 1,-1.46 1,2.71 1,-4.16 1,1.87 1,-1.25 1,0.42 1,0.62 1,1.25 1,-2.29 1,0.63 1,0.62 1,-0.62 1,-0.84 1.01,0.21 1,-0.42 1,1.46 1,-1.66 1,4.58 1,-3.96 1,3.54 1,-3.75 1,0.42 1,-2.08 1,1.25 1,0.41 1,-1.66 1,1.04 1,-0.63 1,0.42 1,1.25 1,-0.21 1.01,0.21 1,-0.42 1,-1.66 1,1.45 1,1.25 1,-1.25 1,-1.24 1,0.62 1,0.83 1,0 1,-0.83 1,-1.04 1,2.91 1,-2.29 1,-1.04 1,0.63 1,0.41 1,-0.83 1,0.21 1.01,-0.21 1,-1.25 1,1.88 1,-0.42"
         style="fill:none;stroke:#000000;stroke-width:0.75;stroke-linecap:round;stroke-linejoin:round;stroke-miterlimit:10;stroke-opacity:1;stroke-dasharray:none"
         id="path82"
         inkscape:connector-curvature="0"
         sodipodi:nodetypes="ccccccccccccccccccccccccccccccccccccccccccccccccccccccccccccccccccccccccccccccccccccccccccccccccccccccccccccccccccccccccccccccccccccccccccccccccccccccccccccccccccccccccccccccccccccccccccccccccccccccccccccccccccccccccccccccccccccccccccccccccccccccccccccccccccccccccccccccccccccccccccccccccccccccccccccccccccccccccccccccccccccccccccccccccccccccccccccccccccccccccccccccccccccccccccccccccccccccccccccccccccccccccccccccccccccccccccccccccccccccccccccccccccccccccccccccccccccccccccccccccccccccccccccccccccccccccccccccccccccccccccccccccccccccccccccccccccccccccccccccccccccccccccccccccccccccccccccccccccccccccccccccccccccccccccccccccccccccccccccccccccccccccccccccccccccccccccccccccccccccccccccccccccccccccccccccccccccccccccccccccccccccccccccccccccccccccccccccccccccccccccccccccccccccccccccccccccccccccccccccccccccccccccccccccccccccccccccccccccccccccccccccc" /></g><g
       id="g84"
       transform="translate(666.8205,331.5045)"><path
         d="M 0,0 0,14.896"
         style="fill:none;stroke:#000000;stroke-width:3;stroke-linecap:butt;stroke-linejoin:miter;stroke-miterlimit:10;stroke-opacity:1;stroke-dasharray:none"
         id="path86"
         inkscape:connector-curvature="0" /></g><g
       id="g88"
       transform="translate(671.757,332.9488)"><path
         d="M 0,0 -4.937,-8.549 -9.873,0 0,0 z"
         style="fill:#000000;fill-opacity:1;fill-rule:nonzero;stroke:none"
         id="path90"
         inkscape:connector-curvature="0" /></g><path
       d="m 931.103,61.26 3.75,0 0,19.919 -3.75,0 0,-19.919 z"
       style="fill:#ffffff;fill-opacity:1;fill-rule:nonzero;stroke:none"
       id="path96"
       inkscape:connector-curvature="0" /><g
       id="g98"><g
         id="g100"
         clip-path="url(#clipPath102)"><path
           d="m 955.521,61.261 -24.417,0 0,19.918 24.417,0 0,-19.918 z"
           style="fill:none;stroke:#ffffff;stroke-width:1;stroke-linecap:butt;stroke-linejoin:miter;stroke-miterlimit:10;stroke-opacity:1;stroke-dasharray:none"
           id="path106"
           inkscape:connector-curvature="0" /></g></g><g
       id="g108"
       transform="translate(69.8936,69.5371)"><path
         d="M 0,0 860.479,0"
         style="fill:none;stroke:#000000;stroke-width:1;stroke-linecap:butt;stroke-linejoin:miter;stroke-miterlimit:10;stroke-opacity:1;stroke-dasharray:2.25, 3.75;stroke-dashoffset:0"
         id="path110"
         inkscape:connector-curvature="0" /></g><path
       d="m 750.854,344 -195.333,0 0,-134 195.333,0 0,134 z"
       style="fill:none;stroke:#0f0f0f;stroke-width:0.75;stroke-linecap:round;stroke-linejoin:round;stroke-miterlimit:10;stroke-opacity:1;stroke-dasharray:2.25, 3.75;stroke-dashoffset:0"
       id="path124"
       inkscape:connector-curvature="0" /><g
       id="g126"
       transform="translate(750.8545,210)"><path
         d="M 0,0 54.449,-128.603"
         style="fill:none;stroke:#000000;stroke-width:1;stroke-linecap:butt;stroke-linejoin:miter;stroke-miterlimit:10;stroke-opacity:1;stroke-dasharray:2.25, 3.75;stroke-dashoffset:0"
         id="path128"
         inkscape:connector-curvature="0" /></g><g
       id="g130"
       transform="translate(555.521,210)"><path
         d="M 0,0 161.743,-118.193"
         style="fill:none;stroke:#000000;stroke-width:1;stroke-linecap:butt;stroke-linejoin:miter;stroke-miterlimit:10;stroke-opacity:1;stroke-dasharray:2.25, 3.75;stroke-dashoffset:0"
         id="path132"
         inkscape:connector-curvature="0" /></g><text
       xml:space="preserve"
       style="font-size:16px;font-style:normal;font-variant:normal;font-weight:normal;font-stretch:normal;line-height:125%;letter-spacing:0px;word-spacing:0px;fill:#000000;fill-opacity:1;stroke:none;font-family:cmss10;-inkscape-font-specification:cmss10"
       x="331.12589"
       y="-2.3735847e-05"
       id="text3147"
       sodipodi:linespacing="125%"
       transform="scale(1,-1)"><tspan
         sodipodi:role="line"
         id="tspan3149"
         x="331.12589"
         y="-2.3735847e-05"
         style="font-size:28.79999924px">internal segment length (bp)</tspan></text>
<path
       d="m 556.00795,303.88884 2.22901,-7.4226 2.22901,5.57252 2.22901,-2.78626 2.22901,0.46586 2.22901,-6.95451 2.22901,0.93841 2.22901,-2.34269 2.22901,2.34269 2.22901,-6.97903 2.22901,-4.16602 2.22901,13.46099 2.22901,3.2343 2.22901,-2.78626 2.229,-6.02056 2.22901,0 2.2513,-6.95228 2.22901,7.86617 2.22901,7.42484 2.22901,-6.95674 2.22901,-1.38199 2.22901,-4.19054 2.22901,5.57253 2.22901,12.52926 2.22901,-22.73813 2.22901,-0.46809 2.22901,9.29497 2.22901,-12.9929 2.22901,10.67696 2.22901,5.57252 2.22901,-9.2972 2.22901,-4.63411 2.22901,1.84785 2.22901,9.2972 2.2513,-9.76529 2.22901,1.8746 2.22901,3.69792 2.22901,-4.63634 2.22901,8.35879 2.22901,-5.57252 2.22901,-0.4681 2.22901,-6.01609 2.22901,2.76174 2.22901,-1.37976 2.22901,-1.38198 2.22901,0 2.22901,2.76174 2.22901,6.97903 2.22901,-11.14505 2.22901,-1.38199 2.22901,38.04697 2.22901,-33.87872 2.22901,1.37976 2.25352,-4.16602 2.22901,4.63411 2.22901,3.72468 2.22901,-3.72468 2.22901,8.35879 2.22901,-10.67696 2.22901,-2.31594 2.22901,-0.47032 2.22901,-1.37976 2.22901,5.10443 2.22901,1.84785 2.22901,-7.42037 2.22901,7.42037 2.22901,-6.48419 2.22901,5.10444 2.22901,-1.40651 2.22901,-4.16602 2.22901,3.25436 2.22901,1.85007 2.24907,-1.85007 2.22901,4.16824 2.22901,0.93619 2.22901,-5.10443 2.22901,-0.4681 2.22901,3.22984 2.22901,-4.63634 2.22901,-5.1022 2.22901,19.50383 2.22901,-10.20886 2.22901,-2.31817 2.22901,-4.66086 2.22901,-1.84785 2.22901,2.31817 2.22901,-0.47032"
       style="fill:none;stroke:#000000;stroke-width:1.67175734;stroke-linecap:round;stroke-linejoin:round;stroke-miterlimit:10;stroke-opacity:1;stroke-dasharray:none"
       id="path82-4"
       inkscape:connector-curvature="0"
       sodipodi:nodetypes="ccccccccccccccccccccccccccccccccccccccccccccccccccccccccccccccccccccccccccccccccccccccc" /><text
       xml:space="preserve"
       style="font-size:16px;font-style:normal;font-variant:normal;font-weight:normal;font-stretch:normal;line-height:125%;letter-spacing:0px;word-spacing:0px;fill:#000000;fill-opacity:1;stroke:none;font-family:cmss10;-inkscape-font-specification:cmss10"
       x="94.123352"
       y="9.5412092"
       id="text3147-5"
       sodipodi:linespacing="125%"
       transform="matrix(0,1,1,0,0,0)"><tspan
         sodipodi:role="line"
         id="tspan3149-7"
         x="94.123352"
         y="9.5412092"
         style="font-size:28.79999924px">frequency</tspan></text>
<text
       xml:space="preserve"
       style="font-size:16px;font-style:normal;font-variant:normal;font-weight:normal;font-stretch:normal;line-height:125%;letter-spacing:0px;word-spacing:0px;fill:#000000;fill-opacity:1;stroke:none;font-family:cmss10;-inkscape-font-specification:cmss10"
       x="633.61493"
       y="-360.35526"
       id="text3147-6"
       sodipodi:linespacing="125%"
       transform="scale(1,-1)"><tspan
         sodipodi:role="line"
         id="tspan3149-1"
         x="633.61493"
         y="-360.35526"
         style="font-size:28.79999924px">444bp</tspan></text>
</g></svg>