<?xml version="1.0" encoding="UTF-8" standalone="no"?>
<!-- Created with Inkscape (http://www.inkscape.org/) -->

<svg
   xmlns:dc="http://purl.org/dc/elements/1.1/"
   xmlns:cc="http://creativecommons.org/ns#"
   xmlns:rdf="http://www.w3.org/1999/02/22-rdf-syntax-ns#"
   xmlns:svg="http://www.w3.org/2000/svg"
   xmlns="http://www.w3.org/2000/svg"
   xmlns:sodipodi="http://sodipodi.sourceforge.net/DTD/sodipodi-0.dtd"
   xmlns:inkscape="http://www.inkscape.org/namespaces/inkscape"
   width="414.90146"
   height="227.30093"
   id="svg3149"
   version="1.1"
   inkscape:version="0.48.3.1 r9886"
   sodipodi:docname="hgt-splitread-coverage1.svg">
  <defs
     id="defs3151" />
  <sodipodi:namedview
     id="base"
     pagecolor="#ffffff"
     bordercolor="#666666"
     borderopacity="1.0"
     inkscape:pageopacity="0.0"
     inkscape:pageshadow="2"
     inkscape:zoom="1.4"
     inkscape:cx="192.20189"
     inkscape:cy="290.90713"
     inkscape:document-units="px"
     inkscape:current-layer="layer1"
     showgrid="true"
     fit-margin-top="0"
     fit-margin-left="0"
     fit-margin-right="0"
     fit-margin-bottom="0"
     inkscape:window-width="1276"
     inkscape:window-height="1546"
     inkscape:window-x="0"
     inkscape:window-y="0"
     inkscape:window-maximized="0">
    <inkscape:grid
       type="xygrid"
       id="grid3157"
       empspacing="5"
       visible="true"
       enabled="true"
       snapvisiblegridlinesonly="true"
       originx="-32.5px"
       originy="-737.31479px" />
  </sodipodi:namedview>
  <metadata
     id="metadata3154">
    <rdf:RDF>
      <cc:Work
         rdf:about="">
        <dc:format>image/svg+xml</dc:format>
        <dc:type
           rdf:resource="http://purl.org/dc/dcmitype/StillImage" />
        <dc:title></dc:title>
      </cc:Work>
    </rdf:RDF>
  </metadata>
  <g
     inkscape:label="Layer 1"
     inkscape:groupmode="layer"
     id="layer1"
     transform="translate(-32.5,-87.746472)">
    <path
       style="fill:#3f76cf;fill-opacity:1;stroke:#3f76cf;stroke-width:5;stroke-linecap:round;stroke-linejoin:miter;stroke-miterlimit:4;stroke-opacity:1;stroke-dasharray:none"
       d="m 40,132.36218 260,0 0,0 0,0"
       id="path3159"
       inkscape:connector-curvature="0"
       sodipodi:nodetypes="cccc" />
    <path
       style="fill:none;stroke:#96d8a5;stroke-width:5;stroke-linecap:round;stroke-linejoin:miter;stroke-miterlimit:4;stroke-opacity:1;stroke-dasharray:none"
       d="m 35,260.36218 260,0 0,0 0,0"
       id="path3159-5"
       inkscape:connector-curvature="0" />
    <path
       style="fill:none;stroke:#4c4c4c;stroke-width:2;stroke-linecap:butt;stroke-linejoin:miter;stroke-miterlimit:4;stroke-opacity:1;stroke-dasharray:none"
       d="m 40,122.36218 c 0,0 -4.642383,-21.14304 0,-22.999997 25,-10 24.039215,5.127437 35,4.999997 10.960785,-0.12743 17.389559,-4.656331 30,-4.999997 12.61044,-0.343666 35.84006,-3.67392 45,4.999997 9.15994,8.67392 5,18 5,18"
       id="path4251"
       inkscape:connector-curvature="0"
       sodipodi:nodetypes="cszzzc" />
    <path
       style="fill:none;stroke:#4c4c4c;stroke-width:2;stroke-linecap:butt;stroke-linejoin:miter;stroke-miterlimit:4;stroke-opacity:1;stroke-dasharray:none"
       d="m 200,122.36218 c 0,0 0,-21 5,-21 5,0 12.5,10 15,10 2.5,0 10,-14.999997 10,-19.999997 0,-5 23.32021,-1.576884 30,0 6.67979,1.576884 5.02986,3.161424 10,5 4.97014,1.838576 13.75235,-1.927295 20,4.999997 6.24765,6.9273 5,21 5,21"
       id="path4253"
       inkscape:connector-curvature="0"
       sodipodi:nodetypes="czzzzzzc" />
    <path
       style="fill:none;stroke:#4c4c4c;stroke-width:2;stroke-linecap:butt;stroke-linejoin:miter;stroke-miterlimit:4;stroke-opacity:1;stroke-dasharray:none"
       d="m 35,255.36218 c 0,0 17.389559,-4.65633 30,-5 12.610441,-0.34367 32.067747,7.30648 45,5 12.93225,-2.30648 19.5584,-9.40101 30,-9 10.4416,0.40101 15.24616,7.14805 25,9 9.75384,1.85195 22.33966,2.84055 30,-5 7.66034,-7.84055 1.7209,-23.14241 10,-29 8.2791,-5.85759 9.96655,4.00649 20,5 10.03345,0.99351 17.33968,-7.66032 25,0 7.66032,7.66032 2.86318,15.77118 10,24 7.13682,8.22882 35,5 35,5"
       id="path4255"
       inkscape:connector-curvature="0"
       sodipodi:nodetypes="czzzzzzzzzc" />
    <path
       style="fill:#cccccc;fill-opacity:1;stroke:#484848;stroke-width:1;stroke-linecap:round;stroke-linejoin:round;stroke-miterlimit:4;stroke-opacity:1;stroke-dasharray:none"
       d="m 80,151.5474 0,-9.18522 -37.81837,0 -4.59261,4.59261 4.59261,4.59261 z"
       id="path71141-0-6-4"
       inkscape:connector-curvature="0"
       sodipodi:nodetypes="cccccc" />
    <path
       style="fill:#cccccc;fill-opacity:1;stroke:#484848;stroke-width:1;stroke-linecap:round;stroke-linejoin:round;stroke-miterlimit:4;stroke-opacity:1;stroke-dasharray:none"
       d="m 107.18163,158.17696 0,9.18522 37.81837,0 4.59261,-4.59261 L 145,158.17696 z"
       id="path71141-0-6-8"
       inkscape:connector-curvature="0"
       sodipodi:nodetypes="cccccc" />
    <path
       style="fill:#cccccc;fill-opacity:1;stroke:#484848;stroke-width:1;stroke-linecap:round;stroke-linejoin:round;stroke-miterlimit:4;stroke-opacity:1;stroke-dasharray:none"
       d="m 274.59261,171.5474 0,-9.18522 -37.81837,0 -4.59261,4.59261 4.59261,4.59261 z"
       id="path71141-0-6-2"
       inkscape:connector-curvature="0"
       sodipodi:nodetypes="cccccc" />
    <path
       style="fill:#cccccc;fill-opacity:1;stroke:#484848;stroke-width:1;stroke-linecap:round;stroke-linejoin:round;stroke-miterlimit:4;stroke-opacity:1;stroke-dasharray:none"
       d="m 202.18163,142.36218 0,9.18522 37.81837,0 4.59261,-4.59261 L 240,142.36218 z"
       id="path71141-0-6-7"
       inkscape:connector-curvature="0"
       sodipodi:nodetypes="cccccc" />
    <path
       style="fill:#cccccc;fill-opacity:1;stroke:#484848;stroke-width:1;stroke-linecap:round;stroke-linejoin:round;stroke-miterlimit:4;stroke-opacity:1;stroke-dasharray:none"
       d="m 252.18163,142.36218 0,9.18522 37.81837,0 4.59261,-4.59261 L 290,142.36218 z"
       id="path71141-0-6-72"
       inkscape:connector-curvature="0"
       sodipodi:nodetypes="cccccc" />
    <path
       style="fill:#cccccc;fill-opacity:1;stroke:#484848;stroke-width:1;stroke-linecap:round;stroke-linejoin:round;stroke-miterlimit:4;stroke-opacity:1;stroke-dasharray:none"
       d="m 87.18163,172.36218 0,9.18522 37.81837,0 4.59261,-4.59261 L 125,172.36218 z"
       id="path71141-0-6-5"
       inkscape:connector-curvature="0"
       sodipodi:nodetypes="cccccc" />
    <path
       style="fill:#cccccc;fill-opacity:1;stroke:#484848;stroke-width:1;stroke-linecap:round;stroke-linejoin:round;stroke-miterlimit:4;stroke-opacity:1;stroke-dasharray:none"
       d="m 95,167.36218 0,-9.18522 -37.81837,0 -4.59261,4.59261 4.59261,4.59261 z"
       id="path71141-0-6-4-1"
       inkscape:connector-curvature="0"
       sodipodi:nodetypes="cccccc" />
    <path
       style="fill:#cccccc;fill-opacity:1;stroke:#484848;stroke-width:1;stroke-linecap:round;stroke-linejoin:round;stroke-miterlimit:4;stroke-opacity:1;stroke-dasharray:none"
       d="m 245,187.36218 0,-9.18522 -37.81837,0 -4.59261,4.59261 4.59261,4.59261 z"
       id="path71141-0-6-2-2"
       inkscape:connector-curvature="0"
       sodipodi:nodetypes="cccccc" />
    <path
       style="fill:#cccccc;fill-opacity:1;stroke:#484848;stroke-width:1;stroke-linecap:round;stroke-linejoin:round;stroke-miterlimit:4;stroke-opacity:1;stroke-dasharray:none"
       d="m 220,289.17696 0,9.18522 37.81837,0 4.59261,-4.59261 -4.59261,-4.59261 z"
       id="path71141-0-6-7-5"
       inkscape:connector-curvature="0"
       sodipodi:nodetypes="cccccc" />
    <path
       style="fill:#cccccc;fill-opacity:1;stroke:#484848;stroke-width:1;stroke-linecap:round;stroke-linejoin:round;stroke-miterlimit:4;stroke-opacity:1;stroke-dasharray:none"
       d="m 235,283.36218 0,-9.18522 -37.81837,0 -4.59261,4.59261 4.59261,4.59261 z"
       id="path71141-0-6-2-2-1"
       inkscape:connector-curvature="0"
       sodipodi:nodetypes="cccccc" />
    <path
       style="fill:none;stroke:#a1bce7;stroke-width:5;stroke-linecap:butt;stroke-linejoin:miter;stroke-miterlimit:4;stroke-opacity:1;stroke-dasharray:none"
       d="m 155,132.36218 45,0"
       id="path4661"
       inkscape:connector-curvature="0" />
    <path
       style="fill:none;stroke:#3da555;stroke-width:5;stroke-linecap:butt;stroke-linejoin:miter;stroke-miterlimit:4;stroke-opacity:1;stroke-dasharray:none"
       d="m 195,260.36218 65,0"
       id="path4661-1"
       inkscape:connector-curvature="0"
       sodipodi:nodetypes="cc" />
    <text
       xml:space="preserve"
       style="font-size:24px;font-style:normal;font-weight:normal;line-height:125%;letter-spacing:0px;word-spacing:0px;fill:#3f76cf;fill-opacity:1;stroke:none;font-family:Sans"
       x="327.12021"
       y="140.17712"
       id="text4681"
       sodipodi:linespacing="125%"><tspan
         sodipodi:role="line"
         id="tspan4683"
         x="327.12021"
         y="140.17712"
         style="font-size:24px;font-weight:bold;fill:#3f76cf;fill-opacity:1;-inkscape-font-specification:Sans Bold">Acceptor</tspan></text>
    <text
       xml:space="preserve"
       style="font-size:24px;font-style:normal;font-weight:normal;line-height:125%;letter-spacing:0px;word-spacing:0px;fill:#3da555;fill-opacity:1;stroke:none;font-family:Sans"
       x="324.51279"
       y="271.08484"
       id="text4681-2"
       sodipodi:linespacing="125%"><tspan
         sodipodi:role="line"
         id="tspan4683-7"
         x="324.51279"
         y="271.08484"
         style="font-size:24px;font-weight:bold;fill:#3da555;fill-opacity:1;-inkscape-font-specification:Sans Bold">Donor</tspan></text>
  </g>
</svg>
