<?xml version="1.0" encoding="UTF-8" standalone="no"?>
<!-- Created with Inkscape (http://www.inkscape.org/) -->

<svg
   xmlns:dc="http://purl.org/dc/elements/1.1/"
   xmlns:cc="http://creativecommons.org/ns#"
   xmlns:rdf="http://www.w3.org/1999/02/22-rdf-syntax-ns#"
   xmlns:svg="http://www.w3.org/2000/svg"
   xmlns="http://www.w3.org/2000/svg"
   xmlns:sodipodi="http://sodipodi.sourceforge.net/DTD/sodipodi-0.dtd"
   xmlns:inkscape="http://www.inkscape.org/namespaces/inkscape"
   id="svg2"
   version="1.1"
   inkscape:version="0.48.3.1 r9886"
   width="152.67476"
   height="140.35849"
   xml:space="preserve"
   sodipodi:docname="indels-by-size.svg"><metadata
     id="metadata8"><rdf:RDF><cc:Work
         rdf:about=""><dc:format>image/svg+xml</dc:format><dc:type
           rdf:resource="http://purl.org/dc/dcmitype/StillImage" /><dc:title /></cc:Work></rdf:RDF></metadata><defs
     id="defs6"><clipPath
       clipPathUnits="userSpaceOnUse"
       id="clipPath16"><path
         d="m 3,260 39.52,0 0,268 L 3,528 3,260 z"
         id="path18"
         inkscape:connector-curvature="0" /></clipPath><clipPath
       clipPathUnits="userSpaceOnUse"
       id="clipPath56"><path
         d="M 0,0 594,0 594,783 0,783 0,0 z"
         id="path58"
         inkscape:connector-curvature="0" /></clipPath><clipPath
       clipPathUnits="userSpaceOnUse"
       id="clipPath64"><path
         d="m -1188,863.504 1782,0 0,-944.008 -1782,0 0,944.008 z"
         id="path66"
         inkscape:connector-curvature="0" /></clipPath><clipPath
       clipPathUnits="userSpaceOnUse"
       id="clipPath72"><path
         d="m -1188,863.504 1782,0 0,-944.008 -1782,0 0,944.008 z"
         id="path74"
         inkscape:connector-curvature="0" /></clipPath><clipPath
       clipPathUnits="userSpaceOnUse"
       id="clipPath114"><path
         d="m 594,863.504 1782,0 0,-944.008 -1782,0 0,944.008 z"
         id="path116"
         inkscape:connector-curvature="0" /></clipPath><clipPath
       clipPathUnits="userSpaceOnUse"
       id="clipPath122"><path
         d="m 594,863.504 1782,0 0,-944.008 -1782,0 0,944.008 z"
         id="path124"
         inkscape:connector-curvature="0" /></clipPath><clipPath
       clipPathUnits="userSpaceOnUse"
       id="clipPath818"><path
         d="m 302.669,201.181 248.811,0 0,122.039 -248.811,0 0,-122.039 z"
         id="path820"
         inkscape:connector-curvature="0" /></clipPath></defs><sodipodi:namedview
     pagecolor="#ffffff"
     bordercolor="#666666"
     borderopacity="1"
     objecttolerance="10"
     gridtolerance="10"
     guidetolerance="10"
     inkscape:pageopacity="0"
     inkscape:pageshadow="2"
     inkscape:window-width="1898"
     inkscape:window-height="1246"
     id="namedview4"
     showgrid="false"
     fit-margin-top="0"
     fit-margin-left="0"
     fit-margin-right="0"
     fit-margin-bottom="0"
     inkscape:zoom="3.8579821"
     inkscape:cx="45.005471"
     inkscape:cy="105.84273"
     inkscape:window-x="0"
     inkscape:window-y="0"
     inkscape:window-maximized="0"
     inkscape:current-layer="g10" /><g
     id="g10"
     inkscape:groupmode="layer"
     inkscape:label="Gonl2014"
     transform="matrix(1.25,0,0,-1.25,-528.61683,391.96255)"><text
   transform="scale(1,-1)"
   id="text1060"
   x="438.04959"
   y="-289.3941"><tspan
     style="font-size:6px;font-variant:normal;font-weight:normal;font-stretch:normal;writing-mode:lr-tb;fill:#000000;fill-opacity:1;fill-rule:nonzero;stroke:none;font-family:'HDHJJ C+ Helvetica LT Std';-inkscape-font-specification:HelveticaLTStd-Roman"
     x="438.04959 441.38559"
     y="-289.3941"
     sodipodi:role="line"
     id="tspan1062">1 </tspan></text>


<text
   transform="scale(1,-1)"
   id="text1064"
   x="443.05389"
   y="-289.3941"><tspan
     style="font-size:6px;font-variant:normal;font-weight:normal;font-stretch:normal;writing-mode:lr-tb;fill:#000000;fill-opacity:1;fill-rule:nonzero;stroke:none;font-family:'HDHJJ C+ Helvetica LT Std';-inkscape-font-specification:HelveticaLTStd-Roman"
     x="443.05389"
     y="-289.3941"
     id="tspan1066">M</tspan></text>


<text
   transform="matrix(0,1,1,0,0,0)"
   id="text1068"
   x="263.48401"
   y="427.34659"><tspan
     style="font-size:6px;font-variant:normal;font-weight:normal;font-stretch:normal;writing-mode:lr-tb;fill:#000000;fill-opacity:1;fill-rule:nonzero;stroke:none;font-family:'HDHJJ C+ Helvetica LT Std';-inkscape-font-specification:HelveticaLTStd-Roman"
     x="263.48401 267.81601 271.15201 274.48801 277.82401"
     y="427.34659"
     sodipodi:role="line"
     id="tspan1070">Count</tspan></text>


<text
   transform="scale(1,-1)"
   id="text1072"
   x="429.69861"
   y="-269.67151"><tspan
     style="font-size:6px;font-variant:normal;font-weight:normal;font-stretch:normal;writing-mode:lr-tb;fill:#000000;fill-opacity:1;fill-rule:nonzero;stroke:none;font-family:'HDHJJ C+ Helvetica LT Std';-inkscape-font-specification:HelveticaLTStd-Roman"
     x="429.69861 433.03461 436.37061 438.0386 441.3746 444.7106"
     y="-269.67151"
     sodipodi:role="line"
     id="tspan1074">10,000</tspan></text>


<text
   transform="scale(1,-1)"
   id="text1076"
   x="438.04361"
   y="-249.9498"><tspan
     style="font-size:6px;font-variant:normal;font-weight:normal;font-stretch:normal;writing-mode:lr-tb;fill:#000000;fill-opacity:1;fill-rule:nonzero;stroke:none;font-family:'HDHJJ C+ Helvetica LT Std';-inkscape-font-specification:HelveticaLTStd-Roman"
     x="438.04361 441.37961 444.71561"
     y="-249.9498"
     sodipodi:role="line"
     id="tspan1078">100</tspan></text>


<text
   transform="scale(1,-1)"
   id="text1080"
   x="444.71661"
   y="-230.2271"><tspan
     style="font-size:6px;font-variant:normal;font-weight:normal;font-stretch:normal;writing-mode:lr-tb;fill:#000000;fill-opacity:1;fill-rule:nonzero;stroke:none;font-family:'HDHJJ C+ Helvetica LT Std';-inkscape-font-specification:HelveticaLTStd-Roman"
     x="444.71661"
     y="-230.2271"
     id="tspan1082">0</tspan></text>


<text
   transform="scale(1,-1)"
   id="text1084"
   x="431.3786"
   y="-309.11691"><tspan
     style="font-size:6px;font-variant:normal;font-weight:normal;font-stretch:normal;writing-mode:lr-tb;fill:#000000;fill-opacity:1;fill-rule:nonzero;stroke:none;font-family:'HDHJJ C+ Helvetica LT Std';-inkscape-font-specification:HelveticaLTStd-Roman"
     x="431.3786 434.7146 438.0506 441.3866"
     y="-309.11691"
     sodipodi:role="line"
     id="tspan1086">100 </tspan></text>


<text
   transform="scale(1,-1)"
   id="text1088"
   x="443.0553"
   y="-309.11691"><tspan
     style="font-size:6px;font-variant:normal;font-weight:normal;font-stretch:normal;writing-mode:lr-tb;fill:#000000;fill-opacity:1;fill-rule:nonzero;stroke:none;font-family:'HDHJJ C+ Helvetica LT Std';-inkscape-font-specification:HelveticaLTStd-Roman"
     x="443.0553"
     y="-309.11691"
     id="tspan1090">M</tspan></text>


<text
   transform="scale(1,-1)"
   id="text1092"
   x="475.26459"
   y="-202.5313"><tspan
     style="font-size:6px;font-variant:normal;font-weight:normal;font-stretch:normal;writing-mode:lr-tb;fill:#000000;fill-opacity:1;fill-rule:nonzero;stroke:none;font-family:'HDHJJ C+ Helvetica LT Std';-inkscape-font-specification:HelveticaLTStd-Roman"
     x="475.26459 479.2666 482.6026 484.60059 485.93259 489.26859 492.60461 494.27261 495.94061 498.94061 500.27261 503.27261 506.60861 508.27661 510.2746 513.6106 516.94659"
     y="-202.5313"
     sodipodi:role="line"
     id="tspan1094">Variant size (bp)</tspan></text>


<text
   transform="matrix(0.70710678,0.70710678,0.70710678,-0.70710678,0,0)"
   id="text1096"
   x="527.58929"
   y="216.90451"
   style="font-size:12px"><tspan
     style="font-size:6.00008392px;font-variant:normal;font-weight:normal;font-stretch:normal;writing-mode:lr-tb;fill:#000000;fill-opacity:1;fill-rule:nonzero;stroke:none;font-family:'HDHJJ C+ Helvetica LT Std';-inkscape-font-specification:HelveticaLTStd-Roman"
     x="527.58929"
     y="216.90451"
     id="tspan1098">0</tspan></text>


<text
   transform="matrix(0.70710678,0.70710678,0.70710678,-0.70710678,0,0)"
   id="text1100"
   x="533.01703"
   y="225.66698"
   style="font-size:12px"><tspan
     style="font-size:6.00008392px;font-variant:normal;font-weight:normal;font-stretch:normal;writing-mode:lr-tb;fill:#000000;fill-opacity:1;fill-rule:nonzero;stroke:none;font-family:'HDHJJ C+ Helvetica LT Std';-inkscape-font-specification:HelveticaLTStd-Roman"
     x="533.01703 536.35309"
     y="225.66698"
     sodipodi:role="line"
     id="tspan1102">10</tspan></text>


<path
   d="m 454.297,228.636 85.616,0 c 0.138,0 0.25,0.112 0.25,0.25 0,0.138 -0.112,0.25 -0.25,0.25 l -85.616,0 c -0.138,0 -0.25,-0.112 -0.25,-0.25 0,-0.138 0.112,-0.25 0.25,-0.25"
   style="fill:#000000;fill-opacity:1;fill-rule:nonzero;stroke:none"
   id="path1106"
   inkscape:connector-curvature="0" /><path
   d="m 454.047,228.886 0,-2.65 c 0,-0.138 0.112,-0.25 0.25,-0.25 0.138,0 0.25,0.112 0.25,0.25 l 0,2.65 c 0,0.138 -0.112,0.25 -0.25,0.25 -0.138,0 -0.25,-0.112 -0.25,-0.25"
   style="fill:#000000;fill-opacity:1;fill-rule:nonzero;stroke:none"
   id="path1108"
   inkscape:connector-curvature="0" /><path
   d="m 466.279,228.886 0,-2.65 c 0,-0.138 0.112,-0.25 0.25,-0.25 0.138,0 0.25,0.112 0.25,0.25 l 0,2.65 c 0,0.138 -0.112,0.25 -0.25,0.25 -0.138,0 -0.25,-0.112 -0.25,-0.25"
   style="fill:#000000;fill-opacity:1;fill-rule:nonzero;stroke:none"
   id="path1110"
   inkscape:connector-curvature="0" /><path
   d="m 478.51,228.886 0,-2.65 c 0,-0.138 0.112,-0.25 0.25,-0.25 0.138,0 0.25,0.112 0.25,0.25 l 0,2.65 c 0,0.138 -0.112,0.25 -0.25,0.25 -0.138,0 -0.25,-0.112 -0.25,-0.25"
   style="fill:#000000;fill-opacity:1;fill-rule:nonzero;stroke:none"
   id="path1112"
   inkscape:connector-curvature="0" /><path
   d="m 490.739,228.886 0,-2.65 c 0,-0.138 0.112,-0.25 0.25,-0.25 0.138,0 0.25,0.112 0.25,0.25 l 0,2.65 c 0,0.138 -0.112,0.25 -0.25,0.25 -0.138,0 -0.25,-0.112 -0.25,-0.25"
   style="fill:#000000;fill-opacity:1;fill-rule:nonzero;stroke:none"
   id="path1114"
   inkscape:connector-curvature="0" /><path
   d="m 502.972,228.886 0,-2.65 c 0,-0.138 0.112,-0.25 0.25,-0.25 0.138,0 0.25,0.112 0.25,0.25 l 0,2.65 c 0,0.138 -0.112,0.25 -0.25,0.25 -0.138,0 -0.25,-0.112 -0.25,-0.25"
   style="fill:#000000;fill-opacity:1;fill-rule:nonzero;stroke:none"
   id="path1116"
   inkscape:connector-curvature="0" /><path
   d="m 515.201,228.886 0,-2.65 c 0,-0.138 0.112,-0.25 0.25,-0.25 0.138,0 0.25,0.112 0.25,0.25 l 0,2.65 c 0,0.138 -0.112,0.25 -0.25,0.25 -0.138,0 -0.25,-0.112 -0.25,-0.25"
   style="fill:#000000;fill-opacity:1;fill-rule:nonzero;stroke:none"
   id="path1118"
   inkscape:connector-curvature="0" /><path
   d="m 527.432,228.886 0,-2.65 c 0,-0.138 0.112,-0.25 0.25,-0.25 0.138,0 0.25,0.112 0.25,0.25 l 0,2.65 c 0,0.138 -0.112,0.25 -0.25,0.25 -0.138,0 -0.25,-0.112 -0.25,-0.25"
   style="fill:#000000;fill-opacity:1;fill-rule:nonzero;stroke:none"
   id="path1120"
   inkscape:connector-curvature="0" /><path
   d="m 539.663,228.886 0,-2.65 c 0,-0.138 0.112,-0.25 0.25,-0.25 0.138,0 0.25,0.112 0.25,0.25 l 0,2.65 c 0,0.138 -0.112,0.25 -0.25,0.25 -0.138,0 -0.25,-0.112 -0.25,-0.25"
   style="fill:#000000;fill-opacity:1;fill-rule:nonzero;stroke:none"
   id="path1122"
   inkscape:connector-curvature="0" /><path
   d="m 453.472,232.043 0,78.889 c 0,0.138 -0.112,0.25 -0.25,0.25 -0.138,0 -0.25,-0.112 -0.25,-0.25 l 0,-78.889 c 0,-0.138 0.112,-0.25 0.25,-0.25 0.138,0 0.25,0.112 0.25,0.25"
   style="fill:#000000;fill-opacity:1;fill-rule:nonzero;stroke:none"
   id="path1124"
   inkscape:connector-curvature="0" /><path
   d="m 453.222,232.293 -2.652,0 c -0.138,0 -0.25,-0.112 -0.25,-0.25 0,-0.138 0.112,-0.25 0.25,-0.25 l 2.652,0 c 0.138,0 0.25,0.112 0.25,0.25 0,0.138 -0.112,0.25 -0.25,0.25"
   style="fill:#000000;fill-opacity:1;fill-rule:nonzero;stroke:none"
   id="path1126"
   inkscape:connector-curvature="0" /><path
   d="m 453.222,252.014 -2.652,0 c -0.138,0 -0.25,-0.112 -0.25,-0.25 0,-0.138 0.112,-0.25 0.25,-0.25 l 2.652,0 c 0.138,0 0.25,0.112 0.25,0.25 0,0.138 -0.112,0.25 -0.25,0.25"
   style="fill:#000000;fill-opacity:1;fill-rule:nonzero;stroke:none"
   id="path1128"
   inkscape:connector-curvature="0" /><path
   d="m 453.222,271.737 -2.652,0 c -0.138,0 -0.25,-0.112 -0.25,-0.25 0,-0.138 0.112,-0.25 0.25,-0.25 l 2.652,0 c 0.138,0 0.25,0.112 0.25,0.25 0,0.138 -0.112,0.25 -0.25,0.25"
   style="fill:#000000;fill-opacity:1;fill-rule:nonzero;stroke:none"
   id="path1130"
   inkscape:connector-curvature="0" /><path
   d="m 453.222,291.46 -2.652,0 c -0.138,0 -0.25,-0.112 -0.25,-0.25 0,-0.138 0.112,-0.25 0.25,-0.25 l 2.652,0 c 0.138,0 0.25,0.112 0.25,0.25 0,0.138 -0.112,0.25 -0.25,0.25"
   style="fill:#000000;fill-opacity:1;fill-rule:nonzero;stroke:none"
   id="path1132"
   inkscape:connector-curvature="0" /><path
   d="m 453.222,311.182 -2.652,0 c -0.138,0 -0.25,-0.112 -0.25,-0.25 0,-0.138 0.112,-0.25 0.25,-0.25 l 2.652,0 c 0.138,0 0.25,0.112 0.25,0.25 0,0.138 -0.112,0.25 -0.25,0.25"
   style="fill:#000000;fill-opacity:1;fill-rule:nonzero;stroke:none"
   id="path1134"
   inkscape:connector-curvature="0" />

<text
   transform="scale(1,-1)"
   id="text1146"
   x="462.84659"
   y="-306.6871"><tspan
     style="font-size:6px;font-variant:normal;font-weight:normal;font-stretch:normal;writing-mode:lr-tb;fill:#000000;fill-opacity:1;fill-rule:nonzero;stroke:none;font-family:'HDHJJ C+ Helvetica LT Std';-inkscape-font-specification:HelveticaLTStd-Roman"
     x="462.84659"
     y="-306.6871"
     sodipodi:role="line"
     id="tspan1148">GoNL</tspan></text>


<text
   transform="scale(1,-1)"
   id="text1150"
   x="462.84659"
   y="-299.52991"><tspan
     style="font-size:6px;font-variant:normal;font-weight:normal;font-stretch:normal;writing-mode:lr-tb;fill:#000000;fill-opacity:1;fill-rule:nonzero;stroke:none;font-family:'HDHJJ C+ Helvetica LT Std';-inkscape-font-specification:HelveticaLTStd-Roman"
     sodipodi:role="line"
     id="tspan1152"
     x="462.84659"
     y="-299.52991">dbSNP + 1000G</tspan></text>


<path
   d="m 459.981,299.345 -4,0 0,4 4,0 0,-4 z"
   style="fill:#2f54a0;fill-opacity:1;fill-rule:nonzero;stroke:none"
   id="path1154"
   inkscape:connector-curvature="0" /><path
   d="m 459.981,306.503 -4,0 0,4 4,0 0,-4 z"
   style="fill:#ffa400;fill-opacity:1;fill-rule:nonzero;stroke:none"
   id="path1156"
   inkscape:connector-curvature="0" />


<text
   transform="matrix(0.70710678,0.70710678,0.70710678,-0.70710678,0,0)"
   id="text1170"
   x="512.39569"
   y="208.38458"
   style="font-size:12px"><tspan
     style="font-size:6.00008392px;font-variant:normal;font-weight:normal;font-stretch:normal;writing-mode:lr-tb;fill:#000000;fill-opacity:1;fill-rule:nonzero;stroke:none;font-family:'HDHJJ C+ Helvetica LT Std';-inkscape-font-specification:HelveticaLTStd-Roman"
     x="512.39569 515.73169 519.06775"
     y="208.38458"
     sodipodi:role="line"
     id="tspan1172">–10</tspan></text>


<text
   transform="matrix(0.70710678,0.70710678,0.70710678,-0.70710678,0,0)"
   id="text1174"
   x="500.09695"
   y="199.42059"
   style="font-size:12px"><tspan
     style="font-size:6.00008392px;font-variant:normal;font-weight:normal;font-stretch:normal;writing-mode:lr-tb;fill:#000000;fill-opacity:1;fill-rule:nonzero;stroke:none;font-family:'HDHJJ C+ Helvetica LT Std';-inkscape-font-specification:HelveticaLTStd-Roman"
     x="500.09695 503.43301 506.76904 510.1051"
     y="199.42059"
     sodipodi:role="line"
     id="tspan1176">–100</tspan></text>


<text
   transform="matrix(0.70710678,0.70710678,0.70710678,-0.70710678,0,0)"
   id="text1178"
   x="486.59616"
   y="190.93036"
   style="font-size:12px"><tspan
     style="font-size:6.00008392px;font-variant:normal;font-weight:normal;font-stretch:normal;writing-mode:lr-tb;fill:#000000;fill-opacity:1;fill-rule:nonzero;stroke:none;font-family:'HDHJJ C+ Helvetica LT Std';-inkscape-font-specification:HelveticaLTStd-Roman"
     x="486.59616 489.93222 493.26825 494.93628 498.27234 501.60837"
     y="190.93036"
     sodipodi:role="line"
     id="tspan1180">–1,000</tspan></text>


<text
   transform="matrix(0.70710678,0.70710678,0.70710678,-0.70710678,0,0)"
   id="text1182"
   x="474.70404"
   y="182.37296"
   style="font-size:12px"><tspan
     style="font-size:6.00008392px;font-variant:normal;font-weight:normal;font-stretch:normal;writing-mode:lr-tb;fill:#000000;fill-opacity:1;fill-rule:nonzero;stroke:none;font-family:'HDHJJ C+ Helvetica LT Std';-inkscape-font-specification:HelveticaLTStd-Roman"
     x="474.70404 478.0401 481.37613 484.71219 486.38022 489.71625 493.05231"
     y="182.37296"
     sodipodi:role="line"
     id="tspan1184">–10,000</tspan></text>


<text
   transform="matrix(0.70710678,0.70710678,0.70710678,-0.70710678,0,0)"
   id="text1186"
   x="461.21811"
   y="173.89191"
   style="font-size:12px"><tspan
     style="font-size:6.00008392px;font-variant:normal;font-weight:normal;font-stretch:normal;writing-mode:lr-tb;fill:#000000;fill-opacity:1;fill-rule:nonzero;stroke:none;font-family:'HDHJJ C+ Helvetica LT Std';-inkscape-font-specification:HelveticaLTStd-Roman"
     x="461.21811 464.55414 467.8902 471.22626 474.56229 476.23032 479.56638 482.9024 486.23846"
     y="173.89191"
     sodipodi:role="line"
     id="tspan1188">–100,000 </tspan></text>


<text
   transform="matrix(0.70710678,0.70710678,0.70710678,-0.70710678,0,0)"
   id="text1190"
   x="465.77753"
   y="165.09409"
   style="font-size:12px"><tspan
     style="font-size:6.00008392px;font-variant:normal;font-weight:normal;font-stretch:normal;writing-mode:lr-tb;fill:#000000;fill-opacity:1;fill-rule:nonzero;stroke:none;font-family:'HDHJJ C+ Helvetica LT Std';-inkscape-font-specification:HelveticaLTStd-Roman"
     x="465.77753 469.11359 472.44962"
     y="165.09409"
     sodipodi:role="line"
     id="tspan1192">–1 </tspan></text>


<text
   transform="matrix(0.70710678,0.70710678,0.70710678,-0.70710678,0,0)"
   id="text1194"
   x="474.11743"
   y="165.09409"
   style="font-size:12px"><tspan
     style="font-size:6.00008392px;font-variant:normal;font-weight:normal;font-stretch:normal;writing-mode:lr-tb;fill:#000000;fill-opacity:1;fill-rule:nonzero;stroke:none;font-family:'HDHJJ C+ Helvetica LT Std';-inkscape-font-specification:HelveticaLTStd-Roman"
     x="474.11743"
     y="165.09409"
     id="tspan1196">M</tspan></text>


<path
   d="m 456.743,231.813 2.556,0 2.336,2.836 2.513,-3.047 2.586,6.273 2.266,3.636 2.432,-2.948 2.638,3.639 2.434,6.279 2.407,1.935 2.401,2.289 2.399,0.369 2.443,0.984 2.382,0.269 2.338,-0.426 2.464,-2.634 2.409,0.046 2.396,-4.436 2.42,-2.339 2.469,-12.725 2.633,0 2.656,0 2.465,26.574 2.434,8.645 2.447,5.476 2.338,7.808 2.309,-2.433 2.648,1.908 2.494,4.219 2.224,14.228 2.224,-14.447 2.464,-8.161 2.643,-3.201 2.363,2.591 2.326,-6.845 2.453,-5.318 2.45,-4.448 0.402,0.221 -2.443,4.434 -2.436,5.282 -2.568,7.557 -2.53,-2.774 -2.248,2.722 -2.428,8.041 -2.669,17.338 -2.666,-17.063 -2.401,-4.06 -2.245,-1.618 -2.579,2.717 -2.556,-8.539 -2.448,-5.479 -2.455,-8.717 -2.43,-26.199 -2.238,0 -2.255,0 -2.424,12.496 -2.473,2.389 -2.495,4.619 -2.485,-0.046 -2.428,2.595 -2.553,0.465 -2.511,-0.283 -2.452,-0.988 -2.489,-0.383 -2.492,-2.375 -2.487,-2 -2.457,-6.338 -2.256,-3.111 -2.46,2.983 -2.623,-4.21 -2.309,-5.602 -2.381,2.887 -2.553,-3.098 -2.339,0 0,-0.459 z"
   style="fill:#2f54a0;fill-opacity:1;fill-rule:nonzero;stroke:#2f54a0;stroke-opacity:1;stroke-width:0.59999999999999998;stroke-miterlimit:4;stroke-dasharray:none;stroke-linejoin:round;stroke-linecap:round"
   id="path1104"
   inkscape:connector-curvature="0" /><path
   d="m 456.92,236.603 2.428,2.944 2.36,1.675 2.374,0 0.208,0.134 2.415,5.227 2.376,1.265 0.01,0.005 2.446,1.456 0.028,0.02 2.447,1.992 0.004,0.003 2.445,2.087 0.042,0.047 2.442,3.656 2.331,2.874 2.286,-0.959 0.156,-0.007 2.403,0.738 2.401,-0.234 0.029,-0.001 2.415,0.073 2.417,-0.573 c 0.11,-0.027 0.223,0.032 0.265,0.137 l 2.273,5.627 2.209,-3.774 0.113,-0.098 2.447,-0.971 0.253,0.057 2.446,2.644 0.018,0.022 2.444,3.399 0.01,0.014 2.415,3.963 2.344,1.291 2.386,0.025 0.185,0.097 2.447,3.458 0.032,0.063 2.326,7.307 2.177,-2.39 c 0.078,-0.086 0.209,-0.1 0.303,-0.032 l 2.447,1.752 0.071,0.083 2.447,4.846 0.022,0.071 2.214,15.694 2.224,-16.417 0.009,-0.04 2.446,-7.611 0.043,-0.078 2.445,-2.893 0.18,-0.082 0.176,0.088 2.187,2.787 2.309,-6.67 0.012,-0.028 2.445,-4.862 0.022,-0.037 2.447,-3.187 c 0.077,-0.101 0.221,-0.119 0.321,-0.042 0.101,0.077 0.12,0.221 0.043,0.321 l -2.433,3.17 -2.428,4.83 -2.443,7.053 -0.178,0.151 -0.219,-0.085 -2.272,-2.896 -2.234,2.644 -2.427,7.548 -2.443,18.042 c -0.015,0.113 -0.113,0.198 -0.227,0.198 -0.114,10e-4 -0.212,-0.084 -0.227,-0.197 l -2.44,-17.299 -2.405,-4.762 -2.235,-1.6 -2.307,2.532 -0.219,0.07 -0.169,-0.154 -2.437,-7.652 -2.359,-3.333 -2.327,-0.025 -0.108,-0.028 -2.447,-1.349 -0.086,-0.081 -2.442,-4.007 -2.431,-3.381 -2.33,-2.518 -2.227,0.885 -2.405,4.108 -0.215,0.113 -0.196,-0.143 -2.373,-5.877 -2.255,0.535 -0.06,0.006 -2.43,-0.073 -2.432,0.237 -0.09,-0.009 -2.368,-0.728 -2.367,0.994 c -0.094,0.039 -0.203,0.012 -0.267,-0.067 l -2.446,-3.016 -0.013,-0.017 -2.43,-3.639 -2.419,-2.064 -2.432,-1.98 -2.427,-1.445 -2.439,-1.298 -0.101,-0.106 -2.386,-5.165 -2.3,0 -0.133,-0.042 -2.444,-1.736 -0.045,-0.041 -2.447,-2.967 c -0.08,-0.098 -0.066,-0.243 0.031,-0.323 0.098,-0.081 0.242,-0.067 0.323,0.031"
   style="fill:#ffa400;fill-opacity:1;fill-rule:nonzero;stroke:#ffa400;stroke-width:0.59999999999999998;stroke-miterlimit:4;stroke-dasharray:none;stroke-opacity:1;stroke-linecap:round;stroke-linejoin:round"
   id="path1136"
   inkscape:connector-curvature="0" /></g></svg>