<?xml version="1.0" encoding="UTF-8" standalone="no"?>
<!-- Created with Inkscape (http://www.inkscape.org/) -->

<svg
   xmlns:dc="http://purl.org/dc/elements/1.1/"
   xmlns:cc="http://creativecommons.org/ns#"
   xmlns:rdf="http://www.w3.org/1999/02/22-rdf-syntax-ns#"
   xmlns:svg="http://www.w3.org/2000/svg"
   xmlns="http://www.w3.org/2000/svg"
   xmlns:sodipodi="http://sodipodi.sourceforge.net/DTD/sodipodi-0.dtd"
   xmlns:inkscape="http://www.inkscape.org/namespaces/inkscape"
   width="457.80002"
   height="156.7502"
   id="svg2"
   version="1.1"
   inkscape:version="0.48.3.1 r9886"
   sodipodi:docname="linear-vs-pangenome-ref2.svg">
  <defs
     id="defs4">
    <marker
       inkscape:stockid="Arrow1Mend"
       orient="auto"
       refY="0"
       refX="0"
       id="Arrow1Mend"
       style="overflow:visible">
      <path
         id="path3893"
         d="M 0,0 5,-5 -12.5,0 5,5 0,0 z"
         style="fill-rule:evenodd;stroke:#000000;stroke-width:1pt"
         transform="matrix(-0.4,0,0,-0.4,-4,0)"
         inkscape:connector-curvature="0" />
    </marker>
    <marker
       inkscape:stockid="Arrow1Mend"
       orient="auto"
       refY="0"
       refX="0"
       id="Arrow1Mend-3"
       style="overflow:visible">
      <path
         inkscape:connector-curvature="0"
         id="path3893-6"
         d="M 0,0 5,-5 -12.5,0 5,5 0,0 z"
         style="fill-rule:evenodd;stroke:#000000;stroke-width:1pt"
         transform="matrix(-0.4,0,0,-0.4,-4,0)" />
    </marker>
    <marker
       inkscape:stockid="Arrow1Mend"
       orient="auto"
       refY="0"
       refX="0"
       id="Arrow1Mend-2"
       style="overflow:visible">
      <path
         inkscape:connector-curvature="0"
         id="path3893-9"
         d="M 0,0 5,-5 -12.5,0 5,5 0,0 z"
         style="fill-rule:evenodd;stroke:#000000;stroke-width:1pt"
         transform="matrix(-0.4,0,0,-0.4,-4,0)" />
    </marker>
    <marker
       inkscape:stockid="Arrow1Mend"
       orient="auto"
       refY="0"
       refX="0"
       id="Arrow1Mend-7"
       style="overflow:visible">
      <path
         inkscape:connector-curvature="0"
         id="path3893-0"
         d="M 0,0 5,-5 -12.5,0 5,5 0,0 z"
         style="fill-rule:evenodd;stroke:#000000;stroke-width:1pt"
         transform="matrix(-0.4,0,0,-0.4,-4,0)" />
    </marker>
    <marker
       inkscape:stockid="Arrow1Mend"
       orient="auto"
       refY="0"
       refX="0"
       id="Arrow1Mend-34"
       style="overflow:visible">
      <path
         inkscape:connector-curvature="0"
         id="path3893-67"
         d="M 0,0 5,-5 -12.5,0 5,5 0,0 z"
         style="fill-rule:evenodd;stroke:#000000;stroke-width:1pt"
         transform="matrix(-0.4,0,0,-0.4,-4,0)" />
    </marker>
    <marker
       inkscape:stockid="Arrow1Mend"
       orient="auto"
       refY="0"
       refX="0"
       id="Arrow1Mend-6"
       style="overflow:visible">
      <path
         inkscape:connector-curvature="0"
         id="path3893-5"
         d="M 0,0 5,-5 -12.5,0 5,5 0,0 z"
         style="fill-rule:evenodd;stroke:#000000;stroke-width:1pt"
         transform="matrix(-0.4,0,0,-0.4,-4,0)" />
    </marker>
    <marker
       inkscape:stockid="Arrow1Mend"
       orient="auto"
       refY="0"
       refX="0"
       id="Arrow1Mend-344"
       style="overflow:visible">
      <path
         inkscape:connector-curvature="0"
         id="path3893-2"
         d="M 0,0 5,-5 -12.5,0 5,5 0,0 z"
         style="fill-rule:evenodd;stroke:#000000;stroke-width:1pt"
         transform="matrix(-0.4,0,0,-0.4,-4,0)" />
    </marker>
    <marker
       inkscape:stockid="Arrow1Mend"
       orient="auto"
       refY="0"
       refX="0"
       id="Arrow1Mend-27"
       style="overflow:visible">
      <path
         inkscape:connector-curvature="0"
         id="path3893-61"
         d="M 0,0 5,-5 -12.5,0 5,5 0,0 z"
         style="fill-rule:evenodd;stroke:#000000;stroke-width:1pt"
         transform="matrix(-0.4,0,0,-0.4,-4,0)" />
    </marker>
    <marker
       inkscape:stockid="Arrow1Mend"
       orient="auto"
       refY="0"
       refX="0"
       id="Arrow1Mend-0"
       style="overflow:visible">
      <path
         inkscape:connector-curvature="0"
         id="path3893-8"
         d="M 0,0 5,-5 -12.5,0 5,5 0,0 z"
         style="fill-rule:evenodd;stroke:#000000;stroke-width:1pt"
         transform="matrix(-0.4,0,0,-0.4,-4,0)" />
    </marker>
    <marker
       inkscape:stockid="Arrow1Mend"
       orient="auto"
       refY="0"
       refX="0"
       id="Arrow1Mend-29"
       style="overflow:visible">
      <path
         inkscape:connector-curvature="0"
         id="path3893-56"
         d="M 0,0 5,-5 -12.5,0 5,5 0,0 z"
         style="fill-rule:evenodd;stroke:#000000;stroke-width:1pt"
         transform="matrix(-0.4,0,0,-0.4,-4,0)" />
    </marker>
    <marker
       inkscape:stockid="Arrow1Mend"
       orient="auto"
       refY="0"
       refX="0"
       id="Arrow1Mend-79"
       style="overflow:visible">
      <path
         inkscape:connector-curvature="0"
         id="path3893-21"
         d="M 0,0 5,-5 -12.5,0 5,5 0,0 z"
         style="fill-rule:evenodd;stroke:#000000;stroke-width:1pt"
         transform="matrix(-0.4,0,0,-0.4,-4,0)" />
    </marker>
    <marker
       inkscape:stockid="Arrow1Mend"
       orient="auto"
       refY="0"
       refX="0"
       id="Arrow1Mend-1"
       style="overflow:visible">
      <path
         id="path3893-7"
         d="M 0,0 5,-5 -12.5,0 5,5 0,0 z"
         style="fill-rule:evenodd;stroke:#000000;stroke-width:1pt"
         transform="matrix(-0.4,0,0,-0.4,-4,0)"
         inkscape:connector-curvature="0" />
    </marker>
    <marker
       inkscape:stockid="Arrow1Mend"
       orient="auto"
       refY="0"
       refX="0"
       id="marker3076"
       style="overflow:visible">
      <path
         id="path3078"
         d="M 0,0 5,-5 -12.5,0 5,5 0,0 z"
         style="fill-rule:evenodd;stroke:#000000;stroke-width:1pt"
         transform="matrix(-0.4,0,0,-0.4,-4,0)"
         inkscape:connector-curvature="0" />
    </marker>
    <marker
       inkscape:stockid="Arrow1Mend"
       orient="auto"
       refY="0"
       refX="0"
       id="marker3080"
       style="overflow:visible">
      <path
         id="path3082"
         d="M 0,0 5,-5 -12.5,0 5,5 0,0 z"
         style="fill-rule:evenodd;stroke:#000000;stroke-width:1pt"
         transform="matrix(-0.4,0,0,-0.4,-4,0)"
         inkscape:connector-curvature="0" />
    </marker>
    <marker
       inkscape:stockid="Arrow1Mend"
       orient="auto"
       refY="0"
       refX="0"
       id="marker3084"
       style="overflow:visible">
      <path
         id="path3086"
         d="M 0,0 5,-5 -12.5,0 5,5 0,0 z"
         style="fill-rule:evenodd;stroke:#000000;stroke-width:1pt"
         transform="matrix(-0.4,0,0,-0.4,-4,0)"
         inkscape:connector-curvature="0" />
    </marker>
    <marker
       inkscape:stockid="Arrow1Mend"
       orient="auto"
       refY="0"
       refX="0"
       id="marker3088"
       style="overflow:visible">
      <path
         id="path3090"
         d="M 0,0 5,-5 -12.5,0 5,5 0,0 z"
         style="fill-rule:evenodd;stroke:#000000;stroke-width:1pt"
         transform="matrix(-0.4,0,0,-0.4,-4,0)"
         inkscape:connector-curvature="0" />
    </marker>
    <marker
       inkscape:stockid="Arrow1Mend"
       orient="auto"
       refY="0"
       refX="0"
       id="marker3092"
       style="overflow:visible">
      <path
         id="path3094"
         d="M 0,0 5,-5 -12.5,0 5,5 0,0 z"
         style="fill-rule:evenodd;stroke:#000000;stroke-width:1pt"
         transform="matrix(-0.4,0,0,-0.4,-4,0)"
         inkscape:connector-curvature="0" />
    </marker>
    <marker
       inkscape:stockid="Arrow1Mend"
       orient="auto"
       refY="0"
       refX="0"
       id="marker3096"
       style="overflow:visible">
      <path
         id="path3098"
         d="M 0,0 5,-5 -12.5,0 5,5 0,0 z"
         style="fill-rule:evenodd;stroke:#000000;stroke-width:1pt"
         transform="matrix(-0.4,0,0,-0.4,-4,0)"
         inkscape:connector-curvature="0" />
    </marker>
    <marker
       inkscape:stockid="Arrow1Mend"
       orient="auto"
       refY="0"
       refX="0"
       id="marker3100"
       style="overflow:visible">
      <path
         id="path3102"
         d="M 0,0 5,-5 -12.5,0 5,5 0,0 z"
         style="fill-rule:evenodd;stroke:#000000;stroke-width:1pt"
         transform="matrix(-0.4,0,0,-0.4,-4,0)"
         inkscape:connector-curvature="0" />
    </marker>
    <marker
       inkscape:stockid="Arrow1Mend"
       orient="auto"
       refY="0"
       refX="0"
       id="marker3104"
       style="overflow:visible">
      <path
         id="path3106"
         d="M 0,0 5,-5 -12.5,0 5,5 0,0 z"
         style="fill-rule:evenodd;stroke:#000000;stroke-width:1pt"
         transform="matrix(-0.4,0,0,-0.4,-4,0)"
         inkscape:connector-curvature="0" />
    </marker>
    <marker
       inkscape:stockid="Arrow1Mend"
       orient="auto"
       refY="0"
       refX="0"
       id="marker3108"
       style="overflow:visible">
      <path
         id="path3110"
         d="M 0,0 5,-5 -12.5,0 5,5 0,0 z"
         style="fill-rule:evenodd;stroke:#000000;stroke-width:1pt"
         transform="matrix(-0.4,0,0,-0.4,-4,0)"
         inkscape:connector-curvature="0" />
    </marker>
    <marker
       inkscape:stockid="Arrow1Mend"
       orient="auto"
       refY="0"
       refX="0"
       id="marker3112"
       style="overflow:visible">
      <path
         id="path3114"
         d="M 0,0 5,-5 -12.5,0 5,5 0,0 z"
         style="fill-rule:evenodd;stroke:#000000;stroke-width:1pt"
         transform="matrix(-0.4,0,0,-0.4,-4,0)"
         inkscape:connector-curvature="0" />
    </marker>
    <marker
       inkscape:stockid="Arrow1Mend"
       orient="auto"
       refY="0"
       refX="0"
       id="Arrow1Mend-4"
       style="overflow:visible">
      <path
         id="path3893-75"
         d="M 0,0 5,-5 -12.5,0 5,5 0,0 z"
         style="fill-rule:evenodd;stroke:#000000;stroke-width:1pt"
         transform="matrix(-0.4,0,0,-0.4,-4,0)"
         inkscape:connector-curvature="0" />
    </marker>
    <marker
       inkscape:stockid="Arrow1Mend"
       orient="auto"
       refY="0"
       refX="0"
       id="Arrow1Mend-9"
       style="overflow:visible">
      <path
         id="path3893-1"
         d="M 0,0 5,-5 -12.5,0 5,5 0,0 z"
         style="fill-rule:evenodd;stroke:#000000;stroke-width:1pt"
         transform="matrix(-0.4,0,0,-0.4,-4,0)"
         inkscape:connector-curvature="0" />
    </marker>
  </defs>
  <sodipodi:namedview
     id="base"
     pagecolor="#ffffff"
     bordercolor="#666666"
     borderopacity="1.0"
     inkscape:pageopacity="0.0"
     inkscape:pageshadow="2"
     inkscape:zoom="1.4"
     inkscape:cx="63.090373"
     inkscape:cy="67.905299"
     inkscape:document-units="px"
     inkscape:current-layer="layer1"
     showgrid="true"
     fit-margin-top="0"
     fit-margin-left="0"
     fit-margin-right="0"
     fit-margin-bottom="0"
     inkscape:window-width="1366"
     inkscape:window-height="713"
     inkscape:window-x="-2"
     inkscape:window-y="-3"
     inkscape:window-maximized="1">
    <inkscape:grid
       type="xygrid"
       id="grid2985"
       empspacing="5"
       visible="true"
       enabled="true"
       snapvisiblegridlinesonly="true"
       originx="-126.9px"
       originy="-958.5px" />
  </sodipodi:namedview>
  <metadata
     id="metadata7">
    <rdf:RDF>
      <cc:Work
         rdf:about="">
        <dc:format>image/svg+xml</dc:format>
        <dc:type
           rdf:resource="http://purl.org/dc/dcmitype/StillImage" />
        <dc:title />
      </cc:Work>
    </rdf:RDF>
  </metadata>
  <g
     inkscape:label="Layer 1"
     inkscape:groupmode="layer"
     id="layer1"
     transform="translate(-126.9,62.888016)">
    <g
       id="g3356"
       transform="translate(10,-14)">
      <path
         d="m 75,77.362183 c 0,5.522847 -4.477153,10 -10,10 -5.522847,0 -10,-4.477153 -10,-10 0,-5.522848 4.477153,-10 10,-10 5.522847,0 10,4.477152 10,10 z"
         sodipodi:ry="10"
         sodipodi:rx="10"
         sodipodi:cy="77.362183"
         sodipodi:cx="65"
         id="path2987-7"
         style="fill:#b7b7b7;fill-opacity:1;stroke:#000000;stroke-width:1;stroke-linecap:round;stroke-linejoin:round;stroke-miterlimit:4;stroke-opacity:1;stroke-dasharray:none;stroke-dashoffset:0"
         sodipodi:type="arc"
         transform="translate(62.400002,0)" />
      <path
         d="m 75,77.362183 c 0,5.522847 -4.477153,10 -10,10 -5.522847,0 -10,-4.477153 -10,-10 0,-5.522848 4.477153,-10 10,-10 5.522847,0 10,4.477152 10,10 z"
         sodipodi:ry="10"
         sodipodi:rx="10"
         sodipodi:cy="77.362183"
         sodipodi:cx="65"
         id="path2987-2"
         style="fill:#b7b7b7;fill-opacity:1;stroke:#000000;stroke-width:1;stroke-linecap:round;stroke-linejoin:round;stroke-miterlimit:4;stroke-opacity:1;stroke-dasharray:none;stroke-dashoffset:0"
         sodipodi:type="arc"
         transform="translate(249.60001,0)" />
      <path
         d="m 75,77.362183 c 0,5.522847 -4.477153,10 -10,10 -5.522847,0 -10,-4.477153 -10,-10 0,-5.522848 4.477153,-10 10,-10 5.522847,0 10,4.477152 10,10 z"
         sodipodi:ry="10"
         sodipodi:rx="10"
         sodipodi:cy="77.362183"
         sodipodi:cx="65"
         id="path2987-1"
         style="fill:#b7b7b7;fill-opacity:1;stroke:#000000;stroke-width:1;stroke-linecap:round;stroke-linejoin:round;stroke-miterlimit:4;stroke-opacity:1;stroke-dasharray:none;stroke-dashoffset:0"
         sodipodi:type="arc"
         transform="translate(374.40002,0)" />
      <path
         d="m 75,77.362183 c 0,5.522847 -4.477153,10 -10,10 -5.522847,0 -10,-4.477153 -10,-10 0,-5.522848 4.477153,-10 10,-10 5.522847,0 10,4.477152 10,10 z"
         sodipodi:ry="10"
         sodipodi:rx="10"
         sodipodi:cy="77.362183"
         sodipodi:cx="65"
         id="path2987-9"
         style="fill:#b7b7b7;fill-opacity:1;stroke:#000000;stroke-width:1;stroke-linecap:round;stroke-linejoin:round;stroke-miterlimit:4;stroke-opacity:1;stroke-dasharray:none;stroke-dashoffset:0"
         sodipodi:type="arc"
         transform="translate(436.80002,0)" />
      <path
         d="m 75,77.362183 c 0,5.522847 -4.477153,10 -10,10 -5.522847,0 -10,-4.477153 -10,-10 0,-5.522848 4.477153,-10 10,-10 5.522847,0 10,4.477152 10,10 z"
         sodipodi:ry="10"
         sodipodi:rx="10"
         sodipodi:cy="77.362183"
         sodipodi:cx="65"
         id="path2987-5"
         style="fill:#b7b7b7;fill-opacity:1;stroke:#000000;stroke-width:1;stroke-linecap:round;stroke-linejoin:round;stroke-miterlimit:4;stroke-opacity:1;stroke-dasharray:none;stroke-dashoffset:0"
         sodipodi:type="arc"
         transform="translate(499.20001,0)" />
      <path
         d="m 75,77.362183 c 0,5.522847 -4.477153,10 -10,10 -5.522847,0 -10,-4.477153 -10,-10 0,-5.522848 4.477153,-10 10,-10 5.522847,0 10,4.477152 10,10 z"
         sodipodi:ry="10"
         sodipodi:rx="10"
         sodipodi:cy="77.362183"
         sodipodi:cx="65"
         id="path2987-91"
         style="fill:#b7b7b7;fill-opacity:1;stroke:#000000;stroke-width:1;stroke-linecap:round;stroke-linejoin:round;stroke-miterlimit:4;stroke-opacity:1;stroke-dasharray:none;stroke-dashoffset:0"
         sodipodi:type="arc"
         transform="translate(312,0)" />
      <path
         d="m 75,77.362183 c 0,5.522847 -4.477153,10 -10,10 -5.522847,0 -10,-4.477153 -10,-10 0,-5.522848 4.477153,-10 10,-10 5.522847,0 10,4.477152 10,10 z"
         sodipodi:ry="10"
         sodipodi:rx="10"
         sodipodi:cy="77.362183"
         sodipodi:cx="65"
         id="path2987-4"
         style="fill:#b7b7b7;fill-opacity:1;stroke:#000000;stroke-width:1;stroke-linecap:round;stroke-linejoin:round;stroke-miterlimit:4;stroke-opacity:1;stroke-dasharray:none;stroke-dashoffset:0"
         sodipodi:type="arc"
         transform="translate(187.20001,20)" />
      <path
         d="m 75,77.362183 c 0,5.522847 -4.477153,10 -10,10 -5.522847,0 -10,-4.477153 -10,-10 0,-5.522848 4.477153,-10 10,-10 5.522847,0 10,4.477152 10,10 z"
         sodipodi:ry="10"
         sodipodi:rx="10"
         sodipodi:cy="77.362183"
         sodipodi:cx="65"
         id="path2987-0"
         style="fill:#b7b7b7;fill-opacity:1;stroke:#000000;stroke-width:1;stroke-linecap:round;stroke-linejoin:round;stroke-miterlimit:4;stroke-opacity:1;stroke-dasharray:none;stroke-dashoffset:0"
         sodipodi:type="arc"
         transform="translate(187.20001,-20)" />
      <path
         d="m 75,77.362183 c 0,5.522847 -4.477153,10 -10,10 -5.522847,0 -10,-4.477153 -10,-10 0,-5.522848 4.477153,-10 10,-10 5.522847,0 10,4.477152 10,10 z"
         sodipodi:ry="10"
         sodipodi:rx="10"
         sodipodi:cy="77.362183"
         sodipodi:cx="65"
         id="path2987-56-4"
         style="fill:#b7b7b7;fill-opacity:1;stroke:#000000;stroke-width:1;stroke-linecap:round;stroke-linejoin:round;stroke-miterlimit:4;stroke-opacity:1;stroke-dasharray:none;stroke-dashoffset:0"
         sodipodi:type="arc"
         transform="translate(124.8,0)" />
      <path
         inkscape:connector-curvature="0"
         id="path3878-2"
         d="m 138.22501,77.362183 40,0"
         style="fill:none;stroke:#000000;stroke-width:1px;stroke-linecap:butt;stroke-linejoin:miter;stroke-opacity:1;marker-end:url(#Arrow1Mend)" />
      <path
         inkscape:connector-curvature="0"
         id="path3878-27"
         d="m 325.42499,77.362183 40,0"
         style="fill:none;stroke:#000000;stroke-width:1px;stroke-linecap:butt;stroke-linejoin:miter;stroke-opacity:1;marker-end:url(#Arrow1Mend)" />
      <path
         inkscape:connector-curvature="0"
         id="path3878-9"
         d="m 387.82501,77.362183 40,0"
         style="fill:none;stroke:#000000;stroke-width:1px;stroke-linecap:butt;stroke-linejoin:miter;stroke-opacity:1;marker-end:url(#Arrow1Mend)" />
      <path
         inkscape:connector-curvature="0"
         id="path3878-94"
         d="m 450.22504,77.362183 40,0"
         style="fill:none;stroke:#000000;stroke-width:1px;stroke-linecap:butt;stroke-linejoin:miter;stroke-opacity:1;marker-end:url(#Arrow1Mend)" />
      <path
         inkscape:connector-curvature="0"
         id="path3878-4"
         d="m 512.625,77.362183 40,0"
         style="fill:none;stroke:#000000;stroke-width:1px;stroke-linecap:butt;stroke-linejoin:miter;stroke-opacity:1;marker-end:url(#Arrow1Mend)" />
      <path
         sodipodi:nodetypes="cc"
         inkscape:connector-curvature="0"
         id="path3878-2-6"
         d="m 200.65684,74.235914 40,-15"
         style="fill:none;stroke:#000000;stroke-width:1px;stroke-linecap:butt;stroke-linejoin:miter;stroke-opacity:1;marker-end:url(#Arrow1Mend)" />
      <path
         sodipodi:nodetypes="cc"
         inkscape:connector-curvature="0"
         id="path3878-2-6-3"
         d="m 263.05686,96.155811 40,-15"
         style="fill:none;stroke:#000000;stroke-width:1px;stroke-linecap:butt;stroke-linejoin:miter;stroke-opacity:1;marker-end:url(#Arrow1Mend)" />
      <path
         sodipodi:nodetypes="cc"
         inkscape:connector-curvature="0"
         id="path3878-2-6-8"
         d="m 263.6244,57.764616 38.89087,17.67767"
         style="fill:none;stroke:#000000;stroke-width:1px;stroke-linecap:butt;stroke-linejoin:miter;stroke-opacity:1;marker-end:url(#Arrow1Mend)" />
      <path
         sodipodi:nodetypes="cc"
         inkscape:connector-curvature="0"
         id="path3878-2-6-8-7"
         d="m 201.22438,79.684513 38.89087,17.67767"
         style="fill:none;stroke:#000000;stroke-width:1px;stroke-linecap:butt;stroke-linejoin:miter;stroke-opacity:1;marker-end:url(#Arrow1Mend)" />
      <path
         sodipodi:nodetypes="cc"
         inkscape:connector-curvature="0"
         id="path3878-9-4"
         d="m 384,85.362183 c 67,25.999997 106,25.999997 171,0"
         style="fill:none;stroke:#000000;stroke-width:1px;stroke-linecap:butt;stroke-linejoin:miter;stroke-opacity:1;marker-end:url(#Arrow1Mend)" />
      <text
         sodipodi:linespacing="125%"
         id="text4499-8"
         y="83.592651"
         x="122.16074"
         style="font-size:20px;font-style:normal;font-variant:normal;font-weight:normal;font-stretch:normal;line-height:125%;letter-spacing:0px;word-spacing:0px;fill:#000000;fill-opacity:1;stroke:none;font-family:sans;-inkscape-font-specification:sans"
         xml:space="preserve"><tspan
           style="font-family:cmtt10;-inkscape-font-specification:cmtt10"
           y="83.592651"
           x="122.16074"
           id="tspan4501-7"
           sodipodi:role="line">A</tspan></text>
      <text
         sodipodi:linespacing="125%"
         id="text4499-86"
         y="83.592651"
         x="184.56075"
         style="font-size:20px;font-style:normal;font-variant:normal;font-weight:normal;font-stretch:normal;line-height:125%;letter-spacing:0px;word-spacing:0px;fill:#000000;fill-opacity:1;stroke:none;font-family:sans;-inkscape-font-specification:sans"
         xml:space="preserve"><tspan
           style="font-family:cmtt10;-inkscape-font-specification:cmtt10"
           y="83.592651"
           x="184.56075"
           id="tspan4501-5"
           sodipodi:role="line">C</tspan></text>
      <text
         sodipodi:linespacing="125%"
         id="text4499-4"
         y="103.59265"
         x="246.96075"
         style="font-size:20px;font-style:normal;font-variant:normal;font-weight:normal;font-stretch:normal;line-height:125%;letter-spacing:0px;word-spacing:0px;fill:#000000;fill-opacity:1;stroke:none;font-family:sans;-inkscape-font-specification:sans"
         xml:space="preserve"><tspan
           style="font-family:cmtt10;-inkscape-font-specification:cmtt10"
           y="103.59265"
           x="246.96075"
           id="tspan4501-6"
           sodipodi:role="line">G</tspan></text>
      <text
         sodipodi:linespacing="125%"
         id="text4499-0"
         y="63.592651"
         x="246.96075"
         style="font-size:20px;font-style:normal;font-variant:normal;font-weight:normal;font-stretch:normal;line-height:125%;letter-spacing:0px;word-spacing:0px;fill:#000000;fill-opacity:1;stroke:none;font-family:sans;-inkscape-font-specification:sans"
         xml:space="preserve"><tspan
           style="font-family:cmtt10;-inkscape-font-specification:cmtt10"
           y="63.592651"
           x="246.96075"
           id="tspan4501-2"
           sodipodi:role="line">T</tspan></text>
      <text
         sodipodi:linespacing="125%"
         id="text4499-5"
         y="83.592651"
         x="309.36075"
         style="font-size:20px;font-style:normal;font-variant:normal;font-weight:normal;font-stretch:normal;line-height:125%;letter-spacing:0px;word-spacing:0px;fill:#000000;fill-opacity:1;stroke:none;font-family:sans;-inkscape-font-specification:sans"
         xml:space="preserve"><tspan
           style="font-family:cmtt10;-inkscape-font-specification:cmtt10"
           y="83.592651"
           x="309.36075"
           id="tspan4501-9"
           sodipodi:role="line">G</tspan></text>
      <text
         sodipodi:linespacing="125%"
         id="text4499-3"
         y="83.592651"
         x="371.76074"
         style="font-size:20px;font-style:normal;font-variant:normal;font-weight:normal;font-stretch:normal;line-height:125%;letter-spacing:0px;word-spacing:0px;fill:#000000;fill-opacity:1;stroke:none;font-family:sans;-inkscape-font-specification:sans"
         xml:space="preserve"><tspan
           style="font-family:cmtt10;-inkscape-font-specification:cmtt10"
           y="83.592651"
           x="371.76074"
           id="tspan4501-52"
           sodipodi:role="line">G</tspan></text>
      <text
         sodipodi:linespacing="125%"
         id="text4499-7"
         y="83.592651"
         x="434.16077"
         style="font-size:20px;font-style:normal;font-variant:normal;font-weight:normal;font-stretch:normal;line-height:125%;letter-spacing:0px;word-spacing:0px;fill:#000000;fill-opacity:1;stroke:none;font-family:sans;-inkscape-font-specification:sans"
         xml:space="preserve"><tspan
           style="font-family:cmtt10;-inkscape-font-specification:cmtt10"
           y="83.592651"
           x="434.16077"
           id="tspan4501-26"
           sodipodi:role="line">A</tspan></text>
      <text
         sodipodi:linespacing="125%"
         id="text4499-06"
         y="83.592651"
         x="496.56076"
         style="font-size:20px;font-style:normal;font-variant:normal;font-weight:normal;font-stretch:normal;line-height:125%;letter-spacing:0px;word-spacing:0px;fill:#000000;fill-opacity:1;stroke:none;font-family:sans;-inkscape-font-specification:sans"
         xml:space="preserve"><tspan
           style="font-family:cmtt10;-inkscape-font-specification:cmtt10"
           y="83.592651"
           x="496.56076"
           id="tspan4501-97"
           sodipodi:role="line">A</tspan></text>
      <text
         sodipodi:linespacing="125%"
         id="text4499-9"
         y="83.592651"
         x="558.96075"
         style="font-size:20px;font-style:normal;font-variant:normal;font-weight:normal;font-stretch:normal;line-height:125%;letter-spacing:0px;word-spacing:0px;fill:#000000;fill-opacity:1;stroke:none;font-family:sans;-inkscape-font-specification:sans"
         xml:space="preserve"><tspan
           style="font-family:cmtt10;-inkscape-font-specification:cmtt10"
           y="83.592651"
           x="558.96075"
           id="tspan4501-56"
           sodipodi:role="line">T</tspan></text>
    </g>
    <g
       id="g3323">
      <path
         d="m 75,77.362183 c 0,5.522847 -4.477153,10 -10,10 -5.522847,0 -10,-4.477153 -10,-10 0,-5.522848 4.477153,-10 10,-10 5.522847,0 10,4.477152 10,10 z"
         sodipodi:ry="10"
         sodipodi:rx="10"
         sodipodi:cy="77.362183"
         sodipodi:cx="65"
         id="path2987-7-0"
         style="fill:#b7b7b7;fill-opacity:1;stroke:#000000;stroke-width:1;stroke-linecap:round;stroke-linejoin:round;stroke-miterlimit:4;stroke-opacity:1;stroke-dasharray:none;stroke-dashoffset:0"
         sodipodi:type="arc"
         transform="translate(72.400002,-100)" />
      <path
         d="m 75,77.362183 c 0,5.522847 -4.477153,10 -10,10 -5.522847,0 -10,-4.477153 -10,-10 0,-5.522848 4.477153,-10 10,-10 5.522847,0 10,4.477152 10,10 z"
         sodipodi:ry="10"
         sodipodi:rx="10"
         sodipodi:cy="77.362183"
         sodipodi:cx="65"
         id="path2987-2-4"
         style="fill:#b7b7b7;fill-opacity:1;stroke:#000000;stroke-width:1;stroke-linecap:round;stroke-linejoin:round;stroke-miterlimit:4;stroke-opacity:1;stroke-dasharray:none;stroke-dashoffset:0"
         sodipodi:type="arc"
         transform="translate(259.60001,-100)" />
      <path
         d="m 75,77.362183 c 0,5.522847 -4.477153,10 -10,10 -5.522847,0 -10,-4.477153 -10,-10 0,-5.522848 4.477153,-10 10,-10 5.522847,0 10,4.477152 10,10 z"
         sodipodi:ry="10"
         sodipodi:rx="10"
         sodipodi:cy="77.362183"
         sodipodi:cx="65"
         id="path2987-1-7"
         style="fill:#b7b7b7;fill-opacity:1;stroke:#000000;stroke-width:1;stroke-linecap:round;stroke-linejoin:round;stroke-miterlimit:4;stroke-opacity:1;stroke-dasharray:none;stroke-dashoffset:0"
         sodipodi:type="arc"
         transform="translate(384.40002,-100)" />
      <path
         d="m 75,77.362183 c 0,5.522847 -4.477153,10 -10,10 -5.522847,0 -10,-4.477153 -10,-10 0,-5.522848 4.477153,-10 10,-10 5.522847,0 10,4.477152 10,10 z"
         sodipodi:ry="10"
         sodipodi:rx="10"
         sodipodi:cy="77.362183"
         sodipodi:cx="65"
         id="path2987-9-3"
         style="fill:#b7b7b7;fill-opacity:1;stroke:#000000;stroke-width:1;stroke-linecap:round;stroke-linejoin:round;stroke-miterlimit:4;stroke-opacity:1;stroke-dasharray:none;stroke-dashoffset:0"
         sodipodi:type="arc"
         transform="translate(446.80002,-100)" />
      <path
         d="m 75,77.362183 c 0,5.522847 -4.477153,10 -10,10 -5.522847,0 -10,-4.477153 -10,-10 0,-5.522848 4.477153,-10 10,-10 5.522847,0 10,4.477152 10,10 z"
         sodipodi:ry="10"
         sodipodi:rx="10"
         sodipodi:cy="77.362183"
         sodipodi:cx="65"
         id="path2987-5-2"
         style="fill:#b7b7b7;fill-opacity:1;stroke:#000000;stroke-width:1;stroke-linecap:round;stroke-linejoin:round;stroke-miterlimit:4;stroke-opacity:1;stroke-dasharray:none;stroke-dashoffset:0"
         sodipodi:type="arc"
         transform="translate(509.20001,-100)" />
      <path
         d="m 75,77.362183 c 0,5.522847 -4.477153,10 -10,10 -5.522847,0 -10,-4.477153 -10,-10 0,-5.522848 4.477153,-10 10,-10 5.522847,0 10,4.477152 10,10 z"
         sodipodi:ry="10"
         sodipodi:rx="10"
         sodipodi:cy="77.362183"
         sodipodi:cx="65"
         id="path2987-91-0"
         style="fill:#b7b7b7;fill-opacity:1;stroke:#000000;stroke-width:1;stroke-linecap:round;stroke-linejoin:round;stroke-miterlimit:4;stroke-opacity:1;stroke-dasharray:none;stroke-dashoffset:0"
         sodipodi:type="arc"
         transform="translate(322,-100)" />
      <path
         d="m 75,77.362183 c 0,5.522847 -4.477153,10 -10,10 -5.522847,0 -10,-4.477153 -10,-10 0,-5.522848 4.477153,-10 10,-10 5.522847,0 10,4.477152 10,10 z"
         sodipodi:ry="10"
         sodipodi:rx="10"
         sodipodi:cy="77.362183"
         sodipodi:cx="65"
         id="path2987-4-9"
         style="fill:#b7b7b7;fill-opacity:1;stroke:#000000;stroke-width:1;stroke-linecap:round;stroke-linejoin:round;stroke-miterlimit:4;stroke-opacity:1;stroke-dasharray:none;stroke-dashoffset:0"
         sodipodi:type="arc"
         transform="translate(197.20001,-100)" />
      <path
         d="m 75,77.362183 c 0,5.522847 -4.477153,10 -10,10 -5.522847,0 -10,-4.477153 -10,-10 0,-5.522848 4.477153,-10 10,-10 5.522847,0 10,4.477152 10,10 z"
         sodipodi:ry="10"
         sodipodi:rx="10"
         sodipodi:cy="77.362183"
         sodipodi:cx="65"
         id="path2987-56-4-1"
         style="fill:#b7b7b7;fill-opacity:1;stroke:#000000;stroke-width:1;stroke-linecap:round;stroke-linejoin:round;stroke-miterlimit:4;stroke-opacity:1;stroke-dasharray:none;stroke-dashoffset:0"
         sodipodi:type="arc"
         transform="translate(134.8,-100)" />
      <path
         inkscape:connector-curvature="0"
         id="path3878-2-2"
         d="m 148.22501,-22.637817 40,0"
         style="fill:none;stroke:#000000;stroke-width:1px;stroke-linecap:butt;stroke-linejoin:miter;stroke-opacity:1;marker-end:url(#Arrow1Mend)" />
      <path
         inkscape:connector-curvature="0"
         id="path3878-27-5"
         d="m 335.42499,-22.637817 40,0"
         style="fill:none;stroke:#000000;stroke-width:1px;stroke-linecap:butt;stroke-linejoin:miter;stroke-opacity:1;marker-end:url(#Arrow1Mend)" />
      <path
         inkscape:connector-curvature="0"
         id="path3878-9-7"
         d="m 397.82501,-22.637817 40,0"
         style="fill:none;stroke:#000000;stroke-width:1px;stroke-linecap:butt;stroke-linejoin:miter;stroke-opacity:1;marker-end:url(#Arrow1Mend)" />
      <path
         inkscape:connector-curvature="0"
         id="path3878-94-5"
         d="m 460.22504,-22.637817 40,0"
         style="fill:none;stroke:#000000;stroke-width:1px;stroke-linecap:butt;stroke-linejoin:miter;stroke-opacity:1;marker-end:url(#Arrow1Mend)" />
      <path
         inkscape:connector-curvature="0"
         id="path3878-4-0"
         d="m 522.625,-22.637817 40,0"
         style="fill:none;stroke:#000000;stroke-width:1px;stroke-linecap:butt;stroke-linejoin:miter;stroke-opacity:1;marker-end:url(#Arrow1Mend)" />
      <text
         sodipodi:linespacing="125%"
         id="text4499-8-0"
         y="-16.407347"
         x="132.16074"
         style="font-size:20px;font-style:normal;font-variant:normal;font-weight:normal;font-stretch:normal;line-height:125%;letter-spacing:0px;word-spacing:0px;fill:#000000;fill-opacity:1;stroke:none;font-family:sans;-inkscape-font-specification:sans"
         xml:space="preserve"><tspan
           style="font-family:cmtt10;-inkscape-font-specification:cmtt10"
           y="-16.407347"
           x="132.16074"
           id="tspan4501-7-3"
           sodipodi:role="line">A</tspan></text>
      <text
         sodipodi:linespacing="125%"
         id="text4499-86-7"
         y="-16.407347"
         x="194.56075"
         style="font-size:20px;font-style:normal;font-variant:normal;font-weight:normal;font-stretch:normal;line-height:125%;letter-spacing:0px;word-spacing:0px;fill:#000000;fill-opacity:1;stroke:none;font-family:sans;-inkscape-font-specification:sans"
         xml:space="preserve"><tspan
           style="font-family:cmtt10;-inkscape-font-specification:cmtt10"
           y="-16.407347"
           x="194.56075"
           id="tspan4501-5-3"
           sodipodi:role="line">C</tspan></text>
      <text
         sodipodi:linespacing="125%"
         id="text4499-4-0"
         y="-16.407347"
         x="256.96075"
         style="font-size:20px;font-style:normal;font-variant:normal;font-weight:normal;font-stretch:normal;line-height:125%;letter-spacing:0px;word-spacing:0px;fill:#000000;fill-opacity:1;stroke:none;font-family:sans;-inkscape-font-specification:sans"
         xml:space="preserve"><tspan
           style="font-family:cmtt10;-inkscape-font-specification:cmtt10"
           y="-16.407347"
           x="256.96075"
           id="tspan4501-6-8"
           sodipodi:role="line">G</tspan></text>
      <text
         sodipodi:linespacing="125%"
         id="text4499-5-2"
         y="-16.407347"
         x="319.36075"
         style="font-size:20px;font-style:normal;font-variant:normal;font-weight:normal;font-stretch:normal;line-height:125%;letter-spacing:0px;word-spacing:0px;fill:#000000;fill-opacity:1;stroke:none;font-family:sans;-inkscape-font-specification:sans"
         xml:space="preserve"><tspan
           style="font-family:cmtt10;-inkscape-font-specification:cmtt10"
           y="-16.407347"
           x="319.36075"
           id="tspan4501-9-1"
           sodipodi:role="line">G</tspan></text>
      <text
         sodipodi:linespacing="125%"
         id="text4499-3-5"
         y="-16.407347"
         x="381.76074"
         style="font-size:20px;font-style:normal;font-variant:normal;font-weight:normal;font-stretch:normal;line-height:125%;letter-spacing:0px;word-spacing:0px;fill:#000000;fill-opacity:1;stroke:none;font-family:sans;-inkscape-font-specification:sans"
         xml:space="preserve"><tspan
           style="font-family:cmtt10;-inkscape-font-specification:cmtt10"
           y="-16.407347"
           x="381.76074"
           id="tspan4501-52-6"
           sodipodi:role="line">G</tspan></text>
      <text
         sodipodi:linespacing="125%"
         id="text4499-7-1"
         y="-16.407347"
         x="444.16077"
         style="font-size:20px;font-style:normal;font-variant:normal;font-weight:normal;font-stretch:normal;line-height:125%;letter-spacing:0px;word-spacing:0px;fill:#000000;fill-opacity:1;stroke:none;font-family:sans;-inkscape-font-specification:sans"
         xml:space="preserve"><tspan
           style="font-family:cmtt10;-inkscape-font-specification:cmtt10"
           y="-16.407347"
           x="444.16077"
           id="tspan4501-26-4"
           sodipodi:role="line">A</tspan></text>
      <text
         sodipodi:linespacing="125%"
         id="text4499-06-1"
         y="-16.407347"
         x="506.56076"
         style="font-size:20px;font-style:normal;font-variant:normal;font-weight:normal;font-stretch:normal;line-height:125%;letter-spacing:0px;word-spacing:0px;fill:#000000;fill-opacity:1;stroke:none;font-family:sans;-inkscape-font-specification:sans"
         xml:space="preserve"><tspan
           style="font-family:cmtt10;-inkscape-font-specification:cmtt10"
           y="-16.407347"
           x="506.56076"
           id="tspan4501-97-5"
           sodipodi:role="line">A</tspan></text>
      <text
         sodipodi:linespacing="125%"
         id="text4499-9-8"
         y="-16.407347"
         x="568.96075"
         style="font-size:20px;font-style:normal;font-variant:normal;font-weight:normal;font-stretch:normal;line-height:125%;letter-spacing:0px;word-spacing:0px;fill:#000000;fill-opacity:1;stroke:none;font-family:sans;-inkscape-font-specification:sans"
         xml:space="preserve"><tspan
           style="font-family:cmtt10;-inkscape-font-specification:cmtt10"
           y="-16.407347"
           x="568.96075"
           id="tspan4501-56-1"
           sodipodi:role="line">T</tspan></text>
      <path
         inkscape:connector-curvature="0"
         id="path3878-27-5-5"
         d="m 272,-22.637818 40,0"
         style="fill:none;stroke:#000000;stroke-width:1px;stroke-linecap:butt;stroke-linejoin:miter;stroke-opacity:1;marker-end:url(#Arrow1Mend)" />
      <path
         inkscape:connector-curvature="0"
         id="path3878-27-5-1"
         d="m 209.42499,-22.637818 40,0"
         style="fill:none;stroke:#000000;stroke-width:1px;stroke-linecap:butt;stroke-linejoin:miter;stroke-opacity:1;marker-end:url(#Arrow1Mend)" />
    </g>
    <text
       xml:space="preserve"
       style="font-size:20px;font-style:normal;font-variant:normal;font-weight:normal;font-stretch:normal;line-height:125%;letter-spacing:0px;word-spacing:0px;fill:#000000;fill-opacity:1;stroke:none;font-family:sans;-inkscape-font-specification:sans"
       x="127.21068"
       y="-50.731766"
       id="text3395"
       sodipodi:linespacing="125%"><tspan
         sodipodi:role="line"
         id="tspan3397"
         x="127.21068"
         y="-50.731766"
         style="font-size:16px">Lineares Referenzgenom:</tspan></text>
    <text
       xml:space="preserve"
       style="font-size:20px;font-style:normal;font-variant:normal;font-weight:normal;font-stretch:normal;line-height:125%;letter-spacing:0px;word-spacing:0px;fill:#000000;fill-opacity:1;stroke:none;font-family:sans;-inkscape-font-specification:sans"
       x="128"
       y="24.362183"
       id="text3395-7"
       sodipodi:linespacing="125%"><tspan
         sodipodi:role="line"
         id="tspan3397-7"
         x="128"
         y="24.362183"
         style="font-size:16px">Pan-Genom:</tspan></text>
  </g>
</svg>
