<?xml version="1.0" encoding="UTF-8" standalone="no"?>
<!-- Created with Inkscape (http://www.inkscape.org/) -->

<svg
   xmlns:dc="http://purl.org/dc/elements/1.1/"
   xmlns:cc="http://creativecommons.org/ns#"
   xmlns:rdf="http://www.w3.org/1999/02/22-rdf-syntax-ns#"
   xmlns:svg="http://www.w3.org/2000/svg"
   xmlns="http://www.w3.org/2000/svg"
   xmlns:sodipodi="http://sodipodi.sourceforge.net/DTD/sodipodi-0.dtd"
   xmlns:inkscape="http://www.inkscape.org/namespaces/inkscape"
   id="svg2"
   version="1.1"
   inkscape:version="0.48.4 r9939"
   width="1001.6133"
   height="465.84302"
   xml:space="preserve"
   sodipodi:docname="read-alignment-graph-with-del.svg"><metadata
     id="metadata8"><rdf:RDF><cc:Work
         rdf:about=""><dc:format>image/svg+xml</dc:format><dc:type
           rdf:resource="http://purl.org/dc/dcmitype/StillImage" /><dc:title></dc:title></cc:Work></rdf:RDF></metadata><defs
     id="defs6"><clipPath
       clipPathUnits="userSpaceOnUse"
       id="clipPath18"><path
         d="m 1.327,124.074 257.773,0 0,-122.083 -257.773,0 0,122.083 z"
         clip-rule="evenodd"
         id="path20"
         inkscape:connector-curvature="0" /></clipPath><clipPath
       clipPathUnits="userSpaceOnUse"
       id="clipPath26"><path
         d="M 0,0 261,0 261,125 0,125 0,0 z"
         id="path28"
         inkscape:connector-curvature="0" /></clipPath></defs><sodipodi:namedview
     pagecolor="#ffffff"
     bordercolor="#666666"
     borderopacity="1"
     objecttolerance="10"
     gridtolerance="10"
     guidetolerance="10"
     inkscape:pageopacity="0"
     inkscape:pageshadow="2"
     inkscape:window-width="1600"
     inkscape:window-height="1152"
     id="namedview4"
     showgrid="false"
     inkscape:zoom="0.80000001"
     inkscape:cx="292.92595"
     inkscape:cy="323.9911"
     inkscape:window-x="-2"
     inkscape:window-y="-3"
     inkscape:window-maximized="1"
     inkscape:current-layer="g10"
     fit-margin-top="0"
     fit-margin-left="0"
     fit-margin-right="0"
     fit-margin-bottom="0" /><g
     id="g10"
     inkscape:groupmode="layer"
     inkscape:label="read-alignment-graph"
     transform="matrix(1.25,0,0,-1.25,416.09756,228.38051)"><g
       id="g8459"
       transform="translate(0,-10.186155)"><path
         inkscape:connector-curvature="0"
         id="path38"
         style="fill:#ff0000;fill-opacity:1;fill-rule:evenodd;stroke:none"
         d="m -149.36194,121.31919 c 0,7.5772 -5.73536,13.71886 -12.8113,13.71886 -7.07593,0 -12.81129,-6.14166 -12.81129,-13.71886 0,-7.5772 5.73536,-13.72197 12.81129,-13.72197 7.07594,0 12.8113,6.14477 12.8113,13.72197 z" /><path
         inkscape:connector-curvature="0"
         id="path40"
         style="fill:none;stroke:#161412;stroke-width:2.41261339;stroke-linecap:round;stroke-linejoin:round;stroke-miterlimit:10;stroke-opacity:1;stroke-dasharray:none"
         d="m -149.36194,121.31919 c 0,7.5772 -5.73536,13.71886 -12.8113,13.71886 -7.07593,0 -12.81129,-6.14166 -12.81129,-13.71886 0,-7.5772 5.73536,-13.72197 12.81129,-13.72197 7.07594,0 12.8113,6.14477 12.8113,13.72197" /><path
         inkscape:connector-curvature="0"
         id="path46"
         style="fill:#ffffff;fill-opacity:1;fill-rule:evenodd;stroke:none"
         d="m -160.89677,129.94497 -0.51292,0 c -1.50378,-1.4886 -3.40391,-1.58535 -4.80569,-1.63528 l 0,-1.56038 c 0.91218,0.025 2.07207,0.0749 3.23488,0.57422 l 0,-12.60474 -3.08625,0 0,-1.56038 8.25332,0 0,1.56038 -3.08334,0 0,15.22618 z" /></g><g
       id="g8454"
       transform="translate(0,-8.8301865)"><path
         inkscape:connector-curvature="0"
         id="path52"
         style="fill:#ff0000;fill-opacity:1;fill-rule:evenodd;stroke:none"
         d="m -76.883125,82.512562 c 0,7.577201 -5.735356,13.718854 -12.811294,13.718854 -7.073023,0 -12.814211,-6.141653 -12.814211,-13.718854 0,-7.577202 5.741188,-13.718854 12.814211,-13.718854 7.075938,0 12.811294,6.141652 12.811294,13.718854 z" /><path
         inkscape:connector-curvature="0"
         id="path54"
         style="fill:none;stroke:#161412;stroke-width:2.41261339;stroke-linecap:round;stroke-linejoin:round;stroke-miterlimit:10;stroke-opacity:1;stroke-dasharray:none"
         d="m -76.883125,82.512562 c 0,7.577201 -5.735356,13.718854 -12.811294,13.718854 -7.073023,0 -12.814211,-6.141653 -12.814211,-13.718854 0,-7.577202 5.741188,-13.718854 12.814211,-13.718854 7.075938,0 12.811294,6.141652 12.811294,13.718854" /><path
         inkscape:connector-curvature="0"
         id="path60"
         style="fill:#ffffff;fill-opacity:1;fill-rule:evenodd;stroke:none"
         d="m -89.318473,79.557203 c 0.364288,0.377612 1.343495,1.195251 1.707784,1.538534 1.445496,1.413704 2.812306,2.777475 2.812306,5.033784 0,2.949116 -2.322703,4.862141 -5.225353,4.862141 -2.777334,0 -4.610434,-2.253187 -4.610434,-4.459564 0,-1.220216 0.900521,-1.391858 1.229838,-1.391858 0.489604,0 1.206523,0.36825 1.206523,1.31696 0,1.279511 -1.162808,1.279511 -1.433839,1.279511 0.670291,1.819402 2.217788,2.440433 3.357282,2.440433 2.162416,0 3.266938,-1.962957 3.266938,-4.047623 0,-2.571505 -1.684469,-4.462685 -4.426832,-7.461734 l -2.925965,-3.229985 c -0.273945,-0.268385 -0.273945,-0.315196 -0.273945,-0.939348 l 9.162582,0 0.673205,4.437719 -0.71692,0 c -0.06994,-0.499322 -0.262287,-1.732021 -0.536232,-2.206377 -0.136973,-0.193487 -1.900128,-0.193487 -2.276074,-0.193487 l -4.12083,0 3.129966,3.020894 z" /></g><g
       id="g8449"
       transform="translate(0,2.228221)"><path
         inkscape:connector-curvature="0"
         id="path66"
         style="fill:#ff0000;fill-opacity:1;fill-rule:evenodd;stroke:none"
         d="m -149.36194,34.006614 c 0,7.577201 -5.73536,13.718854 -12.8113,13.718854 -7.07593,0 -12.81129,-6.141653 -12.81129,-13.718854 0,-7.577202 5.73536,-13.721975 12.81129,-13.721975 7.07594,0 12.8113,6.144773 12.8113,13.721975 z" /><path
         inkscape:connector-curvature="0"
         id="path68"
         style="fill:none;stroke:#161412;stroke-width:2.41261339;stroke-linecap:round;stroke-linejoin:round;stroke-miterlimit:10;stroke-opacity:1;stroke-dasharray:none"
         d="m -149.36194,34.006614 c 0,7.577201 -5.73536,13.718854 -12.8113,13.718854 -7.07593,0 -12.81129,-6.141653 -12.81129,-13.718854 0,-7.577202 5.73536,-13.721975 12.81129,-13.721975 7.07594,0 12.8113,6.144773 12.8113,13.721975" /><path
         inkscape:connector-curvature="0"
         id="path74"
         style="fill:#ffffff;fill-opacity:1;fill-rule:evenodd;stroke:none"
         d="m -162.46758,34.271878 c 1.82144,0 2.98134,-1.426186 2.98134,-4.03514 0,-3.095793 -1.64076,-4.022658 -2.86768,-4.022658 -1.27647,0 -3.01923,0.499321 -3.83815,1.816281 0.84224,0 1.42219,0.571099 1.42219,1.388738 0,0.792673 -0.53332,1.363771 -1.27356,1.363771 -0.62657,0 -1.27646,-0.424423 -1.27646,-1.413703 0,-2.362414 2.35767,-3.900948 5.00969,-3.900948 3.08625,0 5.23701,2.281274 5.23701,4.768519 0,2.0597 -1.52418,3.935276 -3.89351,4.484529 1.8331,0.69593 3.19991,2.378018 3.19991,4.365941 0,1.984803 -2.08373,3.398506 -4.49678,3.398506 -2.48299,0 -4.3598,-1.435549 -4.3598,-3.326728 0,-0.914382 0.57994,-1.31696 1.18321,-1.31696 0.71692,0 1.1832,0.549253 1.1832,1.267028 0,0.914382 -0.75189,1.270148 -1.25023,1.295115 0.96755,1.363771 2.75402,1.435548 3.17368,1.435548 0.60326,0 2.36933,-0.193487 2.36933,-2.752509 0,-1.73202 -0.68195,-2.780595 -1.00252,-3.17069 -0.69361,-0.767707 -1.22984,-0.817639 -2.64037,-0.926865 -0.44297,-0.02497 -0.62657,-0.04681 -0.62657,-0.365129 0,-0.352646 0.204,-0.352646 0.60326,-0.352646 l 1.16281,0 z" /></g><g
       id="g8444"
       transform="translate(0,11.162953)"><path
         inkscape:connector-curvature="0"
         id="path80"
         style="fill:#ff0000;fill-opacity:1;fill-rule:evenodd;stroke:none"
         d="m -52.000771,-12.380339 c 0,7.580322 -5.738271,13.7219746 -12.814208,13.7219746 -7.075938,0 -12.811294,-6.1416526 -12.811294,-13.7219746 0,-7.574081 5.735356,-13.718854 12.811294,-13.718854 7.075937,0 12.814208,6.144773 12.814208,13.718854 z" /><path
         inkscape:connector-curvature="0"
         id="path82"
         style="fill:none;stroke:#161412;stroke-width:2.41261339;stroke-linecap:round;stroke-linejoin:round;stroke-miterlimit:10;stroke-opacity:1;stroke-dasharray:none"
         d="m -52.000771,-12.380339 c 0,7.580322 -5.738271,13.7219746 -12.814208,13.7219746 -7.075938,0 -12.811294,-6.1416526 -12.811294,-13.7219746 0,-7.574081 5.735356,-13.718854 12.811294,-13.718854 7.075937,0 12.814208,6.144773 12.814208,13.718854" /><path
         inkscape:connector-curvature="0"
         id="path88"
         style="fill:#ffffff;fill-opacity:1;fill-rule:evenodd;stroke:none"
         d="m -61.842386,-4.347507 c 0,0.4993213 0,0.6928084 -0.489604,0.6928084 -0.297259,0 -0.329317,-0.021845 -0.559547,-0.3651288 l -7.399425,-11.4843906 0,-0.814518 6.548448,0 0,-2.059701 c 0,-0.914382 -0.06994,-1.19525 -1.856414,-1.19525 l -0.536233,0 0,-0.817639 c 1.970072,0.07178 2.016701,0.07178 3.336882,0.07178 1.320181,0 1.363896,0 3.345625,-0.07178 l 0,0.817639 -0.533319,0 c -1.789384,0 -1.856413,0.280868 -1.856413,1.19525 l 0,2.059701 2.459675,0 0,0.814518 -2.459675,0 0,11.156711 z m -1.742756,-2.0128892 0,-9.1438218 -5.895643,0 5.895643,9.1438218 z" /></g><g
       id="g8439"
       transform="translate(0,4.97761)"><path
         inkscape:connector-curvature="0"
         id="path94"
         style="fill:#ff0000;fill-opacity:1;fill-rule:evenodd;stroke:none"
         d="m 25.205052,-43.640976 c 0,7.577201 -5.738271,13.718854 -12.814208,13.718854 -7.075938,0 -12.81129431,-6.141653 -12.81129431,-13.718854 0,-7.580322 5.73535631,-13.721975 12.81129431,-13.721975 7.075937,0 12.814208,6.141653 12.814208,13.721975 z" /><path
         inkscape:connector-curvature="0"
         id="path96"
         style="fill:none;stroke:#161412;stroke-width:2.41261339;stroke-linecap:round;stroke-linejoin:round;stroke-miterlimit:10;stroke-opacity:1;stroke-dasharray:none"
         d="m 25.205052,-43.640976 c 0,7.577201 -5.738271,13.718854 -12.814208,13.718854 -7.075938,0 -12.81129431,-6.141653 -12.81129431,-13.718854 0,-7.580322 5.73535631,-13.721975 12.81129431,-13.721975 7.075937,0 12.814208,6.141653 12.814208,13.721975" /><path
         inkscape:connector-curvature="0"
         id="path102"
         style="fill:#ffffff;fill-opacity:1;fill-rule:evenodd;stroke:none"
         d="m 9.4677936,-37.724018 c 0.3060023,-0.09674 1.2269234,-0.340163 2.2061304,-0.340163 2.905564,0 4.657063,2.18141 4.657063,2.546539 0,0.280868 -0.160287,0.355767 -0.273945,0.355767 -0.04371,0 -0.09034,0 -0.306002,-0.12171 -0.900521,-0.380733 -1.970072,-0.670963 -3.223224,-0.670963 -1.363896,0 -2.50339,0.365129 -3.2203093,0.670963 -0.2273159,0.12171 -0.2739448,0.12171 -0.2972593,0.12171 -0.3060022,0 -0.3060022,-0.268386 -0.3060022,-0.720896 l 0,-7.265125 c 0,-0.449389 0,-0.742741 0.3759456,-0.742741 0.180687,0 0.2506304,0.09674 0.3642884,0.293352 0.2826877,0.377611 1.1598938,1.632156 3.1299658,1.632156 1.296867,0 1.923443,-1.132835 2.139101,-1.610311 0.387603,-0.889416 0.434232,-2.034735 0.434232,-2.999049 0,-0.914382 -0.02331,-2.253188 -0.673205,-3.351694 -0.431317,-0.742741 -1.363896,-1.510448 -2.593733,-1.510448 -1.503783,0 -2.9959078,1.023609 -3.529226,2.633921 0.078686,-0.02497 0.2156587,-0.02497 0.2389732,-0.02497 0.6469761,0 1.1598942,0.44939 1.1598942,1.217096 0,0.914382 -0.6702906,1.2327 -1.1365798,1.2327 -0.4225745,0 -1.1628085,-0.243419 -1.1628085,-1.304477 0,-2.243825 1.8097847,-4.497013 4.4734609,-4.497013 2.90265,0 5.362325,2.412346 5.362325,5.483172 0,2.87734 -1.946757,5.426999 -4.68912,5.426999 -1.162808,0 -2.244016,-0.390094 -3.1299654,-1.232699 l 0,4.777881 z" /></g><g
       id="g8429"
       transform="translate(0,14.770552)"><path
         inkscape:connector-curvature="0"
         id="path108"
         style="fill:#ff0000;fill-opacity:1;fill-rule:evenodd;stroke:none"
         d="m -39.026276,-90.886131 c 0,7.577201 -5.735356,13.721974 -12.811294,13.721974 -7.075938,0 -12.814208,-6.144773 -12.814208,-13.721974 0,-7.577202 5.73827,-13.718859 12.814208,-13.718859 7.075938,0 12.811294,6.141657 12.811294,13.718859 z" /><path
         inkscape:connector-curvature="0"
         id="path110"
         style="fill:none;stroke:#161412;stroke-width:2.41261339;stroke-linecap:round;stroke-linejoin:round;stroke-miterlimit:10;stroke-opacity:1;stroke-dasharray:none"
         d="m -39.026276,-90.886131 c 0,7.577201 -5.735356,13.721974 -12.811294,13.721974 -7.075938,0 -12.814208,-6.144773 -12.814208,-13.721974 0,-7.577202 5.73827,-13.718859 12.814208,-13.718859 7.075938,0 12.811294,6.141657 12.811294,13.718859" /><path
         inkscape:connector-curvature="0"
         id="path116"
         style="fill:#ffffff;fill-opacity:1;fill-rule:evenodd;stroke:none"
         d="m -54.807249,-90.695765 c 0,2.059701 0.160287,3.875982 1.002522,5.386429 0.693605,1.245183 1.876813,2.256308 3.333967,2.256308 0.466289,0 1.538754,-0.07178 2.072072,-0.939348 -1.046236,-0.04681 -1.136579,-0.901899 -1.136579,-1.170284 0,-0.742741 0.533318,-1.170285 1.081207,-1.170285 0.419661,0 1.092866,0.280868 1.092866,1.220217 0,1.485481 -1.037494,2.705697 -3.132881,2.705697 -3.220309,0 -6.487247,-3.279917 -6.487247,-8.632017 0,-6.715873 2.914307,-8.385478 5.167066,-8.385478 1.11618,0 2.322703,0.327679 3.360196,1.388737 0.932579,0.976798 1.716527,2.012889 1.716527,4.169333 0,3.242468 -2.287731,5.536226 -4.869807,5.536226 -1.664069,0 -2.663676,-1.148439 -3.199909,-2.365535 z m 2.992993,-7.986021 c -1.229837,0 -1.990471,0.926865 -2.343103,1.622795 -0.536232,1.107869 -0.582861,2.789958 -0.582861,3.741789 0,2.449795 1.253152,4.291043 3.039622,4.291043 1.162809,0 1.856414,-0.645997 2.299389,-1.510447 0.489603,-0.926866 0.489603,-2.037856 0.489603,-3.304883 0,-1.267028 0,-2.353052 -0.466289,-3.242468 -0.603261,-1.145319 -1.410525,-1.597829 -2.436361,-1.597829 z" /></g><g
       id="g8434"
       transform="translate(0,21.786015)"><path
         inkscape:connector-curvature="0"
         id="path122"
         style="fill:#ff0000;fill-opacity:1;fill-rule:evenodd;stroke:none"
         d="m 20.014671,-135.3507 c 0,7.5772 -5.738271,13.72198 -12.8142083,13.72198 -7.07593758,0 -12.8112939,-6.14478 -12.8112939,-13.72198 0,-7.5772 5.73535632,-13.71885 12.8112939,-13.71885 7.0759373,0 12.8142083,6.14165 12.8142083,13.71885 z" /><path
         inkscape:connector-curvature="0"
         id="path124"
         style="fill:none;stroke:#161412;stroke-width:2.41261339;stroke-linecap:round;stroke-linejoin:round;stroke-miterlimit:10;stroke-opacity:1;stroke-dasharray:none"
         d="m 20.014671,-135.3507 c 0,7.5772 -5.738271,13.72198 -12.8142083,13.72198 -7.07593758,0 -12.8112939,-6.14478 -12.8112939,-13.72198 0,-7.5772 5.73535632,-13.71885 12.8112939,-13.71885 7.0759373,0 12.8142083,6.14165 12.8142083,13.71885" /><path
         inkscape:connector-curvature="0"
         id="path130"
         style="fill:#ffffff;fill-opacity:1;fill-rule:evenodd;stroke:none"
         d="m 12.766789,-128.26033 c 0.206916,0.26838 0.206916,0.31519 0.206916,0.86445 l -5.8869003,0 c -0.5799471,0 -1.2968666,0.025 -1.8768137,0.0718 -1.2065232,0.0999 -1.2298376,0.3308 -1.299781,0.7209 l -0.7285768,0 -0.7839486,-5.23039 0.7169196,0 c 0.046629,0.37761 0.3060022,2.08466 0.626576,2.28127 0.2622876,0.12171 2.002129,0.12171 2.3431029,0.12171 l 4.9193499,0 -2.3897314,-3.41411 c -2.6432765,-3.77924 -3.1999091,-7.69267 -3.1999091,-9.65562 0,-0.24342 0,-1.38874 1.0928651,-1.38874 1.0928652,0 1.0928652,1.12035 1.0928652,1.4137 l 0,1.19525 c 0,3.57015 0.5566326,6.49742 1.6844695,8.10461 l 3.4825967,4.9152 z" /></g><path
       d="m -162.45986,50.466105 -0.8776,46.646715"
       style="fill:none;stroke:#161412;stroke-width:2.41261339;stroke-linecap:round;stroke-linejoin:round;stroke-miterlimit:10;stroke-opacity:1;stroke-dasharray:none"
       id="path136"
       inkscape:connector-curvature="0"
       sodipodi:nodetypes="cc" /><path
       d="M -149.52932,107.19389 -100.8225,82.279723"
       style="fill:none;stroke:#161412;stroke-width:2.41261339;stroke-linecap:round;stroke-linejoin:round;stroke-miterlimit:10;stroke-opacity:1;stroke-dasharray:none"
       id="path142"
       inkscape:connector-curvature="0"
       sodipodi:nodetypes="cc" /><path
       d="m -149.60509,42.612853 48.39065,23.445235"
       style="fill:none;stroke:#161412;stroke-width:2.41261339;stroke-linecap:round;stroke-linejoin:round;stroke-miterlimit:10;stroke-opacity:1;stroke-dasharray:none"
       id="path148"
       inkscape:connector-curvature="0"
       sodipodi:nodetypes="cc" /><path
       d="M -149.74419,30.084026 -77.431408,3.6586677"
       style="fill:none;stroke:#161412;stroke-width:2.41261339;stroke-linecap:round;stroke-linejoin:round;stroke-miterlimit:10;stroke-opacity:1;stroke-dasharray:none"
       id="path154"
       inkscape:connector-curvature="0"
       sodipodi:nodetypes="cc" /><path
       d="M -52.918778,-8.223417 -0.75244358,-34.544778"
       style="fill:none;stroke:#161412;stroke-width:2.41261339;stroke-linecap:round;stroke-linejoin:round;stroke-miterlimit:10;stroke-opacity:1;stroke-dasharray:none"
       id="path160"
       inkscape:connector-curvature="0"
       sodipodi:nodetypes="cc" /><path
       d="M 0.3964238,-45.761529 -38.87497,-70.578061"
       style="fill:none;stroke:#161412;stroke-width:2.41261339;stroke-linecap:round;stroke-linejoin:round;stroke-miterlimit:10;stroke-opacity:1;stroke-dasharray:none"
       id="path166"
       inkscape:connector-curvature="0"
       sodipodi:nodetypes="cc" /><path
       d="M -41.787624,-86.08443 -6.1653349,-110.2718"
       style="fill:none;stroke:#161412;stroke-width:2.41261339;stroke-linecap:round;stroke-linejoin:round;stroke-miterlimit:10;stroke-opacity:1;stroke-dasharray:none"
       id="path172"
       inkscape:connector-curvature="0"
       sodipodi:nodetypes="cc" /><path
       d="m 7.879579,-99.88083 3.316244,47.064691"
       style="fill:none;stroke:#161412;stroke-width:2.41261339;stroke-linecap:round;stroke-linejoin:round;stroke-miterlimit:10;stroke-opacity:1;stroke-dasharray:none"
       id="path178"
       inkscape:connector-curvature="0"
       sodipodi:nodetypes="cc" /><path
       d="m 6.4485715,137.21321 425.1828385,0"
       style="fill:none;stroke:#161412;stroke-width:4.80000019;stroke-linecap:round;stroke-linejoin:round;stroke-miterlimit:10;stroke-opacity:1;stroke-dasharray:none"
       id="path184"
       inkscape:connector-curvature="0" /><path
       d="m 6.4485715,137.21321 -46.6289135,0"
       style="fill:none;stroke:#161412;stroke-width:3.61892009;stroke-linecap:butt;stroke-linejoin:round;stroke-miterlimit:10;stroke-opacity:1;stroke-dasharray:3.01576662, 9.04729986;stroke-dashoffset:0"
       id="path190"
       inkscape:connector-curvature="0" /><path
       d="m 466.6031,137.21321 -40.4943,0"
       style="fill:none;stroke:#161412;stroke-width:3.61892009;stroke-linecap:butt;stroke-linejoin:round;stroke-miterlimit:10;stroke-opacity:1;stroke-dasharray:3.01576662, 9.04729986;stroke-dashoffset:0"
       id="path196"
       inkscape:connector-curvature="0" /><path
       d="m 18.621632,104.34851 c -1.296867,-2.25631 -2.448018,-2.34057 -3.505911,-2.41547 -0.180687,-0.0343 -0.306003,-0.2559 -0.306003,-0.5118 0,-0.16852 0.102001,-0.36513 0.364289,-0.36513 0.501261,0 1.728184,0.0843 2.229445,0.0843 0.579947,0 2.005043,-0.0843 2.58499,-0.0843 0.160287,0 0.501261,0 0.501261,0.5118 0,0.3308 -0.320574,0.36513 -0.39926,0.36513 -0.238973,0.025 -1.229838,0.0749 -1.229838,0.92687 0,0.39009 0.285602,0.92686 0.364289,1.06105 l 2.083729,3.63257 6.866108,0 c 0.07869,-0.646 0.157372,-1.59783 0.238973,-2.30312 0.102001,-1.09851 0.259373,-2.34057 0.259373,-2.42795 0,-0.41194 -0.364288,-0.88942 -1.900128,-0.88942 -0.262288,0 -0.603262,0 -0.603262,-0.5118 0,-0.30272 0.215659,-0.36513 0.399261,-0.36513 0.50126,0 1.127836,0.0624 1.661155,0.0624 0.524575,0 1.151151,0.0219 1.570811,0.0219 0.877207,0 0.923835,0 1.559154,-0.0219 0.422575,-0.0375 1.025836,-0.0624 1.445497,-0.0624 0.160287,0 0.501261,0 0.501261,0.5118 0,0.36513 -0.294346,0.36513 -0.603262,0.36513 -1.582469,0 -1.605783,0.19661 -1.68447,1.01425 l -1.844756,17.49185 c -0.05537,0.62103 -0.07869,0.76771 -0.521661,0.76771 -0.375946,0 -0.536232,-0.19349 -0.740234,-0.56174 l -9.290811,-16.2966 z m 3.188252,4.08195 5.315696,9.2905 0.96755,-9.2905 -6.283246,0 z"
       style="fill:#161412;fill-opacity:1;fill-rule:evenodd;stroke:none"
       id="path412"
       inkscape:connector-curvature="0" /><path
       d="m 40.216648,109.7599 c 0,0.56174 -0.06703,0.56174 -0.591605,0.56174 -1.148237,-1.19525 -2.925964,-1.19525 -3.549626,-1.19525 l 0,-0.71778 c 0.454632,0 1.602869,0 2.640362,0.51181 l 0,-9.387242 c 0,-0.621031 0,-0.855088 -1.789384,-0.855088 l -0.748977,0 0,-0.730257 c 0.955893,0.07178 2.311045,0.07178 3.290253,0.07178 0.96755,0 2.331445,0 3.287338,-0.07178 l 0,0.730257 -0.748977,0 c -1.789384,0 -1.789384,0.234057 -1.789384,0.855088 l 0,10.226722 z"
       style="fill:#161412;fill-opacity:1;fill-rule:evenodd;stroke:none"
       id="path418"
       inkscape:connector-curvature="0" /><path
       d="m 30.27886,66.899407 c -1.296866,-2.256308 -2.448017,-2.340568 -3.505911,-2.415467 -0.180687,-0.03433 -0.306002,-0.255902 -0.306002,-0.511804 0,-0.168521 0.102001,-0.365129 0.364288,-0.365129 0.501261,0 1.728184,0.08426 2.229445,0.08426 0.579947,0 2.005043,-0.08426 2.58499,-0.08426 0.160287,0 0.501261,0 0.501261,0.511805 0,0.3308 -0.320573,0.365128 -0.39926,0.365128 -0.238973,0.02497 -1.229837,0.0749 -1.229837,0.926866 0,0.390094 0.285602,0.926865 0.364288,1.061057 l 2.08373,3.632563 6.866107,0 c 0.07869,-0.645997 0.157373,-1.597828 0.238973,-2.303119 0.102001,-1.098507 0.259374,-2.340569 0.259374,-2.427951 0,-0.41194 -0.364289,-0.889416 -1.900129,-0.889416 -0.262287,0 -0.603261,0 -0.603261,-0.511804 0,-0.302714 0.215659,-0.365129 0.39926,-0.365129 0.501261,0 1.127837,0.06241 1.661155,0.06241 0.524575,0 1.151151,0.02185 1.570811,0.02185 0.877207,0 0.923836,0 1.559155,-0.02185 0.422574,-0.03745 1.025836,-0.06241 1.445496,-0.06241 0.160287,0 0.501261,0 0.501261,0.511805 0,0.365128 -0.294345,0.365128 -0.603262,0.365128 -1.582468,0 -1.605783,0.196608 -1.684469,1.014247 l -1.844757,17.491851 c -0.05537,0.621031 -0.07869,0.767706 -0.521661,0.767706 -0.375945,0 -0.536232,-0.193487 -0.740234,-0.561736 L 30.27886,66.899407 z m 3.188252,4.081952 5.315697,9.290498 0.967549,-9.290498 -6.283246,0 z"
       style="fill:#161412;fill-opacity:1;fill-rule:evenodd;stroke:none"
       id="path436"
       inkscape:connector-curvature="0" /><path
       d="m 54.983442,63.972136 -0.638234,0 c -0.03497,-0.255902 -0.215658,-1.485481 -0.477946,-1.694572 -0.113658,-0.109226 -1.524183,-0.109226 -1.774813,-0.109226 l -3.246538,0 2.220702,1.937991 c 0.591604,0.499321 2.139101,1.694571 2.686991,2.256308 0.524575,0.549253 1.229838,1.497964 1.229838,2.827407 0,2.315603 -1.970072,3.682495 -4.292775,3.682495 -2.241102,0 -3.811913,-1.585345 -3.811913,-3.329849 0,-0.948711 0.748976,-1.057937 0.944235,-1.057937 0.431318,0 0.932578,0.327679 0.932578,0.998642 0,0.415061 -0.227316,0.998643 -0.990864,0.998643 0.39926,0.951831 1.457153,1.657123 2.663677,1.657123 1.821442,0 2.800649,-1.448032 2.800649,-2.949117 0,-1.329443 -0.818921,-2.680731 -2.037101,-3.875982 l -4.12083,-4.035141 c -0.171944,-0.184124 -0.192344,-0.20597 -0.192344,-0.780189 l 7.568455,0 0.536233,3.473404 z"
       style="fill:#161412;fill-opacity:1;fill-rule:evenodd;stroke:none"
       id="path442"
       inkscape:connector-curvature="0" /><path
       d="m 41.936089,29.450307 c -1.296867,-2.256309 -2.448018,-2.340569 -3.505912,-2.415467 -0.180687,-0.03433 -0.306002,-0.255903 -0.306002,-0.511805 0,-0.168521 0.102001,-0.365129 0.364288,-0.365129 0.501261,0 1.728185,0.08426 2.229445,0.08426 0.579948,0 2.005044,-0.08426 2.584991,-0.08426 0.160287,0 0.501261,0 0.501261,0.511805 0,0.3308 -0.320574,0.365129 -0.39926,0.365129 -0.238974,0.02497 -1.229838,0.0749 -1.229838,0.926865 0,0.390095 0.285602,0.926865 0.364288,1.061058 l 2.08373,3.632562 6.866107,0 c 0.07869,-0.645997 0.157373,-1.597828 0.238974,-2.303119 0.102,-1.098507 0.259373,-2.340569 0.259373,-2.42795 0,-0.41194 -0.364289,-0.889416 -1.900128,-0.889416 -0.262288,0 -0.603262,0 -0.603262,-0.511805 0,-0.302713 0.215659,-0.365129 0.39926,-0.365129 0.501261,0 1.127837,0.06242 1.661155,0.06242 0.524575,0 1.151151,0.02184 1.570812,0.02184 0.877206,0 0.923835,0 1.559154,-0.02184 0.422575,-0.03745 1.025836,-0.06242 1.445496,-0.06242 0.160287,0 0.501261,0 0.501261,0.511805 0,0.365129 -0.294345,0.365129 -0.603261,0.365129 -1.582469,0 -1.605784,0.196607 -1.68447,1.014246 l -1.844756,17.491851 c -0.05537,0.621031 -0.07869,0.767706 -0.521661,0.767706 -0.375946,0 -0.536233,-0.193487 -0.740234,-0.561736 l -9.290811,-16.2966 z m 3.188252,4.081952 5.315696,9.290497 0.96755,-9.290497 -6.283246,0 z"
       style="fill:#161412;fill-opacity:1;fill-rule:evenodd;stroke:none"
       id="path460"
       inkscape:connector-curvature="0" /><path
       d="m 62.394524,29.228733 c 1.480468,0 2.468419,-1.057937 2.468419,-2.9616 0,-2.047218 -1.148237,-2.936634 -2.413047,-2.936634 -0.466289,0 -2.264416,0.109227 -3.051279,1.195251 0.684862,0.07178 0.958807,0.546132 0.958807,1.057937 0,0.624152 -0.410917,1.048575 -0.990865,1.048575 -0.466289,0 -0.990864,-0.302714 -0.990864,-1.095387 0,-1.841247 1.911785,-2.877339 4.12083,-2.877339 2.584991,0 4.301517,1.766349 4.301517,3.607597 0,1.354409 -0.976292,2.793079 -3.048365,3.351694 1.375553,0.477476 2.491733,1.672727 2.491733,3.195657 0,1.485481 -1.637841,2.608954 -3.72157,2.608954 -2.037101,0 -3.587512,-1.011126 -3.587512,-2.537176 0,-0.792673 0.579947,-1.023609 0.923835,-1.023609 0.454632,0 0.920921,0.343283 0.920921,0.98928 0,0.571099 -0.375946,0.914382 -0.853892,0.98616 0.81892,0.964314 2.401389,0.964314 2.561676,0.964314 0.888864,0 2.005043,-0.440027 2.005043,-1.987923 0,-1.023609 -0.547889,-2.805562 -2.290645,-2.914788 -0.306002,-0.02497 -0.772292,-0.05929 -0.932578,-0.05929 -0.171945,-0.02497 -0.364289,-0.03745 -0.364289,-0.318317 0,-0.293351 0.192344,-0.293351 0.489604,-0.293351 l 1.002521,0 z"
       style="fill:#161412;fill-opacity:1;fill-rule:evenodd;stroke:none"
       id="path466"
       inkscape:connector-curvature="0" /><path
       d="m 76.907774,-7.9987943 c -1.296867,-2.2563087 -2.448018,-2.3405687 -3.505912,-2.4154667 -0.180687,-0.03433 -0.306002,-0.255903 -0.306002,-0.511805 0,-0.168521 0.102001,-0.365128 0.364288,-0.365128 0.501261,0 1.728185,0.08426 2.229445,0.08426 0.579947,0 2.005044,-0.08426 2.584991,-0.08426 0.160287,0 0.501261,0 0.501261,0.511804 0,0.3308 -0.320574,0.365129 -0.399261,0.365129 -0.238973,0.02497 -1.229837,0.0749 -1.229837,0.9268649 0,0.3900948 0.285602,0.9268653 0.364288,1.0610579 l 2.08373,3.6325628 6.866107,0 c 0.07869,-0.645997 0.157373,-1.5978284 0.238973,-2.3031197 0.102001,-1.098507 0.259374,-2.3405689 0.259374,-2.4279501 0,-0.4119401 -0.364289,-0.8894158 -1.900128,-0.8894158 -0.262288,0 -0.603262,0 -0.603262,-0.511805 0,-0.302713 0.215659,-0.365128 0.39926,-0.365128 0.501261,0 1.127837,0.06242 1.661155,0.06242 0.524575,0 1.151151,0.02184 1.570812,0.02184 0.877206,0 0.923835,0 1.559154,-0.02184 0.422574,-0.03745 1.025836,-0.06242 1.445496,-0.06242 0.160287,0 0.501261,0 0.501261,0.511804 0,0.365129 -0.294345,0.365129 -0.603262,0.365129 -1.582468,0 -1.605783,0.196607 -1.684469,1.0142461 L 87.46048,8.091836 c -0.05537,0.6210309 -0.07869,0.7677066 -0.521661,0.7677066 -0.375946,0 -0.536233,-0.1934871 -0.740234,-0.5617365 L 76.907774,-7.9987943 z m 3.188252,4.081952 5.315696,9.2904977 0.96755,-9.2904977 -6.283246,0 z"
       style="fill:#161412;fill-opacity:1;fill-rule:evenodd;stroke:none"
       id="path484"
       inkscape:connector-curvature="0" /><path
       d="m 102.06699,-11.350489 0,0.730258 -2.0371,0 0,8.2169565 c 0,0.4244231 0,0.5586157 -0.434236,0.5586157 -0.317659,0 -0.352631,-0.059294 -0.498346,-0.2777475 l -6.047187,-8.4978247 0,-0.730258 5.420611,0 0,-1.488602 c 0,-0.608547 0,-0.830121 -1.468811,-0.830121 l -0.501261,0 0,-0.730258 c 0.340974,0.02497 1.981729,0.07178 2.742363,0.07178 0.775207,0 2.404307,-0.04681 2.756937,-0.07178 l 0,0.730258 -0.51292,0 c -1.45715,0 -1.45715,0.221574 -1.45715,0.830121 l 0,1.488602 2.0371,0 z m -3.4826,7.4835788 0,-6.7533208 -4.782378,0 4.782378,6.7533208 z"
       style="fill:#161412;fill-opacity:1;fill-rule:evenodd;stroke:none"
       id="path490"
       inkscape:connector-curvature="0" /><path
       d="m 76.907774,-45.447895 c -1.296867,-2.256308 -2.448018,-2.340569 -3.505912,-2.415467 -0.180687,-0.03433 -0.306002,-0.255902 -0.306002,-0.511805 0,-0.168521 0.102001,-0.365128 0.364288,-0.365128 0.501261,0 1.728185,0.08426 2.229445,0.08426 0.579947,0 2.005044,-0.08426 2.584991,-0.08426 0.160287,0 0.501261,0 0.501261,0.511804 0,0.3308 -0.320574,0.365129 -0.399261,0.365129 -0.238973,0.02497 -1.229837,0.0749 -1.229837,0.926865 0,0.390095 0.285602,0.926865 0.364288,1.061058 l 2.08373,3.632563 6.866107,0 c 0.07869,-0.645997 0.157373,-1.597829 0.238973,-2.30312 0.102001,-1.098507 0.259374,-2.340569 0.259374,-2.42795 0,-0.41194 -0.364289,-0.889416 -1.900128,-0.889416 -0.262288,0 -0.603262,0 -0.603262,-0.511805 0,-0.302713 0.215659,-0.365128 0.39926,-0.365128 0.501261,0 1.127837,0.06242 1.661155,0.06242 0.524575,0 1.151151,0.02184 1.570812,0.02184 0.877206,0 0.923835,0 1.559154,-0.02184 0.422574,-0.03745 1.025836,-0.06242 1.445496,-0.06242 0.160287,0 0.501261,0 0.501261,0.511804 0,0.365129 -0.294345,0.365129 -0.603262,0.365129 -1.582468,0 -1.605783,0.196608 -1.684469,1.014246 l -1.844756,17.491851 c -0.05537,0.621031 -0.07869,0.767707 -0.521661,0.767707 -0.375946,0 -0.536233,-0.193487 -0.740234,-0.561737 l -9.290811,-16.2966 z m 3.188252,4.081952 5.315696,9.290498 0.96755,-9.290498 -6.283246,0 z"
       style="fill:#161412;fill-opacity:1;fill-rule:evenodd;stroke:none"
       id="path508"
       inkscape:connector-curvature="0" /><path
       d="m 95.212536,-41.521981 c 0.571205,-0.171642 1.186123,-0.24654 1.777728,-0.24654 0.375945,0 1.355153,0 2.448018,0.645997 0.294345,0.196608 1.375548,0.951831 1.375548,1.341926 0,0.243419 -0.16903,0.305834 -0.25063,0.305834 -0.0437,0 -0.067,0 -0.25063,-0.0749 -0.623658,-0.268385 -1.512522,-0.524287 -2.652016,-0.524287 -0.853892,0 -1.78647,0.171642 -2.570418,0.489959 -0.171945,0.07178 -0.241888,0.109226 -0.308917,0.109226 -0.25063,0 -0.25063,-0.20909 -0.25063,-0.511804 l 0,-5.570554 c 0,-0.318317 0,-0.549253 0.317659,-0.549253 0.14863,0 0.206916,0.08426 0.332231,0.230936 0.431318,0.596065 1.194866,1.220216 2.550019,1.220216 2.139101,0 2.139101,-2.780595 2.139101,-3.37666 0,-0.733378 -0.04371,-1.76947 -0.626576,-2.537177 -0.533318,-0.705291 -1.331838,-0.998642 -2.083729,-0.998642 -1.194866,0 -2.401389,0.705291 -2.82105,1.778832 0.853892,0.02497 0.955893,0.74274 0.955893,0.976797 0,0.499322 -0.364288,0.948711 -0.900521,0.948711 -0.157372,0 -0.885949,-0.09674 -0.885949,-1.023609 0,-1.719538 1.512525,-3.351694 3.709913,-3.351694 2.378074,0 4.39477,1.803798 4.39477,4.131884 0,2.122115 -1.59412,4.047623 -3.849795,4.047623 -1.124922,0 -1.990472,-0.390094 -2.550019,-0.889416 l 0,3.426593 z"
       style="fill:#161412;fill-opacity:1;fill-rule:evenodd;stroke:none"
       id="path514"
       inkscape:connector-curvature="0" /><path
       d="m 88.565002,-82.89699 c -1.296867,-2.256308 -2.448018,-2.340569 -3.505911,-2.415467 -0.180687,-0.03433 -0.306003,-0.255902 -0.306003,-0.511804 0,-0.168521 0.102001,-0.365129 0.364289,-0.365129 0.501261,0 1.728184,0.08426 2.229445,0.08426 0.579947,0 2.005043,-0.08426 2.58499,-0.08426 0.160287,0 0.501261,0 0.501261,0.511805 0,0.3308 -0.320574,0.365128 -0.39926,0.365128 -0.238973,0.02497 -1.229838,0.0749 -1.229838,0.926865 0,0.390095 0.285602,0.926866 0.364289,1.061058 l 2.083729,3.632563 6.866108,0 c 0.07869,-0.645997 0.157372,-1.597828 0.238973,-2.30312 0.102001,-1.098507 0.259373,-2.340568 0.259373,-2.42795 0,-0.41194 -0.364288,-0.889416 -1.900128,-0.889416 -0.262288,0 -0.603262,0 -0.603262,-0.511804 0,-0.302714 0.215659,-0.365129 0.39926,-0.365129 0.501261,0 1.127837,0.06242 1.661155,0.06242 0.524576,0 1.151152,0.02185 1.570812,0.02185 0.877206,0 0.923836,0 1.559156,-0.02185 0.42257,-0.03745 1.02583,-0.06242 1.44549,-0.06242 0.16029,0 0.50127,0 0.50127,0.511805 0,0.365128 -0.29435,0.365128 -0.60327,0.365128 -1.58246,0 -1.60578,0.196608 -1.68447,1.014247 l -1.844752,17.491851 c -0.05537,0.62103 -0.07869,0.767706 -0.521661,0.767706 -0.375946,0 -0.536233,-0.193487 -0.740234,-0.561736 L 88.565002,-82.89699 z m 3.188252,4.081952 5.315696,9.290498 0.96755,-9.290498 -6.283246,0 z"
       style="fill:#161412;fill-opacity:1;fill-rule:evenodd;stroke:none"
       id="path532"
       inkscape:connector-curvature="0" /><path
       d="m 106.74736,-83.140409 c 0.0204,0.926865 0.0554,2.474761 0.65864,3.632563 0.76355,1.413703 1.91178,1.962957 2.96093,1.962957 0.39635,0 1.19487,-0.0749 1.61453,-0.599186 -0.63532,-0.109226 -0.74898,-0.583582 -0.74898,-0.889416 0,-0.474355 0.31766,-0.889416 0.84224,-0.889416 0.52166,0 0.85389,0.352646 0.85389,0.926865 0,1.132836 -0.81018,2.072184 -2.58499,2.072184 -2.68699,0 -5.33901,-2.512211 -5.33901,-6.472453 0,-4.5251 1.97007,-6.291449 4.26946,-6.291449 0.67029,0 1.8535,0.109226 2.91431,1.207733 0.55663,0.596065 1.23858,1.338806 1.23858,2.974083 0,0.633514 -0.067,1.828765 -1.12493,2.889822 -0.61492,0.596065 -1.37846,1.242062 -2.85893,1.242062 -1.21818,0 -2.10413,-0.670963 -2.69574,-1.766349 z m 2.50339,-5.876388 c -2.44801,0 -2.44801,3.192536 -2.44801,3.925914 0,1.594708 0.99086,3.120758 2.55001,3.120758 0.91218,0 1.43384,-0.390094 1.84476,-0.98928 0.4896,-0.717774 0.4896,-1.560379 0.4896,-2.546539 0,-1.279511 -0.035,-1.913025 -0.62657,-2.658886 -0.42258,-0.558616 -0.96755,-0.851967 -1.80979,-0.851967 z"
       style="fill:#161412;fill-opacity:1;fill-rule:evenodd;stroke:none"
       id="path538"
       inkscape:connector-curvature="0" /><path
       d="m 129.47946,-120.34609 c -1.29687,-2.25631 -2.44802,-2.34057 -3.50591,-2.41547 -0.18069,-0.0343 -0.30601,-0.2559 -0.30601,-0.5118 0,-0.16852 0.10201,-0.36513 0.36429,-0.36513 0.50126,0 1.72819,0.0843 2.22945,0.0843 0.57995,0 2.00504,-0.0843 2.58499,-0.0843 0.16029,0 0.50126,0 0.50126,0.5118 0,0.3308 -0.32057,0.36513 -0.39926,0.36513 -0.23897,0.025 -1.22984,0.0749 -1.22984,0.92687 0,0.39009 0.2856,0.92686 0.36429,1.06106 l 2.08373,3.63256 6.86611,0 c 0.0787,-0.646 0.15737,-1.59783 0.23897,-2.30312 0.102,-1.09851 0.25937,-2.34057 0.25937,-2.42795 0,-0.41194 -0.36428,-0.88942 -1.90012,-0.88942 -0.26229,0 -0.60327,0 -0.60327,-0.5118 0,-0.30272 0.21566,-0.36513 0.39926,-0.36513 0.50126,0 1.12784,0.0624 1.66116,0.0624 0.52457,0 1.15115,0.0219 1.57081,0.0219 0.87721,0 0.92384,0 1.55915,-0.0219 0.42258,-0.0374 1.02584,-0.0624 1.4455,-0.0624 0.16029,0 0.50126,0 0.50126,0.5118 0,0.36513 -0.29434,0.36513 -0.60326,0.36513 -1.58247,0 -1.60578,0.19661 -1.68447,1.01425 l -1.84476,17.49185 c -0.0554,0.62103 -0.0787,0.76771 -0.52166,0.76771 -0.37594,0 -0.53623,-0.19349 -0.74023,-0.56174 l -9.29081,-16.2966 z m 3.18825,4.08195 5.3157,9.2905 0.96755,-9.2905 -6.28325,0 z"
       style="fill:#161412;fill-opacity:1;fill-rule:evenodd;stroke:none"
       id="path556"
       inkscape:connector-curvature="0" /><path
       d="m 154.76399,-115.50579 c 0.14863,0.181 0.14863,0.21845 0.14863,0.74274 l -4.48512,0 c -0.71692,0 -1.12784,0.0125 -1.80979,0.0718 -0.85389,0.0499 -1.0608,0.0749 -1.15115,0.51181 l -0.63823,0 -0.62366,-4.06947 0.63532,0 c 0.0583,0.39009 0.22731,1.48548 0.4896,1.69457 0.13697,0.10923 1.64075,0.10923 1.90304,0.10923 l 3.92557,0 c -0.19234,-0.2559 -1.12492,-1.45116 -1.54749,-1.98793 -1.68447,-2.16892 -2.86768,-4.81533 -2.86768,-7.64273 0,-0.17164 0,-1.06106 0.83058,-1.06106 0.85389,0 0.85389,0.85197 0.85389,1.09851 l 0,0.52116 c 0,3.57327 0.71692,5.38955 1.58247,6.5099 l 2.75402,3.5015 z"
       style="fill:#161412;fill-opacity:1;fill-rule:evenodd;stroke:none"
       id="path562"
       inkscape:connector-curvature="0" /><g
       id="g3114"
       transform="matrix(1.2,0,0,1.2,22.11955,-33.529344)"><path
         inkscape:connector-curvature="0"
         id="path568"
         style="fill:#000080;fill-opacity:1;fill-rule:evenodd;stroke:none"
         d="m -229.36259,174.63735 c 0.0233,0.0967 0.07,0.2559 0.07,0.37761 0,0.17164 -0.13697,0.29335 -0.29726,0.29335 -0.16903,0 -0.23897,-0.0718 -0.41966,-0.29335 l -1.6291,-1.91302 c -0.204,0.32768 -1.43384,2.20637 -4.14414,2.20637 -5.38273,0 -10.815,-5.32713 -10.815,-11.03188 0,-4.31601 3.06294,-6.94993 6.75245,-6.94993 3.03962,0 5.61296,1.98793 6.86319,3.92592 0.76355,1.20773 1.06956,2.40298 1.06956,2.54966 0,0.23093 -0.13406,0.32768 -0.35264,0.32768 -0.27103,0 -0.31766,-0.12171 -0.38468,-0.40258 -0.97921,-3.42659 -4.11209,-5.58304 -6.90108,-5.58304 -2.35476,0 -4.83775,1.4886 -4.83775,5.28969 0,0.79267 0.25063,4.93704 2.82396,8.03595 1.74276,2.08467 4.10917,3.02089 5.94227,3.02089 2.92597,0 4.12083,-2.4966 4.12083,-4.86214 0,-0.34328 -0.0903,-0.81764 -0.0903,-1.11099 0,-0.32768 0.306,-0.32768 0.39926,-0.32768 0.29434,0 0.35263,0.0967 0.44297,0.54926 l 1.38721,5.89823 z" /><path
         inkscape:connector-curvature="0"
         id="path574"
         style="fill:#000080;fill-opacity:1;fill-rule:evenodd;stroke:none"
         d="m -223.9886,166.20818 c 0,0.56174 -0.067,0.56174 -0.59161,0.56174 -1.14823,-1.19525 -2.92596,-1.19525 -3.55254,-1.19525 l 0,-0.7209 c 0.45755,0 1.60579,0 2.64328,0.51181 l 0,-9.38412 c 0,-0.62416 0,-0.85509 -1.78939,-0.85509 l -0.75189,0 0,-0.73026 c 0.95881,0.0718 2.31105,0.0718 3.29026,0.0718 0.96755,0 2.33436,0 3.29025,-0.0718 l 0,0.73026 -0.75189,0 c -1.78647,0 -1.78647,0.23093 -1.78647,0.85509 l 0,10.22672 z" /><path
         inkscape:connector-curvature="0"
         id="path580"
         style="fill:#000080;fill-opacity:1;fill-rule:evenodd;stroke:none"
         d="m -194.33553,166.1052 c 0.35263,0 0.81892,0 0.81892,0.5711 0,0.57421 -0.55663,0.57421 -0.90926,0.57421 l -14.5832,0 c -0.35263,0 -0.91217,0 -0.91217,-0.57421 0,-0.5711 0.46629,-0.5711 0.82183,-0.5711 l 14.76388,0 z m -0.0903,-5.25536 c 0.35263,0 0.90926,0 0.90926,0.57422 0,0.5711 -0.46629,0.5711 -0.81892,0.5711 l -14.76388,0 c -0.35554,0 -0.82183,0 -0.82183,-0.5711 0,-0.57422 0.55954,-0.57422 0.91217,-0.57422 l 14.5832,0 z" /><path
         inkscape:connector-curvature="0"
         id="path586"
         style="fill:#000080;fill-opacity:1;fill-rule:evenodd;stroke:none"
         d="m -177.50832,151.64672 c 0.1836,0 0.45755,0 0.45755,0.30584 0,0.0967 -0.0233,0.12171 -0.32058,0.4369 -3.17659,3.20814 -3.9722,7.81438 -3.9722,11.66852 0,7.14341 2.76568,10.48263 3.94889,11.62794 0.32057,0.31832 0.34389,0.34329 0.34389,0.465 0,0.13419 -0.0933,0.30271 -0.32058,0.30271 -0.37594,0 -1.53584,-1.26703 -1.71944,-1.48548 -3.10665,-3.47652 -3.75654,-7.93609 -3.75654,-10.91017 0,-5.56119 2.17407,-10.02076 5.33901,-12.41126 z" /><path
         inkscape:connector-curvature="0"
         id="path592"
         style="fill:#000080;fill-opacity:1;fill-rule:evenodd;stroke:none"
         d="m -171.34456,160.80303 c -1.07247,-1.80692 -2.0167,-2.06282 -2.85894,-2.1346 -0.22731,-0.025 -0.50126,-0.0499 -0.50126,-0.47436 0,-0.0749 0.0466,-0.34328 0.32058,-0.34328 0.204,0 0.35263,0.0749 1.96715,0.0749 1.58247,0 2.11871,-0.0749 2.23236,-0.0749 0.11366,0 0.46629,0 0.46629,0.47748 0,0.31519 -0.306,0.34016 -0.41966,0.34016 -0.4896,0.025 -0.9792,0.21845 -0.9792,0.76771 0,0.37761 0.19234,0.69592 0.62657,1.4137 l 1.58247,2.73066 6.35028,0 0.4896,-4.1943 c 0,-0.34016 -0.41966,-0.71777 -1.50087,-0.71777 -0.35263,0 -0.66155,0 -0.66155,-0.47436 0,-0.025 0.035,-0.34328 0.39926,-0.34328 0.23898,0 1.11618,0.0499 1.32018,0.0749 l 1.46882,0 c 2.08372,0 2.48007,-0.0749 2.66367,-0.0749 0.0904,0 0.46629,0 0.46629,0.47748 0,0.34016 -0.306,0.34016 -0.67029,0.34016 -1.27647,0 -1.29978,0.21845 -1.37847,0.8426 l -1.8331,15.33541 c -0.067,0.53365 -0.0903,0.71777 -0.47794,0.71777 -0.42258,0 -0.55664,-0.2559 -0.69361,-0.49932 l -8.37863,-14.26186 z m 2.92596,3.59511 4.79112,8.15454 0.97921,-8.15454 -5.77033,0 z" /><path
         inkscape:connector-curvature="0"
         id="path598"
         style="fill:#000080;fill-opacity:1;fill-rule:evenodd;stroke:none"
         d="m -150.90361,166.20818 c 0,0.56174 -0.067,0.56174 -0.5916,0.56174 -1.14824,-1.19525 -2.92597,-1.19525 -3.55255,-1.19525 l 0,-0.7209 c 0.45755,0 1.60579,0 2.64328,0.51181 l 0,-9.38412 c 0,-0.62416 0,-0.85509 -1.78938,-0.85509 l -0.74898,0 0,-0.73026 c 0.95589,0.0718 2.31105,0.0718 3.28734,0.0718 0.97046,0 2.33436,0 3.29025,-0.0718 l 0,0.73026 -0.74898,0 c -1.78938,0 -1.78938,0.23093 -1.78938,0.85509 l 0,10.22672 z" /><path
         inkscape:connector-curvature="0"
         id="path604"
         style="fill:#000080;fill-opacity:1;fill-rule:evenodd;stroke:none"
         d="m -140.71811,158.2284 c 0,-1.61967 -0.31766,-3.03338 -1.76315,-4.56879 -0.0904,-0.0749 -0.13698,-0.12483 -0.13698,-0.24654 0,-0.19349 0.18361,-0.35264 0.35264,-0.35264 0.27394,0 2.19738,1.96295 2.19738,4.86526 0,1.58534 -0.55663,2.68073 -1.57081,2.68073 -0.81892,0 -1.28521,-0.69593 -1.28521,-1.36377 0,-0.69593 0.44298,-1.39186 1.30853,-1.39186 0.54497,0 0.8976,0.34328 0.8976,0.37761 z" /><path
         inkscape:connector-curvature="0"
         id="path610"
         style="fill:#000080;fill-opacity:1;fill-rule:evenodd;stroke:none"
         d="m -129.7982,160.80303 c -1.06955,-1.80692 -2.01378,-2.06282 -2.85602,-2.1346 -0.22732,-0.025 -0.50126,-0.0499 -0.50126,-0.47436 0,-0.0749 0.0466,-0.34328 0.32057,-0.34328 0.204,0 0.35263,0.0749 1.96716,0.0749 1.58247,0 2.1187,-0.0749 2.23236,-0.0749 0.11366,0 0.46629,0 0.46629,0.47748 0,0.31519 -0.306,0.34016 -0.41966,0.34016 -0.4896,0.025 -0.97921,0.21845 -0.97921,0.76771 0,0.37761 0.19235,0.69592 0.62366,1.4137 l 1.58247,2.73066 6.35319,0 0.48961,-4.1943 c 0,-0.34016 -0.41967,-0.71777 -1.50379,-0.71777 -0.35263,0 -0.65863,0 -0.65863,-0.47436 0,-0.025 0.035,-0.34328 0.39926,-0.34328 0.23897,0 1.11326,0.0499 1.32018,0.0749 l 1.46881,0 c 2.08082,0 2.48008,-0.0749 2.66368,-0.0749 0.0903,0 0.46629,0 0.46629,0.47748 0,0.34016 -0.30892,0.34016 -0.67321,0.34016 -1.27355,0 -1.29686,0.21845 -1.37555,0.8426 l -1.8331,15.33541 c -0.0699,0.53365 -0.0903,0.71777 -0.47795,0.71777 -0.42257,0 -0.55954,-0.2559 -0.69652,-0.49932 l -8.37863,-14.26186 z m 2.92597,3.59511 4.79403,8.15454 0.97921,-8.15454 -5.77324,0 z" /><path
         inkscape:connector-curvature="0"
         id="path616"
         style="fill:#000080;fill-opacity:1;fill-rule:evenodd;stroke:none"
         d="m -106.24185,157.86951 -0.63824,0 c -0.035,-0.2559 -0.21566,-1.48548 -0.47794,-1.69457 -0.11366,-0.10922 -1.5271,-0.10922 -1.77773,-0.10922 l -3.24363,0 2.22071,1.93799 c 0.5916,0.49932 2.1391,1.69457 2.68699,2.25631 0.52166,0.54925 1.22984,1.49796 1.22984,2.8274 0,2.31561 -1.97008,3.6825 -4.29278,3.6825 -2.24402,0 -3.81483,-1.58535 -3.81483,-3.32985 0,-0.94871 0.75189,-1.06106 0.94424,-1.06106 0.43423,0 0.93549,0.3308 0.93549,1.00176 0,0.41507 -0.22731,0.99865 -0.99086,0.99865 0.39926,0.95183 1.45715,1.65712 2.66367,1.65712 1.82145,0 2.80065,-1.45115 2.80065,-2.94912 0,-1.32944 -0.81892,-2.68073 -2.0371,-3.87598 l -4.12083,-4.03514 c -0.17194,-0.18412 -0.19526,-0.20909 -0.19526,-0.78019 l 7.57137,0 0.53624,3.4734 z" /><path
         inkscape:connector-curvature="0"
         id="path622"
         style="fill:#000080;fill-opacity:1;fill-rule:evenodd;stroke:none"
         d="m -99.165917,158.2284 c 0,-1.61967 -0.317659,-3.03338 -1.763153,-4.56879 -0.0904,-0.0749 -0.13698,-0.12483 -0.13698,-0.24654 0,-0.19349 0.18069,-0.35264 0.35264,-0.35264 0.27394,0 2.197383,1.96295 2.197383,4.86526 0,1.58534 -0.559547,2.68073 -1.570813,2.68073 -0.81892,0 -1.28812,-0.69593 -1.28812,-1.36377 0,-0.69593 0.44589,-1.39186 1.31144,-1.39186 0.544972,0 0.897603,0.34328 0.897603,0.37761 z" /><path
         inkscape:connector-curvature="0"
         id="path628"
         style="fill:#000080;fill-opacity:1;fill-rule:evenodd;stroke:none"
         d="m -88.246008,160.80303 c -1.069551,-1.80692 -2.013787,-2.06282 -2.856021,-2.1346 -0.227316,-0.025 -0.501261,-0.0499 -0.501261,-0.47436 0,-0.0749 0.04663,-0.34328 0.317659,-0.34328 0.206916,0 0.352631,0.0749 1.970072,0.0749 1.582469,0 2.118701,-0.0749 2.232359,-0.0749 0.113658,0 0.466289,0 0.466289,0.47748 0,0.31519 -0.308916,0.34016 -0.422574,0.34016 -0.489604,0.025 -0.979207,0.21845 -0.979207,0.76771 0,0.37761 0.195258,0.69592 0.626576,1.4137 l 1.582468,2.73066 6.35319,0 0.489603,-4.1943 c 0,-0.34016 -0.422574,-0.71777 -1.503782,-0.71777 -0.352631,0 -0.658634,0 -0.658634,-0.47436 0,-0.025 0.03206,-0.34328 0.396346,-0.34328 0.238973,0 1.11618,0.0499 1.323096,0.0749 l 1.465896,0 c 2.08373,0 2.48299,-0.0749 2.666591,-0.0749 0.09034,0 0.466289,0 0.466289,0.47748 0,0.34016 -0.308916,0.34016 -0.673205,0.34016 -1.273552,0 -1.296866,0.21845 -1.375553,0.8426 l -1.833099,15.33541 c -0.06994,0.53365 -0.09326,0.71777 -0.477946,0.71777 -0.422575,0 -0.559547,-0.2559 -0.69652,-0.49932 l -8.378632,-14.26186 z m 2.925964,3.59511 4.794035,8.15454 0.979207,-8.15454 -5.773242,0 z" /><path
         inkscape:connector-curvature="0"
         id="path634"
         style="fill:#000080;fill-opacity:1;fill-rule:evenodd;stroke:none"
         d="m -68.938724,160.57521 c 1.480468,0 2.471332,-1.06106 2.471332,-2.9616 0,-2.04721 -1.151151,-2.93663 -2.413046,-2.93663 -0.466289,0 -2.267331,0.10923 -3.051279,1.19525 0.681947,0.0718 0.955892,0.54613 0.955892,1.05794 0,0.62415 -0.410917,1.04857 -0.990864,1.04857 -0.466289,0 -0.990864,-0.30271 -0.990864,-1.09538 0,-1.84125 1.914699,-2.87734 4.12083,-2.87734 2.58499,0 4.304431,1.76635 4.304431,3.60759 0,1.35441 -0.979207,2.79308 -3.051279,3.3517 1.378467,0.47747 2.494647,1.6696 2.494647,3.19565 0,1.48548 -1.640755,2.60896 -3.724485,2.60896 -2.0371,0 -3.584598,-1.01425 -3.584598,-2.53718 0,-0.79267 0.579948,-1.02361 0.920922,-1.02361 0.454631,0 0.923835,0.34017 0.923835,0.98616 0,0.57422 -0.375946,0.91438 -0.853892,0.98928 0.81892,0.9612 2.401389,0.9612 2.561676,0.9612 0.885949,0 2.002129,-0.43691 2.002129,-1.98481 0,-1.02361 -0.544976,-2.80556 -2.287731,-2.91478 -0.308917,-0.025 -0.775206,-0.0593 -0.932579,-0.0593 -0.171944,-0.025 -0.364288,-0.0375 -0.364288,-0.31832 0,-0.29335 0.192344,-0.29335 0.489604,-0.29335 l 0.999607,0 z" /><path
         inkscape:connector-curvature="0"
         id="path640"
         style="fill:#000080;fill-opacity:1;fill-rule:evenodd;stroke:none"
         d="m -54.78102,164.05798 c 0,2.34993 -0.375946,5.18046 -1.809785,8.10461 -1.139494,2.28127 -3.258195,4.29104 -3.666198,4.29104 -0.238973,0 -0.308917,-0.16852 -0.308917,-0.30271 0,-0.0999 0,-0.14668 0.285602,-0.44003 3.243624,-3.30488 3.983858,-7.83934 3.983858,-11.65291 0,-7.12157 -2.75402,-10.49823 -3.937229,-11.64355 -0.308916,-0.3152 -0.332231,-0.34016 -0.332231,-0.46187 0,-0.12171 0.06994,-0.30584 0.308917,-0.30584 0.364288,0 1.524182,1.26703 1.719441,1.4886 3.106651,3.47341 3.756542,7.93609 3.756542,10.92266 z" /></g><g
       id="g3099"
       transform="matrix(1.2,0,0,1.2,6.57561,14.353347)"><path
         inkscape:connector-curvature="0"
         id="path646"
         style="fill:#8b0000;fill-opacity:1;fill-rule:evenodd;stroke:none"
         d="m -265.64279,-63.772982 c 0.0233,0.09674 0.0699,0.255902 0.0699,0.377611 0,0.168521 -0.13697,0.293352 -0.29726,0.293352 -0.17194,0 -0.23897,-0.0749 -0.41966,-0.293352 l -1.6291,-1.916145 c -0.204,0.3308 -1.43384,2.209497 -4.14414,2.209497 -5.38564,0 -10.815,-5.330256 -10.815,-11.035002 0,-4.312888 3.06294,-6.946808 6.75245,-6.946808 3.03963,0 5.61004,1.987923 6.8632,3.925914 0.76354,1.204613 1.06955,2.399863 1.06955,2.546539 0,0.230936 -0.13698,0.327679 -0.35263,0.327679 -0.27395,0 -0.31766,-0.121709 -0.38761,-0.399457 -0.9792,-3.426592 -4.10917,-5.583036 -6.89816,-5.583036 -2.35476,0 -4.83775,1.485481 -4.83775,5.289685 0,0.792673 0.25063,4.93704 2.82396,8.032832 1.73984,2.084667 4.10917,3.024015 5.94227,3.024015 2.92597,0 4.12083,-2.499727 4.12083,-4.865262 0,-0.340163 -0.0903,-0.817639 -0.0903,-1.107869 0,-0.330801 0.306,-0.330801 0.39635,-0.330801 0.29726,0 0.35263,0.09986 0.44589,0.549254 l 1.38721,5.901354 z" /><path
         inkscape:connector-curvature="0"
         id="path652"
         style="fill:#8b0000;fill-opacity:1;fill-rule:evenodd;stroke:none"
         d="m -257.15925,-80.540817 -0.63532,0 c -0.035,-0.255902 -0.21857,-1.488602 -0.47794,-1.694572 -0.11657,-0.109227 -1.5271,-0.109227 -1.77773,-0.109227 l -3.24362,0 2.2207,1.937991 c 0.5916,0.499322 2.1391,1.694572 2.68408,2.253188 0.52457,0.549253 1.22983,1.501085 1.22983,2.830528 0,2.315603 -1.96715,3.679374 -4.28986,3.679374 -2.24401,0 -3.81482,-1.585345 -3.81482,-3.326728 0,-0.951832 0.75189,-1.061058 0.94423,-1.061058 0.43423,0 0.93549,0.327679 0.93549,0.998642 0,0.415061 -0.22731,1.001764 -0.99086,1.001764 0.39634,0.94871 1.45715,1.657123 2.66368,1.657123 1.82144,0 2.80064,-1.451153 2.80064,-2.949117 0,-1.329443 -0.81892,-2.683852 -2.0371,-3.879103 l -4.12083,-4.03514 c -0.17194,-0.181004 -0.19525,-0.20597 -0.19525,-0.78019 l 7.57137,0 0.53331,3.476525 z" /><path
         inkscape:connector-curvature="0"
         id="path658"
         style="fill:#8b0000;fill-opacity:1;fill-rule:evenodd;stroke:none"
         d="m -230.61282,-72.308257 c 0.35263,0 0.81892,0 0.81892,0.57422 0,0.571099 -0.55664,0.571099 -0.91218,0.571099 l -14.58028,0 c -0.35555,0 -0.91218,0 -0.91218,-0.571099 0,-0.57422 0.46629,-0.57422 0.81892,-0.57422 l 14.7668,0 z m -0.0933,-5.252236 c 0.35554,0 0.91218,0 0.91218,0.571099 0,0.574219 -0.46629,0.574219 -0.81892,0.574219 l -14.7668,0 c -0.35263,0 -0.81892,0 -0.81892,-0.574219 0,-0.571099 0.55663,-0.571099 0.91218,-0.571099 l 14.58028,0 z" /><path
         inkscape:connector-curvature="0"
         id="path664"
         style="fill:#8b0000;fill-opacity:1;fill-rule:evenodd;stroke:none"
         d="m -213.78853,-86.76673 c 0.1836,0 0.45463,0 0.45463,0.305834 0,0.09674 -0.0204,0.12171 -0.31766,0.440027 -3.17659,3.205019 -3.9722,7.814379 -3.9722,11.665395 0,7.143416 2.76568,10.482627 3.94889,11.631067 0.32057,0.315196 0.34097,0.340162 0.34097,0.461872 0,0.134192 -0.0903,0.305834 -0.31766,0.305834 -0.37594,0 -1.53584,-1.270142 -1.71944,-1.488595 -3.10665,-3.473404 -3.75654,-7.936089 -3.75654,-10.910172 0,-5.55807 2.17407,-10.020755 5.33901,-12.411256 z" /><path
         inkscape:connector-curvature="0"
         id="path670"
         style="fill:#8b0000;fill-opacity:1;fill-rule:evenodd;stroke:none"
         d="m -207.62768,-77.610425 c -1.06955,-1.803798 -2.01379,-2.059701 -2.85602,-2.134599 -0.22732,-0.02184 -0.50127,-0.04681 -0.50127,-0.474355 0,-0.07178 0.0466,-0.340163 0.31766,-0.340163 0.20692,0 0.35555,0.07178 1.97008,0.07178 1.58246,0 2.1187,-0.07178 2.23235,-0.07178 0.11366,0 0.46629,0 0.46629,0.474356 0,0.318317 -0.306,0.340162 -0.42257,0.340162 -0.48669,0.02497 -0.97629,0.221574 -0.97629,0.770828 0,0.377611 0.19234,0.692808 0.62366,1.413703 l 1.58247,2.730664 6.35319,0 0.4896,-4.1943 c 0,-0.340162 -0.41966,-0.720895 -1.50378,-0.720895 -0.35263,0 -0.65864,0 -0.65864,-0.474355 0,-0.02497 0.035,-0.340163 0.39926,-0.340163 0.23898,0 1.11327,0.04681 1.32019,0.07178 l 1.46881,0 c 2.08081,0 2.48007,-0.07178 2.66367,-0.07178 0.0904,0 0.46629,0 0.46629,0.474356 0,0.340162 -0.30891,0.340162 -0.6732,0.340162 -1.27356,0 -1.29687,0.221574 -1.37556,0.842605 l -1.83309,15.335407 c -0.07,0.53677 -0.0904,0.720895 -0.47795,0.720895 -0.42258,0 -0.55955,-0.255902 -0.69652,-0.502442 l -8.37863,-14.261866 z m 2.92596,3.595114 4.79404,8.157662 0.9792,-8.157662 -5.77324,0 z" /><path
         inkscape:connector-curvature="0"
         id="path676"
         style="fill:#8b0000;fill-opacity:1;fill-rule:evenodd;stroke:none"
         d="m -190.47407,-73.690752 c 0.56829,-0.171642 1.18321,-0.24342 1.77773,-0.24342 0.37303,0 1.35223,0 2.4451,0.645997 0.29726,0.193487 1.37847,0.951832 1.37847,1.341926 0,0.24342 -0.17195,0.302714 -0.25063,0.302714 -0.0466,0 -0.067,0 -0.25063,-0.07178 -0.62658,-0.268386 -1.51253,-0.524288 -2.65202,-0.524288 -0.8539,0 -1.78647,0.168521 -2.57334,0.486838 -0.16903,0.07178 -0.23897,0.109227 -0.306,0.109227 -0.25063,0 -0.25063,-0.20597 -0.25063,-0.511804 l 0,-5.570554 c 0,-0.318317 0,-0.549254 0.31766,-0.549254 0.14863,0 0.204,0.08738 0.32932,0.230937 0.43423,0.599185 1.19778,1.220216 2.55001,1.220216 2.14202,0 2.14202,-2.780596 2.14202,-3.376661 0,-0.730257 -0.0466,-1.766349 -0.62658,-2.534055 -0.53623,-0.708412 -1.33183,-1.001764 -2.08372,-1.001764 -1.19487,0 -2.40139,0.708412 -2.82397,1.781953 0.85389,0.02185 0.95881,0.742741 0.95881,0.973677 0,0.499321 -0.36429,0.951831 -0.90052,0.951831 -0.16029,0 -0.88887,-0.09986 -0.88887,-1.023609 0,-1.719537 1.51544,-3.354815 3.71283,-3.354815 2.37808,0 4.39186,1.803799 4.39186,4.135005 0,2.118995 -1.59121,4.044503 -3.84688,4.044503 -1.12784,0 -1.99048,-0.390095 -2.55002,-0.889416 l 0,3.426593 z" /><path
         inkscape:connector-curvature="0"
         id="path682"
         style="fill:#8b0000;fill-opacity:1;fill-rule:evenodd;stroke:none"
         d="m -176.99832,-80.18193 c 0,-1.622794 -0.31766,-3.036498 -1.76315,-4.571911 -0.0933,-0.07178 -0.13697,-0.12171 -0.13697,-0.243419 0,-0.196608 0.18068,-0.352646 0.35263,-0.352646 0.27394,0 2.19738,1.962957 2.19738,4.862142 0,1.585345 -0.55954,2.683852 -1.57081,2.683852 -0.81892,0 -1.28812,-0.695929 -1.28812,-1.366892 0,-0.695929 0.44589,-1.388738 1.31144,-1.388738 0.54497,0 0.8976,0.340163 0.8976,0.377612 z" /><path
         inkscape:connector-curvature="0"
         id="path688"
         style="fill:#8b0000;fill-opacity:1;fill-rule:evenodd;stroke:none"
         d="m -166.07841,-77.610425 c -1.06955,-1.803798 -2.01378,-2.059701 -2.85602,-2.134599 -0.22731,-0.02184 -0.50126,-0.04681 -0.50126,-0.474355 0,-0.07178 0.0466,-0.340163 0.31766,-0.340163 0.20692,0 0.35263,0.07178 1.97007,0.07178 1.58247,0 2.1187,-0.07178 2.23236,-0.07178 0.11366,0 0.46629,0 0.46629,0.474356 0,0.318317 -0.30892,0.340162 -0.42257,0.340162 -0.48961,0.02497 -0.97921,0.221574 -0.97921,0.770828 0,0.377611 0.19526,0.692808 0.62657,1.413703 l 1.58247,2.730664 6.35319,0 0.48961,-4.1943 c 0,-0.340162 -0.42258,-0.720895 -1.50379,-0.720895 -0.35263,0 -0.65863,0 -0.65863,-0.474355 0,-0.02497 0.0321,-0.340163 0.39635,-0.340163 0.23897,0 1.11618,0.04681 1.32309,0.07178 l 1.4659,0 c 2.08373,0 2.48299,-0.07178 2.66367,-0.07178 0.0933,0 0.46921,0 0.46921,0.474356 0,0.340162 -0.30892,0.340162 -0.67321,0.340162 -1.27355,0 -1.29686,0.221574 -1.37555,0.842605 l -1.8331,15.335407 c -0.0699,0.53677 -0.0933,0.720895 -0.47795,0.720895 -0.42257,0 -0.55954,-0.255902 -0.69651,-0.502442 l -8.37864,-14.261866 z m 2.92597,3.595114 4.79403,8.157662 0.97921,-8.157662 -5.77324,0 z" /><path
         inkscape:connector-curvature="0"
         id="path694"
         style="fill:#8b0000;fill-opacity:1;fill-rule:evenodd;stroke:none"
         d="m -149.04428,-77.860086 c 0.0233,0.926866 0.0583,2.474762 0.66155,3.632563 0.76063,1.413704 1.91178,1.962957 2.95802,1.962957 0.39926,0 1.19486,-0.07178 1.61744,-0.596065 -0.63824,-0.112347 -0.75189,-0.586702 -0.75189,-0.892537 0,-0.474355 0.31766,-0.889416 0.84223,-0.889416 0.52458,0 0.85389,0.355767 0.85389,0.926865 0,1.132836 -0.80726,2.072184 -2.58499,2.072184 -2.68699,0 -5.33901,-2.50909 -5.33901,-6.472453 0,-4.521979 1.97007,-6.291449 4.26946,-6.291449 0.67321,0 1.85642,0.112347 2.91431,1.207734 0.55955,0.596065 1.24149,1.341926 1.24149,2.974082 0,0.633514 -0.067,1.828765 -1.12783,2.889823 -0.61492,0.596065 -1.37556,1.242062 -2.85602,1.242062 -1.21818,0 -2.10705,-0.667843 -2.69865,-1.76635 z m 2.50339,-5.876388 c -2.44511,0 -2.44511,3.195657 -2.44511,3.925914 0,1.597829 0.98795,3.120759 2.55002,3.120759 0.90927,0 1.43384,-0.390095 1.84184,-0.98616 0.48961,-0.720895 0.48961,-1.560379 0.48961,-2.54966 0,-1.279511 -0.0321,-1.913024 -0.62658,-2.655765 -0.41966,-0.561736 -0.96755,-0.855088 -1.80978,-0.855088 z" /><path
         inkscape:connector-curvature="0"
         id="path700"
         style="fill:#8b0000;fill-opacity:1;fill-rule:evenodd;stroke:none"
         d="m -135.44613,-80.18193 c 0,-1.622794 -0.31766,-3.036498 -1.76315,-4.571911 -0.0933,-0.07178 -0.13697,-0.12171 -0.13697,-0.243419 0,-0.196608 0.18068,-0.352646 0.35263,-0.352646 0.27394,0 2.19738,1.962957 2.19738,4.862142 0,1.585345 -0.55954,2.683852 -1.57081,2.683852 -0.82183,0 -1.28812,-0.695929 -1.28812,-1.366892 0,-0.695929 0.44589,-1.388738 1.30852,-1.388738 0.54789,0 0.90052,0.340163 0.90052,0.377612 z" /><path
         inkscape:connector-curvature="0"
         id="path706"
         style="fill:#8b0000;fill-opacity:1;fill-rule:evenodd;stroke:none"
         d="m -124.52622,-77.610425 c -1.06955,-1.803798 -2.01378,-2.059701 -2.85602,-2.134599 -0.23023,-0.02184 -0.50126,-0.04681 -0.50126,-0.474355 0,-0.07178 0.0437,-0.340163 0.31766,-0.340163 0.204,0 0.35263,0.07178 1.97007,0.07178 1.58247,0 2.11579,-0.07178 2.23236,-0.07178 0.11366,0 0.46629,0 0.46629,0.474356 0,0.318317 -0.30892,0.340162 -0.42257,0.340162 -0.48961,0.02497 -0.97921,0.221574 -0.97921,0.770828 0,0.377611 0.19526,0.692808 0.62657,1.413703 l 1.58247,2.730664 6.35319,0 0.48961,-4.1943 c 0,-0.340162 -0.42258,-0.720895 -1.50379,-0.720895 -0.35263,0 -0.66154,0 -0.66154,-0.474355 0,-0.02497 0.035,-0.340163 0.39926,-0.340163 0.23897,0 1.11618,0.04681 1.32018,0.07178 l 1.46881,0 c 2.08373,0 2.48299,-0.07178 2.66367,-0.07178 0.0933,0 0.46629,0 0.46629,0.474356 0,0.340162 -0.306,0.340162 -0.67029,0.340162 -1.27646,0 -1.29686,0.221574 -1.37846,0.842605 l -1.8331,15.335407 c -0.067,0.53677 -0.0904,0.720895 -0.47795,0.720895 -0.41966,0 -0.55663,-0.255902 -0.6936,-0.502442 l -8.37864,-14.261866 z m 2.92597,3.595114 4.79403,8.157662 0.9763,-8.157662 -5.77033,0 z" /><path
         inkscape:connector-curvature="0"
         id="path712"
         style="fill:#8b0000;fill-opacity:1;fill-rule:evenodd;stroke:none"
         d="m -100.39284,-72.77637 c 0.14863,0.184124 0.14863,0.218453 0.14863,0.74274 l -4.48512,0 c -0.71692,0 -1.12784,0.01248 -1.80978,0.0749 -0.8539,0.04681 -1.0579,0.07178 -1.15116,0.511805 l -0.63531,0 -0.62658,-4.07259 0.63823,0 c 0.0554,0.390095 0.22732,1.488602 0.48961,1.694572 0.13405,0.109226 1.63784,0.109226 1.90012,0.109226 l 3.92849,0 c -0.19526,-0.255902 -1.12784,-1.451152 -1.55041,-1.987923 -1.68447,-2.168927 -2.86768,-4.81533 -2.86768,-7.642737 0,-0.168521 0,-1.061058 0.83058,-1.061058 0.85389,0 0.85389,0.855088 0.85389,1.098507 l 0,0.524288 c 0,3.570147 0.71692,5.386429 1.58247,6.509902 l 2.75402,3.49837 z" /><path
         inkscape:connector-curvature="0"
         id="path718"
         style="fill:#8b0000;fill-opacity:1;fill-rule:evenodd;stroke:none"
         d="m -91.061229,-74.355474 c 0,2.353052 -0.375946,5.180459 -1.812699,8.10773 -1.13658,2.278154 -3.255281,4.291037 -3.663284,4.291037 -0.238973,0 -0.308917,-0.171642 -0.308917,-0.305834 0,-0.09674 0,-0.146676 0.285603,-0.440027 3.243623,-3.301763 3.983857,-7.836225 3.983857,-11.652912 0,-7.11845 -2.75402,-10.495111 -3.940143,-11.640429 -0.306002,-0.318317 -0.329317,-0.343284 -0.329317,-0.464993 0,-0.12171 0.06994,-0.305834 0.308917,-0.305834 0.364288,0 1.524183,1.270148 1.716527,1.488601 3.109565,3.473404 3.759456,7.936089 3.759456,10.922655 z" /></g><path
       d="m 12.38497,-9.42009 c 20.615808,-4.266077 31.885433,-24.575973 31.748461,-56.07066 -0.136973,-31.49157 -3.183457,-68.17107 -26.958374,-75.08979 -23.774917,-6.91872 -72.284096,14.42645 -87.126662,40.0354 -14.842566,25.605818 -11.521434,42.475414 6.620128,59.549077 18.141562,17.070549 55.1035526,35.84517 75.716447,31.575973 z"
       style="fill:none;stroke:#8b0000;stroke-width:3.61892009;stroke-linecap:round;stroke-linejoin:round;stroke-miterlimit:10;stroke-opacity:1;stroke-dasharray:none"
       id="path724"
       inkscape:connector-curvature="0"
       sodipodi:nodetypes="cssccc" /><path
       d="m -143.52545,136.49218 c 24.87652,-7.21207 58.010147,-22.87502 71.617047,-45.09794 13.603986,-22.222921 6.18416,-44.002693 -20.204891,-61.956417 -26.386136,-17.956843 -71.738586,-32.0813959 -92.902276,-13.980997 -21.16662,18.100399 -18.14157,68.43199 -9.07224,97.720304 8.07224,24.2852 31.18875,29.02712 50.56236,23.31505 z"
       style="fill:none;stroke:#000080;stroke-width:3.61892009;stroke-linecap:round;stroke-linejoin:round;stroke-miterlimit:10;stroke-opacity:1;stroke-dasharray:none"
       id="path730"
       inkscape:connector-curvature="0"
       sodipodi:nodetypes="cccccc" /><text
       xml:space="preserve"
       style="font-size:40px;font-style:normal;font-weight:bold;line-height:125%;letter-spacing:0px;word-spacing:0px;fill:#000000;fill-opacity:1;stroke:none;font-family:Sans;-inkscape-font-specification:Sans Bold"
       x="98.994949"
       y="149.17892"
       id="text8198"
       sodipodi:linespacing="125%"
       transform="matrix(0.8,0,0,-0.8,0,125)"><tspan
         sodipodi:role="line"
         id="tspan8200"
         x="98.994949"
         y="149.17892" /></text>
<g
       id="g8273"
       transform="translate(0,17.182806)"
       style="stroke-width:2.24000001;stroke-miterlimit:4;stroke-dasharray:none"><path
         sodipodi:nodetypes="cccccc"
         inkscape:connector-curvature="0"
         id="path71141-0"
         d="m 62.553165,65.847919 0,-18.6967 76.980195,0 9.34835,9.34835 -9.34835,9.34835 z"
         style="fill:#cccccc;fill-opacity:1;stroke:#484848;stroke-width:2.24000001;stroke-linecap:round;stroke-linejoin:round;stroke-miterlimit:4;stroke-opacity:1;stroke-dasharray:none" /><path
         sodipodi:nodetypes="cccccc"
         inkscape:connector-curvature="0"
         id="path71141-2-8"
         d="m 299.05833,47.151219 0,18.6967 -77.14592,0 -9.34835,-9.34835 9.34835,-9.34835 z"
         style="fill:#cccccc;fill-opacity:1;stroke:#484848;stroke-width:2.24000001;stroke-linecap:round;stroke-linejoin:round;stroke-miterlimit:4;stroke-opacity:1;stroke-dasharray:none" /><path
         sodipodi:nodetypes="cc"
         inkscape:connector-curvature="0"
         id="path71345-8"
         d="m 213.18728,56.499569 -64.54822,0"
         style="fill:none;stroke:#484848;stroke-width:2.24000001;stroke-linecap:butt;stroke-linejoin:miter;stroke-miterlimit:4;stroke-opacity:1;stroke-dasharray:none" /></g><text
       xml:space="preserve"
       style="font-size:32px;font-style:normal;font-weight:bold;line-height:125%;letter-spacing:0px;word-spacing:0px;fill:#000000;fill-opacity:1;stroke:none;font-family:Sans;-inkscape-font-specification:Sans Bold"
       x="1.2048213"
       y="-158.39191"
       id="text8256"
       sodipodi:linespacing="125%"
       transform="scale(1,-1)"><tspan
         sodipodi:role="line"
         id="tspan8258"
         x="1.2048213"
         y="-158.39191"
         style="font-style:normal;font-variant:normal;font-weight:normal;font-stretch:normal;font-family:cmss12;-inkscape-font-specification:cmss12">Reference genome</tspan></text>
<path
       style="fill:#cccccc;fill-opacity:1;stroke:#484848;stroke-width:2.24000001;stroke-linecap:round;stroke-linejoin:round;stroke-miterlimit:4;stroke-opacity:1;stroke-dasharray:none"
       d="m 52.867258,120.47983 0,-18.6967 76.980192,0 9.34835,9.34835 -9.34835,9.34835 z"
       id="path71141-0-6"
       inkscape:connector-curvature="0"
       sodipodi:nodetypes="cccccc" /><path
       style="fill:#cccccc;fill-opacity:1;stroke:#484848;stroke-width:2.24000001;stroke-linecap:round;stroke-linejoin:round;stroke-miterlimit:4;stroke-opacity:1;stroke-dasharray:none"
       d="m 298.97242,101.78313 0,18.6967 -77.14592,0 -9.34835,-9.34835 9.34835,-9.34835 z"
       id="path71141-2-8-2"
       inkscape:connector-curvature="0"
       sodipodi:nodetypes="cccccc" /><path
       style="fill:none;stroke:#484848;stroke-width:2.24000001;stroke-linecap:butt;stroke-linejoin:miter;stroke-miterlimit:4;stroke-opacity:1;stroke-dasharray:none"
       d="m 213.10137,111.13148 -74.14822,0"
       id="path71345-8-1"
       inkscape:connector-curvature="0"
       sodipodi:nodetypes="cc" /><path
       style="fill:#cccccc;fill-opacity:1;stroke:#484848;stroke-width:2.24000001;stroke-linecap:round;stroke-linejoin:round;stroke-miterlimit:4;stroke-opacity:1;stroke-dasharray:none"
       d="m 75.94742,45.581625 0,-18.696701 76.98019,0 9.34836,9.34835 -9.34836,9.348351 z"
       id="path71141-0-6-6"
       inkscape:connector-curvature="0"
       sodipodi:nodetypes="cccccc" /><path
       style="fill:#cccccc;fill-opacity:1;stroke:#484848;stroke-width:2.24000001;stroke-linecap:round;stroke-linejoin:round;stroke-miterlimit:4;stroke-opacity:1;stroke-dasharray:none"
       d="m 333.25258,26.884924 0,18.696701 -77.14592,0 -9.34835,-9.348351 9.34835,-9.34835 z"
       id="path71141-2-8-2-5"
       inkscape:connector-curvature="0"
       sodipodi:nodetypes="cccccc" /><path
       style="fill:none;stroke:#484848;stroke-width:2.24000001;stroke-linecap:butt;stroke-linejoin:miter;stroke-miterlimit:4;stroke-opacity:1;stroke-dasharray:none"
       d="m 247.38154,36.233274 -85.34823,0"
       id="path71345-8-1-8"
       inkscape:connector-curvature="0"
       sodipodi:nodetypes="cc" /><path
       style="fill:#cccccc;fill-opacity:1;stroke:#484848;stroke-width:2.24000001;stroke-linecap:round;stroke-linejoin:round;stroke-miterlimit:4;stroke-opacity:1;stroke-dasharray:none"
       d="m 110.84742,8.1325243 0,-18.6967003 76.98019,0 9.34836,9.3483503 -9.34836,9.34835 z"
       id="path71141-0-6-6-3"
       inkscape:connector-curvature="0"
       sodipodi:nodetypes="cccccc" /><path
       style="fill:#cccccc;fill-opacity:1;stroke:#484848;stroke-width:2.24000001;stroke-linecap:round;stroke-linejoin:round;stroke-miterlimit:4;stroke-opacity:1;stroke-dasharray:none"
       d="m 368.15258,-10.564176 0,18.6967003 -77.14592,0 -9.34835,-9.34835 9.34835,-9.3483503 z"
       id="path71141-2-8-2-5-9"
       inkscape:connector-curvature="0"
       sodipodi:nodetypes="cccccc" /><path
       style="fill:none;stroke:#484848;stroke-width:2.24000001;stroke-linecap:butt;stroke-linejoin:miter;stroke-miterlimit:4;stroke-opacity:1;stroke-dasharray:none"
       d="m 282.28154,-1.2158257 -85.34823,0"
       id="path71345-8-1-8-5"
       inkscape:connector-curvature="0"
       sodipodi:nodetypes="cc" /><path
       style="fill:#cccccc;fill-opacity:1;stroke:#484848;stroke-width:2.24000001;stroke-linecap:round;stroke-linejoin:round;stroke-miterlimit:4;stroke-opacity:1;stroke-dasharray:none"
       d="m 110.34742,-29.316576 0,-18.6967 76.98019,0 9.34836,9.34835 -9.34836,9.348349 z"
       id="path71141-0-6-6-5"
       inkscape:connector-curvature="0"
       sodipodi:nodetypes="cccccc" /><path
       style="fill:#cccccc;fill-opacity:1;stroke:#484848;stroke-width:2.24000001;stroke-linecap:round;stroke-linejoin:round;stroke-miterlimit:4;stroke-opacity:1;stroke-dasharray:none"
       d="m 415.65258,-48.013277 0,18.6967 -77.14592,0 -9.34835,-9.348349 9.34835,-9.34835 z"
       id="path71141-2-8-2-5-7"
       inkscape:connector-curvature="0"
       sodipodi:nodetypes="cccccc" /><path
       style="fill:none;stroke:#484848;stroke-width:2.24000001;stroke-linecap:butt;stroke-linejoin:miter;stroke-miterlimit:4;stroke-opacity:1;stroke-dasharray:none"
       d="m 329.78154,-38.664926 -133.34823,0"
       id="path71345-8-1-8-59"
       inkscape:connector-curvature="0"
       sodipodi:nodetypes="cc" /><path
       style="fill:#cccccc;fill-opacity:1;stroke:#484848;stroke-width:2.24000001;stroke-linecap:round;stroke-linejoin:round;stroke-miterlimit:4;stroke-opacity:1;stroke-dasharray:none"
       d="m 122.41196,-66.765671 0,-18.696701 76.98019,0 9.34836,9.348351 -9.34836,9.34835 z"
       id="path71141-0-6-6-5-0"
       inkscape:connector-curvature="0"
       sodipodi:nodetypes="cccccc" /><path
       style="fill:#cccccc;fill-opacity:1;stroke:#484848;stroke-width:2.24000001;stroke-linecap:round;stroke-linejoin:round;stroke-miterlimit:4;stroke-opacity:1;stroke-dasharray:none"
       d="m 427.71711,-85.462372 0,18.696701 -77.14592,0 -9.34835,-9.34835 9.34835,-9.348351 z"
       id="path71141-2-8-2-5-7-5"
       inkscape:connector-curvature="0"
       sodipodi:nodetypes="cccccc" /><path
       style="fill:none;stroke:#484848;stroke-width:2.24000001;stroke-linecap:butt;stroke-linejoin:miter;stroke-miterlimit:4;stroke-opacity:1;stroke-dasharray:none"
       d="m 341.84607,-76.114022 -133.34822,0"
       id="path71345-8-1-8-59-6"
       inkscape:connector-curvature="0"
       sodipodi:nodetypes="cc" /><path
       style="fill:#cccccc;fill-opacity:1;stroke:#484848;stroke-width:2.24000001;stroke-linecap:round;stroke-linejoin:round;stroke-miterlimit:4;stroke-opacity:1;stroke-dasharray:none"
       d="m 161.22516,-104.21477 0,-18.6967 76.98019,0 9.34836,9.34835 -9.34836,9.34835 z"
       id="path71141-0-6-6-5-3"
       inkscape:connector-curvature="0"
       sodipodi:nodetypes="cccccc" /><path
       style="fill:#cccccc;fill-opacity:1;stroke:#484848;stroke-width:2.24000001;stroke-linecap:round;stroke-linejoin:round;stroke-miterlimit:4;stroke-opacity:1;stroke-dasharray:none"
       d="m 466.53032,-122.91147 0,18.6967 -77.14592,0 -9.34835,-9.34835 9.34835,-9.34835 z"
       id="path71141-2-8-2-5-7-0"
       inkscape:connector-curvature="0"
       sodipodi:nodetypes="cccccc" /><path
       style="fill:none;stroke:#484848;stroke-width:2.24000001;stroke-linecap:butt;stroke-linejoin:miter;stroke-miterlimit:4;stroke-opacity:1;stroke-dasharray:none"
       d="m 380.65928,-113.56312 -133.34823,0"
       id="path71345-8-1-8-59-67"
       inkscape:connector-curvature="0"
       sodipodi:nodetypes="cc" /><text
       xml:space="preserve"
       style="font-size:32px;font-style:normal;font-weight:bold;line-height:125%;letter-spacing:0px;word-spacing:0px;fill:#000000;fill-opacity:1;stroke:none;font-family:Sans;-inkscape-font-specification:Sans Bold"
       x="221.77242"
       y="167.19193"
       id="text8256-8"
       sodipodi:linespacing="125%"
       transform="scale(1,-1)"><tspan
         sodipodi:role="line"
         id="tspan8258-3"
         x="221.77242"
         y="167.19193"
         style="font-style:normal;font-variant:normal;font-weight:normal;font-stretch:normal;font-family:cmss12;-inkscape-font-specification:cmss12">Alignments</tspan></text>
<text
       xml:space="preserve"
       style="font-size:40px;font-style:normal;font-weight:bold;line-height:125%;letter-spacing:0px;word-spacing:0px;fill:#000000;fill-opacity:1;stroke:none;font-family:Sans;-inkscape-font-specification:Sans Bold"
       x="-222.73865"
       y="378.98865"
       id="text8485"
       sodipodi:linespacing="125%"
       transform="matrix(0.8,0,0,-0.8,0,125)"><tspan
         sodipodi:role="line"
         id="tspan8487"
         x="-222.73865"
         y="378.98865" /></text>
<text
       xml:space="preserve"
       style="font-size:32px;font-style:normal;font-weight:bold;line-height:125%;letter-spacing:0px;word-spacing:0px;fill:#000000;fill-opacity:1;stroke:none;font-family:Sans;-inkscape-font-specification:Sans Bold"
       x="-265.56216"
       y="183.31377"
       id="text8256-8-6"
       sodipodi:linespacing="125%"
       transform="scale(1,-1)"><tspan
         sodipodi:role="line"
         id="tspan8258-3-8"
         x="-265.56216"
         y="183.31377"
         style="font-style:normal;font-variant:normal;font-weight:normal;font-stretch:normal;font-family:cmss12;-inkscape-font-specification:cmss12">Graph representation</tspan></text>
</g></svg>