<?xml version="1.0" encoding="UTF-8" standalone="no"?>
<svg
   xmlns:dc="http://purl.org/dc/elements/1.1/"
   xmlns:cc="http://creativecommons.org/ns#"
   xmlns:rdf="http://www.w3.org/1999/02/22-rdf-syntax-ns#"
   xmlns:svg="http://www.w3.org/2000/svg"
   xmlns="http://www.w3.org/2000/svg"
   xmlns:sodipodi="http://sodipodi.sourceforge.net/DTD/sodipodi-0.dtd"
   xmlns:inkscape="http://www.inkscape.org/namespaces/inkscape"
   version="1.1"
   viewBox="0 0 804.35693 362.2941"
   stroke-miterlimit="10"
   id="svg2"
   inkscape:version="0.48.3.1 r9886"
   sodipodi:docname="trio-phasing.svg"
   width="804.35693"
   height="362.2941"
   style="fill:none;stroke:none;stroke-linecap:square;stroke-miterlimit:10">
  <metadata
     id="metadata299">
    <rdf:RDF>
      <cc:Work
         rdf:about="">
        <dc:format>image/svg+xml</dc:format>
        <dc:type
           rdf:resource="http://purl.org/dc/dcmitype/StillImage" />
        <dc:title />
      </cc:Work>
    </rdf:RDF>
  </metadata>
  <defs
     id="defs297" />
  <sodipodi:namedview
     pagecolor="#ffffff"
     bordercolor="#666666"
     borderopacity="1"
     objecttolerance="10"
     gridtolerance="10"
     guidetolerance="10"
     inkscape:pageopacity="0"
     inkscape:pageshadow="2"
     inkscape:window-width="1827"
     inkscape:window-height="988"
     id="namedview295"
     showgrid="true"
     inkscape:zoom="1"
     inkscape:cx="42.78101"
     inkscape:cy="243.0703"
     inkscape:window-x="0"
     inkscape:window-y="0"
     inkscape:window-maximized="0"
     inkscape:current-layer="svg2"
     showguides="true"
     inkscape:guide-bbox="true"
     fit-margin-top="0"
     fit-margin-left="0"
     fit-margin-right="0"
     fit-margin-bottom="0">
    <inkscape:grid
       type="xygrid"
       id="grid4427"
       originx="-163.95332"
       originy="788.03239" />
  </sodipodi:namedview>
  <clipPath
     id="p.0">
    <path
       d="M 0,0 960,0 960,720 0,720 0,0 Z"
       id="path5"
       inkscape:connector-curvature="0"
       style="clip-rule:nonzero" />
  </clipPath>
  <rect
     style="fill:#924900;fill-opacity:1;stroke:none;stroke-width:2;stroke-linecap:square;stroke-linejoin:bevel;stroke-miterlimit:4;stroke-dasharray:none;stroke-dashoffset:0;stroke-opacity:1"
     id="rect6453-3-2-6-0-6"
     width="530.04669"
     height="15"
     x="26"
     y="209.53665"
     ry="4.6464467" />
  <path
     style="fill:#000000;fill-opacity:0;fill-rule:nonzero"
     inkscape:connector-curvature="0"
     id="path117"
     d="m 628.90814,319.6484 161.03937,0 0,42.6457 -161.03937,0 z" />
  <text
     xml:space="preserve"
     style="font-style:normal;font-variant:normal;font-weight:normal;font-stretch:normal;font-size:20px;line-height:125%;font-family:Sans;-inkscape-font-specification:Sans;letter-spacing:0px;word-spacing:0px;fill:#000000;fill-opacity:1;stroke:none;stroke-width:1px;stroke-linecap:butt;stroke-linejoin:miter;stroke-opacity:1"
     x="685.87634"
     y="327.45874"
     id="text4572-64-9-4-4"
     sodipodi:linespacing="125%"><tspan
       sodipodi:role="line"
       id="tspan4574-41-0-4-4"
       x="685.87634"
       y="327.45874"
       style="font-size:27.50000000000000000px;-inkscape-font-specification:Sans;font-family:Sans;font-weight:normal;font-style:normal;font-stretch:normal;font-variant:normal">Child</tspan></text>
  <rect
     style="fill:#009292;fill-opacity:1;stroke:none;stroke-width:2;stroke-linejoin:bevel;stroke-miterlimit:4;stroke-dasharray:none;stroke-dashoffset:0;stroke-opacity:1"
     id="rect6453-3-2-6-0-4-5"
     width="265"
     height="15.000031"
     x="26.050247"
     y="318.47034"
     ry="4.6464467" />
  <rect
     style="fill:#924900;fill-opacity:1;stroke:none;stroke-width:2;stroke-linejoin:bevel;stroke-miterlimit:4;stroke-dasharray:none;stroke-dashoffset:0;stroke-opacity:1"
     id="rect6453-3-2-6-0-4"
     width="265"
     height="15.000031"
     x="381"
     y="318.58752"
     ry="4.6464467" />
  <rect
     style="fill:#b66dff;fill-opacity:1;stroke:none;stroke-width:2;stroke-linejoin:bevel;stroke-miterlimit:4;stroke-dasharray:none;stroke-dashoffset:0;stroke-opacity:1"
     id="rect6453-3-2"
     width="620"
     height="15.000008"
     x="26"
     y="102.90649"
     ry="4.6464467" />
  <rect
     style="fill:#924900;fill-opacity:1;stroke:none;stroke-width:2;stroke-linejoin:bevel;stroke-miterlimit:4;stroke-dasharray:none;stroke-dashoffset:0;stroke-opacity:1"
     id="rect6453-3-2-6-0"
     width="620"
     height="15.000008"
     x="26"
     y="227.02367"
     ry="4.6464467" />
  <rect
     style="fill:#6db6ff;fill-opacity:1;stroke:none;stroke-width:2;stroke-linejoin:bevel;stroke-miterlimit:4;stroke-dasharray:none;stroke-dashoffset:0;stroke-opacity:1"
     id="rect6453-3-2-6"
     width="620"
     height="15.000008"
     x="26"
     y="191.31944"
     ry="4.6464467" />
  <rect
     style="fill:#009292;fill-opacity:1;stroke:none;stroke-width:2;stroke-linejoin:bevel;stroke-miterlimit:4;stroke-dasharray:none;stroke-dashoffset:0;stroke-opacity:1"
     id="rect6453-3"
     width="530"
     height="15.000008"
     x="26"
     y="84.989006"
     ry="4.6464467" />
  <rect
     style="fill:#009292;fill-opacity:1;stroke:none;stroke-width:2;stroke-linejoin:bevel;stroke-miterlimit:4;stroke-dasharray:none;stroke-dashoffset:0;stroke-opacity:1"
     id="rect6453"
     width="515"
     height="15"
     x="130.99998"
     y="67.110344"
     ry="4.6464467" />
  <path
     style="fill:#000000;fill-opacity:0;fill-rule:nonzero"
     inkscape:connector-curvature="0"
     id="path27"
     d="m 224.9344,42.307199 61.5748,0 0,22.4882 -61.5748,0 z" />
  <path
     style="fill:#000000;fill-opacity:0;fill-rule:nonzero"
     inkscape:connector-curvature="0"
     id="path31"
     d="m 408.9344,42.307199 61.57483,0 0,22.4882 -61.57483,0 z" />
  <path
     style="fill:#000000;fill-opacity:0;fill-rule:nonzero"
     inkscape:connector-curvature="0"
     id="path35"
     d="m 304.9344,42.307199 61.5748,0 0,22.4882 -61.5748,0 z" />
  <path
     style="fill:#ffffff;fill-rule:nonzero"
     inkscape:connector-curvature="0"
     id="path105"
     d="m 88.637857,332.9156 -2.60938,0 0,-9.8281 q -1.4375,1.3438 -3.375,1.9844 l 0,-2.375 q 1.03125,-0.3281 2.21875,-1.25 1.20313,-0.9375 1.64063,-2.1875 l 2.125,0 0,13.6562 z" />
  <path
     style="fill:#000000;fill-opacity:0;fill-rule:nonzero"
     inkscape:connector-curvature="0"
     id="path109"
     d="m 612.90814,47.648399 161.03937,0 0,42.6457 -161.03937,0 z" />
  <path
     style="fill:#000000;fill-opacity:0;fill-rule:nonzero"
     inkscape:connector-curvature="0"
     id="path113"
     d="m 620.90814,175.6484 161.03937,0 0,42.6457 -161.03937,0 z" />
  <path
     style="fill:#000000;fill-opacity:0;fill-rule:nonzero"
     inkscape:connector-curvature="0"
     id="path121"
     d="m 219.59152,14.490899 87.62204,0 0,22.4882 -87.62204,0 z" />
  <path
     style="fill:#000000;fill-opacity:0;fill-rule:nonzero"
     inkscape:connector-curvature="0"
     id="path125"
     d="m 297.22308,14.490899 87.62207,0 0,22.4882 -87.62207,0 z" />
  <path
     style="fill:#000000;fill-opacity:0;fill-rule:nonzero"
     inkscape:connector-curvature="0"
     id="path129"
     d="m 481.2231,14.490899 87.62207,0 0,22.4882 -87.62207,0 z" />
  <path
     style="fill:#000000;fill-opacity:0;fill-rule:nonzero"
     inkscape:connector-curvature="0"
     id="path133"
     d="m 688.60895,94.952899 115.74799,0 0,22.488201 -115.74799,0 z" />
  <path
     style="fill:#000000;fill-opacity:0;fill-rule:nonzero"
     inkscape:connector-curvature="0"
     id="path137"
     d="m 644.60895,238.9529 115.74799,0 0,22.4882 -115.74799,0 z" />
  <path
     style="fill:#000000;fill-opacity:0;fill-rule:nonzero"
     inkscape:connector-curvature="0"
     id="path149"
     d="m 488.9344,42.307199 61.57483,0 0,22.4882 -61.57483,0 z" />
  <path
     style="fill:#000000;fill-opacity:0;fill-rule:nonzero"
     inkscape:connector-curvature="0"
     id="path173"
     d="m 136.93439,42.307199 61.5748,0 0,22.4882 -61.5748,0 z" />
  <path
     style="fill:#000000;fill-opacity:0;fill-rule:nonzero"
     inkscape:connector-curvature="0"
     id="path193"
     d="m 51.591517,15.172099 87.622043,0 0,22.4882 -87.622043,0 z" />
  <path
     style="fill:#000000;fill-opacity:0;fill-rule:nonzero"
     inkscape:connector-curvature="0"
     id="path197"
     d="m 403.59152,15.172099 87.62204,0 0,22.4882 -87.62204,0 z" />
  <path
     style="fill:#000000;fill-opacity:0;fill-rule:nonzero"
     inkscape:connector-curvature="0"
     id="path205"
     d="m 56.934387,42.307199 61.574803,0 0,22.4882 -61.574803,0 z" />
  <path
     style="fill:#000000;fill-opacity:0;fill-rule:nonzero"
     inkscape:connector-curvature="0"
     id="path225"
     d="m 131.59152,15.172099 87.62204,0 0,22.4882 -87.62204,0 z" />
  <path
     style="fill:#000000;fill-opacity:0;fill-rule:nonzero"
     inkscape:connector-curvature="0"
     id="path233"
     d="m 568.9344,42.307199 61.57483,0 0,22.4882 -61.57483,0 z" />
  <path
     style="fill:#000000;fill-opacity:0;fill-rule:nonzero"
     inkscape:connector-curvature="0"
     id="path253"
     d="m 571.59155,15.172099 87.62201,0 0,22.4882 -87.62201,0 z" />
  <path
     style="fill:#ffffff;fill-rule:nonzero"
     inkscape:connector-curvature="0"
     id="path291"
     d="m 426.9868,319.025 q 1.96875,0 3.07812,1.4063 1.32813,1.6718 1.32813,5.5468 0,3.8594 -1.32813,5.5469 -1.10937,1.3906 -3.07812,1.3906 -1.98438,0 -3.20313,-1.5312 -1.21875,-1.5313 -1.21875,-5.4375 0,-3.8438 1.34375,-5.5313 1.09375,-1.3906 3.07813,-1.3906 z m 0,2.1563 q -0.48438,0 -0.85938,0.3125 -0.35937,0.2968 -0.5625,1.0781 -0.26562,1.0156 -0.26562,3.4062 0,2.3907 0.23437,3.2813 0.25,0.8906 0.60938,1.1875 0.35937,0.2969 0.84375,0.2969 0.46875,0 0.82812,-0.2969 0.375,-0.2969 0.59375,-1.0781 0.26563,-1 0.26563,-3.3907 0,-2.3906 -0.25,-3.2812 -0.23438,-0.9063 -0.60938,-1.2031 -0.35937,-0.3125 -0.82812,-0.3125 z" />
  <text
     xml:space="preserve"
     style="font-size:20px;font-style:normal;font-variant:normal;font-weight:normal;font-stretch:normal;line-height:125%;letter-spacing:0px;word-spacing:0px;fill:#000000;fill-opacity:1;stroke:none;font-family:Sans;-inkscape-font-specification:Sans"
     x="56.50016"
     y="13.76"
     id="text4572"
     sodipodi:linespacing="125%"><tspan
       sodipodi:role="line"
       id="tspan4574"
       x="56.50016"
       y="13.76">SNP 1</tspan></text>
  <text
     xml:space="preserve"
     style="font-size:20px;font-style:normal;font-variant:normal;font-weight:normal;font-stretch:normal;line-height:125%;letter-spacing:0px;word-spacing:0px;fill:#000000;fill-opacity:1;stroke:none;font-family:Sans;-inkscape-font-specification:Sans"
     x="141.91162"
     y="13.76"
     id="text4572-8"
     sodipodi:linespacing="125%"><tspan
       sodipodi:role="line"
       id="tspan4574-3"
       x="141.91162"
       y="13.76">SNP 2</tspan></text>
  <text
     xml:space="preserve"
     style="font-style:normal;font-variant:normal;font-weight:normal;font-stretch:normal;font-size:20px;line-height:125%;font-family:Sans;-inkscape-font-specification:Sans;letter-spacing:0px;word-spacing:0px;fill:#000000;fill-opacity:1;stroke:none;stroke-width:1px;stroke-linecap:butt;stroke-linejoin:miter;stroke-opacity:1"
     x="230.71297"
     y="13.76"
     id="text4572-84"
     sodipodi:linespacing="125%"><tspan
       sodipodi:role="line"
       id="tspan4574-4"
       x="230.71297"
       y="13.76">SNP 3</tspan></text>
  <text
     xml:space="preserve"
     style="font-size:20px;font-style:normal;font-variant:normal;font-weight:normal;font-stretch:normal;line-height:125%;letter-spacing:0px;word-spacing:0px;fill:#000000;fill-opacity:1;stroke:none;font-family:Sans;-inkscape-font-specification:Sans"
     x="312.13885"
     y="13.76"
     id="text4572-1"
     sodipodi:linespacing="125%"><tspan
       sodipodi:role="line"
       id="tspan4574-1"
       x="312.13885"
       y="13.76">SNP 4</tspan></text>
  <text
     xml:space="preserve"
     style="font-size:20px;font-style:normal;font-variant:normal;font-weight:normal;font-stretch:normal;line-height:125%;letter-spacing:0px;word-spacing:0px;fill:#000000;fill-opacity:1;stroke:none;font-family:Sans;-inkscape-font-specification:Sans"
     x="397.78464"
     y="13.76"
     id="text4572-6"
     sodipodi:linespacing="125%"><tspan
       sodipodi:role="line"
       id="tspan4574-6"
       x="397.78464"
       y="13.76">SNP 5</tspan></text>
  <text
     xml:space="preserve"
     style="font-size:20px;font-style:normal;font-variant:normal;font-weight:normal;font-stretch:normal;line-height:125%;letter-spacing:0px;word-spacing:0px;fill:#000000;fill-opacity:1;stroke:none;font-family:Sans;-inkscape-font-specification:Sans"
     x="482.8739"
     y="13.76"
     id="text4572-4"
     sodipodi:linespacing="125%"><tspan
       sodipodi:role="line"
       id="tspan4574-7"
       x="482.8739"
       y="13.76">SNP 6</tspan></text>
  <text
     xml:space="preserve"
     style="font-size:20px;font-style:normal;font-variant:normal;font-weight:normal;font-stretch:normal;line-height:125%;letter-spacing:0px;word-spacing:0px;fill:#000000;fill-opacity:1;stroke:none;font-family:Sans;-inkscape-font-specification:Sans"
     x="568.43182"
     y="13.76"
     id="text4572-64"
     sodipodi:linespacing="125%"><tspan
       sodipodi:role="line"
       id="tspan4574-41"
       x="568.43182"
       y="13.76">SNP 7</tspan></text>
  <text
     xml:space="preserve"
     style="font-size:20px;font-style:normal;font-variant:normal;font-weight:normal;font-stretch:normal;line-height:125%;letter-spacing:0px;word-spacing:0px;fill:#000000;fill-opacity:1;stroke:none;font-family:Sans;-inkscape-font-specification:Sans"
     x="69.361488"
     y="52.759998"
     id="text4572-2"
     sodipodi:linespacing="125%"><tspan
       sodipodi:role="line"
       id="tspan4574-34"
       x="69.361488"
       y="52.759998">1/1</tspan></text>
  <text
     xml:space="preserve"
     style="font-size:20px;font-style:normal;font-variant:normal;font-weight:normal;font-stretch:normal;line-height:125%;letter-spacing:0px;word-spacing:0px;fill:#000000;fill-opacity:1;stroke:none;font-family:Sans;-inkscape-font-specification:Sans"
     x="154.69482"
     y="52.759998"
     id="text4572-2-9"
     sodipodi:linespacing="125%"><tspan
       sodipodi:role="line"
       id="tspan4574-34-1"
       x="154.69482"
       y="52.759998">1/1</tspan></text>
  <text
     xml:space="preserve"
     style="font-size:20px;font-style:normal;font-variant:normal;font-weight:normal;font-stretch:normal;line-height:125%;letter-spacing:0px;word-spacing:0px;fill:#000000;fill-opacity:1;stroke:none;font-family:Sans;-inkscape-font-specification:Sans"
     x="496.0282"
     y="52.759998"
     id="text4572-2-7"
     sodipodi:linespacing="125%"><tspan
       sodipodi:role="line"
       id="tspan4574-34-0"
       x="496.0282"
       y="52.759998">1/1</tspan></text>
  <text
     xml:space="preserve"
     style="font-style:normal;font-variant:normal;font-weight:normal;font-stretch:normal;font-size:20px;line-height:125%;font-family:Sans;-inkscape-font-specification:Sans;letter-spacing:0px;word-spacing:0px;fill:#000000;fill-opacity:1;stroke:none;stroke-width:1px;stroke-linecap:butt;stroke-linejoin:miter;stroke-opacity:1"
     x="244.3589"
     y="52.759998"
     id="text4572-2-2"
     sodipodi:linespacing="125%"><tspan
       sodipodi:role="line"
       id="tspan4574-34-4"
       x="244.3589"
       y="52.759998">0/1</tspan></text>
  <text
     xml:space="preserve"
     style="font-size:20px;font-style:normal;font-variant:normal;font-weight:normal;font-stretch:normal;line-height:125%;letter-spacing:0px;word-spacing:0px;fill:#000000;fill-opacity:1;stroke:none;font-family:Sans;-inkscape-font-specification:Sans"
     x="411.13425"
     y="52.759998"
     id="text4572-2-2-9"
     sodipodi:linespacing="125%"><tspan
       sodipodi:role="line"
       id="tspan4574-34-4-1"
       x="411.13425"
       y="52.759998">0/1</tspan></text>
  <text
     xml:space="preserve"
     style="font-size:20px;font-style:normal;font-variant:normal;font-weight:normal;font-stretch:normal;line-height:125%;letter-spacing:0px;word-spacing:0px;fill:#000000;fill-opacity:1;stroke:none;font-family:Sans;-inkscape-font-specification:Sans"
     x="581.80096"
     y="52.759998"
     id="text4572-2-2-2"
     sodipodi:linespacing="125%"><tspan
       sodipodi:role="line"
       id="tspan4574-34-4-6"
       x="581.80096"
       y="52.759998">0/1</tspan></text>
  <text
     xml:space="preserve"
     style="font-size:20px;font-style:normal;font-variant:normal;font-weight:normal;font-stretch:normal;line-height:125%;letter-spacing:0px;word-spacing:0px;fill:#000000;fill-opacity:1;stroke:none;font-family:Sans;-inkscape-font-specification:Sans"
     x="325.54218"
     y="52.759998"
     id="text4572-2-2-0"
     sodipodi:linespacing="125%"><tspan
       sodipodi:role="line"
       id="tspan4574-34-4-2"
       x="325.54218"
       y="52.759998">0/0</tspan></text>
  <rect
     style="fill:none;stroke:#000000;stroke-width:2;stroke-linejoin:round;stroke-miterlimit:4;stroke-dasharray:none;stroke-dashoffset:0;stroke-opacity:1"
     id="rect5757"
     width="800"
     height="110"
     x="1"
     y="28.26"
     ry="10" />
  <text
     xml:space="preserve"
     style="font-style:normal;font-variant:normal;font-weight:normal;font-stretch:normal;font-size:20px;line-height:125%;font-family:Sans;-inkscape-font-specification:Sans;letter-spacing:0px;word-spacing:0px;fill:#000000;fill-opacity:1;stroke:none;stroke-width:1px;stroke-linecap:butt;stroke-linejoin:miter;stroke-opacity:1"
     x="685.87634"
     y="92.513664"
     id="text4572-64-9"
     sodipodi:linespacing="125%"><tspan
       sodipodi:role="line"
       id="tspan4574-41-0"
       x="685.87634"
       y="92.513664"
       style="font-size:27.50000000000000000px;-inkscape-font-specification:Sans;font-family:Sans;font-weight:normal;font-style:normal;font-stretch:normal;font-variant:normal">Mother</tspan></text>
  <text
     xml:space="preserve"
     style="font-size:20px;font-style:normal;font-variant:normal;font-weight:normal;font-stretch:normal;line-height:125%;letter-spacing:0px;word-spacing:0px;fill:#000000;fill-opacity:1;stroke:none;font-family:Sans;-inkscape-font-specification:Sans"
     x="69.542152"
     y="176.75999"
     id="text4572-2-2-0-8"
     sodipodi:linespacing="125%"><tspan
       sodipodi:role="line"
       id="tspan4574-34-4-2-9"
       x="69.542152"
       y="176.75999">0/0</tspan></text>
  <text
     xml:space="preserve"
     style="font-size:20px;font-style:normal;font-variant:normal;font-weight:normal;font-stretch:normal;line-height:125%;letter-spacing:0px;word-spacing:0px;fill:#000000;fill-opacity:1;stroke:none;font-family:Sans;-inkscape-font-specification:Sans"
     x="154.87549"
     y="176.75999"
     id="text4572-2-2-0-7"
     sodipodi:linespacing="125%"><tspan
       sodipodi:role="line"
       id="tspan4574-34-4-2-2"
       x="154.87549"
       y="176.75999">0/0</tspan></text>
  <text
     xml:space="preserve"
     style="font-size:20px;font-style:normal;font-variant:normal;font-weight:normal;font-stretch:normal;line-height:125%;letter-spacing:0px;word-spacing:0px;fill:#000000;fill-opacity:1;stroke:none;font-family:Sans;-inkscape-font-specification:Sans"
     x="581.54218"
     y="176.75999"
     id="text4572-2-2-0-1"
     sodipodi:linespacing="125%"><tspan
       sodipodi:role="line"
       id="tspan4574-34-4-2-8"
       x="581.54218"
       y="176.75999">0/0</tspan></text>
  <text
     xml:space="preserve"
     style="font-size:20px;font-style:normal;font-variant:normal;font-weight:normal;font-stretch:normal;line-height:125%;letter-spacing:0px;word-spacing:0px;fill:#000000;fill-opacity:1;stroke:none;font-family:Sans;-inkscape-font-specification:Sans"
     x="410.87546"
     y="176.75999"
     id="text4572-2-2-0-0"
     sodipodi:linespacing="125%"><tspan
       sodipodi:role="line"
       id="tspan4574-34-4-2-94"
       x="410.87546"
       y="176.75999">0/0</tspan></text>
  <text
     xml:space="preserve"
     style="font-size:20px;font-style:normal;font-variant:normal;font-weight:normal;font-stretch:normal;line-height:125%;letter-spacing:0px;word-spacing:0px;fill:#000000;fill-opacity:1;stroke:none;font-family:Sans;-inkscape-font-specification:Sans"
     x="496.46765"
     y="176.75999"
     id="text4572-2-2-9-8"
     sodipodi:linespacing="125%"><tspan
       sodipodi:role="line"
       id="tspan4574-34-4-1-6"
       x="496.46765"
       y="176.75999">0/1</tspan></text>
  <text
     xml:space="preserve"
     style="font-size:20px;font-style:normal;font-variant:normal;font-weight:normal;font-stretch:normal;line-height:125%;letter-spacing:0px;word-spacing:0px;fill:#000000;fill-opacity:1;stroke:none;font-family:Sans;-inkscape-font-specification:Sans"
     x="325.80096"
     y="176.75999"
     id="text4572-2-2-9-82"
     sodipodi:linespacing="125%"><tspan
       sodipodi:role="line"
       id="tspan4574-34-4-1-9"
       x="325.80096"
       y="176.75999">0/1</tspan></text>
  <text
     xml:space="preserve"
     style="font-style:normal;font-variant:normal;font-weight:normal;font-stretch:normal;font-size:20px;line-height:125%;font-family:Sans;-inkscape-font-specification:Sans;letter-spacing:0px;word-spacing:0px;fill:#000000;fill-opacity:1;stroke:none;stroke-width:1px;stroke-linecap:butt;stroke-linejoin:miter;stroke-opacity:1"
     x="243.48891"
     y="176.75999"
     id="text4572-2-7-1"
     sodipodi:linespacing="125%"><tspan
       sodipodi:role="line"
       id="tspan4574-34-0-8"
       x="243.48891"
       y="176.75999">0/1</tspan></text>
  <text
     xml:space="preserve"
     style="font-size:20px;font-style:normal;font-variant:normal;font-weight:normal;font-stretch:normal;line-height:125%;letter-spacing:0px;word-spacing:0px;fill:#000000;fill-opacity:1;stroke:none;font-family:Sans;-inkscape-font-specification:Sans"
     x="69.800941"
     y="302.76001"
     id="text4572-2-2-9-82-4"
     sodipodi:linespacing="125%"><tspan
       sodipodi:role="line"
       id="tspan4574-34-4-1-9-2"
       x="69.800941"
       y="302.76001">0/1</tspan></text>
  <text
     xml:space="preserve"
     style="font-size:20px;font-style:normal;font-variant:normal;font-weight:normal;font-stretch:normal;line-height:125%;letter-spacing:0px;word-spacing:0px;fill:#000000;fill-opacity:1;stroke:none;font-family:Sans;-inkscape-font-specification:Sans"
     x="155.13428"
     y="302.76001"
     id="text4572-2-2-9-82-9"
     sodipodi:linespacing="125%"><tspan
       sodipodi:role="line"
       id="tspan4574-34-4-1-9-1"
       x="155.13428"
       y="302.76001">0/1</tspan></text>
  <text
     xml:space="preserve"
     style="font-style:normal;font-variant:normal;font-weight:normal;font-stretch:normal;font-size:20px;line-height:125%;font-family:Sans;-inkscape-font-specification:Sans;letter-spacing:0px;word-spacing:0px;fill:#000000;fill-opacity:1;stroke:none;stroke-width:1px;stroke-linecap:butt;stroke-linejoin:miter;stroke-opacity:1"
     x="244.35887"
     y="302.76001"
     id="text4572-2-2-9-82-3"
     sodipodi:linespacing="125%"><tspan
       sodipodi:role="line"
       id="tspan4574-34-4-1-9-3"
       x="244.35887"
       y="302.76001">0/1</tspan></text>
  <text
     xml:space="preserve"
     style="font-size:20px;font-style:normal;font-variant:normal;font-weight:normal;font-stretch:normal;line-height:125%;letter-spacing:0px;word-spacing:0px;fill:#000000;fill-opacity:1;stroke:none;font-family:Sans;-inkscape-font-specification:Sans"
     x="325.80096"
     y="302.76001"
     id="text4572-2-2-9-82-5"
     sodipodi:linespacing="125%"><tspan
       sodipodi:role="line"
       id="tspan4574-34-4-1-9-4"
       x="325.80096"
       y="302.76001">0/1</tspan></text>
  <text
     xml:space="preserve"
     style="font-size:20px;font-style:normal;font-variant:normal;font-weight:normal;font-stretch:normal;line-height:125%;letter-spacing:0px;word-spacing:0px;fill:#000000;fill-opacity:1;stroke:none;font-family:Sans;-inkscape-font-specification:Sans"
     x="411.13425"
     y="302.76001"
     id="text4572-2-2-9-82-47"
     sodipodi:linespacing="125%"><tspan
       sodipodi:role="line"
       id="tspan4574-34-4-1-9-26"
       x="411.13425"
       y="302.76001">0/1</tspan></text>
  <text
     xml:space="preserve"
     style="font-size:20px;font-style:normal;font-variant:normal;font-weight:normal;font-stretch:normal;line-height:125%;letter-spacing:0px;word-spacing:0px;fill:#000000;fill-opacity:1;stroke:none;font-family:Sans;-inkscape-font-specification:Sans"
     x="581.80096"
     y="302.76001"
     id="text4572-2-2-9-82-1"
     sodipodi:linespacing="125%"><tspan
       sodipodi:role="line"
       id="tspan4574-34-4-1-9-27"
       x="581.80096"
       y="302.76001">0/1</tspan></text>
  <text
     xml:space="preserve"
     style="font-size:20px;font-style:normal;font-variant:normal;font-weight:normal;font-stretch:normal;line-height:125%;letter-spacing:0px;word-spacing:0px;fill:#000000;fill-opacity:1;stroke:none;font-family:Sans;-inkscape-font-specification:Sans"
     x="496.0282"
     y="302.76001"
     id="text4572-2-9-9"
     sodipodi:linespacing="125%"><tspan
       sodipodi:role="line"
       id="tspan4574-34-1-3"
       x="496.0282"
       y="302.76001">1/1</tspan></text>
  <rect
     style="fill:none;stroke:#000000;stroke-width:2;stroke-linejoin:round;stroke-miterlimit:4;stroke-dasharray:none;stroke-dashoffset:0;stroke-opacity:1"
     id="rect5757-4"
     width="800"
     height="110"
     x="1"
     y="153.25999"
     ry="10" />
  <rect
     style="fill:none;stroke:#000000;stroke-width:2;stroke-linejoin:round;stroke-miterlimit:4;stroke-dasharray:none;stroke-dashoffset:0;stroke-opacity:1"
     id="rect5757-1"
     width="800"
     height="80"
     x="1"
     y="278.26001"
     ry="10" />
  <text
     xml:space="preserve"
     style="font-style:normal;font-variant:normal;font-weight:normal;font-stretch:normal;font-size:20px;line-height:125%;font-family:Sans;-inkscape-font-specification:Sans;letter-spacing:0px;word-spacing:0px;fill:#000000;fill-opacity:1;stroke:none;stroke-width:1px;stroke-linecap:butt;stroke-linejoin:miter;stroke-opacity:1"
     x="685.87634"
     y="217.51366"
     id="text4572-64-9-4"
     sodipodi:linespacing="125%"><tspan
       sodipodi:role="line"
       id="tspan4574-41-0-4"
       x="685.87634"
       y="217.51366"
       style="font-size:27.50000000000000000px;-inkscape-font-specification:Sans;font-family:Sans;font-weight:normal;font-style:normal;font-stretch:normal;font-variant:normal">Father</tspan></text>
  <path
     style="fill:#ffffff;fill-rule:nonzero"
     inkscape:connector-curvature="0"
     id="path105-2"
     d="m 173.9712,332.9156 -2.60938,0 0,-9.8281 q -1.4375,1.3438 -3.375,1.9844 l 0,-2.375 q 1.03125,-0.3281 2.21875,-1.25 1.20313,-0.9375 1.64063,-2.1875 l 2.125,0 0,13.6562 z" />
  <path
     style="fill:#ffffff;fill-rule:nonzero"
     inkscape:connector-curvature="0"
     id="path105-9"
     d="m 515.30458,332.9156 -2.60938,0 0,-9.8281 q -1.4375,1.3438 -3.375,1.9844 l 0,-2.375 q 1.03125,-0.3281 2.21875,-1.25 1.20313,-0.9375 1.64063,-2.1875 l 2.125,0 0,13.6562 z" />
  <path
     style="fill:#ffffff;fill-rule:nonzero"
     inkscape:connector-curvature="0"
     id="path291-8"
     d="m 597.65351,319.025 q 1.96875,0 3.07812,1.4063 1.32813,1.6718 1.32813,5.5468 0,3.8594 -1.32813,5.5469 -1.10937,1.3906 -3.07812,1.3906 -1.98438,0 -3.20313,-1.5312 -1.21875,-1.5313 -1.21875,-5.4375 0,-3.8438 1.34375,-5.5313 1.09375,-1.3906 3.07813,-1.3906 z m 0,2.1563 q -0.48438,0 -0.85938,0.3125 -0.35937,0.2968 -0.5625,1.0781 -0.26562,1.0156 -0.26562,3.4062 0,2.3907 0.23437,3.2813 0.25,0.8906 0.60938,1.1875 0.35937,0.2969 0.84375,0.2969 0.46875,0 0.82812,-0.2969 0.375,-0.2969 0.59375,-1.0781 0.26563,-1 0.26563,-3.3907 0,-2.3906 -0.25,-3.2812 -0.23438,-0.9063 -0.60938,-1.2031 -0.35937,-0.3125 -0.82812,-0.3125 z" />
  <path
     style="fill:#ffffff;fill-rule:nonzero"
     inkscape:connector-curvature="0"
     id="path291-1"
     d="m 256.32014,319.025 q 1.96875,0 3.07812,1.4063 1.32813,1.6718 1.32813,5.5468 0,3.8594 -1.32813,5.5469 -1.10937,1.3906 -3.07812,1.3906 -1.98438,0 -3.20313,-1.5312 -1.21875,-1.5313 -1.21875,-5.4375 0,-3.8438 1.34375,-5.5313 1.09375,-1.3906 3.07813,-1.3906 z m 0,2.1563 q -0.48438,0 -0.85938,0.3125 -0.35937,0.2968 -0.5625,1.0781 -0.26562,1.0156 -0.26562,3.4062 0,2.3907 0.23437,3.2813 0.25,0.8906 0.60938,1.1875 0.35937,0.2969 0.84375,0.2969 0.46875,0 0.82812,-0.2969 0.375,-0.2969 0.59375,-1.0781 0.26563,-1 0.26563,-3.3907 0,-2.3906 -0.25,-3.2812 -0.23438,-0.9063 -0.60938,-1.2031 -0.35937,-0.3125 -0.82812,-0.3125 z" />
  <path
     style="fill:#ffffff;fill-opacity:1;fill-rule:nonzero"
     inkscape:connector-curvature="0"
     id="path291-1-2"
     d="m 85.653487,227.4612 q 1.96875,0 3.07812,1.4062 1.32813,1.6719 1.32813,5.5469 0,3.8594 -1.32813,5.5469 -1.10937,1.3906 -3.07812,1.3906 -1.98438,0 -3.20313,-1.5312 -1.21875,-1.5313 -1.21875,-5.4375 0,-3.8438 1.34375,-5.5313 1.09375,-1.3906 3.07813,-1.3906 z m 0,2.1562 q -0.48438,0 -0.85938,0.3125 -0.35937,0.2969 -0.5625,1.0782 -0.26562,1.0156 -0.26562,3.4062 0,2.3906 0.23437,3.2813 0.25,0.8906 0.60938,1.1875 0.35937,0.2968 0.84375,0.2968 0.46875,0 0.82812,-0.2968 0.375,-0.2969 0.59375,-1.0782 0.26563,-1 0.26563,-3.3906 0,-2.3906 -0.25,-3.2812 -0.23438,-0.9063 -0.60938,-1.2032 -0.35937,-0.3125 -0.82812,-0.3125 z" />
  <path
     style="fill:#ffffff;fill-opacity:1;fill-rule:nonzero"
     inkscape:connector-curvature="0"
     id="path291-1-2-6"
     d="m 170.98683,227.4612 q 1.96875,0 3.07812,1.4062 1.32813,1.6719 1.32813,5.5469 0,3.8594 -1.32813,5.5469 -1.10937,1.3906 -3.07812,1.3906 -1.98438,0 -3.20313,-1.5312 -1.21875,-1.5313 -1.21875,-5.4375 0,-3.8438 1.34375,-5.5313 1.09375,-1.3906 3.07813,-1.3906 z m 0,2.1562 q -0.48438,0 -0.85938,0.3125 -0.35937,0.2969 -0.5625,1.0782 -0.26562,1.0156 -0.26562,3.4062 0,2.3906 0.23437,3.2813 0.25,0.8906 0.60938,1.1875 0.35937,0.2968 0.84375,0.2968 0.46875,0 0.82812,-0.2968 0.375,-0.2969 0.59375,-1.0782 0.26563,-1 0.26563,-3.3906 0,-2.3906 -0.25,-3.2812 -0.23438,-0.9063 -0.60938,-1.2032 -0.35937,-0.3125 -0.82812,-0.3125 z" />
  <path
     style="fill:#ffffff;fill-opacity:1;fill-rule:nonzero"
     inkscape:connector-curvature="0"
     id="path291-1-2-68"
     d="m 426.9868,227.4612 q 1.96875,0 3.07812,1.4062 1.32813,1.6719 1.32813,5.5469 0,3.8594 -1.32813,5.5469 -1.10937,1.3906 -3.07812,1.3906 -1.98438,0 -3.20313,-1.5312 -1.21875,-1.5313 -1.21875,-5.4375 0,-3.8438 1.34375,-5.5313 1.09375,-1.3906 3.07813,-1.3906 z m 0,2.1562 q -0.48438,0 -0.85938,0.3125 -0.35937,0.2969 -0.5625,1.0782 -0.26562,1.0156 -0.26562,3.4062 0,2.3906 0.23437,3.2813 0.25,0.8906 0.60938,1.1875 0.35937,0.2968 0.84375,0.2968 0.46875,0 0.82812,-0.2968 0.375,-0.2969 0.59375,-1.0782 0.26563,-1 0.26563,-3.3906 0,-2.3906 -0.25,-3.2812 -0.23438,-0.9063 -0.60938,-1.2032 -0.35937,-0.3125 -0.82812,-0.3125 z" />
  <path
     style="fill:#ffffff;fill-opacity:1;fill-rule:nonzero"
     inkscape:connector-curvature="0"
     id="path291-1-2-3"
     d="m 597.65351,227.4612 q 1.96875,0 3.07812,1.4062 1.32813,1.6719 1.32813,5.5469 0,3.8594 -1.32813,5.5469 -1.10937,1.3906 -3.07812,1.3906 -1.98438,0 -3.20313,-1.5312 -1.21875,-1.5313 -1.21875,-5.4375 0,-3.8438 1.34375,-5.5313 1.09375,-1.3906 3.07813,-1.3906 z m 0,2.1562 q -0.48438,0 -0.85938,0.3125 -0.35937,0.2969 -0.5625,1.0782 -0.26562,1.0156 -0.26562,3.4062 0,2.3906 0.23437,3.2813 0.25,0.8906 0.60938,1.1875 0.35937,0.2968 0.84375,0.2968 0.46875,0 0.82812,-0.2968 0.375,-0.2969 0.59375,-1.0782 0.26563,-1 0.26563,-3.3906 0,-2.3906 -0.25,-3.2812 -0.23438,-0.9063 -0.60938,-1.2032 -0.35937,-0.3125 -0.82812,-0.3125 z" />
  <path
     style="fill:#ffffff;fill-opacity:1;fill-rule:nonzero"
     inkscape:connector-curvature="0"
     id="path105-9-4-7"
     d="m 344.63788,241.3518 -2.60938,0 0,-9.8281 q -1.4375,1.3437 -3.375,1.9844 l 0,-2.375 q 1.03125,-0.3282 2.21875,-1.25 1.20313,-0.9375 1.64063,-2.1875 l 2.125,0 0,13.6562 z" />
  <path
     style="fill:#ffffff;fill-opacity:1;fill-rule:nonzero"
     inkscape:connector-curvature="0"
     id="path105-9-4-2"
     d="m 515.30458,241.3518 -2.60938,0 0,-9.8281 q -1.4375,1.3437 -3.375,1.9844 l 0,-2.375 q 1.03125,-0.3282 2.21875,-1.25 1.20313,-0.9375 1.64063,-2.1875 l 2.125,0 0,13.6562 z" />
  <path
     style="fill:#ffffff;fill-opacity:1;fill-rule:nonzero"
     inkscape:connector-curvature="0"
     id="path291-1-2-61"
     d="m 85.653487,191.8742 q 1.96875,0 3.07812,1.4062 1.32813,1.6719 1.32813,5.5469 0,3.8594 -1.32813,5.5469 -1.10937,1.3906 -3.07812,1.3906 -1.98438,0 -3.20313,-1.5313 -1.21875,-1.5312 -1.21875,-5.4375 0,-3.8437 1.34375,-5.5312 1.09375,-1.3906 3.07813,-1.3906 z m 0,2.1562 q -0.48438,0 -0.85938,0.3125 -0.35937,0.2969 -0.5625,1.0781 -0.26562,1.0157 -0.26562,3.4063 0,2.3906 0.23437,3.2812 0.25,0.8907 0.60938,1.1875 0.35937,0.2969 0.84375,0.2969 0.46875,0 0.82812,-0.2969 0.375,-0.2968 0.59375,-1.0781 0.26563,-1 0.26563,-3.3906 0,-2.3906 -0.25,-3.2813 -0.23438,-0.9062 -0.60938,-1.2031 -0.35937,-0.3125 -0.82812,-0.3125 z" />
  <path
     style="fill:#ffffff;fill-opacity:1;fill-rule:nonzero"
     inkscape:connector-curvature="0"
     id="path291-1-2-1"
     d="m 170.98683,191.8742 q 1.96875,0 3.07812,1.4062 1.32813,1.6719 1.32813,5.5469 0,3.8594 -1.32813,5.5469 -1.10937,1.3906 -3.07812,1.3906 -1.98438,0 -3.20313,-1.5313 -1.21875,-1.5312 -1.21875,-5.4375 0,-3.8437 1.34375,-5.5312 1.09375,-1.3906 3.07813,-1.3906 z m 0,2.1562 q -0.48438,0 -0.85938,0.3125 -0.35937,0.2969 -0.5625,1.0781 -0.26562,1.0157 -0.26562,3.4063 0,2.3906 0.23437,3.2812 0.25,0.8907 0.60938,1.1875 0.35937,0.2969 0.84375,0.2969 0.46875,0 0.82812,-0.2969 0.375,-0.2968 0.59375,-1.0781 0.26563,-1 0.26563,-3.3906 0,-2.3906 -0.25,-3.2813 -0.23438,-0.9062 -0.60938,-1.2031 -0.35937,-0.3125 -0.82812,-0.3125 z" />
  <path
     style="fill:#ffffff;fill-opacity:1;fill-rule:nonzero"
     inkscape:connector-curvature="0"
     id="path291-1-2-5"
     d="m 341.65351,191.8742 q 1.96875,0 3.07812,1.4062 1.32813,1.6719 1.32813,5.5469 0,3.8594 -1.32813,5.5469 -1.10937,1.3906 -3.07812,1.3906 -1.98438,0 -3.20313,-1.5313 -1.21875,-1.5312 -1.21875,-5.4375 0,-3.8437 1.34375,-5.5312 1.09375,-1.3906 3.07813,-1.3906 z m 0,2.1562 q -0.48438,0 -0.85938,0.3125 -0.35937,0.2969 -0.5625,1.0781 -0.26562,1.0157 -0.26562,3.4063 0,2.3906 0.23437,3.2812 0.25,0.8907 0.60938,1.1875 0.35937,0.2969 0.84375,0.2969 0.46875,0 0.82812,-0.2969 0.375,-0.2968 0.59375,-1.0781 0.26563,-1 0.26563,-3.3906 0,-2.3906 -0.25,-3.2813 -0.23438,-0.9062 -0.60938,-1.2031 -0.35937,-0.3125 -0.82812,-0.3125 z" />
  <path
     style="fill:#ffffff;fill-opacity:1;fill-rule:nonzero"
     inkscape:connector-curvature="0"
     id="path291-1-2-4"
     d="m 426.9868,191.8742 q 1.96875,0 3.07812,1.4062 1.32813,1.6719 1.32813,5.5469 0,3.8594 -1.32813,5.5469 -1.10937,1.3906 -3.07812,1.3906 -1.98438,0 -3.20313,-1.5313 -1.21875,-1.5312 -1.21875,-5.4375 0,-3.8437 1.34375,-5.5312 1.09375,-1.3906 3.07813,-1.3906 z m 0,2.1562 q -0.48438,0 -0.85938,0.3125 -0.35937,0.2969 -0.5625,1.0781 -0.26562,1.0157 -0.26562,3.4063 0,2.3906 0.23437,3.2812 0.25,0.8907 0.60938,1.1875 0.35937,0.2969 0.84375,0.2969 0.46875,0 0.82812,-0.2969 0.375,-0.2968 0.59375,-1.0781 0.26563,-1 0.26563,-3.3906 0,-2.3906 -0.25,-3.2813 -0.23438,-0.9062 -0.60938,-1.2031 -0.35937,-0.3125 -0.82812,-0.3125 z" />
  <path
     style="fill:#ffffff;fill-opacity:1;fill-rule:nonzero"
     inkscape:connector-curvature="0"
     id="path291-1-2-7"
     d="m 512.3202,191.8742 q 1.96875,0 3.07812,1.4062 1.32813,1.6719 1.32813,5.5469 0,3.8594 -1.32813,5.5469 -1.10937,1.3906 -3.07812,1.3906 -1.98438,0 -3.20313,-1.5313 -1.21875,-1.5312 -1.21875,-5.4375 0,-3.8437 1.34375,-5.5312 1.09375,-1.3906 3.07813,-1.3906 z m 0,2.1562 q -0.48438,0 -0.85938,0.3125 -0.35937,0.2969 -0.5625,1.0781 -0.26562,1.0157 -0.26562,3.4063 0,2.3906 0.23437,3.2812 0.25,0.8907 0.60938,1.1875 0.35937,0.2969 0.84375,0.2969 0.46875,0 0.82812,-0.2969 0.375,-0.2968 0.59375,-1.0781 0.26563,-1 0.26563,-3.3906 0,-2.3906 -0.25,-3.2813 -0.23438,-0.9062 -0.60938,-1.2031 -0.35937,-0.3125 -0.82812,-0.3125 z" />
  <path
     style="fill:#ffffff;fill-opacity:1;fill-rule:nonzero"
     inkscape:connector-curvature="0"
     id="path291-1-2-9"
     d="m 597.65351,191.8742 q 1.96875,0 3.07812,1.4062 1.32813,1.6719 1.32813,5.5469 0,3.8594 -1.32813,5.5469 -1.10937,1.3906 -3.07812,1.3906 -1.98438,0 -3.20313,-1.5313 -1.21875,-1.5312 -1.21875,-5.4375 0,-3.8437 1.34375,-5.5312 1.09375,-1.3906 3.07813,-1.3906 z m 0,2.1562 q -0.48438,0 -0.85938,0.3125 -0.35937,0.2969 -0.5625,1.0781 -0.26562,1.0157 -0.26562,3.4063 0,2.3906 0.23437,3.2812 0.25,0.8907 0.60938,1.1875 0.35937,0.2969 0.84375,0.2969 0.46875,0 0.82812,-0.2969 0.375,-0.2968 0.59375,-1.0781 0.26563,-1 0.26563,-3.3906 0,-2.3906 -0.25,-3.2813 -0.23438,-0.9062 -0.60938,-1.2031 -0.35937,-0.3125 -0.82812,-0.3125 z" />
  <path
     style="fill:#ffffff;fill-opacity:1;fill-rule:nonzero"
     inkscape:connector-curvature="0"
     id="path105-9-4-2-1"
     d="m 259.30451,205.7648 -2.60938,0 0,-9.8281 q -1.4375,1.3437 -3.375,1.9843 l 0,-2.375 q 1.03125,-0.3281 2.21875,-1.25 1.20313,-0.9375 1.64063,-2.1875 l 2.125,0 0,13.6563 z" />
  <path
     style="fill:#ffffff;fill-opacity:1;fill-rule:nonzero"
     inkscape:connector-curvature="0"
     id="path105-9-4-2-1-4"
     d="m 88.637857,117.3518 -2.60938,0 0,-9.8281 q -1.4375,1.3437 -3.375,1.9844 l 0,-2.375 q 1.03125,-0.3282 2.21875,-1.25 1.20313,-0.9375 1.64063,-2.1875 l 2.125,0 0,13.6562 z" />
  <path
     style="fill:#ffffff;fill-opacity:1;fill-rule:nonzero"
     inkscape:connector-curvature="0"
     id="path105-9-4-2-1-3"
     d="m 173.9712,117.3518 -2.60938,0 0,-9.8281 q -1.4375,1.3437 -3.375,1.9844 l 0,-2.375 q 1.03125,-0.3282 2.21875,-1.25 1.20313,-0.9375 1.64063,-2.1875 l 2.125,0 0,13.6562 z" />
  <path
     style="fill:#ffffff;fill-opacity:1;fill-rule:nonzero"
     inkscape:connector-curvature="0"
     id="path105-9-4-2-1-7"
     d="m 259.30451,117.3518 -2.60938,0 0,-9.8281 q -1.4375,1.3437 -3.375,1.9844 l 0,-2.375 q 1.03125,-0.3282 2.21875,-1.25 1.20313,-0.9375 1.64063,-2.1875 l 2.125,0 0,13.6562 z" />
  <path
     style="fill:#ffffff;fill-opacity:1;fill-rule:nonzero"
     inkscape:connector-curvature="0"
     id="path105-9-4-2-1-5"
     d="m 515.30458,117.3518 -2.60938,0 0,-9.8281 q -1.4375,1.3437 -3.375,1.9844 l 0,-2.375 q 1.03125,-0.3282 2.21875,-1.25 1.20313,-0.9375 1.64063,-2.1875 l 2.125,0 0,13.6562 z" />
  <path
     style="fill:#ffffff;fill-opacity:1;fill-rule:nonzero"
     inkscape:connector-curvature="0"
     id="path291-1-2-9-7"
     d="m 341.65351,103.4612 q 1.96875,0 3.07812,1.4062 1.32813,1.6719 1.32813,5.5469 0,3.8594 -1.32813,5.5469 -1.10937,1.3906 -3.07812,1.3906 -1.98438,0 -3.20313,-1.5312 -1.21875,-1.5313 -1.21875,-5.4375 0,-3.8438 1.34375,-5.5313 1.09375,-1.3906 3.07813,-1.3906 z m 0,2.1562 q -0.48438,0 -0.85938,0.3125 -0.35937,0.2969 -0.5625,1.0782 -0.26562,1.0156 -0.26562,3.4062 0,2.3906 0.23437,3.2813 0.25,0.8906 0.60938,1.1875 0.35937,0.2968 0.84375,0.2968 0.46875,0 0.82812,-0.2968 0.375,-0.2969 0.59375,-1.0782 0.26563,-1 0.26563,-3.3906 0,-2.3906 -0.25,-3.2812 -0.23438,-0.9063 -0.60938,-1.2032 -0.35937,-0.3125 -0.82812,-0.3125 z" />
  <path
     style="fill:#ffffff;fill-opacity:1;fill-rule:nonzero"
     inkscape:connector-curvature="0"
     id="path291-1-2-9-9"
     d="m 426.9868,103.4612 q 1.96875,0 3.07812,1.4062 1.32813,1.6719 1.32813,5.5469 0,3.8594 -1.32813,5.5469 -1.10937,1.3906 -3.07812,1.3906 -1.98438,0 -3.20313,-1.5312 -1.21875,-1.5313 -1.21875,-5.4375 0,-3.8438 1.34375,-5.5313 1.09375,-1.3906 3.07813,-1.3906 z m 0,2.1562 q -0.48438,0 -0.85938,0.3125 -0.35937,0.2969 -0.5625,1.0782 -0.26562,1.0156 -0.26562,3.4062 0,2.3906 0.23437,3.2813 0.25,0.8906 0.60938,1.1875 0.35937,0.2968 0.84375,0.2968 0.46875,0 0.82812,-0.2968 0.375,-0.2969 0.59375,-1.0782 0.26563,-1 0.26563,-3.3906 0,-2.3906 -0.25,-3.2812 -0.23438,-0.9063 -0.60938,-1.2032 -0.35937,-0.3125 -0.82812,-0.3125 z" />
  <path
     style="fill:#ffffff;fill-opacity:1;fill-rule:nonzero"
     inkscape:connector-curvature="0"
     id="path291-1-2-9-4"
     d="m 597.65351,103.4612 q 1.96875,0 3.07812,1.4062 1.32813,1.6719 1.32813,5.5469 0,3.8594 -1.32813,5.5469 -1.10937,1.3906 -3.07812,1.3906 -1.98438,0 -3.20313,-1.5312 -1.21875,-1.5313 -1.21875,-5.4375 0,-3.8438 1.34375,-5.5313 1.09375,-1.3906 3.07813,-1.3906 z m 0,2.1562 q -0.48438,0 -0.85938,0.3125 -0.35937,0.2969 -0.5625,1.0782 -0.26562,1.0156 -0.26562,3.4062 0,2.3906 0.23437,3.2813 0.25,0.8906 0.60938,1.1875 0.35937,0.2968 0.84375,0.2968 0.46875,0 0.82812,-0.2968 0.375,-0.2969 0.59375,-1.0782 0.26563,-1 0.26563,-3.3906 0,-2.3906 -0.25,-3.2812 -0.23438,-0.9063 -0.60938,-1.2032 -0.35937,-0.3125 -0.82812,-0.3125 z" />
  <path
     style="fill:#ffffff;fill-opacity:1;fill-rule:nonzero"
     inkscape:connector-curvature="0"
     id="path105-9-4-2-1-5-5"
     d="m 600.63789,81.438399 -2.60938,0 0,-9.8281 q -1.4375,1.3438 -3.375,1.9844 l 0,-2.375 q 1.03125,-0.3281 2.21875,-1.25 1.20313,-0.9375 1.64063,-2.1875 l 2.125,0 0,13.6562 z" />
  <path
     style="fill:#ffffff;fill-opacity:1;fill-rule:nonzero"
     inkscape:connector-curvature="0"
     id="path105-9-4-2-1-5-2"
     d="m 515.30458,81.438399 -2.60938,0 0,-9.8281 q -1.4375,1.3438 -3.375,1.9844 l 0,-2.375 q 1.03125,-0.3281 2.21875,-1.25 1.20313,-0.9375 1.64063,-2.1875 l 2.125,0 0,13.6562 z" />
  <path
     style="fill:#ffffff;fill-opacity:1;fill-rule:nonzero"
     inkscape:connector-curvature="0"
     id="path105-9-4-2-1-5-7"
     d="m 429.97117,81.438399 -2.60938,0 0,-9.8281 q -1.4375,1.3438 -3.375,1.9844 l 0,-2.375 q 1.03125,-0.3281 2.21875,-1.25 1.20313,-0.9375 1.64063,-2.1875 l 2.125,0 0,13.6562 z" />
  <path
     style="fill:#ffffff;fill-opacity:1;fill-rule:nonzero"
     inkscape:connector-curvature="0"
     id="path105-9-4-2-1-5-4"
     d="m 173.9712,81.438399 -2.60938,0 0,-9.8281 q -1.4375,1.3438 -3.375,1.9844 l 0,-2.375 q 1.03125,-0.3281 2.21875,-1.25 1.20313,-0.9375 1.64063,-2.1875 l 2.125,0 0,13.6562 z" />
  <path
     style="fill:#ffffff;fill-opacity:1;fill-rule:nonzero"
     inkscape:connector-curvature="0"
     id="path291-1-2-9-7-4"
     d="m 256.32014,67.547799 q 1.96875,0 3.07812,1.4063 1.32813,1.6718 1.32813,5.5468 0,3.8594 -1.32813,5.5469 -1.10937,1.3906 -3.07812,1.3906 -1.98438,0 -3.20313,-1.5312 -1.21875,-1.5313 -1.21875,-5.4375 0,-3.8438 1.34375,-5.5313 1.09375,-1.3906 3.07813,-1.3906 z m 0,2.1563 q -0.48438,0 -0.85938,0.3125 -0.35937,0.2968 -0.5625,1.0781 -0.26562,1.0156 -0.26562,3.4062 0,2.3907 0.23437,3.2813 0.25,0.8906 0.60938,1.1875 0.35937,0.2969 0.84375,0.2969 0.46875,0 0.82812,-0.2969 0.375,-0.2969 0.59375,-1.0781 0.26563,-1 0.26563,-3.3907 0,-2.3906 -0.25,-3.2812 -0.23438,-0.9063 -0.60938,-1.2031 -0.35937,-0.3125 -0.82812,-0.3125 z" />
  <path
     style="fill:#ffffff;fill-opacity:1;fill-rule:nonzero"
     inkscape:connector-curvature="0"
     id="path291-1-2-9-7-0"
     d="m 341.65351,67.547799 q 1.96875,0 3.07812,1.4063 1.32813,1.6718 1.32813,5.5468 0,3.8594 -1.32813,5.5469 -1.10937,1.3906 -3.07812,1.3906 -1.98438,0 -3.20313,-1.5312 -1.21875,-1.5313 -1.21875,-5.4375 0,-3.8438 1.34375,-5.5313 1.09375,-1.3906 3.07813,-1.3906 z m 0,2.1563 q -0.48438,0 -0.85938,0.3125 -0.35937,0.2968 -0.5625,1.0781 -0.26562,1.0156 -0.26562,3.4062 0,2.3907 0.23437,3.2813 0.25,0.8906 0.60938,1.1875 0.35937,0.2969 0.84375,0.2969 0.46875,0 0.82812,-0.2969 0.375,-0.2969 0.59375,-1.0781 0.26563,-1 0.26563,-3.3907 0,-2.3906 -0.25,-3.2812 -0.23438,-0.9063 -0.60938,-1.2031 -0.35937,-0.3125 -0.82812,-0.3125 z" />
  <path
     style="fill:#ffffff;fill-opacity:1;fill-rule:nonzero"
     inkscape:connector-curvature="0"
     id="path105-9-4-2-1-5-2-0"
     d="m 515.30458,99.317099 -2.60938,0 0,-9.8281 q -1.4375,1.3437 -3.375,1.9844 l 0,-2.375 q 1.03125,-0.3282 2.21875,-1.25 1.20313,-0.9375 1.64063,-2.1875 l 2.125,0 0,13.6562 z" />
  <path
     style="fill:#ffffff;fill-opacity:1;fill-rule:nonzero"
     inkscape:connector-curvature="0"
     id="path105-9-4-2-1-5-7-2"
     d="m 429.97117,99.317099 -2.60938,0 0,-9.8281 q -1.4375,1.3437 -3.375,1.9844 l 0,-2.375 q 1.03125,-0.3282 2.21875,-1.25 1.20313,-0.9375 1.64063,-2.1875 l 2.125,0 0,13.6562 z" />
  <path
     style="fill:#ffffff;fill-opacity:1;fill-rule:nonzero"
     inkscape:connector-curvature="0"
     id="path105-9-4-2-1-5-4-8"
     d="m 173.9712,99.317099 -2.60938,0 0,-9.8281 q -1.4375,1.3437 -3.375,1.9844 l 0,-2.375 q 1.03125,-0.3282 2.21875,-1.25 1.20313,-0.9375 1.64063,-2.1875 l 2.125,0 0,13.6562 z" />
  <path
     style="fill:#ffffff;fill-opacity:1;fill-rule:nonzero"
     inkscape:connector-curvature="0"
     id="path105-9-4-2-1-5-8-3"
     d="m 88.637857,99.317099 -2.60938,0 0,-9.8281 q -1.4375,1.3437 -3.375,1.9844 l 0,-2.375 q 1.03125,-0.3282 2.21875,-1.25 1.20313,-0.9375 1.64063,-2.1875 l 2.125,0 0,13.6562 z" />
  <path
     style="fill:#ffffff;fill-opacity:1;fill-rule:nonzero"
     inkscape:connector-curvature="0"
     id="path291-1-2-9-7-4-0"
     d="m 256.32014,85.426499 q 1.96875,0 3.07812,1.4062 1.32813,1.6719 1.32813,5.5469 0,3.8594 -1.32813,5.5469 -1.10937,1.3906 -3.07812,1.3906 -1.98438,0 -3.20313,-1.5312 -1.21875,-1.5313 -1.21875,-5.4375 0,-3.8438 1.34375,-5.5313 1.09375,-1.3906 3.07813,-1.3906 z m 0,2.1562 q -0.48438,0 -0.85938,0.3125 -0.35937,0.2969 -0.5625,1.0782 -0.26562,1.0156 -0.26562,3.4062 0,2.3906 0.23437,3.2813 0.25,0.8906 0.60938,1.1875 0.35937,0.2968 0.84375,0.2968 0.46875,0 0.82812,-0.2968 0.375,-0.2969 0.59375,-1.0782 0.26563,-1 0.26563,-3.3906 0,-2.3906 -0.25,-3.2812 -0.23438,-0.9063 -0.60938,-1.2032 -0.35937,-0.3125 -0.82812,-0.3125 z" />
  <path
     style="fill:#ffffff;fill-opacity:1;fill-rule:nonzero"
     inkscape:connector-curvature="0"
     id="path291-1-2-9-7-0-3"
     d="m 341.65351,85.426499 q 1.96875,0 3.07812,1.4062 1.32813,1.6719 1.32813,5.5469 0,3.8594 -1.32813,5.5469 -1.10937,1.3906 -3.07812,1.3906 -1.98438,0 -3.20313,-1.5312 -1.21875,-1.5313 -1.21875,-5.4375 0,-3.8438 1.34375,-5.5313 1.09375,-1.3906 3.07813,-1.3906 z m 0,2.1562 q -0.48438,0 -0.85938,0.3125 -0.35937,0.2969 -0.5625,1.0782 -0.26562,1.0156 -0.26562,3.4062 0,2.3906 0.23437,3.2813 0.25,0.8906 0.60938,1.1875 0.35937,0.2968 0.84375,0.2968 0.46875,0 0.82812,-0.2968 0.375,-0.2969 0.59375,-1.0782 0.26563,-1 0.26563,-3.3906 0,-2.3906 -0.25,-3.2812 -0.23438,-0.9063 -0.60938,-1.2032 -0.35937,-0.3125 -0.82812,-0.3125 z" />
  <path
     style="fill:#ffffff;fill-opacity:1;fill-rule:nonzero"
     inkscape:connector-curvature="0"
     id="path291-1-2-19"
     d="m 85.653487,210.0913 q 1.96875,0 3.07812,1.4063 1.32813,1.6719 1.32813,5.5469 0,3.8593 -1.32813,5.5468 -1.10937,1.3907 -3.07812,1.3907 -1.98438,0 -3.20313,-1.5313 -1.21875,-1.5312 -1.21875,-5.4375 0,-3.8437 1.34375,-5.5312 1.09375,-1.3907 3.07813,-1.3907 z m 0,2.1563 q -0.48438,0 -0.85938,0.3125 -0.35937,0.2969 -0.5625,1.0781 -0.26562,1.0156 -0.26562,3.4063 0,2.3906 0.23437,3.2812 0.25,0.8906 0.60938,1.1875 0.35937,0.2969 0.84375,0.2969 0.46875,0 0.82812,-0.2969 0.375,-0.2969 0.59375,-1.0781 0.26563,-1 0.26563,-3.3906 0,-2.3907 -0.25,-3.2813 -0.23438,-0.9062 -0.60938,-1.2031 -0.35937,-0.3125 -0.82812,-0.3125 z" />
  <path
     style="fill:#ffffff;fill-opacity:1;fill-rule:nonzero"
     inkscape:connector-curvature="0"
     id="path291-1-2-6-4"
     d="m 170.98683,210.0913 q 1.96875,0 3.07812,1.4063 1.32813,1.6719 1.32813,5.5469 0,3.8593 -1.32813,5.5468 -1.10937,1.3907 -3.07812,1.3907 -1.98438,0 -3.20313,-1.5313 -1.21875,-1.5312 -1.21875,-5.4375 0,-3.8437 1.34375,-5.5312 1.09375,-1.3907 3.07813,-1.3907 z m 0,2.1563 q -0.48438,0 -0.85938,0.3125 -0.35937,0.2969 -0.5625,1.0781 -0.26562,1.0156 -0.26562,3.4063 0,2.3906 0.23437,3.2812 0.25,0.8906 0.60938,1.1875 0.35937,0.2969 0.84375,0.2969 0.46875,0 0.82812,-0.2969 0.375,-0.2969 0.59375,-1.0781 0.26563,-1 0.26563,-3.3906 0,-2.3907 -0.25,-3.2813 -0.23438,-0.9062 -0.60938,-1.2031 -0.35937,-0.3125 -0.82812,-0.3125 z" />
  <path
     style="fill:#ffffff;fill-opacity:1;fill-rule:nonzero"
     inkscape:connector-curvature="0"
     id="path291-1-2-68-5"
     d="m 426.9868,210.0913 q 1.96875,0 3.07812,1.4063 1.32813,1.6719 1.32813,5.5469 0,3.8593 -1.32813,5.5468 -1.10937,1.3907 -3.07812,1.3907 -1.98438,0 -3.20313,-1.5313 -1.21875,-1.5312 -1.21875,-5.4375 0,-3.8437 1.34375,-5.5312 1.09375,-1.3907 3.07813,-1.3907 z m 0,2.1563 q -0.48438,0 -0.85938,0.3125 -0.35937,0.2969 -0.5625,1.0781 -0.26562,1.0156 -0.26562,3.4063 0,2.3906 0.23437,3.2812 0.25,0.8906 0.60938,1.1875 0.35937,0.2969 0.84375,0.2969 0.46875,0 0.82812,-0.2969 0.375,-0.2969 0.59375,-1.0781 0.26563,-1 0.26563,-3.3906 0,-2.3907 -0.25,-3.2813 -0.23438,-0.9062 -0.60938,-1.2031 -0.35937,-0.3125 -0.82812,-0.3125 z" />
  <path
     style="fill:#ffffff;fill-opacity:1;fill-rule:nonzero"
     inkscape:connector-curvature="0"
     id="path105-9-4-7-1"
     d="m 344.63788,223.982 -2.60938,0 0,-9.8282 q -1.4375,1.3438 -3.375,1.9844 l 0,-2.375 q 1.03125,-0.3281 2.21875,-1.25 1.20313,-0.9375 1.64063,-2.1875 l 2.125,0 0,13.6563 z" />
  <path
     style="fill:#ffffff;fill-opacity:1;fill-rule:nonzero"
     inkscape:connector-curvature="0"
     id="path105-9-4-2-0"
     d="m 515.30458,223.982 -2.60938,0 0,-9.8282 q -1.4375,1.3438 -3.375,1.9844 l 0,-2.375 q 1.03125,-0.3281 2.21875,-1.25 1.20313,-0.9375 1.64063,-2.1875 l 2.125,0 0,13.6563 z" />
  <path
     style="fill:#ffffff;fill-opacity:1;fill-rule:nonzero;stroke:none;stroke-linecap:square;stroke-miterlimit:10"
     inkscape:connector-curvature="0"
     id="path291-1-2-6-4-4"
     d="m 256.32013,210.0913 q 1.96875,0 3.07812,1.4063 1.32813,1.6719 1.32813,5.5469 0,3.8593 -1.32813,5.5468 -1.10937,1.3907 -3.07812,1.3907 -1.98438,0 -3.20313,-1.5313 -1.21875,-1.5312 -1.21875,-5.4375 0,-3.8437 1.34375,-5.5312 1.09375,-1.3907 3.07813,-1.3907 z m 0,2.1563 q -0.48438,0 -0.85938,0.3125 -0.35937,0.2969 -0.5625,1.0781 -0.26562,1.0156 -0.26562,3.4063 0,2.3906 0.23437,3.2812 0.25,0.8906 0.60938,1.1875 0.35937,0.2969 0.84375,0.2969 0.46875,0 0.82812,-0.2969 0.375,-0.2969 0.59375,-1.0781 0.26563,-1 0.26563,-3.3906 0,-2.3907 -0.25,-3.2813 -0.23438,-0.9062 -0.60938,-1.2031 -0.35937,-0.3125 -0.82812,-0.3125 z" />
  <path
     style="fill:#ffffff;fill-opacity:1;fill-rule:nonzero;stroke:none;stroke-linecap:square;stroke-miterlimit:10"
     inkscape:connector-curvature="0"
     id="path291-1-2-6-4-49"
     d="m 256.32013,227.46115 q 1.96875,0 3.07812,1.4063 1.32813,1.6719 1.32813,5.5469 0,3.8593 -1.32813,5.5468 -1.10937,1.3907 -3.07812,1.3907 -1.98438,0 -3.20313,-1.5313 -1.21875,-1.5312 -1.21875,-5.4375 0,-3.8437 1.34375,-5.5312 1.09375,-1.3907 3.07813,-1.3907 z m 0,2.1563 q -0.48438,0 -0.85938,0.3125 -0.35937,0.2969 -0.5625,1.0781 -0.26562,1.0156 -0.26562,3.4063 0,2.3906 0.23437,3.2812 0.25,0.8906 0.60938,1.1875 0.35937,0.2969 0.84375,0.2969 0.46875,0 0.82812,-0.2969 0.375,-0.2969 0.59375,-1.0781 0.26563,-1 0.26563,-3.3906 0,-2.3907 -0.25,-3.2813 -0.23438,-0.9062 -0.60938,-1.2031 -0.35937,-0.3125 -0.82812,-0.3125 z" />
</svg>
