<?xml version="1.0" encoding="UTF-8" standalone="no"?>
<svg
   xmlns:dc="http://purl.org/dc/elements/1.1/"
   xmlns:cc="http://creativecommons.org/ns#"
   xmlns:rdf="http://www.w3.org/1999/02/22-rdf-syntax-ns#"
   xmlns:svg="http://www.w3.org/2000/svg"
   xmlns="http://www.w3.org/2000/svg"
   xmlns:sodipodi="http://sodipodi.sourceforge.net/DTD/sodipodi-0.dtd"
   xmlns:inkscape="http://www.inkscape.org/namespaces/inkscape"
   version="1.1"
   viewBox="0 0 771.05798 193.81279"
   stroke-miterlimit="10"
   id="svg2"
   inkscape:version="0.48.3.1 r9886"
   sodipodi:docname="trio-phasing.svg"
   width="771.05798"
   height="193.81279"
   style="fill:none;stroke:none">
  <metadata
     id="metadata299">
    <rdf:RDF>
      <cc:Work
         rdf:about="">
        <dc:format>image/svg+xml</dc:format>
        <dc:type
           rdf:resource="http://purl.org/dc/dcmitype/StillImage" />
        <dc:title />
      </cc:Work>
    </rdf:RDF>
  </metadata>
  <defs
     id="defs297" />
  <sodipodi:namedview
     pagecolor="#ffffff"
     bordercolor="#666666"
     borderopacity="1"
     objecttolerance="10"
     gridtolerance="10"
     guidetolerance="10"
     inkscape:pageopacity="0"
     inkscape:pageshadow="2"
     inkscape:window-width="1827"
     inkscape:window-height="988"
     id="namedview295"
     showgrid="true"
     inkscape:zoom="1.4142136"
     inkscape:cx="332.95723"
     inkscape:cy="-26.305722"
     inkscape:window-x="0"
     inkscape:window-y="0"
     inkscape:window-maximized="0"
     inkscape:current-layer="svg2"
     showguides="true"
     inkscape:guide-bbox="true"
     fit-margin-top="0"
     fit-margin-left="0"
     fit-margin-right="0"
     fit-margin-bottom="0">
    <inkscape:grid
       type="xygrid"
       id="grid4427"
       originx="-189.95332px"
       originy="618.46733px"
       empspacing="5"
       visible="true"
       enabled="true"
       snapvisiblegridlinesonly="true" />
  </sodipodi:namedview>
  <clipPath
     id="p.0">
    <path
       d="M 0,0 960,0 960,720 0,720 0,0 z"
       id="path5"
       inkscape:connector-curvature="0" />
  </clipPath>
  <text
     xml:space="preserve"
     style="font-size:20px;font-style:normal;font-variant:normal;font-weight:normal;font-stretch:normal;line-height:125%;letter-spacing:0px;word-spacing:0px;fill:#000000;fill-opacity:1;stroke:none;font-family:Sans;-inkscape-font-specification:Sans"
     x="30.500156"
     y="14.84375"
     id="text4572"
     sodipodi:linespacing="125%"><tspan
       sodipodi:role="line"
       id="tspan4574"
       x="30.500156"
       y="14.84375">SNP 1</tspan></text>
  <text
     xml:space="preserve"
     style="font-size:20px;font-style:normal;font-variant:normal;font-weight:normal;font-stretch:normal;line-height:125%;letter-spacing:0px;word-spacing:0px;fill:#000000;fill-opacity:1;stroke:none;font-family:Sans;-inkscape-font-specification:Sans"
     x="115.91161"
     y="14.84375"
     id="text4572-8"
     sodipodi:linespacing="125%"><tspan
       sodipodi:role="line"
       id="tspan4574-3"
       x="115.91161"
       y="14.84375">SNP 2</tspan></text>
  <text
     xml:space="preserve"
     style="font-size:20px;font-style:normal;font-variant:normal;font-weight:normal;font-stretch:normal;line-height:125%;letter-spacing:0px;word-spacing:0px;fill:#000000;fill-opacity:1;stroke:none;font-family:Sans;-inkscape-font-specification:Sans"
     x="204.71297"
     y="14.84375"
     id="text4572-84"
     sodipodi:linespacing="125%"><tspan
       sodipodi:role="line"
       id="tspan4574-4"
       x="204.71297"
       y="14.84375">SNP 3</tspan></text>
  <text
     xml:space="preserve"
     style="font-size:20px;font-style:normal;font-variant:normal;font-weight:normal;font-stretch:normal;line-height:125%;letter-spacing:0px;word-spacing:0px;fill:#000000;fill-opacity:1;stroke:none;font-family:Sans;-inkscape-font-specification:Sans"
     x="286.13885"
     y="14.84375"
     id="text4572-1"
     sodipodi:linespacing="125%"><tspan
       sodipodi:role="line"
       id="tspan4574-1"
       x="286.13885"
       y="14.84375">SNP 4</tspan></text>
  <text
     xml:space="preserve"
     style="font-size:20px;font-style:normal;font-variant:normal;font-weight:normal;font-stretch:normal;line-height:125%;letter-spacing:0px;word-spacing:0px;fill:#000000;fill-opacity:1;stroke:none;font-family:Sans;-inkscape-font-specification:Sans"
     x="371.78464"
     y="14.84375"
     id="text4572-6"
     sodipodi:linespacing="125%"><tspan
       sodipodi:role="line"
       id="tspan4574-6"
       x="371.78464"
       y="14.84375">SNP 5</tspan></text>
  <text
     xml:space="preserve"
     style="font-size:20px;font-style:normal;font-variant:normal;font-weight:normal;font-stretch:normal;line-height:125%;letter-spacing:0px;word-spacing:0px;fill:#000000;fill-opacity:1;stroke:none;font-family:Sans;-inkscape-font-specification:Sans"
     x="456.8739"
     y="14.84375"
     id="text4572-4"
     sodipodi:linespacing="125%"><tspan
       sodipodi:role="line"
       id="tspan4574-7"
       x="456.8739"
       y="14.84375">SNP 6</tspan></text>
  <text
     xml:space="preserve"
     style="font-size:20px;font-style:normal;font-variant:normal;font-weight:normal;font-stretch:normal;line-height:125%;letter-spacing:0px;word-spacing:0px;fill:#000000;fill-opacity:1;stroke:none;font-family:Sans;-inkscape-font-specification:Sans"
     x="542.43182"
     y="14.84375"
     id="text4572-64"
     sodipodi:linespacing="125%"><tspan
       sodipodi:role="line"
       id="tspan4574-41"
       x="542.43182"
       y="14.84375">SNP 7</tspan></text>
  <g
     id="g3230"
     transform="translate(-26.000004,1.0837509)">
    <rect
       ry="4.6464467"
       y="174.47034"
       x="26.050247"
       height="15.000031"
       width="265"
       id="rect6453-3-2-6-0-4-5"
       style="fill:#924900;fill-opacity:1;stroke:none" />
    <g
       transform="translate(0,-144)"
       id="g3225">
      <text
         xml:space="preserve"
         style="font-size:20px;font-style:normal;font-variant:normal;font-weight:bold;font-stretch:normal;line-height:125%;letter-spacing:0px;word-spacing:0px;fill:#924900;fill-opacity:1;stroke:none;font-family:Sans;-inkscape-font-specification:Sans Bold"
         x="685.87634"
         y="336.33963"
         id="text4572-64-9-4-4"
         sodipodi:linespacing="125%"><tspan
           sodipodi:role="line"
           id="tspan4574-41-0-4-4"
           x="685.87634"
           y="336.33963"
           style="font-size:27.5px;font-style:normal;font-variant:normal;font-weight:bold;font-stretch:normal;fill:#924900;fill-opacity:1;font-family:Sans;-inkscape-font-specification:Sans Bold">Child</tspan></text>
      <rect
         style="fill:#924900;fill-opacity:1;stroke:none"
         id="rect6453-3-2-6-0-4"
         width="265"
         height="15.000031"
         x="381"
         y="318.58752"
         ry="4.6464467" />
    </g>
    <path
       d="m 88.637857,188.9156 -2.60938,0 0,-9.8281 q -1.4375,1.3438 -3.375,1.9844 l 0,-2.375 q 1.03125,-0.3281 2.21875,-1.25 1.20313,-0.9375 1.64063,-2.1875 l 2.125,0 0,13.6562 z"
       id="path105"
       inkscape:connector-curvature="0"
       style="fill:#ffffff;fill-rule:nonzero" />
    <path
       d="m 426.9868,175.025 q 1.96875,0 3.07812,1.4063 1.32813,1.6718 1.32813,5.5468 0,3.8594 -1.32813,5.5469 -1.10937,1.3906 -3.07812,1.3906 -1.98438,0 -3.20313,-1.5312 -1.21875,-1.5313 -1.21875,-5.4375 0,-3.8438 1.34375,-5.5313 1.09375,-1.3906 3.07813,-1.3906 z m 0,2.1563 q -0.48438,0 -0.85938,0.3125 -0.35937,0.2968 -0.5625,1.0781 -0.26562,1.0156 -0.26562,3.4062 0,2.3907 0.23437,3.2813 0.25,0.8906 0.60938,1.1875 0.35937,0.2969 0.84375,0.2969 0.46875,0 0.82812,-0.2969 0.375,-0.2969 0.59375,-1.0781 0.26563,-1 0.26563,-3.3907 0,-2.3906 -0.25,-3.2812 -0.23438,-0.9063 -0.60938,-1.2031 -0.35937,-0.3125 -0.82812,-0.3125 z"
       id="path291"
       inkscape:connector-curvature="0"
       style="fill:#ffffff;fill-rule:nonzero" />
    <path
       d="m 173.9712,188.9156 -2.60938,0 0,-9.8281 q -1.4375,1.3438 -3.375,1.9844 l 0,-2.375 q 1.03125,-0.3281 2.21875,-1.25 1.20313,-0.9375 1.64063,-2.1875 l 2.125,0 0,13.6562 z"
       id="path105-2"
       inkscape:connector-curvature="0"
       style="fill:#ffffff;fill-rule:nonzero" />
    <path
       d="m 515.30458,188.9156 -2.60938,0 0,-9.8281 q -1.4375,1.3438 -3.375,1.9844 l 0,-2.375 q 1.03125,-0.3281 2.21875,-1.25 1.20313,-0.9375 1.64063,-2.1875 l 2.125,0 0,13.6562 z"
       id="path105-9"
       inkscape:connector-curvature="0"
       style="fill:#ffffff;fill-rule:nonzero" />
    <path
       d="m 597.65351,175.025 q 1.96875,0 3.07812,1.4063 1.32813,1.6718 1.32813,5.5468 0,3.8594 -1.32813,5.5469 -1.10937,1.3906 -3.07812,1.3906 -1.98438,0 -3.20313,-1.5312 -1.21875,-1.5313 -1.21875,-5.4375 0,-3.8438 1.34375,-5.5313 1.09375,-1.3906 3.07813,-1.3906 z m 0,2.1563 q -0.48438,0 -0.85938,0.3125 -0.35937,0.2968 -0.5625,1.0781 -0.26562,1.0156 -0.26562,3.4062 0,2.3907 0.23437,3.2813 0.25,0.8906 0.60938,1.1875 0.35937,0.2969 0.84375,0.2969 0.46875,0 0.82812,-0.2969 0.375,-0.2969 0.59375,-1.0781 0.26563,-1 0.26563,-3.3907 0,-2.3906 -0.25,-3.2812 -0.23438,-0.9063 -0.60938,-1.2031 -0.35937,-0.3125 -0.82812,-0.3125 z"
       id="path291-8"
       inkscape:connector-curvature="0"
       style="fill:#ffffff;fill-rule:nonzero" />
    <path
       d="m 256.32014,175.025 q 1.96875,0 3.07812,1.4063 1.32813,1.6718 1.32813,5.5468 0,3.8594 -1.32813,5.5469 -1.10937,1.3906 -3.07812,1.3906 -1.98438,0 -3.20313,-1.5312 -1.21875,-1.5313 -1.21875,-5.4375 0,-3.8438 1.34375,-5.5313 1.09375,-1.3906 3.07813,-1.3906 z m 0,2.1563 q -0.48438,0 -0.85938,0.3125 -0.35937,0.2968 -0.5625,1.0781 -0.26562,1.0156 -0.26562,3.4062 0,2.3907 0.23437,3.2813 0.25,0.8906 0.60938,1.1875 0.35937,0.2969 0.84375,0.2969 0.46875,0 0.82812,-0.2969 0.375,-0.2969 0.59375,-1.0781 0.26563,-1 0.26563,-3.3907 0,-2.3906 -0.25,-3.2812 -0.23438,-0.9063 -0.60938,-1.2031 -0.35937,-0.3125 -0.82812,-0.3125 z"
       id="path291-1"
       inkscape:connector-curvature="0"
       style="fill:#ffffff;fill-rule:nonzero" />
  </g>
  <g
     id="g3170"
     transform="translate(-26.000004,1.0837807)">
    <text
       sodipodi:linespacing="125%"
       id="text4572-64-9"
       y="62.760498"
       x="685.87634"
       style="font-size:20px;font-style:normal;font-variant:normal;font-weight:bold;font-stretch:normal;line-height:125%;letter-spacing:0px;word-spacing:0px;fill:#009292;fill-opacity:1;stroke:none;font-family:Sans;-inkscape-font-specification:Sans Bold"
       xml:space="preserve"><tspan
         style="font-size:27.5px;font-style:normal;font-variant:normal;font-weight:bold;font-stretch:normal;fill:#009292;fill-opacity:1;font-family:Sans;-inkscape-font-specification:Sans Bold"
         y="62.760498"
         x="685.87634"
         id="tspan4574-41-0"
         sodipodi:role="line">Mother</tspan></text>
    <g
       transform="translate(0,-40)"
       id="g3121">
      <rect
         style="fill:#009292;fill-opacity:1;stroke:none"
         id="rect6453-3-2"
         width="620"
         height="15.000008"
         x="26"
         y="102.90649"
         ry="4.6464467" />
      <rect
         style="fill:#009292;fill-opacity:1;stroke:none"
         id="rect6453-3"
         width="530"
         height="15.000008"
         x="26"
         y="84.989006"
         ry="4.6464467" />
      <rect
         style="fill:#009292;fill-opacity:1;stroke:none"
         id="rect6453"
         width="515"
         height="15"
         x="130.99998"
         y="67.110344"
         ry="4.6464467" />
      <path
         style="fill:#ffffff;fill-opacity:1;fill-rule:nonzero"
         inkscape:connector-curvature="0"
         id="path105-9-4-2-1-4"
         d="m 88.637857,117.3518 -2.60938,0 0,-9.8281 q -1.4375,1.3437 -3.375,1.9844 l 0,-2.375 q 1.03125,-0.3282 2.21875,-1.25 1.20313,-0.9375 1.64063,-2.1875 l 2.125,0 0,13.6562 z" />
      <path
         style="fill:#ffffff;fill-opacity:1;fill-rule:nonzero"
         inkscape:connector-curvature="0"
         id="path105-9-4-2-1-3"
         d="m 173.9712,117.3518 -2.60938,0 0,-9.8281 q -1.4375,1.3437 -3.375,1.9844 l 0,-2.375 q 1.03125,-0.3282 2.21875,-1.25 1.20313,-0.9375 1.64063,-2.1875 l 2.125,0 0,13.6562 z" />
      <path
         style="fill:#ffffff;fill-opacity:1;fill-rule:nonzero"
         inkscape:connector-curvature="0"
         id="path105-9-4-2-1-7"
         d="m 259.30451,117.3518 -2.60938,0 0,-9.8281 q -1.4375,1.3437 -3.375,1.9844 l 0,-2.375 q 1.03125,-0.3282 2.21875,-1.25 1.20313,-0.9375 1.64063,-2.1875 l 2.125,0 0,13.6562 z" />
      <path
         style="fill:#ffffff;fill-opacity:1;fill-rule:nonzero"
         inkscape:connector-curvature="0"
         id="path105-9-4-2-1-5"
         d="m 515.30458,117.3518 -2.60938,0 0,-9.8281 q -1.4375,1.3437 -3.375,1.9844 l 0,-2.375 q 1.03125,-0.3282 2.21875,-1.25 1.20313,-0.9375 1.64063,-2.1875 l 2.125,0 0,13.6562 z" />
      <path
         style="fill:#ffffff;fill-opacity:1;fill-rule:nonzero"
         inkscape:connector-curvature="0"
         id="path291-1-2-9-7"
         d="m 341.65351,103.4612 q 1.96875,0 3.07812,1.4062 1.32813,1.6719 1.32813,5.5469 0,3.8594 -1.32813,5.5469 -1.10937,1.3906 -3.07812,1.3906 -1.98438,0 -3.20313,-1.5312 -1.21875,-1.5313 -1.21875,-5.4375 0,-3.8438 1.34375,-5.5313 1.09375,-1.3906 3.07813,-1.3906 z m 0,2.1562 q -0.48438,0 -0.85938,0.3125 -0.35937,0.2969 -0.5625,1.0782 -0.26562,1.0156 -0.26562,3.4062 0,2.3906 0.23437,3.2813 0.25,0.8906 0.60938,1.1875 0.35937,0.2968 0.84375,0.2968 0.46875,0 0.82812,-0.2968 0.375,-0.2969 0.59375,-1.0782 0.26563,-1 0.26563,-3.3906 0,-2.3906 -0.25,-3.2812 -0.23438,-0.9063 -0.60938,-1.2032 -0.35937,-0.3125 -0.82812,-0.3125 z" />
      <path
         style="fill:#ffffff;fill-opacity:1;fill-rule:nonzero"
         inkscape:connector-curvature="0"
         id="path291-1-2-9-9"
         d="m 426.9868,103.4612 q 1.96875,0 3.07812,1.4062 1.32813,1.6719 1.32813,5.5469 0,3.8594 -1.32813,5.5469 -1.10937,1.3906 -3.07812,1.3906 -1.98438,0 -3.20313,-1.5312 -1.21875,-1.5313 -1.21875,-5.4375 0,-3.8438 1.34375,-5.5313 1.09375,-1.3906 3.07813,-1.3906 z m 0,2.1562 q -0.48438,0 -0.85938,0.3125 -0.35937,0.2969 -0.5625,1.0782 -0.26562,1.0156 -0.26562,3.4062 0,2.3906 0.23437,3.2813 0.25,0.8906 0.60938,1.1875 0.35937,0.2968 0.84375,0.2968 0.46875,0 0.82812,-0.2968 0.375,-0.2969 0.59375,-1.0782 0.26563,-1 0.26563,-3.3906 0,-2.3906 -0.25,-3.2812 -0.23438,-0.9063 -0.60938,-1.2032 -0.35937,-0.3125 -0.82812,-0.3125 z" />
      <path
         style="fill:#ffffff;fill-opacity:1;fill-rule:nonzero"
         inkscape:connector-curvature="0"
         id="path291-1-2-9-4"
         d="m 597.65351,103.4612 q 1.96875,0 3.07812,1.4062 1.32813,1.6719 1.32813,5.5469 0,3.8594 -1.32813,5.5469 -1.10937,1.3906 -3.07812,1.3906 -1.98438,0 -3.20313,-1.5312 -1.21875,-1.5313 -1.21875,-5.4375 0,-3.8438 1.34375,-5.5313 1.09375,-1.3906 3.07813,-1.3906 z m 0,2.1562 q -0.48438,0 -0.85938,0.3125 -0.35937,0.2969 -0.5625,1.0782 -0.26562,1.0156 -0.26562,3.4062 0,2.3906 0.23437,3.2813 0.25,0.8906 0.60938,1.1875 0.35937,0.2968 0.84375,0.2968 0.46875,0 0.82812,-0.2968 0.375,-0.2969 0.59375,-1.0782 0.26563,-1 0.26563,-3.3906 0,-2.3906 -0.25,-3.2812 -0.23438,-0.9063 -0.60938,-1.2032 -0.35937,-0.3125 -0.82812,-0.3125 z" />
      <path
         style="fill:#ffffff;fill-opacity:1;fill-rule:nonzero"
         inkscape:connector-curvature="0"
         id="path105-9-4-2-1-5-5"
         d="m 600.63789,81.438399 -2.60938,0 0,-9.8281 q -1.4375,1.3438 -3.375,1.9844 l 0,-2.375 q 1.03125,-0.3281 2.21875,-1.25 1.20313,-0.9375 1.64063,-2.1875 l 2.125,0 0,13.6562 z" />
      <path
         style="fill:#ffffff;fill-opacity:1;fill-rule:nonzero"
         inkscape:connector-curvature="0"
         id="path105-9-4-2-1-5-2"
         d="m 515.30458,81.438399 -2.60938,0 0,-9.8281 q -1.4375,1.3438 -3.375,1.9844 l 0,-2.375 q 1.03125,-0.3281 2.21875,-1.25 1.20313,-0.9375 1.64063,-2.1875 l 2.125,0 0,13.6562 z" />
      <path
         style="fill:#ffffff;fill-opacity:1;fill-rule:nonzero"
         inkscape:connector-curvature="0"
         id="path105-9-4-2-1-5-7"
         d="m 429.97117,81.438399 -2.60938,0 0,-9.8281 q -1.4375,1.3438 -3.375,1.9844 l 0,-2.375 q 1.03125,-0.3281 2.21875,-1.25 1.20313,-0.9375 1.64063,-2.1875 l 2.125,0 0,13.6562 z" />
      <path
         style="fill:#ffffff;fill-opacity:1;fill-rule:nonzero"
         inkscape:connector-curvature="0"
         id="path105-9-4-2-1-5-4"
         d="m 173.9712,81.438399 -2.60938,0 0,-9.8281 q -1.4375,1.3438 -3.375,1.9844 l 0,-2.375 q 1.03125,-0.3281 2.21875,-1.25 1.20313,-0.9375 1.64063,-2.1875 l 2.125,0 0,13.6562 z" />
      <path
         style="fill:#ffffff;fill-opacity:1;fill-rule:nonzero"
         inkscape:connector-curvature="0"
         id="path291-1-2-9-7-4"
         d="m 256.32014,67.547799 q 1.96875,0 3.07812,1.4063 1.32813,1.6718 1.32813,5.5468 0,3.8594 -1.32813,5.5469 -1.10937,1.3906 -3.07812,1.3906 -1.98438,0 -3.20313,-1.5312 -1.21875,-1.5313 -1.21875,-5.4375 0,-3.8438 1.34375,-5.5313 1.09375,-1.3906 3.07813,-1.3906 z m 0,2.1563 q -0.48438,0 -0.85938,0.3125 -0.35937,0.2968 -0.5625,1.0781 -0.26562,1.0156 -0.26562,3.4062 0,2.3907 0.23437,3.2813 0.25,0.8906 0.60938,1.1875 0.35937,0.2969 0.84375,0.2969 0.46875,0 0.82812,-0.2969 0.375,-0.2969 0.59375,-1.0781 0.26563,-1 0.26563,-3.3907 0,-2.3906 -0.25,-3.2812 -0.23438,-0.9063 -0.60938,-1.2031 -0.35937,-0.3125 -0.82812,-0.3125 z" />
      <path
         style="fill:#ffffff;fill-opacity:1;fill-rule:nonzero"
         inkscape:connector-curvature="0"
         id="path291-1-2-9-7-0"
         d="m 341.65351,67.547799 q 1.96875,0 3.07812,1.4063 1.32813,1.6718 1.32813,5.5468 0,3.8594 -1.32813,5.5469 -1.10937,1.3906 -3.07812,1.3906 -1.98438,0 -3.20313,-1.5312 -1.21875,-1.5313 -1.21875,-5.4375 0,-3.8438 1.34375,-5.5313 1.09375,-1.3906 3.07813,-1.3906 z m 0,2.1563 q -0.48438,0 -0.85938,0.3125 -0.35937,0.2968 -0.5625,1.0781 -0.26562,1.0156 -0.26562,3.4062 0,2.3907 0.23437,3.2813 0.25,0.8906 0.60938,1.1875 0.35937,0.2969 0.84375,0.2969 0.46875,0 0.82812,-0.2969 0.375,-0.2969 0.59375,-1.0781 0.26563,-1 0.26563,-3.3907 0,-2.3906 -0.25,-3.2812 -0.23438,-0.9063 -0.60938,-1.2031 -0.35937,-0.3125 -0.82812,-0.3125 z" />
      <path
         style="fill:#ffffff;fill-opacity:1;fill-rule:nonzero"
         inkscape:connector-curvature="0"
         id="path105-9-4-2-1-5-2-0"
         d="m 515.30458,99.317099 -2.60938,0 0,-9.8281 q -1.4375,1.3437 -3.375,1.9844 l 0,-2.375 q 1.03125,-0.3282 2.21875,-1.25 1.20313,-0.9375 1.64063,-2.1875 l 2.125,0 0,13.6562 z" />
      <path
         style="fill:#ffffff;fill-opacity:1;fill-rule:nonzero"
         inkscape:connector-curvature="0"
         id="path105-9-4-2-1-5-7-2"
         d="m 429.97117,99.317099 -2.60938,0 0,-9.8281 q -1.4375,1.3437 -3.375,1.9844 l 0,-2.375 q 1.03125,-0.3282 2.21875,-1.25 1.20313,-0.9375 1.64063,-2.1875 l 2.125,0 0,13.6562 z" />
      <path
         style="fill:#ffffff;fill-opacity:1;fill-rule:nonzero"
         inkscape:connector-curvature="0"
         id="path105-9-4-2-1-5-4-8"
         d="m 173.9712,99.317099 -2.60938,0 0,-9.8281 q -1.4375,1.3437 -3.375,1.9844 l 0,-2.375 q 1.03125,-0.3282 2.21875,-1.25 1.20313,-0.9375 1.64063,-2.1875 l 2.125,0 0,13.6562 z" />
      <path
         style="fill:#ffffff;fill-opacity:1;fill-rule:nonzero"
         inkscape:connector-curvature="0"
         id="path105-9-4-2-1-5-8-3"
         d="m 88.637857,99.317099 -2.60938,0 0,-9.8281 q -1.4375,1.3437 -3.375,1.9844 l 0,-2.375 q 1.03125,-0.3282 2.21875,-1.25 1.20313,-0.9375 1.64063,-2.1875 l 2.125,0 0,13.6562 z" />
      <path
         style="fill:#ffffff;fill-opacity:1;fill-rule:nonzero"
         inkscape:connector-curvature="0"
         id="path291-1-2-9-7-4-0"
         d="m 256.32014,85.426499 q 1.96875,0 3.07812,1.4062 1.32813,1.6719 1.32813,5.5469 0,3.8594 -1.32813,5.5469 -1.10937,1.3906 -3.07812,1.3906 -1.98438,0 -3.20313,-1.5312 -1.21875,-1.5313 -1.21875,-5.4375 0,-3.8438 1.34375,-5.5313 1.09375,-1.3906 3.07813,-1.3906 z m 0,2.1562 q -0.48438,0 -0.85938,0.3125 -0.35937,0.2969 -0.5625,1.0782 -0.26562,1.0156 -0.26562,3.4062 0,2.3906 0.23437,3.2813 0.25,0.8906 0.60938,1.1875 0.35937,0.2968 0.84375,0.2968 0.46875,0 0.82812,-0.2968 0.375,-0.2969 0.59375,-1.0782 0.26563,-1 0.26563,-3.3906 0,-2.3906 -0.25,-3.2812 -0.23438,-0.9063 -0.60938,-1.2032 -0.35937,-0.3125 -0.82812,-0.3125 z" />
      <path
         style="fill:#ffffff;fill-opacity:1;fill-rule:nonzero"
         inkscape:connector-curvature="0"
         id="path291-1-2-9-7-0-3"
         d="m 341.65351,85.426499 q 1.96875,0 3.07812,1.4062 1.32813,1.6719 1.32813,5.5469 0,3.8594 -1.32813,5.5469 -1.10937,1.3906 -3.07812,1.3906 -1.98438,0 -3.20313,-1.5312 -1.21875,-1.5313 -1.21875,-5.4375 0,-3.8438 1.34375,-5.5313 1.09375,-1.3906 3.07813,-1.3906 z m 0,2.1562 q -0.48438,0 -0.85938,0.3125 -0.35937,0.2969 -0.5625,1.0782 -0.26562,1.0156 -0.26562,3.4062 0,2.3906 0.23437,3.2813 0.25,0.8906 0.60938,1.1875 0.35937,0.2968 0.84375,0.2968 0.46875,0 0.82812,-0.2968 0.375,-0.2969 0.59375,-1.0782 0.26563,-1 0.26563,-3.3906 0,-2.3906 -0.25,-3.2812 -0.23438,-0.9063 -0.60938,-1.2032 -0.35937,-0.3125 -0.82812,-0.3125 z" />
    </g>
  </g>
  <g
     id="g3197"
     transform="translate(-26.000004,-90.911511)">
    <text
       sodipodi:linespacing="125%"
       id="text4572-64-9-4"
       y="226.92363"
       x="685.87634"
       style="font-size:20px;font-style:normal;font-variant:normal;font-weight:bold;font-stretch:normal;line-height:125%;letter-spacing:0px;word-spacing:0px;fill:#6db6ff;fill-opacity:1;stroke:none;font-family:Sans;-inkscape-font-specification:Sans Bold"
       xml:space="preserve"><tspan
         style="font-size:27.5px;font-style:normal;font-variant:normal;font-weight:bold;font-stretch:normal;fill:#6db6ff;fill-opacity:1;font-family:Sans;-inkscape-font-specification:Sans Bold"
         y="226.92363"
         x="685.87634"
         id="tspan4574-41-0-4"
         sodipodi:role="line">Father</tspan></text>
    <g
       id="g3145">
      <rect
         style="fill:#6db6ff;fill-opacity:1;stroke:none"
         id="rect6453-3-2-6-0-6"
         width="530.04669"
         height="15"
         x="26"
         y="209.53665"
         ry="4.6464467" />
      <rect
         style="fill:#6db6ff;fill-opacity:1;stroke:none"
         id="rect6453-3-2-6-0"
         width="620"
         height="15.000008"
         x="26"
         y="227.02367"
         ry="4.6464467" />
      <rect
         style="fill:#6db6ff;fill-opacity:1;stroke:none"
         id="rect6453-3-2-6"
         width="620"
         height="15.000008"
         x="26"
         y="191.31944"
         ry="4.6464467" />
      <path
         style="fill:#ffffff;fill-opacity:1;fill-rule:nonzero"
         inkscape:connector-curvature="0"
         id="path291-1-2"
         d="m 85.653487,227.4612 q 1.96875,0 3.07812,1.4062 1.32813,1.6719 1.32813,5.5469 0,3.8594 -1.32813,5.5469 -1.10937,1.3906 -3.07812,1.3906 -1.98438,0 -3.20313,-1.5312 -1.21875,-1.5313 -1.21875,-5.4375 0,-3.8438 1.34375,-5.5313 1.09375,-1.3906 3.07813,-1.3906 z m 0,2.1562 q -0.48438,0 -0.85938,0.3125 -0.35937,0.2969 -0.5625,1.0782 -0.26562,1.0156 -0.26562,3.4062 0,2.3906 0.23437,3.2813 0.25,0.8906 0.60938,1.1875 0.35937,0.2968 0.84375,0.2968 0.46875,0 0.82812,-0.2968 0.375,-0.2969 0.59375,-1.0782 0.26563,-1 0.26563,-3.3906 0,-2.3906 -0.25,-3.2812 -0.23438,-0.9063 -0.60938,-1.2032 -0.35937,-0.3125 -0.82812,-0.3125 z" />
      <path
         style="fill:#ffffff;fill-opacity:1;fill-rule:nonzero"
         inkscape:connector-curvature="0"
         id="path291-1-2-6"
         d="m 170.98683,227.4612 q 1.96875,0 3.07812,1.4062 1.32813,1.6719 1.32813,5.5469 0,3.8594 -1.32813,5.5469 -1.10937,1.3906 -3.07812,1.3906 -1.98438,0 -3.20313,-1.5312 -1.21875,-1.5313 -1.21875,-5.4375 0,-3.8438 1.34375,-5.5313 1.09375,-1.3906 3.07813,-1.3906 z m 0,2.1562 q -0.48438,0 -0.85938,0.3125 -0.35937,0.2969 -0.5625,1.0782 -0.26562,1.0156 -0.26562,3.4062 0,2.3906 0.23437,3.2813 0.25,0.8906 0.60938,1.1875 0.35937,0.2968 0.84375,0.2968 0.46875,0 0.82812,-0.2968 0.375,-0.2969 0.59375,-1.0782 0.26563,-1 0.26563,-3.3906 0,-2.3906 -0.25,-3.2812 -0.23438,-0.9063 -0.60938,-1.2032 -0.35937,-0.3125 -0.82812,-0.3125 z" />
      <path
         style="fill:#ffffff;fill-opacity:1;fill-rule:nonzero"
         inkscape:connector-curvature="0"
         id="path291-1-2-68"
         d="m 426.9868,227.4612 q 1.96875,0 3.07812,1.4062 1.32813,1.6719 1.32813,5.5469 0,3.8594 -1.32813,5.5469 -1.10937,1.3906 -3.07812,1.3906 -1.98438,0 -3.20313,-1.5312 -1.21875,-1.5313 -1.21875,-5.4375 0,-3.8438 1.34375,-5.5313 1.09375,-1.3906 3.07813,-1.3906 z m 0,2.1562 q -0.48438,0 -0.85938,0.3125 -0.35937,0.2969 -0.5625,1.0782 -0.26562,1.0156 -0.26562,3.4062 0,2.3906 0.23437,3.2813 0.25,0.8906 0.60938,1.1875 0.35937,0.2968 0.84375,0.2968 0.46875,0 0.82812,-0.2968 0.375,-0.2969 0.59375,-1.0782 0.26563,-1 0.26563,-3.3906 0,-2.3906 -0.25,-3.2812 -0.23438,-0.9063 -0.60938,-1.2032 -0.35937,-0.3125 -0.82812,-0.3125 z" />
      <path
         style="fill:#ffffff;fill-opacity:1;fill-rule:nonzero"
         inkscape:connector-curvature="0"
         id="path291-1-2-3"
         d="m 597.65351,227.4612 q 1.96875,0 3.07812,1.4062 1.32813,1.6719 1.32813,5.5469 0,3.8594 -1.32813,5.5469 -1.10937,1.3906 -3.07812,1.3906 -1.98438,0 -3.20313,-1.5312 -1.21875,-1.5313 -1.21875,-5.4375 0,-3.8438 1.34375,-5.5313 1.09375,-1.3906 3.07813,-1.3906 z m 0,2.1562 q -0.48438,0 -0.85938,0.3125 -0.35937,0.2969 -0.5625,1.0782 -0.26562,1.0156 -0.26562,3.4062 0,2.3906 0.23437,3.2813 0.25,0.8906 0.60938,1.1875 0.35937,0.2968 0.84375,0.2968 0.46875,0 0.82812,-0.2968 0.375,-0.2969 0.59375,-1.0782 0.26563,-1 0.26563,-3.3906 0,-2.3906 -0.25,-3.2812 -0.23438,-0.9063 -0.60938,-1.2032 -0.35937,-0.3125 -0.82812,-0.3125 z" />
      <path
         style="fill:#ffffff;fill-opacity:1;fill-rule:nonzero"
         inkscape:connector-curvature="0"
         id="path105-9-4-7"
         d="m 344.63788,241.3518 -2.60938,0 0,-9.8281 q -1.4375,1.3437 -3.375,1.9844 l 0,-2.375 q 1.03125,-0.3282 2.21875,-1.25 1.20313,-0.9375 1.64063,-2.1875 l 2.125,0 0,13.6562 z" />
      <path
         style="fill:#ffffff;fill-opacity:1;fill-rule:nonzero"
         inkscape:connector-curvature="0"
         id="path105-9-4-2"
         d="m 515.30458,241.3518 -2.60938,0 0,-9.8281 q -1.4375,1.3437 -3.375,1.9844 l 0,-2.375 q 1.03125,-0.3282 2.21875,-1.25 1.20313,-0.9375 1.64063,-2.1875 l 2.125,0 0,13.6562 z" />
      <path
         style="fill:#ffffff;fill-opacity:1;fill-rule:nonzero"
         inkscape:connector-curvature="0"
         id="path291-1-2-61"
         d="m 85.653487,191.8742 q 1.96875,0 3.07812,1.4062 1.32813,1.6719 1.32813,5.5469 0,3.8594 -1.32813,5.5469 -1.10937,1.3906 -3.07812,1.3906 -1.98438,0 -3.20313,-1.5313 -1.21875,-1.5312 -1.21875,-5.4375 0,-3.8437 1.34375,-5.5312 1.09375,-1.3906 3.07813,-1.3906 z m 0,2.1562 q -0.48438,0 -0.85938,0.3125 -0.35937,0.2969 -0.5625,1.0781 -0.26562,1.0157 -0.26562,3.4063 0,2.3906 0.23437,3.2812 0.25,0.8907 0.60938,1.1875 0.35937,0.2969 0.84375,0.2969 0.46875,0 0.82812,-0.2969 0.375,-0.2968 0.59375,-1.0781 0.26563,-1 0.26563,-3.3906 0,-2.3906 -0.25,-3.2813 -0.23438,-0.9062 -0.60938,-1.2031 -0.35937,-0.3125 -0.82812,-0.3125 z" />
      <path
         style="fill:#ffffff;fill-opacity:1;fill-rule:nonzero"
         inkscape:connector-curvature="0"
         id="path291-1-2-1"
         d="m 170.98683,191.8742 q 1.96875,0 3.07812,1.4062 1.32813,1.6719 1.32813,5.5469 0,3.8594 -1.32813,5.5469 -1.10937,1.3906 -3.07812,1.3906 -1.98438,0 -3.20313,-1.5313 -1.21875,-1.5312 -1.21875,-5.4375 0,-3.8437 1.34375,-5.5312 1.09375,-1.3906 3.07813,-1.3906 z m 0,2.1562 q -0.48438,0 -0.85938,0.3125 -0.35937,0.2969 -0.5625,1.0781 -0.26562,1.0157 -0.26562,3.4063 0,2.3906 0.23437,3.2812 0.25,0.8907 0.60938,1.1875 0.35937,0.2969 0.84375,0.2969 0.46875,0 0.82812,-0.2969 0.375,-0.2968 0.59375,-1.0781 0.26563,-1 0.26563,-3.3906 0,-2.3906 -0.25,-3.2813 -0.23438,-0.9062 -0.60938,-1.2031 -0.35937,-0.3125 -0.82812,-0.3125 z" />
      <path
         style="fill:#ffffff;fill-opacity:1;fill-rule:nonzero"
         inkscape:connector-curvature="0"
         id="path291-1-2-5"
         d="m 341.65351,191.8742 q 1.96875,0 3.07812,1.4062 1.32813,1.6719 1.32813,5.5469 0,3.8594 -1.32813,5.5469 -1.10937,1.3906 -3.07812,1.3906 -1.98438,0 -3.20313,-1.5313 -1.21875,-1.5312 -1.21875,-5.4375 0,-3.8437 1.34375,-5.5312 1.09375,-1.3906 3.07813,-1.3906 z m 0,2.1562 q -0.48438,0 -0.85938,0.3125 -0.35937,0.2969 -0.5625,1.0781 -0.26562,1.0157 -0.26562,3.4063 0,2.3906 0.23437,3.2812 0.25,0.8907 0.60938,1.1875 0.35937,0.2969 0.84375,0.2969 0.46875,0 0.82812,-0.2969 0.375,-0.2968 0.59375,-1.0781 0.26563,-1 0.26563,-3.3906 0,-2.3906 -0.25,-3.2813 -0.23438,-0.9062 -0.60938,-1.2031 -0.35937,-0.3125 -0.82812,-0.3125 z" />
      <path
         style="fill:#ffffff;fill-opacity:1;fill-rule:nonzero"
         inkscape:connector-curvature="0"
         id="path291-1-2-4"
         d="m 426.9868,191.8742 q 1.96875,0 3.07812,1.4062 1.32813,1.6719 1.32813,5.5469 0,3.8594 -1.32813,5.5469 -1.10937,1.3906 -3.07812,1.3906 -1.98438,0 -3.20313,-1.5313 -1.21875,-1.5312 -1.21875,-5.4375 0,-3.8437 1.34375,-5.5312 1.09375,-1.3906 3.07813,-1.3906 z m 0,2.1562 q -0.48438,0 -0.85938,0.3125 -0.35937,0.2969 -0.5625,1.0781 -0.26562,1.0157 -0.26562,3.4063 0,2.3906 0.23437,3.2812 0.25,0.8907 0.60938,1.1875 0.35937,0.2969 0.84375,0.2969 0.46875,0 0.82812,-0.2969 0.375,-0.2968 0.59375,-1.0781 0.26563,-1 0.26563,-3.3906 0,-2.3906 -0.25,-3.2813 -0.23438,-0.9062 -0.60938,-1.2031 -0.35937,-0.3125 -0.82812,-0.3125 z" />
      <path
         style="fill:#ffffff;fill-opacity:1;fill-rule:nonzero"
         inkscape:connector-curvature="0"
         id="path291-1-2-7"
         d="m 512.3202,191.8742 q 1.96875,0 3.07812,1.4062 1.32813,1.6719 1.32813,5.5469 0,3.8594 -1.32813,5.5469 -1.10937,1.3906 -3.07812,1.3906 -1.98438,0 -3.20313,-1.5313 -1.21875,-1.5312 -1.21875,-5.4375 0,-3.8437 1.34375,-5.5312 1.09375,-1.3906 3.07813,-1.3906 z m 0,2.1562 q -0.48438,0 -0.85938,0.3125 -0.35937,0.2969 -0.5625,1.0781 -0.26562,1.0157 -0.26562,3.4063 0,2.3906 0.23437,3.2812 0.25,0.8907 0.60938,1.1875 0.35937,0.2969 0.84375,0.2969 0.46875,0 0.82812,-0.2969 0.375,-0.2968 0.59375,-1.0781 0.26563,-1 0.26563,-3.3906 0,-2.3906 -0.25,-3.2813 -0.23438,-0.9062 -0.60938,-1.2031 -0.35937,-0.3125 -0.82812,-0.3125 z" />
      <path
         style="fill:#ffffff;fill-opacity:1;fill-rule:nonzero"
         inkscape:connector-curvature="0"
         id="path291-1-2-9"
         d="m 597.65351,191.8742 q 1.96875,0 3.07812,1.4062 1.32813,1.6719 1.32813,5.5469 0,3.8594 -1.32813,5.5469 -1.10937,1.3906 -3.07812,1.3906 -1.98438,0 -3.20313,-1.5313 -1.21875,-1.5312 -1.21875,-5.4375 0,-3.8437 1.34375,-5.5312 1.09375,-1.3906 3.07813,-1.3906 z m 0,2.1562 q -0.48438,0 -0.85938,0.3125 -0.35937,0.2969 -0.5625,1.0781 -0.26562,1.0157 -0.26562,3.4063 0,2.3906 0.23437,3.2812 0.25,0.8907 0.60938,1.1875 0.35937,0.2969 0.84375,0.2969 0.46875,0 0.82812,-0.2969 0.375,-0.2968 0.59375,-1.0781 0.26563,-1 0.26563,-3.3906 0,-2.3906 -0.25,-3.2813 -0.23438,-0.9062 -0.60938,-1.2031 -0.35937,-0.3125 -0.82812,-0.3125 z" />
      <path
         style="fill:#ffffff;fill-opacity:1;fill-rule:nonzero"
         inkscape:connector-curvature="0"
         id="path105-9-4-2-1"
         d="m 259.30451,205.7648 -2.60938,0 0,-9.8281 q -1.4375,1.3437 -3.375,1.9843 l 0,-2.375 q 1.03125,-0.3281 2.21875,-1.25 1.20313,-0.9375 1.64063,-2.1875 l 2.125,0 0,13.6563 z" />
      <path
         style="fill:#ffffff;fill-opacity:1;fill-rule:nonzero"
         inkscape:connector-curvature="0"
         id="path291-1-2-19"
         d="m 85.653487,210.0913 q 1.96875,0 3.07812,1.4063 1.32813,1.6719 1.32813,5.5469 0,3.8593 -1.32813,5.5468 -1.10937,1.3907 -3.07812,1.3907 -1.98438,0 -3.20313,-1.5313 -1.21875,-1.5312 -1.21875,-5.4375 0,-3.8437 1.34375,-5.5312 1.09375,-1.3907 3.07813,-1.3907 z m 0,2.1563 q -0.48438,0 -0.85938,0.3125 -0.35937,0.2969 -0.5625,1.0781 -0.26562,1.0156 -0.26562,3.4063 0,2.3906 0.23437,3.2812 0.25,0.8906 0.60938,1.1875 0.35937,0.2969 0.84375,0.2969 0.46875,0 0.82812,-0.2969 0.375,-0.2969 0.59375,-1.0781 0.26563,-1 0.26563,-3.3906 0,-2.3907 -0.25,-3.2813 -0.23438,-0.9062 -0.60938,-1.2031 -0.35937,-0.3125 -0.82812,-0.3125 z" />
      <path
         style="fill:#ffffff;fill-opacity:1;fill-rule:nonzero"
         inkscape:connector-curvature="0"
         id="path291-1-2-6-4"
         d="m 170.98683,210.0913 q 1.96875,0 3.07812,1.4063 1.32813,1.6719 1.32813,5.5469 0,3.8593 -1.32813,5.5468 -1.10937,1.3907 -3.07812,1.3907 -1.98438,0 -3.20313,-1.5313 -1.21875,-1.5312 -1.21875,-5.4375 0,-3.8437 1.34375,-5.5312 1.09375,-1.3907 3.07813,-1.3907 z m 0,2.1563 q -0.48438,0 -0.85938,0.3125 -0.35937,0.2969 -0.5625,1.0781 -0.26562,1.0156 -0.26562,3.4063 0,2.3906 0.23437,3.2812 0.25,0.8906 0.60938,1.1875 0.35937,0.2969 0.84375,0.2969 0.46875,0 0.82812,-0.2969 0.375,-0.2969 0.59375,-1.0781 0.26563,-1 0.26563,-3.3906 0,-2.3907 -0.25,-3.2813 -0.23438,-0.9062 -0.60938,-1.2031 -0.35937,-0.3125 -0.82812,-0.3125 z" />
      <path
         style="fill:#ffffff;fill-opacity:1;fill-rule:nonzero"
         inkscape:connector-curvature="0"
         id="path291-1-2-68-5"
         d="m 426.9868,210.0913 q 1.96875,0 3.07812,1.4063 1.32813,1.6719 1.32813,5.5469 0,3.8593 -1.32813,5.5468 -1.10937,1.3907 -3.07812,1.3907 -1.98438,0 -3.20313,-1.5313 -1.21875,-1.5312 -1.21875,-5.4375 0,-3.8437 1.34375,-5.5312 1.09375,-1.3907 3.07813,-1.3907 z m 0,2.1563 q -0.48438,0 -0.85938,0.3125 -0.35937,0.2969 -0.5625,1.0781 -0.26562,1.0156 -0.26562,3.4063 0,2.3906 0.23437,3.2812 0.25,0.8906 0.60938,1.1875 0.35937,0.2969 0.84375,0.2969 0.46875,0 0.82812,-0.2969 0.375,-0.2969 0.59375,-1.0781 0.26563,-1 0.26563,-3.3906 0,-2.3907 -0.25,-3.2813 -0.23438,-0.9062 -0.60938,-1.2031 -0.35937,-0.3125 -0.82812,-0.3125 z" />
      <path
         style="fill:#ffffff;fill-opacity:1;fill-rule:nonzero"
         inkscape:connector-curvature="0"
         id="path105-9-4-7-1"
         d="m 344.63788,223.982 -2.60938,0 0,-9.8282 q -1.4375,1.3438 -3.375,1.9844 l 0,-2.375 q 1.03125,-0.3281 2.21875,-1.25 1.20313,-0.9375 1.64063,-2.1875 l 2.125,0 0,13.6563 z" />
      <path
         style="fill:#ffffff;fill-opacity:1;fill-rule:nonzero"
         inkscape:connector-curvature="0"
         id="path105-9-4-2-0"
         d="m 515.30458,223.982 -2.60938,0 0,-9.8282 q -1.4375,1.3438 -3.375,1.9844 l 0,-2.375 q 1.03125,-0.3281 2.21875,-1.25 1.20313,-0.9375 1.64063,-2.1875 l 2.125,0 0,13.6563 z" />
      <path
         style="fill:#ffffff;fill-opacity:1;fill-rule:nonzero;stroke:none"
         inkscape:connector-curvature="0"
         id="path291-1-2-6-4-4"
         d="m 256.32013,210.0913 q 1.96875,0 3.07812,1.4063 1.32813,1.6719 1.32813,5.5469 0,3.8593 -1.32813,5.5468 -1.10937,1.3907 -3.07812,1.3907 -1.98438,0 -3.20313,-1.5313 -1.21875,-1.5312 -1.21875,-5.4375 0,-3.8437 1.34375,-5.5312 1.09375,-1.3907 3.07813,-1.3907 z m 0,2.1563 q -0.48438,0 -0.85938,0.3125 -0.35937,0.2969 -0.5625,1.0781 -0.26562,1.0156 -0.26562,3.4063 0,2.3906 0.23437,3.2812 0.25,0.8906 0.60938,1.1875 0.35937,0.2969 0.84375,0.2969 0.46875,0 0.82812,-0.2969 0.375,-0.2969 0.59375,-1.0781 0.26563,-1 0.26563,-3.3906 0,-2.3907 -0.25,-3.2813 -0.23438,-0.9062 -0.60938,-1.2031 -0.35937,-0.3125 -0.82812,-0.3125 z" />
      <path
         style="fill:#ffffff;fill-opacity:1;fill-rule:nonzero;stroke:none"
         inkscape:connector-curvature="0"
         id="path291-1-2-6-4-49"
         d="m 256.32013,227.46115 q 1.96875,0 3.07812,1.4063 1.32813,1.6719 1.32813,5.5469 0,3.8593 -1.32813,5.5468 -1.10937,1.3907 -3.07812,1.3907 -1.98438,0 -3.20313,-1.5313 -1.21875,-1.5312 -1.21875,-5.4375 0,-3.8437 1.34375,-5.5312 1.09375,-1.3907 3.07813,-1.3907 z m 0,2.1563 q -0.48438,0 -0.85938,0.3125 -0.35937,0.2969 -0.5625,1.0781 -0.26562,1.0156 -0.26562,3.4063 0,2.3906 0.23437,3.2812 0.25,0.8906 0.60938,1.1875 0.35937,0.2969 0.84375,0.2969 0.46875,0 0.82812,-0.2969 0.375,-0.2969 0.59375,-1.0781 0.26563,-1 0.26563,-3.3906 0,-2.3907 -0.25,-3.2813 -0.23438,-0.9062 -0.60938,-1.2031 -0.35937,-0.3125 -0.82812,-0.3125 z" />
    </g>
  </g>
</svg>
