<?xml version="1.0" encoding="UTF-8" standalone="no"?>
<!-- Created with Inkscape (http://www.inkscape.org/) -->

<svg
   xmlns:dc="http://purl.org/dc/elements/1.1/"
   xmlns:cc="http://creativecommons.org/ns#"
   xmlns:rdf="http://www.w3.org/1999/02/22-rdf-syntax-ns#"
   xmlns:svg="http://www.w3.org/2000/svg"
   xmlns="http://www.w3.org/2000/svg"
   xmlns:sodipodi="http://sodipodi.sourceforge.net/DTD/sodipodi-0.dtd"
   xmlns:inkscape="http://www.inkscape.org/namespaces/inkscape"
   id="svg2"
   version="1.1"
   inkscape:version="0.47pre4 r22446"
   width="520"
   height="210"
   xml:space="preserve"
   sodipodi:docname="Neues Dokument 1"><metadata
     id="metadata8"><rdf:RDF><cc:Work
         rdf:about=""><dc:format>image/svg+xml</dc:format><dc:type
           rdf:resource="http://purl.org/dc/dcmitype/StillImage" /><dc:title></dc:title></cc:Work></rdf:RDF></metadata><defs
     id="defs6"><inkscape:perspective
       sodipodi:type="inkscape:persp3d"
       inkscape:vp_x="0 : 0.5 : 1"
       inkscape:vp_y="0 : 1000 : 0"
       inkscape:vp_z="1 : 0.5 : 1"
       inkscape:persp3d-origin="0.5 : 0.33333333 : 1"
       id="perspective10" /><clipPath
       clipPathUnits="userSpaceOnUse"
       id="clipPath18"><path
         d="m 0,419.527 595.275,0 L 595.275,0 0,0 0,419.527 z"
         id="path20" /></clipPath></defs><sodipodi:namedview
     pagecolor="#ffffff"
     bordercolor="#666666"
     borderopacity="1"
     objecttolerance="10"
     gridtolerance="10"
     guidetolerance="10"
     inkscape:pageopacity="0"
     inkscape:pageshadow="2"
     inkscape:window-width="1280"
     inkscape:window-height="950"
     id="namedview4"
     showgrid="false"
     inkscape:zoom="1.8001225"
     inkscape:cx="295.76415"
     inkscape:cy="173.32154"
     inkscape:window-x="0"
     inkscape:window-y="25"
     inkscape:window-maximized="1"
     inkscape:current-layer="g12" /><g
     id="g12"
     inkscape:groupmode="layer"
     inkscape:label="UdS_Logo_P541"
     transform="matrix(1.25,0,0,-1.25,0,210)"><g
       id="g14"
       transform="translate(-89.63705,-125.7632)"><g
         id="g16"
         clip-path="url(#clipPath18)"><g
           id="g22"
           transform="translate(239.1768,250.9287)"><path
             d="m 0,0 0,-97.63 -6.512,0 c -12.183,0 -23.396,5.76 -29.499,11.559 l 0,-16.85 15.133,0 6.23,-11.986 -2.879,0 -6.555,4.58 -8.503,0 3.029,-3.276 1.043,-9.427 -2.588,0 -11.674,12.703 -18.525,0 -4.022,-4.58 -2.584,0 3.149,11.986 15.174,0 -8.19,8.906 -30.518,0 -8.189,-8.906 15.174,0 3.152,-11.986 -2.59,0 -4.019,4.58 -18.528,0 -11.677,-12.705 -2.584,0 1.043,9.424 3.029,3.281 -8.502,0 -6.551,-4.58 -2.883,0 6.235,11.986 15.287,0 0,16.834 C -116,-91.88 -127.208,-97.63 -139.378,-97.63 l -6.516,0 0,97.63 c 0,8.232 6.523,12.848 14.68,12.848 10.134,0 17.547,-7.135 21.836,-14.256 l 3.48,42.109 16.688,0 c 0,0 5.074,-7.203 6.609,-9.381 l 18.625,0 c 1.539,2.166 6.68,9.381 6.68,9.381 l 16.291,0 4.382,-42.291 c 4.276,7.18 11.719,14.438 21.939,14.438 C -6.523,12.848 0,8.232 0,0"
             style="fill:#10427a;fill-opacity:1;fill-rule:nonzero;stroke:none"
             id="path24" /></g><g
           id="g26"
           transform="translate(165.9741,248.6709)"><path
             d="M 0,0 -4.43,-3.326 0,-13.313 4.516,-3.326 0,0 z"
             style="fill:#ffffff;fill-opacity:1;fill-rule:nonzero;stroke:none"
             id="path28" /></g><g
           id="g30"
           transform="translate(193.9409,259.9678)"><path
             d="m 0,0 c 0,-7.291 -5.912,-13.205 -13.207,-13.205 -7.291,0 -13.201,5.914 -13.201,13.205 0,7.291 5.91,13.205 13.201,13.205 C -5.912,13.205 0,7.291 0,0"
             style="fill:#ffffff;fill-opacity:1;fill-rule:nonzero;stroke:none"
             id="path32" /></g><g
           id="g34"
           transform="translate(190.7554,259.9678)"><path
             d="m 0,0 c 0,-5.535 -4.484,-10.02 -10.02,-10.02 -5.535,0 -10.021,4.485 -10.021,10.02 0,5.533 4.486,10.02 10.021,10.02 C -4.484,10.02 0,5.533 0,0"
             style="fill:#173e7d;fill-opacity:1;fill-rule:nonzero;stroke:none"
             id="path36" /></g><g
           id="g38"
           transform="translate(186.5112,259.9678)"><path
             d="m 0,0 c 0,-3.189 -2.584,-5.777 -5.777,-5.777 -3.188,0 -5.778,2.588 -5.778,5.777 0,3.189 2.59,5.777 5.778,5.777 C -2.584,5.777 0,3.189 0,0"
             style="fill:#ffffff;fill-opacity:1;fill-rule:nonzero;stroke:none"
             id="path40" /></g><g
           id="g42"
           transform="translate(164.4976,259.9678)"><path
             d="m 0,0 c 0,-7.291 -5.906,-13.205 -13.201,-13.205 -7.291,0 -13.201,5.914 -13.201,13.205 0,7.291 5.91,13.205 13.201,13.205 C -5.906,13.205 0,7.291 0,0"
             style="fill:#ffffff;fill-opacity:1;fill-rule:nonzero;stroke:none"
             id="path44" /></g><g
           id="g46"
           transform="translate(161.3159,259.9678)"><path
             d="m 0,0 c 0,-5.535 -4.482,-10.02 -10.02,-10.02 -5.531,0 -10.019,4.485 -10.019,10.02 0,5.533 4.488,10.02 10.019,10.02 C -4.482,10.02 0,5.533 0,0"
             style="fill:#173e7d;fill-opacity:1;fill-rule:nonzero;stroke:none"
             id="path48" /></g><g
           id="g50"
           transform="translate(157.0737,259.9678)"><path
             d="m 0,0 c 0,-3.189 -2.584,-5.777 -5.777,-5.777 -3.188,0 -5.778,2.588 -5.778,5.777 0,3.189 2.59,5.777 5.778,5.777 C -2.584,5.777 0,3.189 0,0"
             style="fill:#ffffff;fill-opacity:1;fill-rule:nonzero;stroke:none"
             id="path52" /></g><g
           id="g54"
           transform="translate(147.0757,194.2871)"><path
             d="M 0,0 C 0,0.953 -0.777,1.73 -1.732,1.73 -2.688,1.73 -3.465,0.953 -3.465,0 l 0,-11.211 c 0,-0.662 -0.473,-1.201 -1.058,-1.201 -0.584,0 -1.063,0.539 -1.063,1.201 l 0,11.211 c 0,0.953 -0.773,1.73 -1.73,1.73 -0.955,0 -1.729,-0.777 -1.729,-1.73 l 0,-20.275 c 0,-2.573 2.027,-4.664 4.522,-4.664 2.492,0 4.523,2.091 4.523,4.664 L 0,0 z"
             style="fill:#ffffff;fill-opacity:1;fill-rule:nonzero;stroke:none"
             id="path56" /></g><g
           id="g58"
           transform="translate(162.3413,189.6563)"><path
             d="M 0,0 C 0,0.955 -0.773,1.732 -1.729,1.732 -2.689,1.732 -3.463,0.955 -3.463,0 l 0,-11.213 c 0,-0.664 -0.475,-1.203 -1.06,-1.203 -0.582,0 -1.061,0.539 -1.061,1.203 l 0,11.213 c 0,0.955 -0.773,1.732 -1.729,1.732 -0.96,0 -1.734,-0.777 -1.734,-1.732 l 0,-20.275 c 0,-2.575 2.031,-4.664 4.524,-4.664 2.496,0 4.523,2.089 4.523,4.664 L 0,0 z"
             style="fill:#ffffff;fill-opacity:1;fill-rule:nonzero;stroke:none"
             id="path60" /></g><g
           id="g62"
           transform="translate(178.4077,189.6563)"><path
             d="M 0,0 C 0,0.955 -0.777,1.732 -1.73,1.732 -2.689,1.732 -3.463,0.955 -3.463,0 l 0,-11.213 c 0,-0.664 -0.475,-1.203 -1.06,-1.203 -0.586,0 -1.061,0.539 -1.061,1.203 l 0,11.213 c 0,0.955 -0.773,1.732 -1.732,1.732 -0.957,0 -1.731,-0.777 -1.731,-1.732 l 0,-20.275 c 0,-2.575 2.027,-4.664 4.524,-4.664 2.492,0 4.523,2.089 4.523,4.664 L 0,0 z"
             style="fill:#ffffff;fill-opacity:1;fill-rule:nonzero;stroke:none"
             id="path64" /></g><g
           id="g66"
           transform="translate(193.6714,194.2871)"><path
             d="M 0,0 C 0,0.953 -0.773,1.73 -1.729,1.73 -2.686,1.73 -3.463,0.953 -3.463,0 l 0,-11.211 c 0,-0.662 -0.475,-1.201 -1.06,-1.201 -0.581,0 -1.061,0.539 -1.061,1.201 l 0,11.211 c 0,0.953 -0.773,1.73 -1.729,1.73 -0.955,0 -1.728,-0.777 -1.728,-1.73 l 0,-20.275 c 0,-2.573 2.027,-4.664 4.518,-4.664 2.496,0 4.523,2.091 4.523,4.664 L 0,0 z"
             style="fill:#ffffff;fill-opacity:1;fill-rule:nonzero;stroke:none"
             id="path68" /></g><g
           id="g70"
           transform="translate(147.0757,226.3799)"><path
             d="M 0,0 C 0,0.955 -0.777,1.73 -1.732,1.73 -2.688,1.73 -3.465,0.955 -3.465,0 l 0,-11.213 c 0,-0.662 -0.473,-1.201 -1.058,-1.201 -0.584,0 -1.063,0.539 -1.063,1.201 l 0,11.213 c 0,0.955 -0.773,1.73 -1.73,1.73 -0.955,0 -1.729,-0.775 -1.729,-1.73 l 0,-20.276 c 0,-2.573 2.027,-4.664 4.522,-4.664 2.492,0 4.523,2.091 4.523,4.664 L 0,0 z"
             style="fill:#ffffff;fill-opacity:1;fill-rule:nonzero;stroke:none"
             id="path72" /></g><g
           id="g74"
           transform="translate(162.3413,221.749)"><path
             d="M 0,0 C 0,0.953 -0.773,1.729 -1.729,1.729 -2.689,1.729 -3.463,0.953 -3.463,0 l 0,-11.212 c 0,-0.664 -0.475,-1.204 -1.06,-1.204 -0.582,0 -1.061,0.54 -1.061,1.204 l 0,11.212 c 0,0.953 -0.773,1.729 -1.729,1.729 -0.96,0 -1.734,-0.776 -1.734,-1.729 l 0,-20.278 c 0,-2.569 2.031,-4.664 4.524,-4.664 2.496,0 4.523,2.095 4.523,4.664 L 0,0 z"
             style="fill:#ffffff;fill-opacity:1;fill-rule:nonzero;stroke:none"
             id="path76" /></g><g
           id="g78"
           transform="translate(178.4077,221.749)"><path
             d="M 0,0 C 0,0.953 -0.777,1.729 -1.73,1.729 -2.689,1.729 -3.463,0.953 -3.463,0 l 0,-11.212 c 0,-0.664 -0.475,-1.204 -1.06,-1.204 -0.586,0 -1.061,0.54 -1.061,1.204 l 0,11.212 c 0,0.953 -0.773,1.729 -1.732,1.729 -0.957,0 -1.731,-0.776 -1.731,-1.729 l 0,-20.278 c 0,-2.569 2.027,-4.664 4.524,-4.664 2.492,0 4.523,2.095 4.523,4.664 L 0,0 z"
             style="fill:#ffffff;fill-opacity:1;fill-rule:nonzero;stroke:none"
             id="path80" /></g><g
           id="g82"
           transform="translate(193.6714,226.3799)"><path
             d="M 0,0 C 0,0.955 -0.773,1.73 -1.729,1.73 -2.686,1.73 -3.463,0.955 -3.463,0 l 0,-11.213 c 0,-0.662 -0.475,-1.201 -1.06,-1.201 -0.581,0 -1.061,0.539 -1.061,1.201 l 0,11.213 c 0,0.955 -0.773,1.73 -1.729,1.73 -0.955,0 -1.728,-0.775 -1.728,-1.73 l 0,-20.276 c 0,-2.573 2.027,-4.664 4.518,-4.664 2.496,0 4.523,2.091 4.523,4.664 L 0,0 z"
             style="fill:#ffffff;fill-opacity:1;fill-rule:nonzero;stroke:none"
             id="path84" /></g><g
           id="g86"
           transform="translate(120.2124,178.8633)"><path
             d="m 0,0 c 0,-2.572 2.031,-4.664 4.527,-4.664 2.493,0 4.52,2.092 4.52,4.664 l 0,56.817 c 0,0.954 -0.774,1.727 -1.729,1.727 -0.959,0 -1.732,-0.773 -1.732,-1.727 l 0,-47.557 C 5.586,8.596 5.109,8.057 4.527,8.057 3.938,8.057 3.465,8.596 3.465,9.26 l 0,54.956 c 0,0.953 -0.776,1.728 -1.731,1.728 C 0.779,65.944 0,65.169 0,64.216 L 0,0 z"
             style="fill:#ffffff;fill-opacity:1;fill-rule:nonzero;stroke:none"
             id="path88" /></g><g
           id="g90"
           transform="translate(104.9487,172.0664)"><path
             d="m 0,0 c 0,-2.568 2.027,-4.662 4.523,-4.662 2.495,0 4.522,2.094 4.522,4.662 l 0,78.501 c 0,0.953 -0.777,1.728 -1.732,1.728 -0.956,0 -1.729,-0.775 -1.729,-1.728 l 0,-61.472 c 0,-0.658 -0.477,-1.199 -1.061,-1.199 -0.585,0 -1.06,0.541 -1.06,1.199 l 0,60.269 c 0,0.957 -0.774,1.73 -1.734,1.73 C 0.773,79.028 0,78.255 0,77.298 L 0,0 z"
             style="fill:#ffffff;fill-opacity:1;fill-rule:nonzero;stroke:none"
             id="path92" /></g><g
           id="g94"
           transform="translate(212.187,243.0889)"><path
             d="M 0,0 C 0,0.953 -0.773,1.729 -1.729,1.729 -2.689,1.729 -3.463,0.953 -3.463,0 l 0,-54.956 c 0,-0.662 -0.475,-1.201 -1.06,-1.201 -0.584,0 -1.061,0.539 -1.061,1.201 l 0,47.556 c 0,0.957 -0.773,1.732 -1.729,1.732 -0.96,0 -1.734,-0.775 -1.734,-1.732 l 0,-56.814 c 0,-2.572 2.029,-4.664 4.524,-4.664 2.496,0 4.523,2.092 4.523,4.664 L 0,0 z"
             style="fill:#ffffff;fill-opacity:1;fill-rule:nonzero;stroke:none"
             id="path96" /></g><g
           id="g98"
           transform="translate(227.4541,249.374)"><path
             d="M 0,0 C 0,0.955 -0.777,1.73 -1.732,1.73 -2.688,1.73 -3.465,0.955 -3.465,0 l 0,-60.267 c 0,-0.66 -0.473,-1.203 -1.062,-1.203 -0.58,0 -1.059,0.543 -1.059,1.203 l 0,61.47 c 0,0.955 -0.773,1.731 -1.73,1.731 -0.955,0 -1.73,-0.776 -1.73,-1.731 l 0,-78.499 c 0,-2.568 2.028,-4.664 4.519,-4.664 2.496,0 4.527,2.096 4.527,4.664 L 0,0 z"
             style="fill:#ffffff;fill-opacity:1;fill-rule:nonzero;stroke:none"
             id="path100" /></g><g
           id="g102"
           transform="translate(165.9741,248.6709)"><path
             d="M 0,0 -4.43,-3.326 0,-13.313 4.516,-3.326 0,0 z"
             style="fill:#ffffff;fill-opacity:1;fill-rule:nonzero;stroke:none"
             id="path104" /></g><g
           id="g106"
           transform="translate(193.9409,259.9678)"><path
             d="m 0,0 c 0,-7.291 -5.912,-13.205 -13.207,-13.205 -7.291,0 -13.201,5.914 -13.201,13.205 0,7.291 5.91,13.205 13.201,13.205 C -5.912,13.205 0,7.291 0,0"
             style="fill:#ffffff;fill-opacity:1;fill-rule:nonzero;stroke:none"
             id="path108" /></g><g
           id="g110"
           transform="translate(190.7554,259.9678)"><path
             d="m 0,0 c 0,-5.535 -4.484,-10.02 -10.02,-10.02 -5.535,0 -10.021,4.485 -10.021,10.02 0,5.533 4.486,10.02 10.021,10.02 C -4.484,10.02 0,5.533 0,0"
             style="fill:#10427a;fill-opacity:1;fill-rule:nonzero;stroke:none"
             id="path112" /></g><g
           id="g114"
           transform="translate(186.5112,259.9678)"><path
             d="m 0,0 c 0,-3.189 -2.584,-5.777 -5.777,-5.777 -3.188,0 -5.778,2.588 -5.778,5.777 0,3.189 2.59,5.777 5.778,5.777 C -2.584,5.777 0,3.189 0,0"
             style="fill:#ffffff;fill-opacity:1;fill-rule:nonzero;stroke:none"
             id="path116" /></g><g
           id="g118"
           transform="translate(164.4976,259.9678)"><path
             d="m 0,0 c 0,-7.291 -5.906,-13.205 -13.201,-13.205 -7.291,0 -13.201,5.914 -13.201,13.205 0,7.291 5.91,13.205 13.201,13.205 C -5.906,13.205 0,7.291 0,0"
             style="fill:#ffffff;fill-opacity:1;fill-rule:nonzero;stroke:none"
             id="path120" /></g><g
           id="g122"
           transform="translate(161.3159,259.9678)"><path
             d="m 0,0 c 0,-5.535 -4.482,-10.02 -10.02,-10.02 -5.531,0 -10.019,4.485 -10.019,10.02 0,5.533 4.488,10.02 10.019,10.02 C -4.482,10.02 0,5.533 0,0"
             style="fill:#10427a;fill-opacity:1;fill-rule:nonzero;stroke:none"
             id="path124" /></g><g
           id="g126"
           transform="translate(157.0737,259.9678)"><path
             d="m 0,0 c 0,-3.189 -2.584,-5.777 -5.777,-5.777 -3.188,0 -5.778,2.588 -5.778,5.777 0,3.189 2.59,5.777 5.778,5.777 C -2.584,5.777 0,3.189 0,0"
             style="fill:#ffffff;fill-opacity:1;fill-rule:nonzero;stroke:none"
             id="path128" /></g><g
           id="g130"
           transform="translate(147.0757,194.2871)"><path
             d="M 0,0 C 0,0.953 -0.777,1.73 -1.732,1.73 -2.688,1.73 -3.465,0.953 -3.465,0 l 0,-11.211 c 0,-0.662 -0.473,-1.201 -1.058,-1.201 -0.584,0 -1.063,0.539 -1.063,1.201 l 0,11.211 c 0,0.953 -0.773,1.73 -1.73,1.73 -0.955,0 -1.729,-0.777 -1.729,-1.73 l 0,-20.275 c 0,-2.573 2.027,-4.664 4.522,-4.664 2.492,0 4.523,2.091 4.523,4.664 L 0,0 z"
             style="fill:#ffffff;fill-opacity:1;fill-rule:nonzero;stroke:none"
             id="path132" /></g><g
           id="g134"
           transform="translate(162.3413,189.6563)"><path
             d="M 0,0 C 0,0.955 -0.773,1.732 -1.729,1.732 -2.689,1.732 -3.463,0.955 -3.463,0 l 0,-11.213 c 0,-0.664 -0.475,-1.203 -1.06,-1.203 -0.582,0 -1.061,0.539 -1.061,1.203 l 0,11.213 c 0,0.955 -0.773,1.732 -1.729,1.732 -0.96,0 -1.734,-0.777 -1.734,-1.732 l 0,-20.275 c 0,-2.575 2.031,-4.664 4.524,-4.664 2.496,0 4.523,2.089 4.523,4.664 L 0,0 z"
             style="fill:#ffffff;fill-opacity:1;fill-rule:nonzero;stroke:none"
             id="path136" /></g><g
           id="g138"
           transform="translate(178.4077,189.6563)"><path
             d="M 0,0 C 0,0.955 -0.777,1.732 -1.73,1.732 -2.689,1.732 -3.463,0.955 -3.463,0 l 0,-11.213 c 0,-0.664 -0.475,-1.203 -1.06,-1.203 -0.586,0 -1.061,0.539 -1.061,1.203 l 0,11.213 c 0,0.955 -0.773,1.732 -1.732,1.732 -0.957,0 -1.731,-0.777 -1.731,-1.732 l 0,-20.275 c 0,-2.575 2.027,-4.664 4.524,-4.664 2.492,0 4.523,2.089 4.523,4.664 L 0,0 z"
             style="fill:#ffffff;fill-opacity:1;fill-rule:nonzero;stroke:none"
             id="path140" /></g><g
           id="g142"
           transform="translate(193.6714,194.2871)"><path
             d="M 0,0 C 0,0.953 -0.773,1.73 -1.729,1.73 -2.686,1.73 -3.463,0.953 -3.463,0 l 0,-11.211 c 0,-0.662 -0.475,-1.201 -1.06,-1.201 -0.581,0 -1.061,0.539 -1.061,1.201 l 0,11.211 c 0,0.953 -0.773,1.73 -1.729,1.73 -0.955,0 -1.728,-0.777 -1.728,-1.73 l 0,-20.275 c 0,-2.573 2.027,-4.664 4.518,-4.664 2.496,0 4.523,2.091 4.523,4.664 L 0,0 z"
             style="fill:#ffffff;fill-opacity:1;fill-rule:nonzero;stroke:none"
             id="path144" /></g><g
           id="g146"
           transform="translate(147.0757,226.3799)"><path
             d="M 0,0 C 0,0.955 -0.777,1.73 -1.732,1.73 -2.688,1.73 -3.465,0.955 -3.465,0 l 0,-11.213 c 0,-0.662 -0.473,-1.201 -1.058,-1.201 -0.584,0 -1.063,0.539 -1.063,1.201 l 0,11.213 c 0,0.955 -0.773,1.73 -1.73,1.73 -0.955,0 -1.729,-0.775 -1.729,-1.73 l 0,-20.276 c 0,-2.573 2.027,-4.664 4.522,-4.664 2.492,0 4.523,2.091 4.523,4.664 L 0,0 z"
             style="fill:#ffffff;fill-opacity:1;fill-rule:nonzero;stroke:none"
             id="path148" /></g><g
           id="g150"
           transform="translate(162.3413,221.749)"><path
             d="M 0,0 C 0,0.953 -0.773,1.729 -1.729,1.729 -2.689,1.729 -3.463,0.953 -3.463,0 l 0,-11.212 c 0,-0.664 -0.475,-1.204 -1.06,-1.204 -0.582,0 -1.061,0.54 -1.061,1.204 l 0,11.212 c 0,0.953 -0.773,1.729 -1.729,1.729 -0.96,0 -1.734,-0.776 -1.734,-1.729 l 0,-20.278 c 0,-2.569 2.031,-4.664 4.524,-4.664 2.496,0 4.523,2.095 4.523,4.664 L 0,0 z"
             style="fill:#ffffff;fill-opacity:1;fill-rule:nonzero;stroke:none"
             id="path152" /></g><g
           id="g154"
           transform="translate(178.4077,221.749)"><path
             d="M 0,0 C 0,0.953 -0.777,1.729 -1.73,1.729 -2.689,1.729 -3.463,0.953 -3.463,0 l 0,-11.212 c 0,-0.664 -0.475,-1.204 -1.06,-1.204 -0.586,0 -1.061,0.54 -1.061,1.204 l 0,11.212 c 0,0.953 -0.773,1.729 -1.732,1.729 -0.957,0 -1.731,-0.776 -1.731,-1.729 l 0,-20.278 c 0,-2.569 2.027,-4.664 4.524,-4.664 2.492,0 4.523,2.095 4.523,4.664 L 0,0 z"
             style="fill:#ffffff;fill-opacity:1;fill-rule:nonzero;stroke:none"
             id="path156" /></g><g
           id="g158"
           transform="translate(193.6714,226.3799)"><path
             d="M 0,0 C 0,0.955 -0.773,1.73 -1.729,1.73 -2.686,1.73 -3.463,0.955 -3.463,0 l 0,-11.213 c 0,-0.662 -0.475,-1.201 -1.06,-1.201 -0.581,0 -1.061,0.539 -1.061,1.201 l 0,11.213 c 0,0.955 -0.773,1.73 -1.729,1.73 -0.955,0 -1.728,-0.775 -1.728,-1.73 l 0,-20.276 c 0,-2.573 2.027,-4.664 4.518,-4.664 2.496,0 4.523,2.091 4.523,4.664 L 0,0 z"
             style="fill:#ffffff;fill-opacity:1;fill-rule:nonzero;stroke:none"
             id="path160" /></g><g
           id="g162"
           transform="translate(120.2124,178.8633)"><path
             d="m 0,0 c 0,-2.572 2.031,-4.664 4.527,-4.664 2.493,0 4.52,2.092 4.52,4.664 l 0,56.817 c 0,0.954 -0.774,1.727 -1.729,1.727 -0.959,0 -1.732,-0.773 -1.732,-1.727 l 0,-47.557 C 5.586,8.596 5.109,8.057 4.527,8.057 3.938,8.057 3.465,8.596 3.465,9.26 l 0,54.956 c 0,0.953 -0.776,1.728 -1.731,1.728 C 0.779,65.944 0,65.169 0,64.216 L 0,0 z"
             style="fill:#ffffff;fill-opacity:1;fill-rule:nonzero;stroke:none"
             id="path164" /></g><g
           id="g166"
           transform="translate(104.9487,172.0664)"><path
             d="m 0,0 c 0,-2.568 2.027,-4.662 4.523,-4.662 2.495,0 4.522,2.094 4.522,4.662 l 0,78.501 c 0,0.953 -0.777,1.728 -1.732,1.728 -0.956,0 -1.729,-0.775 -1.729,-1.728 l 0,-61.472 c 0,-0.658 -0.477,-1.199 -1.061,-1.199 -0.585,0 -1.06,0.541 -1.06,1.199 l 0,60.269 c 0,0.957 -0.774,1.73 -1.734,1.73 C 0.773,79.028 0,78.255 0,77.298 L 0,0 z"
             style="fill:#ffffff;fill-opacity:1;fill-rule:nonzero;stroke:none"
             id="path168" /></g><g
           id="g170"
           transform="translate(212.187,243.0889)"><path
             d="M 0,0 C 0,0.953 -0.773,1.729 -1.729,1.729 -2.689,1.729 -3.463,0.953 -3.463,0 l 0,-54.956 c 0,-0.662 -0.475,-1.201 -1.06,-1.201 -0.584,0 -1.061,0.539 -1.061,1.201 l 0,47.556 c 0,0.957 -0.773,1.732 -1.729,1.732 -0.96,0 -1.734,-0.775 -1.734,-1.732 l 0,-56.814 c 0,-2.572 2.029,-4.664 4.524,-4.664 2.496,0 4.523,2.092 4.523,4.664 L 0,0 z"
             style="fill:#ffffff;fill-opacity:1;fill-rule:nonzero;stroke:none"
             id="path172" /></g><g
           id="g174"
           transform="translate(227.4541,249.374)"><path
             d="M 0,0 C 0,0.955 -0.777,1.73 -1.732,1.73 -2.688,1.73 -3.465,0.955 -3.465,0 l 0,-60.267 c 0,-0.66 -0.473,-1.203 -1.062,-1.203 -0.58,0 -1.059,0.543 -1.059,1.203 l 0,61.47 c 0,0.955 -0.773,1.731 -1.73,1.731 -0.955,0 -1.73,-0.776 -1.73,-1.731 l 0,-78.499 c 0,-2.568 2.028,-4.664 4.519,-4.664 2.496,0 4.527,2.096 4.527,4.664 L 0,0 z"
             style="fill:#ffffff;fill-opacity:1;fill-rule:nonzero;stroke:none"
             id="path176" /></g><g
           id="g178"
           transform="translate(286.0967,235.5674)"><path
             d="m 0,0 c -4.98,0 -8.939,3.377 -8.939,8.529 l 0,15.963 4.744,0 0,-15.793 C -4.195,5.902 -2.561,4.23 0,4.23 c 2.557,0 4.23,1.672 4.23,4.469 l 0,15.793 4.706,0 0,-15.963 C 8.936,3.377 4.98,0 0,0"
             style="fill:#10427a;fill-opacity:1;fill-rule:nonzero;stroke:none"
             id="path180" /></g><g
           id="g182"
           transform="translate(316.0479,235.7725)"><path
             d="m 0,0 -9.619,14.906 0,-14.906 -4.744,0 0,24.287 4.23,0 9.619,-14.871 0,14.871 4.741,0 L 4.227,0 0,0 z"
             style="fill:#10427a;fill-opacity:1;fill-rule:nonzero;stroke:none"
             id="path184" /></g><path
           d="m 327.985,260.06 4.742,0 0,-24.287 -4.742,0 0,24.287 z"
           style="fill:#10427a;fill-opacity:1;fill-rule:nonzero;stroke:none"
           id="path186" /><g
           id="g188"
           transform="translate(348.5908,235.7725)"><path
             d="m 0,0 -3.549,0 -8.015,24.287 4.912,0 4.879,-15.828 4.878,15.828 4.946,0 L 0,0 z"
             style="fill:#10427a;fill-opacity:1;fill-rule:nonzero;stroke:none"
             id="path190" /></g><g
           id="g192"
           transform="translate(360.5986,235.7725)"><path
             d="m 0,0 0,24.287 15.996,0 0,-4.23 -11.256,0 0,-5.696 9.586,0 0,-4.23 -9.586,0 0,-5.902 11.256,0 L 15.996,0 0,0 z"
             style="fill:#10427a;fill-opacity:1;fill-rule:nonzero;stroke:none"
             id="path194" /></g><g
           id="g196"
           transform="translate(391.8115,255.8291)"><path
             d="m 0,0 -4.471,0 0,-6.412 4.471,0 c 2.08,0 3.445,1.33 3.445,3.205 C 3.445,-1.33 2.08,0 0,0 m 3.682,-20.057 -4.743,9.688 -3.41,0 0,-9.688 -4.74,0 0,24.287 9.516,0 c 4.945,0 7.881,-3.375 7.881,-7.437 0,-3.41 -2.081,-5.523 -4.436,-6.377 l 5.426,-10.473 -5.494,0 z"
             style="fill:#10427a;fill-opacity:1;fill-rule:nonzero;stroke:none"
             id="path198" /></g><g
           id="g200"
           transform="translate(412.958,235.5674)"><path
             d="m 0,0 c -3.684,0 -6.48,0.785 -8.867,3.207 l 3.07,3.07 C -4.262,4.742 -2.184,4.23 0.07,4.23 c 2.795,0 4.297,1.059 4.297,3.002 0,0.854 -0.238,1.569 -0.752,2.047 -0.474,0.444 -1.021,0.682 -2.146,0.852 l -2.934,0.408 c -2.08,0.309 -3.615,0.957 -4.711,2.016 -1.156,1.158 -1.738,2.728 -1.738,4.775 0,4.33 3.209,7.367 8.459,7.367 3.346,0 5.766,-0.818 7.846,-2.83 l -3,-2.969 C 3.855,20.365 2.012,20.57 0.41,20.57 c -2.525,0 -3.754,-1.398 -3.754,-3.07 0,-0.613 0.209,-1.262 0.719,-1.738 0.477,-0.446 1.26,-0.821 2.25,-0.957 L 2.49,14.395 C 4.707,14.088 6.109,13.475 7.131,12.52 8.426,11.291 9.006,9.518 9.006,7.369 9.006,2.662 5.086,0 0,0"
             style="fill:#10427a;fill-opacity:1;fill-rule:nonzero;stroke:none"
             id="path202" /></g><path
           d="m 427.8,260.06 4.74,0 0,-24.287 -4.74,0 0,24.287 z"
           style="fill:#10427a;fill-opacity:1;fill-rule:nonzero;stroke:none"
           id="path204" /><g
           id="g206"
           transform="translate(448.8467,255.8291)"><path
             d="m 0,0 0,-20.057 -4.74,0 0,20.057 -6.346,0 0,4.23 17.432,0 L 6.346,0 0,0 z"
             style="fill:#10427a;fill-opacity:1;fill-rule:nonzero;stroke:none"
             id="path208" /></g><path
           d="m 468.22,266.747 3.789,0 0,-4.266 -3.789,0 0,4.266 z m -1.703,-13.85 -3.071,-8.835 6.037,0 -2.966,8.835 z m -5.834,13.85 3.785,0 0,-4.266 -3.785,0 0,4.266 z m 11.496,-30.975 -1.432,4.299 -8.629,0 -1.471,-4.299 -4.945,0 8.836,24.288 3.717,0 8.869,-24.288 -4.945,0 z"
           style="fill:#10427a;fill-opacity:1;fill-rule:nonzero;stroke:none"
           id="path210" /><g
           id="g212"
           transform="translate(488.7236,255.8291)"><path
             d="m 0,0 0,-20.057 -4.742,0 0,20.057 -6.342,0 0,4.23 17.428,0 L 6.344,0 0,0 z"
             style="fill:#10427a;fill-opacity:1;fill-rule:nonzero;stroke:none"
             id="path214" /></g><g
           id="g216"
           transform="translate(288.6221,213.3955)"><path
             d="m 0,0 c -0.82,0.988 -1.91,1.502 -3.551,1.502 l -3.58,0 0,-15.829 3.58,0 c 1.641,0 2.731,0.514 3.551,1.5 0.885,1.094 1.023,2.834 1.023,6.515 C 1.023,-2.629 0.885,-1.094 0,0 m 3.309,-16.237 c -1.604,-1.602 -3.889,-2.321 -6.414,-2.321 l -8.766,0 0,24.288 8.766,0 c 2.525,0 4.81,-0.714 6.414,-2.318 2.726,-2.73 2.453,-6.072 2.453,-9.724 0,-3.648 0.273,-7.197 -2.453,-9.925"
             style="fill:#10427a;fill-opacity:1;fill-rule:nonzero;stroke:none"
             id="path218" /></g><g
           id="g220"
           transform="translate(300.3213,194.8379)"><path
             d="m 0,0 0,24.288 15.998,0 0,-4.228 -11.256,0 0,-5.697 9.586,0 0,-4.23 -9.586,0 0,-5.903 11.256,0 0,-4.23 L 0,0 z"
             style="fill:#10427a;fill-opacity:1;fill-rule:nonzero;stroke:none"
             id="path222" /></g><g
           id="g224"
           transform="translate(329.0107,194.6348)"><path
             d="m 0,0 c -3.686,0 -6.482,0.785 -8.871,3.207 l 3.07,3.07 C -4.266,4.742 -2.186,4.23 0.068,4.23 c 2.797,0 4.297,1.057 4.297,3.002 0,0.85 -0.24,1.569 -0.75,2.045 -0.48,0.446 -1.025,0.684 -2.15,0.856 l -2.932,0.406 c -2.084,0.309 -3.619,0.957 -4.709,2.014 -1.16,1.16 -1.74,2.73 -1.74,4.774 0,4.332 3.205,7.367 8.461,7.367 3.344,0 5.766,-0.816 7.846,-2.832 L 5.389,18.897 c -1.535,1.465 -3.379,1.67 -4.981,1.67 -2.523,0 -3.754,-1.396 -3.754,-3.07 0,-0.611 0.205,-1.26 0.719,-1.74 0.477,-0.441 1.262,-0.816 2.252,-0.955 L 2.486,14.394 C 4.705,14.087 6.105,13.473 7.127,12.518 8.424,11.289 9.002,9.518 9.002,7.367 9.002,2.66 5.08,0 0,0"
             style="fill:#10427a;fill-opacity:1;fill-rule:nonzero;stroke:none"
             id="path226" /></g><g
           id="g228"
           transform="translate(284.9014,153.7012)"><path
             d="m 0,0 c -3.682,0 -6.48,0.781 -8.869,3.203 l 3.07,3.07 c 1.535,-1.531 3.617,-2.046 5.869,-2.046 2.795,0 4.299,1.06 4.299,3.003 0,0.852 -0.242,1.567 -0.754,2.047 -0.474,0.442 -1.023,0.68 -2.148,0.852 l -2.932,0.408 c -2.08,0.307 -3.615,0.955 -4.709,2.016 -1.16,1.16 -1.738,2.728 -1.738,4.775 0,4.33 3.207,7.367 8.457,7.367 3.346,0 5.766,-0.82 7.846,-2.832 l -3,-2.968 c -1.536,1.468 -3.377,1.673 -4.981,1.673 -2.525,0 -3.752,-1.4 -3.752,-3.07 0,-0.615 0.203,-1.264 0.717,-1.74 0.475,-0.445 1.26,-0.82 2.25,-0.955 l 2.865,-0.41 c 2.219,-0.305 3.615,-0.92 4.641,-1.875 1.295,-1.229 1.875,-3 1.875,-5.151 C 9.006,2.66 5.084,0 0,0"
             style="fill:#10427a;fill-opacity:1;fill-rule:nonzero;stroke:none"
             id="path230" /></g><g
           id="g232"
           transform="translate(307.8936,171.0293)"><path
             d="m 0,0 -3.07,-8.836 6.037,0 L 0,0 z m 5.662,-17.127 -1.432,4.301 -8.63,0 -1.465,-4.301 -4.949,0 8.835,24.291 3.719,0 8.867,-24.291 -4.945,0 z"
             style="fill:#10427a;fill-opacity:1;fill-rule:nonzero;stroke:none"
             id="path234" /></g><g
           id="g236"
           transform="translate(331.7061,171.0293)"><path
             d="m 0,0 -3.07,-8.836 6.035,0 L 0,0 z m 5.66,-17.127 -1.431,4.301 -8.629,0 -1.469,-4.301 -4.947,0 8.836,24.291 3.72,0 8.865,-24.291 -4.945,0 z"
             style="fill:#10427a;fill-opacity:1;fill-rule:nonzero;stroke:none"
             id="path238" /></g><g
           id="g240"
           transform="translate(355.8877,173.9629)"><path
             d="m 0,0 -4.469,0 0,-6.414 4.469,0 c 2.08,0 3.445,1.33 3.445,3.205 C 3.445,-1.334 2.08,0 0,0 m 3.686,-20.061 -4.741,9.692 -3.414,0 0,-9.692 -4.742,0 0,24.291 9.52,0 c 4.947,0 7.879,-3.378 7.879,-7.439 0,-3.41 -2.083,-5.525 -4.434,-6.377 l 5.422,-10.475 -5.49,0 z"
             style="fill:#10427a;fill-opacity:1;fill-rule:nonzero;stroke:none"
             id="path242" /></g><g
           id="g244"
           transform="translate(370.3525,153.9023)"><path
             d="m 0,0 0,24.291 4.742,0 0,-20.061 11.016,0 0,-4.23 L 0,0 z"
             style="fill:#10427a;fill-opacity:1;fill-rule:nonzero;stroke:none"
             id="path246" /></g><g
           id="g248"
           transform="translate(399.4854,171.0293)"><path
             d="m 0,0 -3.07,-8.836 6.037,0 L 0,0 z m 5.662,-17.127 -1.435,4.301 -8.629,0 -1.467,-4.301 -4.945,0 8.835,24.291 3.717,0 8.869,-24.291 -4.945,0 z"
             style="fill:#10427a;fill-opacity:1;fill-rule:nonzero;stroke:none"
             id="path250" /></g><g
           id="g252"
           transform="translate(428.8213,153.9023)"><path
             d="m 0,0 -9.617,14.908 0,-14.908 -4.742,0 0,24.291 4.23,0 9.617,-14.875 0,14.875 4.742,0 L 4.23,0 0,0 z"
             style="fill:#10427a;fill-opacity:1;fill-rule:nonzero;stroke:none"
             id="path254" /></g><g
           id="g256"
           transform="translate(452.6318,172.4629)"><path
             d="m 0,0 c -0.818,0.986 -1.91,1.5 -3.545,1.5 l -3.586,0 0,-15.83 3.586,0 c 1.635,0 2.727,0.514 3.545,1.502 0.889,1.09 1.025,2.832 1.025,6.514 C 1.025,-2.629 0.889,-1.094 0,0 m 3.311,-16.24 c -1.606,-1.604 -3.891,-2.321 -6.416,-2.321 l -8.766,0 0,24.291 8.766,0 c 2.525,0 4.81,-0.718 6.416,-2.32 2.726,-2.728 2.455,-6.074 2.455,-9.724 0,-3.651 0.271,-7.196 -2.455,-9.926"
             style="fill:#10427a;fill-opacity:1;fill-rule:nonzero;stroke:none"
             id="path258" /></g><g
           id="g260"
           transform="translate(464.333,153.9023)"><path
             d="m 0,0 0,24.291 16.002,0 0,-4.23 -11.262,0 0,-5.7 9.586,0 0,-4.23 -9.586,0 0,-5.901 11.262,0 0,-4.23 L 0,0 z"
             style="fill:#10427a;fill-opacity:1;fill-rule:nonzero;stroke:none"
             id="path262" /></g><g
           id="g264"
           transform="translate(492.9893,153.7012)"><path
             d="m 0,0 c -3.684,0 -6.484,0.781 -8.869,3.203 l 3.07,3.07 c 1.535,-1.531 3.615,-2.046 5.865,-2.046 2.797,0 4.301,1.06 4.301,3.003 0,0.852 -0.24,1.567 -0.754,2.047 -0.476,0.442 -1.021,0.68 -2.146,0.852 l -2.936,0.408 c -2.08,0.307 -3.615,0.955 -4.705,2.016 -1.16,1.16 -1.74,2.728 -1.74,4.775 0,4.33 3.205,7.367 8.457,7.367 3.344,0 5.766,-0.82 7.85,-2.832 L 5.387,18.895 c -1.535,1.468 -3.375,1.673 -4.981,1.673 -2.523,0 -3.75,-1.4 -3.75,-3.07 0,-0.615 0.205,-1.264 0.715,-1.74 0.481,-0.445 1.266,-0.82 2.254,-0.955 l 2.863,-0.41 c 2.219,-0.305 3.619,-0.92 4.639,-1.875 1.299,-1.229 1.875,-3 1.875,-5.151 C 9.002,2.66 5.082,0 0,0"
             style="fill:#10427a;fill-opacity:1;fill-rule:nonzero;stroke:none"
             id="path266" /></g></g></g></g></svg>